<svg id="レイヤー_1" data-name="レイヤー 1" xmlns="http://www.w3.org/2000/svg" xmlns:xlink="http://www.w3.org/1999/xlink" viewBox="0 0 449 402"><defs><style>.cls-1{fill:none;}.cls-2{clip-path:url(#clip-path);}.cls-3{fill:#bdad9f;}.cls-4{fill:#fefefd;}.cls-5{fill:#ece2d8;}.cls-6{fill:#d5ccc3;}.cls-7{fill:#f47d61;}.cls-8{fill:#f39565;}.cls-9{fill:#ebdfc7;}.cls-10{fill:#ecdfc7;}.cls-11{fill:#f49462;}.cls-12{fill:#f49563;}.cls-13{fill:#f1b079;}.cls-14{fill:#f1b078;}.cls-15{fill:#f57c5f;}.cls-16{fill:#ecc750;}.cls-17{fill:#f57b5e;}.cls-18{fill:#ecce71;}.cls-19{fill:#f55e3c;}.cls-20{fill:#f55e3b;}.cls-21{fill:#f95329;}.cls-22{fill:#f7e5df;}.cls-23{fill:#f7ebe2;}.cls-24{fill:#7d746b;}.cls-25{fill:#f7e2d8;}.cls-26{fill:#f7ede5;}.cls-27{opacity:0.62;}</style><clipPath id="clip-path"><polygon class="cls-1" points="223.91 401.61 0 305.46 0 0 449 0 449 305.46 223.91 401.61"/></clipPath></defs><title>pazzle2048</title><g class="cls-2"><path class="cls-3" d="M589.88-93.12v611l-9.51,6.15H-24.47l-9.14-6.78V-91.39l2.71-5.27,5.29-2.69H576C583.12-99.35,585.21-98.37,589.88-93.12ZM-23.23,141.73l-2.08,2.08c0,17.3.07,34.59-.05,51.88,0,4.41.15,8.62,2.95,12.33H40.37L43,205.37V142.29l-3.91-2.63H-21.15ZM51.59,374.51q0,30.14,0,60.27l2.61,3.88h63.13L120,436V375c-1.61-5.32-4.61-4.66-7.35-4.66H54.39ZM120.18-7.91v-5.31A21.94,21.94,0,0,0,108-16.3c-14.88.2-29.76,0-44.64.16-3.83.05-7.65,1.17-11.54,1.81V51.2l2.79,3.24c2,0,4,.55,5.41-.09,9.56-4.25,19.56-.92,29.29-2,9.46,4.36,19.19,1.18,28.81,1.92v-4c3.44-.35,2-3,2-4.7C120.22,27.75,120.18,9.92,120.18-7.91ZM504.67,434.78V374.51l-2.8-4.16c-19.51,0-38.88,0-58.25,0-2.84,0-5.55-.13-7.35,3.18V436l2.66,2.66h63.13ZM208.14-22.82h63.08l2.48-2.48V-91.46C269.36-92,265.18-93,261-93c-14.2-.2-28.4-.09-42.6-.07-4.61,0-9.44-.76-12.9,3.27v64.36Zm-11.42-2.4V-88.27L194-91c-21.16,0-42.53,0-63.91,0a1.65,1.65,0,0,0-.88.36c-.27.19-.46.49-.36.39v65l2.65,2.65h62.65ZM362-22.76h63l2.32-2.32v-65.7H362l-2.66,2.66v62.73ZM515.73,284.77h63.08l2.75-2.75c0-19.19,0-38.56,0-57.93,0-2.84.14-5.55-3.18-7.36H517.64c-5.32,1.61-4.65,4.61-4.65,7.35,0,19.37,0,38.74,0,57.93Zm0,76.9h63.08l2.75-2.75c0-19.19,0-38.56,0-57.93,0-2.84.13-5.55-3.17-7.35H515.92l-2.66,2.66v62.9ZM282.65,373.1v63.08l2.48,2.48H348l2.66-2.66V375c-1.61-5.33-4.62-4.66-7.36-4.66H285.4Zm67.85-167.61V142.41L348,139.93h-62.9l-2.66,2.66V205.1c1.8,3.31,4.52,3.19,7.36,3.18,19.37-.06,38.74,0,57.93,0ZM271.22,447.61H208.14l-2.48,2.48V513l2.66,2.66H271L273.7,513v-62.9Zm14.18-316.27h62.35l3.12-3.14c0-19.17,0-38.54,0-57.92,0-2.84.14-5.55-3.18-7.36h-62.3c-3.31,1.8-3.18,4.51-3.17,7.35.06,19.37,0,38.74,0,57.93Zm151,11.07v63.08l2.75,2.75c19.19,0,38.56,0,57.93,0,2.83,0,5.55.14,7.36-3.18V142.59l-2.66-2.66h-62.9ZM425,63.12H361.94l-2.75,2.75c0,19.19,0,38.56,0,57.93,0,2.84-.14,5.55,3.18,7.36h62.51l2.66-2.66V65.6Zm88.33,79.28v63.08l2.48,2.48h62.9l2.66-2.66V142.8c-1.8-3.31-4.52-3.18-7.35-3.17-19.37.06-38.74,0-57.93,0ZM285,54.08h63.09l2.47-2.47V-11.3L347.94-14h-61c-5.33,1.62-4.66,4.62-4.66,7.36,0,19.37,0,38.74,0,57.91ZM271.22-13.78H208.14L205.39-11c0,19.19,0,38.56,0,57.93,0,2.84-.14,5.55,3.18,7.36h62.3c3.31-1.8,3.18-4.52,3.17-7.35-.06-19.37,0-38.74,0-57.93Zm79.28-11.43V-88.29L347.75-91c-19.19,0-38.56,0-57.93,0-2.84,0-5.55-.14-7.35,3.18v62.51l2.66,2.66H348ZM501.92,216.92H438.83l-2.75,2.75c0,19.19,0,38.56,0,57.93,0,2.84-.14,5.55,3.18,7.35h62.51l2.66-2.66V219.4Zm2.54-230.7H438.84l-2.66,2.66V48.46L441,54.2H501.8l2.66-2.66ZM513,49.07h1.34l3.24,5.1h61.1l2.84-2.84c0-21.06,0-42.48,0-63.91a1.65,1.65,0,0,0-.37-.88,4.46,4.46,0,0,0-.71-.65h-64.4l-3,3ZM581.2-25.21V-90.83H516.13C512.68-89,513-86.21,513-83.42c0,18.67,0,37.34,0,55.11l5,5.77h60.58ZM436.08-87.92q0,30.14,0,60.27l4.87,4.86h60.94l2.53-2.54V-90.77h-65.5ZM52-90.83v65.62l2.66,2.66h59.56l6-5c0-19.17,0-37.53,0-55.88,0-2.79.28-5.58-3.17-7.41ZM427.41,51.69V-11.38l-2.5-2.5H362l-2.66,2.66V48.63l4.74,5.71h60.62ZM196.72,49.61v-61l-2.51-2.51H131.36l-2.66,2.66V51.43c1.72,2.94,4.29,3.08,7.2,3.06,18.68-.1,37.36-.05,55.92-.05Zm307.95,78.61q0-31.21,0-62.35l-3.14-3.12c-19.16,0-38.51,0-57.87,0-2.81,0-5.57-.22-7.38,3.17v59.58l4.74,5.75h60.63ZM513,65.87q0,30.16,0,60.25l4.9,4.9h60.88l2.59-2.59V65.66L578.7,63H515.85ZM436.3,512.5l2.71,3.28h62.61l2.72-2.72V450l-2.78-2.78c-19.47,0-39.18-.05-58.88.08-2.14,0-4.27,1.11-6.37,1.7ZM268.78,137.58H208.47l-4.9,5.08V203.3l4.78,4.78H268l5.88-4.81V142.7ZM-25-91.35v66.13l2.77,2.77c19.48,0,39.18.05,58.88-.08,2.14,0,4.27-1.11,6.37-1.7V-86.78l-4.82-6.34c-17.43,0-34.39-.1-51.35.08C-17-93-20.81-92-25-91.35ZM359.18,279.94l4.87,4.87h64c.63-4.1,1.66-7.92,1.71-11.76.2-14.53.09-29.07.07-43.61,0-4.59.8-9.43-3.33-12.79H362.17c-2.82,3.79-3.07,8-3,12.4C359.26,246,359.18,263,359.18,279.94ZM117.42,293.82H54.34l-2.48,2.48v62.9l2.66,2.66h62.72l2.66-2.66v-62.9ZM128.85,63v65.6l2.57,2.57h61c5.34-1.62,4.66-4.61,4.66-7.34q0-29,0-57.94l-2.9-2.9ZM285,284.77h63.08l2.75-2.75c0-19.19,0-38.56,0-57.93,0-2.83.14-5.55-3.18-7.36H286.94c-5.31,1.61-4.65,4.61-4.65,7.35,0,19.37,0,38.74,0,57.93Zm153.8,76.9h63.08l2.48-2.48V296.3l-2.66-2.66H439.22c-3.3,1.8-3.18,4.51-3.17,7.35.06,19.37,0,38.74,0,57.93ZM427.1,140H364l-2.75,2.75c0,19.19,0,38.56,0,57.93,0,2.84-.13,5.55,3.17,7.35h60.78c5.33-1.61,4.66-4.62,4.66-7.36,0-19.37,0-38.74,0-57.93Zm88.64,298.55h63.08l2.75-2.75c0-19.19,0-38.56,0-57.93,0-2.84.14-5.55-3.18-7.36H517.64c-5.31,1.61-4.65,4.61-4.65,7.35,0,19.37,0,38.74,0,57.93ZM427.4,513.08V450l-2.48-2.48H362l-2.66,2.66V512.9l2.66,2.66h62.9Zm-450,2.38H40.53l2.75-2.75c0-19.19,0-38.56,0-57.93,0-2.84.14-5.55-3.18-7.35H-22.37L-25,450.09V513Zm370.67-67.85H285l-2.75,2.75c0,19.19,0,38.56,0,57.93,0,2.83-.14,5.55,3.18,7.36h62.3c3.3-1.8,3.18-4.51,3.17-7.35-.06-19.37,0-38.74,0-57.93ZM128.86,296.2v63.08l2.48,2.48h62.9l2.66-2.66V296.39l-2.66-2.66h-62.9ZM40.46,63.05H-25.08v65.4l2.63,2.63H40.43l2.66-2.66c0-20.78,0-41.76,0-62.74ZM209.63,63c-4.74,1.54-4.26,4.45-4.26,7.24,0,19.38,0,38.76,0,58l2.78,2.78h63l2.78-2.78c0-19.47.05-39.18-.08-58.88,0-2.14-1.11-4.27-1.7-6.37ZM581.2,513.08V450l-2.75-2.75c-19.19,0-38.56,0-57.93,0-2.84,0-5.55-.14-7.36,3.18v62.3c1.8,3.31,4.52,3.18,7.35,3.17,19.37-.06,38.74,0,57.93,0ZM208.14,284.77h63.08L274,282c0-19.19,0-38.56,0-57.93,0-2.84.14-5.55-3.18-7.35H208.32l-2.66,2.66v62.9Zm-76.9,230.7h63.08L196.8,513v-62.9l-2.66-2.66H131.42l-2.66,2.66V513ZM282.65,296.2v63.08L285.4,362c19.19,0,38.56,0,57.93,0,2.84,0,5.55.14,7.35-3.18V296.6c-1.8-3.31-4.52-3.19-7.35-3.18-19.37.06-38.74,0-57.93,0ZM52,142.41v63.08L54.44,208h62.9l2.66-2.66V142.8c-1.8-3.31-4.52-3.18-7.35-3.18-19.37.06-38.74,0-57.93,0Zm65.47,305.21H54.34l-2.48,2.48V513l2.66,2.66h61c5.33-1.61,4.66-4.62,4.66-7.36,0-19.37,0-38.74,0-57.93Zm88.33-74.51v63.08l2.48,2.48h62.9l2.66-2.66V375c-1.61-5.33-4.62-4.66-7.36-4.66H208.51ZM425,293.82H361.94l-2.75,2.75c0,19.19,0,38.56,0,57.93,0,2.84-.14,5.55,3.18,7.36h62.3c3.31-1.8,3.18-4.51,3.17-7.35-.06-19.37,0-38.74,0-57.93ZM196.71,205.49V142.41L194,139.66c-19.19,0-38.56,0-57.93,0-2.84,0-5.55-.13-7.35,3.17v60.78c1.61,5.33,4.62,4.66,7.36,4.66h57.91ZM54.34,131h63.08l2.75-2.75c0-19.19,0-38.56,0-57.93,0-2.84.14-5.55-3.18-7.36H54.73c-3.31,1.8-3.18,4.52-3.17,7.35.06,19.37,0,38.74,0,57.93ZM43.12-11.85C41.49-12.57,39.75-14,38-14c-21-.16-41.94-.1-63.1-.1V51.49l2.62,2.65h63l2.66-2.66Zm153.59,448V373.1l-2.48-2.48h-62.9l-2.66,2.66V436l2.66,2.66h62.9ZM117.43,216.92H54.34l-2.48,2.48v62.9L54.53,285h62.72l2.66-2.66V219.4Zm-76.9,153.8H-22.56l-2.75,2.75c0,19.19,0,38.56,0,57.93,0,2.84-.13,5.55,3.17,7.35H40.34L43,436.09v-62.9Zm387.24,65.1c0-19.4-.07-38.8.08-58.19,0-3-.45-5.39-3.33-7.27-19.05,0-38.42,0-57.79,0-2.84,0-5.55-.13-7.35,3.17v60.79c1.62,5.33,4.62,4.66,7.36,4.66h57.93ZM42.91,359.28V296.2l-2.48-2.48h-62.9l-2.66,2.66V359.1l2.66,2.66h62.9Zm165.23,2.39h63.08l2.75-2.75c0-19.19,0-38.56,0-57.93,0-2.84.13-5.55-3.17-7.35H208.32l-2.66,2.66v62.9Zm-230.69-76.9H40.53L43.28,282c0-19.19,0-38.56,0-57.93,0-2.83.14-5.55-3.18-7.36H-22.37L-25,219.4v62.9ZM128.86,219.3v63.09l2.75,2.75c19.19,0,38.56,0,57.93,0,2.84,0,5.55.13,7.35-3.17V221.21c-1.62-5.33-4.62-4.66-7.36-4.66H131.63Z"/><path class="cls-4" d="M589.88-93.12c-4.67-5.25-6.76-6.23-13.86-6.23H-25.6l-5.29,2.69-2.71,5.27V517.29l9.14,6.78H580.37l9.51-6.15v8.31H-35.7V-101.43H589.88Z"/><path class="cls-5" d="M282.65,373.1l2.75-2.75h57.93c2.74,0,5.74-.67,7.36,4.66v61L348,438.66h-62.9l-2.48-2.48Z"/><path class="cls-5" d="M350.51,205.49l-2.75,2.75c-19.19,0-38.56,0-57.93,0-2.84,0-5.55.14-7.36-3.18V142.59l2.66-2.66H348l2.48,2.48Z"/><path class="cls-6" d="M285.4,131.34l-3.12-3.12c0-19.19,0-38.56,0-57.93,0-2.84-.13-5.55,3.17-7.35h62.3c3.32,1.8,3.19,4.52,3.18,7.36-.06,19.37,0,38.74,0,57.92l-3.12,3.13Z"/><path class="cls-6" d="M436.45,142.41l2.48-2.48h62.9l2.66,2.66V205.1c-1.8,3.32-4.52,3.19-7.36,3.18-19.37-.06-38.74,0-57.93,0l-2.75-2.75Z"/><path class="cls-6" d="M425,63.12l2.48,2.48v62.9l-2.66,2.66H362.33c-3.31-1.8-3.19-4.52-3.18-7.36.06-19.37,0-38.74,0-57.93l2.75-2.75Z"/><path class="cls-6" d="M285,54.08l-2.75-2.77c0-19.17,0-38.54,0-57.91,0-2.74-.67-5.74,4.66-7.36h61l2.66,2.66V51.6l-2.47,2.47Z"/><path class="cls-6" d="M271.22-13.78,274-11c0,19.19,0,38.56,0,57.93,0,2.84.13,5.55-3.17,7.35h-62.3c-3.32-1.8-3.19-4.52-3.18-7.36.06-19.37,0-38.74,0-57.93l2.75-2.75Z"/><path class="cls-6" d="M501.92,216.92l2.48,2.48v62.9L501.73,285H439.23c-3.31-1.8-3.18-4.52-3.18-7.35.06-19.37,0-38.74,0-57.93l2.75-2.75Z"/><path class="cls-6" d="M504.46-13.78V51.54L501.8,54.2H441l-4.79-5.74V-11.12l2.66-2.66Z"/><path class="cls-6" d="M427.41,51.69l-2.66,2.66H364.13l-4.74-5.71V-11.23L362-13.89h62.86l2.5,2.5Z"/><path class="cls-6" d="M196.72,49.61l-4.9,4.83c-18.56,0-37.24-.05-55.92.05-2.91,0-5.48-.12-7.2-3.06V-11.23l2.66-2.66h62.85l2.51,2.51Z"/><path class="cls-6" d="M504.67,128.22l-3,3H441l-4.74-5.75V65.91c1.81-3.4,4.57-3.18,7.38-3.17,19.36,0,38.71,0,57.87,0l3.14,3.12Q504.67,97,504.67,128.22Z"/><path class="cls-7" d="M268.78,137.58l5.13,5.13v60.57L268,208.08H208.34l-4.78-4.78V142.65l4.9-5.08Zm-39.06,39.64c2.39.86,2.39.86,1.53,4.06l-8.59-2.73,3.82,6.43c6.33.16,6.33.16,9.73-2.57V167.35l-2.86-2.86-9.77.6Zm21.41-8.51-7.64,9.07-2.28,7.3h11.26l3-3-7-4.48L253,174.3v-6.79c-5.52-3.89-6.51-3.95-11.46-.58-.29.2-.23.92-.42,1.78Z"/><path class="cls-8" d="M359.18,279.94c0-17,.08-33.92-.05-50.88,0-4.42.22-8.62,3-12.4h64.34c4.13,3.36,3.32,8.19,3.33,12.79,0,14.54.13,29.08-.07,43.61-.05,3.84-1.09,7.66-1.71,11.76h-64Zm37.23-33.09c1.34,4.91-2.36,10.86,3.13,15.24H408c4.24-2.36,3.1-6,3-9.62l-5.45-3.71,4.32-7h-8.34Z"/><path class="cls-9" d="M117.42,293.82l2.48,2.48v62.9l-2.66,2.66H54.53l-2.66-2.66V296.3l2.48-2.48ZM82.76,322.73v7.69l-7.1,1.2,3.65,5.57c4.72-.4,9.37.5,13.5-.51v-5.46l-6.22-1v-7.52Z"/><path class="cls-5" d="M128.85,63h65.33l2.9,2.9q0,28.92,0,57.94c0,2.73.67,5.72-4.66,7.34h-61l-2.57-2.57Zm41.21,41.93-5.9-1.16,5.77-9.17-5-7.11-7.72.66.84,3.47,5.45.63v4.91c-2.48,3.56-6.88,5.57-8.63,10.79a55.2,55.2,0,0,0,15.14.18Z"/><path class="cls-10" d="M285,284.77,282.29,282c0-19.19,0-38.56,0-57.93,0-2.74-.66-5.74,4.65-7.35h60.79c3.32,1.8,3.19,4.52,3.18,7.36-.06,19.37,0,38.74,0,57.93l-2.75,2.75Zm34.54-20.28,4.1-7.87c-.68-2.73-1.45-5.18-1.86-7.69s-.43-5-.73-9l-7.71,6.63v4.6l-4.12,1.46.35,5.77h7.47Z"/><path class="cls-10" d="M438.84,361.67l-2.75-2.75c0-19.19,0-38.56,0-57.93,0-2.84-.13-5.55,3.17-7.35h62.51l2.66,2.66v62.9l-2.48,2.48Zm35.67-45.31-11.57,14.19.49,5.8,12.06,2.91c.71-2,2.68-4.88,1.95-6C474.47,328.62,476.39,323.45,474.51,316.36Z"/><path class="cls-10" d="M427.1,140l2.75,2.75c0,19.19,0,38.56,0,57.93,0,2.74.67,5.74-4.66,7.36H364.4c-3.31-1.8-3.18-4.51-3.17-7.35.06-19.37,0-38.74,0-57.93L364,140Zm-31.57,26.65L386.13,179c2.18,7.31,10,2,12.78,6.61l3.25-2.51c-.56-5.48-1-9.65-1.44-13.8a14.8,14.8,0,0,0-.77-2.6Z"/><path class="cls-11" d="M128.86,296.2l2.48-2.48h62.9l2.66,2.66V359.1l-2.66,2.66h-62.9l-2.48-2.48Zm49.31,22.55h-10l-4.12,6.95v8.56l5,5c2.92-.37,6.56,1.18,8.86-2.76v-10h-7.57l-.24-3.86h8.07Z"/><path class="cls-12" d="M40.46,63.05l2.63,2.62c0,21,0,42,0,62.74l-2.66,2.66H-22.46l-2.63-2.63V63.05ZM24.35,96.87a6.48,6.48,0,0,0-7-3c-.17,0-.48-.87-1.1-2.08h8.3L24.31,88H14.93L10,92.88v10.27l1-1,4.3,7,9-2.39Z"/><path class="cls-13" d="M209.63,63h62.56c.59,2.1,1.69,4.23,1.7,6.37.13,19.71.08,39.42.08,58.88L271.19,131h-63l-2.78-2.78c0-19.26,0-38.64,0-58C205.37,67.41,204.9,64.51,209.63,63Zm23,42.57,2.53,2.53h10.39l-2.08-4.41,4.09-12.83c-5.3-2.19-9.93-6.07-14.94-.18Z"/><path class="cls-12" d="M208.14,284.77l-2.48-2.48V219.4l2.66-2.66h62.51c3.31,1.8,3.19,4.52,3.18,7.35-.06,19.37,0,38.74,0,57.93l-2.75,2.75Zm47.49-25.83-1.9-12.45,2-4.57H245.55a15,15,0,0,0-4.92,12.92l5.2,7.43c2.66,0,4.47.34,6.06-.11C253.06,261.83,253.93,260.47,255.63,258.95Z"/><path class="cls-12" d="M282.65,296.2l2.75-2.75c19.19,0,38.56,0,57.93,0,2.84,0,5.55-.14,7.35,3.18v62.3c-1.8,3.31-4.52,3.19-7.35,3.18-19.37-.06-38.74,0-57.93,0l-2.75-2.75Zm50.08,22.55H322l-4.11,7v6.8l4.64,6.71c3.9-.14,7.21.84,9.81-4.08l-1.55-12.07Z"/><path class="cls-11" d="M52,142.41l2.75-2.75c19.19,0,38.56,0,57.93,0,2.84,0,5.55-.14,7.35,3.18v62.51L117.33,208H54.44L52,205.49Zm49.89,38.69-2-10.73,1.67-5.5H93.54l-6.43,4.49v10L92,185.41C95.46,185.21,98.77,186.28,101.85,181.09Z"/><path class="cls-14" d="M205.76,373.1l2.75-2.75h57.93c2.74,0,5.74-.67,7.36,4.66v61l-2.66,2.66h-62.9l-2.48-2.48Zm28.13,32.06c-2.76,3.43-2.6,7.2,1.43,10.7h9.47c.72-1.75,2-3.5,2-5.26,0-2.07-1.6-4.17-1.52-6.22s1.41-4,2.1-5.73c-5.5-4.19-10.18-3.65-15.3-.08Z"/><path class="cls-14" d="M425,293.82l2.75,2.75c0,19.19,0,38.56,0,57.93,0,2.84.13,5.55-3.17,7.35h-62.3c-3.32-1.8-3.19-4.52-3.18-7.36.06-19.37,0-38.74,0-57.93l2.75-2.75Zm-39.25,27.94,2,6.91c-2.8,6-2.78,6.2,1.22,10.21h8.76c6.53-4.31-.07-10.42,2.82-15.11.46-.75-1.14-2.79-1.83-4.22-.14-.29-.47-.49-.71-.73C393.45,316.92,389.94,319.74,385.76,321.76Z"/><path class="cls-13" d="M196.71,205.49l-2.76,2.75H136c-2.74,0-5.74.67-7.36-4.66V142.8c1.8-3.31,4.51-3.18,7.35-3.17,19.37.06,38.74,0,57.93,0l2.75,2.75Zm-38.12-40.86c-1.49,1.49-2.86,2.25-2.83,2.94.12,2.36,1.88,5.47.92,6.87-1.83,2.7-.92,5.26-1,7.8,0,.92,1.8,1.9,2.83,2.92h9.06c.86-1.47,2.24-2.81,2.36-4.26.18-2.19.71-4.47-1.28-6.7-.78-.87,1.38-3.94,1.23-5.94-.1-1.34-1.91-2.55-2.8-3.63Z"/><path class="cls-13" d="M54.34,131l-2.75-2.75c0-19.19,0-38.56,0-57.93,0-2.84-.13-5.55,3.17-7.35H117c3.32,1.8,3.19,4.52,3.18,7.36-.06,19.37,0,38.74,0,57.93L117.42,131ZM81.73,87.7,78.38,91,80,97.61c-2.35,3.3-2.73,7.12,1.74,10.87h8.36c1.2-1.33,2.84-2.31,2.87-3.34.08-2.54.71-5.08-1.17-7.74-1-1.36.94-4.52.89-6.86,0-1-1.68-2-2.43-2.85Z"/><path class="cls-15" d="M43.12-11.85V51.49l-2.66,2.66h-63l-2.62-2.65V-14.14C-4-14.14,17-14.2,38-14,39.75-14,41.49-12.57,43.12-11.85ZM24.35,17.76,19.07,9.92,9.89,13.14l.3,1.27,9.06,1.34c-2.56,4.93-6.46,7.32-8.86,10.32V31.7c5-.46,9.66.48,15.21-.9l-4.72-6.56ZM.8,27.59l-9.19-3,4.64,6.87H2.1l5.51-4.6L5.16,13C3.4,9.73-.26,10.87-4.2,10.9l-3.45,7,8.89-3.33.51,3.48-4.1,2.29C-2.76,24.41,4,22.11.8,27.59Z"/><path class="cls-15" d="M196.71,436.18l-2.48,2.48h-62.9L128.67,436V373.28l2.66-2.66h62.9l2.48,2.48Zm-30.33-40.74-3.93,6.4L172,400.1l.25,4.67-8.09,6.49v4.29h14.45l-.62-3.27-5.55-.92L179,401l-5.54-5.55ZM149.79,405l5.73,4.36L155,412h-9.63l6.53,3.86h7l2.86-2.86L159,397.7c-2.43-3.27-5.77-2.54-9.4-2.05l-3,5.24L157,402.35Z"/><path class="cls-15" d="M117.43,216.92l2.48,2.48v62.9L117.24,285H54.53l-2.66-2.66V219.4l2.48-2.48ZM101.1,258.51l-5.53-.78L102,247.19l-5.41-5.4H89.18L86,248.09l9.78-1.64c-2.2,4.6-2.82,9.79-8.39,10.24v8l14.21-3.32ZM72.55,241.73l-3.12,6.79,8.81-3.24.28,3.41-4,2.6c-.1,3.74,6.37,1.7,3.25,7H70.09c2.57,4.9,6.25,4.27,8,4l6.4-4.65-2.38-13.9C80.12,240.55,76.59,241.42,72.55,241.73Z"/><path class="cls-16" d="M40.53,370.72,43,373.19v62.9l-2.66,2.66H-22.17c-3.3-1.8-3.18-4.51-3.17-7.35.06-19.37,0-38.74,0-57.93l2.75-2.75Zm-55.27,37.39h8v3.84h-7.92v3.81h9.46l4.7-4.7C.85,404.25-4,403.51-9.26,403c1.49-1.17,6.41-6.5,6.72-7.32h-9.65l-2.55,2.55ZM32,403.56l-4.58-8.86c-4.26,1.31-7.73,1.77-10.24,6.76,3.27-.41,5.3-.65,7.32-.94a18.27,18.27,0,0,0,2.09-.57v4.21c-2.32,4.36-7.91,5.82-8.43,11.5h14.7l-.31-3.29-5.68-.93Z"/><path class="cls-17" d="M427.77,435.82l-3.12,3.12H366.73c-2.74,0-5.74.67-7.36-4.66V373.49c1.8-3.3,4.51-3.18,7.35-3.17,19.37.06,38.74,0,57.79,0,2.89,1.89,3.36,4.26,3.33,7.27C427.7,397,427.77,416.41,427.77,435.82ZM393.42,401.9l9.31-1.63V405l-7.79,6.18v5c5-.55,9.69.62,14.19-.79l-.26-3.06-6.52-1,6.33-6.34c1.35-6.15-3.09-7.25-4.73-9.48h-7.07Zm-.22-.93-7.27-5.63h-5.27l-4.31,6.18,11.53-1.3-5.77,5.07c-.37,3.62,6.37,1.32,3.3,6.62h-7.18l-.59,1.3,3.57,1.63-.72,1h8.21c7.25-3.19,2.11-7.42,1.51-10.62Z"/><path class="cls-15" d="M42.91,359.28l-2.48,2.48h-62.9l-2.66-2.66V296.39l2.66-2.66h62.9l2.48,2.48Zm-32.77-18c3.59,0,7.17,1,8.85-.29s7.18-.22,5.11-5.55l-5.49-.81,5.93-9.23-6.64-6.64H12.19l-3,6.29,9.55-1.78c-.93,2.47-1.28,4.91-2.62,6.52-1.57,1.9-4,3.08-6,4.49ZM.9,335H-8.55l6.87,3.9H5.05L8,333c-2.35-5-2.35-5-.35-9.37L2.9,318.44H-4.18l-3.45,7.08,8.88-3.33.49,3.48L-2.38,328C-2.73,332,4,329.72.9,335Z"/><path class="cls-15" d="M208.14,361.67l-2.48-2.48V296.3l2.66-2.66h62.51c3.3,1.8,3.18,4.51,3.17,7.35-.06,19.37,0,38.74,0,57.93l-2.75,2.75Zm41-33.79-8.1,6.5V341h11.69l3.37-5.29-6.71-1.31,6.4-10.18-5.4-5.69h-7.12L239.37,325l9.51-1.75Zm-21.95,1.53,5.25,2.48-.16,2.62-8.36,1.14c3.68,5.61,8.29,2.79,12.79,3.66.8-2.55,1.91-4.4,1.81-6.18-.12-2.17-1.48-4.24-1.87-6.43a24.37,24.37,0,0,1-.07-4.92c-3.23-4.39-6.59-3.48-10.25-2.92L223.08,325l10.62-1.75Z"/><path class="cls-18" d="M-22.55,284.77-25,282.3V219.4l2.66-2.66H40.13c3.32,1.8,3.19,4.52,3.18,7.36-.06,19.37,0,38.74,0,57.93l-2.75,2.75Zm52.49-42.93H21.1l-2.54,2.55v15L21.22,262h8.71l3.47-3.34-2.6-7.11C32.9,248.48,34.65,245.25,29.94,241.85Zm-19.79,8.28c-2.44,4.56-8,6-8.59,11.71H16.3l-.37-3.26-7.3-1.29,8.43-6.75-2.87-8.64H3.62l.83,6.71,5.3-2.9Z"/><path class="cls-18" d="M128.86,219.3l2.77-2.75h57.91c2.74,0,5.74-.67,7.36,4.66V282c-1.8,3.3-4.51,3.18-7.35,3.17-19.37-.06-38.74,0-57.93,0l-2.75-2.75Zm43.61,25v15.22l2.56,2.56h8.65c6.63-4.55-.27-11.07,2.83-16.08.41-.67-1.41-2.72-2.25-4.23H175Zm-9.07,7c-1.87,3.33-7.37,4.89-8.07,10.65H170l-.16-3.33-6.59-1L170,251.7v-7.18l-2.68-2.68h-9.82l.66,6.85,5.27-3.1Z"/><path class="cls-19" d="M39.12,139.66,43,142.29v63.08L40.37,208H-22.41c-2.79-3.71-3-7.92-2.95-12.33.12-17.29.05-34.59.05-51.88l2.08-2.08,2.08-2.08H37l.68,1.72ZM5.87,183.3c5.29.08,10.72-.91,15.5,2.28l2.48-4.81-2.18-17.32C16.48,166.91,13,170.2,11,175H5.87L0,169.15l5.66-.84V165H-1.8L-6.71,170c1.29,4.7-2.49,10.61,3.37,15.42C-.66,184.18,3.26,187.48,5.87,183.3Z"/><path class="cls-20" d="M504.67,434.78l-2.61,3.88H438.93L436.27,436V373.49c1.8-3.31,4.52-3.19,7.35-3.18,19.37.06,38.74,0,58.25,0l2.8,4.16c-.69.55-2,1.09-2,1.64q-.16,28.5,0,57C502.68,433.69,504,434.23,504.67,434.78Zm-35.33-24.94V404.1L463.21,403l5.18-7.25h-7.57l-5.91,4.46V411c4.61,5.45,9.52,3.2,14.43.94l14.5,4.66c.78-2.77,2.78-6.22,1.87-7.39-2.22-2.84-1.56-5.68-1.83-8.58-.16-1.81-.43-3.61-.74-6.1a15,15,0,0,0-7.66,7.17C473.86,404.64,471.41,407.14,469.34,409.84Z"/><path class="cls-10" d="M118.1,50.29v4c-9.62-.74-19.35,2.45-28.81-1.92-9.72,1.07-19.72-2.26-29.29,2-1.44.64-3.42.09-5.41.09L51.8,51.2V-14.33c3.89-.64,7.71-1.75,11.54-1.81,14.88-.21,29.76,0,44.64-.16a21.94,21.94,0,0,1,12.2,3.08v5.31h-6.24a32.49,32.49,0,0,1,0,4.69C113.32.3,112,3.79,112,7.29s1.37,7,1.87,10.5c.29,2,.91,4.83-.1,6.06-3.34,4-1.67,8.48-1.83,12.69C111.67,43.57,112.83,45.61,118.1,50.29Zm-27-37.41L88.29,9c-.8,3.63-4.88,3.79-2.67,8H89v3.21l4.31,2c-.13,3.19-4.38,5.73-1.47,9h7a11.22,11.22,0,0,0,.51-2.17c0-4.45,0-8.9,0-13l-3.09-3.2ZM78.81,32.06C83.21,31,85.59,29.54,84.2,25,80.66,25.84,78.3,27,78.81,32.06Z"/><path class="cls-20" d="M51.59,374.51l2.8-4.16h58.25c2.74,0,5.74-.66,7.35,4.66v61l-2.66,2.66H54.2l-2.61-3.88c.69-.55,2-1.09,2-1.64q.16-28.5,0-57C53.58,375.6,52.28,375.05,51.59,374.51Zm35.33,37.41c3.07,1.8,10.9,4.24,11.84,3.73l2-4.42-2-16c-6.42,3.28-9.78,7.52-11.81,14.66l-7.64-7.65,4.8-6.52L77,395.34l-6.68,4.94V413l2.79,2.79h8.22Z"/><path class="cls-9" d="M118.1,50.29c-5.27-4.67-6.42-6.72-6.15-13.75.17-4.21-1.5-8.67,1.83-12.69,1-1.22.39-4,.1-6.06-.5-3.53-1.87-7-1.87-10.5s1.3-7,1.89-10.5a32.49,32.49,0,0,0,0-4.69h6.24c0,17.83,0,35.66-.07,53.49C120.1,47.24,121.54,49.94,118.1,50.29Z"/><path class="cls-21" d="M51.59,374.51c.69.55,2,1.09,2,1.64q.16,28.5,0,57c0,.55-1.3,1.09-2,1.64Q51.59,404.64,51.59,374.51Z"/><path class="cls-21" d="M39.12,139.66l-1.39,1.72L37,139.66Z"/><path class="cls-22" d="M229.72,177.22l-6.14-12.13,9.77-.6,2.86,2.86v15.06c-3.41,2.74-3.41,2.74-9.73,2.57l-3.82-6.43,8.59,2.73C232.1,178.08,232.1,178.08,229.72,177.22Z"/><path class="cls-22" d="M251.12,168.71h-10c.19-.86.13-1.58.42-1.78,5-3.37,5.94-3.31,11.46.58v6.79l-4.54,3.27,7,4.48-3,3H241.2l2.28-7.3Z"/><path class="cls-23" d="M396.42,246.85l5.15-5.08h8.34l-4.32,7,5.45,3.71c.05,3.64,1.19,7.25-3,9.62h-8.43C394.05,257.71,397.75,251.76,396.42,246.85Z"/><path class="cls-6" d="M82.76,322.73h3.82v7.52l6.22,1v5.46c-4.13,1-8.78.1-13.5.51l-3.65-5.57,7.1-1.2Z"/><path class="cls-24" d="M170.06,104.91v3.19a55.2,55.2,0,0,1-15.14-.18c1.75-5.22,6.15-7.23,8.63-10.79V92.22l-5.45-.63-.84-3.47,7.72-.66,5,7.11-5.77,9.17Z"/><path class="cls-24" d="M319.58,264.49l-2.5-6.08h-7.47l-.35-5.77,4.12-1.46v-4.6l7.71-6.63c.3,4,.33,6.5.73,9s1.18,5,1.86,7.69Z"/><path class="cls-24" d="M395.53,166.67H400a14.8,14.8,0,0,1,.77,2.6c.48,4.16.88,8.33,1.44,13.8l-3.25,2.51c-2.76-4.59-10.6.7-12.78-6.61Z"/><path class="cls-25" d="M178.17,318.75v3.87H170.1l.24,3.86h7.57v10c-2.29,3.94-5.94,2.39-8.86,2.76l-5-5V325.7l4.12-6.95Z"/><path class="cls-22" d="M24.35,96.87v9.94l-9,2.39-4.3-7-1,1V92.88L14.93,88h9.38l.2,3.79h-8.3c.63,1.21.94,2.11,1.1,2.08A6.48,6.48,0,0,1,24.35,96.87Z"/><path class="cls-23" d="M232.59,105.54V90.67c5-5.89,9.64-2,14.94.18l-4.09,12.83,2.08,4.41H235.12Z"/><path class="cls-25" d="M255.63,258.95c-1.7,1.52-2.57,2.89-3.74,3.22-1.59.45-3.4.11-6.06.11l-5.2-7.43a15,15,0,0,1,4.92-12.92h10.13l-2,4.57Z"/><path class="cls-25" d="M332.73,318.75l-1.94,4.31,1.55,12.07c-2.6,4.92-5.91,3.95-9.81,4.08l-4.64-6.71v-6.8l4.11-7Z"/><path class="cls-25" d="M101.85,181.09c-3.08,5.19-6.39,4.12-9.88,4.32l-4.85-6.07v-10l6.43-4.49h7.94l-1.67,5.5Z"/><path class="cls-26" d="M233.89,405.16l-1.8-6.58c5.12-3.57,9.8-4.11,15.3.08-.69,1.74-2,3.71-2.1,5.73s1.54,4.15,1.52,6.22c0,1.76-1.3,3.51-2,5.26h-9.47C231.28,412.36,231.13,408.59,233.89,405.16Z"/><path class="cls-26" d="M385.76,321.76c4.18-2,7.69-4.84,12.29-2.94.24.24.57.44.71.73.69,1.42,2.29,3.47,1.83,4.22-2.89,4.69,3.71,10.8-2.82,15.11H389c-4-4-4-4.25-1.22-10.21Z"/><path class="cls-23" d="M158.59,164.63h8.48c.89,1.08,2.7,2.29,2.8,3.63.15,2-2,5.07-1.23,5.94,2,2.23,1.46,4.52,1.28,6.7-.12,1.45-1.5,2.79-2.36,4.26H158.5c-1-1-2.87-2-2.83-2.92.1-2.54-.82-5.1,1-7.8,1-1.41-.8-4.51-.92-6.87C155.73,166.88,157.1,166.12,158.59,164.63Z"/><path class="cls-23" d="M81.73,87.7H90.3c.75.83,2.41,1.82,2.43,2.85.05,2.33-1.85,5.49-.89,6.86,1.88,2.66,1.25,5.2,1.17,7.74,0,1-1.67,2-2.87,3.34H81.78c-4.47-3.76-4.09-7.57-1.74-10.87L78.38,91Z"/><path class="cls-22" d="M24.35,17.76l-3.48,6.48L25.6,30.8c-5.54,1.38-10.22.44-15.21.9V26.06c2.4-3,6.3-5.38,8.86-10.32l-9.06-1.34-.3-1.27,9.19-3.23Z"/><path class="cls-25" d="M.8,27.59c3.17-5.47-3.57-3.18-3.16-7.2l4.1-2.29-.51-3.48-8.89,3.33,3.45-7c3.94,0,7.6-1.16,9.36,2.15L7.61,26.82,2.1,31.43H-3.75l-4.64-6.87Z"/><path class="cls-22" d="M166.38,395.44h7.08L179,401l-6.58,10.37,5.55.92.62,3.27H164.14v-4.29l8.09-6.49L172,400.1l-9.53,1.74Z"/><path class="cls-22" d="M149.79,405l7.22-2.6-10.49-1.46,3-5.24c3.63-.48,7-1.22,9.4,2.05L161.74,413l-2.86,2.86h-7L145.36,412H155l.53-2.65Z"/><path class="cls-22" d="M101.1,258.51l.47,2.86-14.21,3.32v-8c5.57-.44,6.19-5.64,8.39-10.24L86,248.09l3.21-6.29h7.39l5.41,5.4-6.41,10.53Z"/><path class="cls-22" d="M72.55,241.73c4-.31,7.56-1.18,9.51,2l2.38,13.9L78,262.28c-1.71.24-5.38.87-8-4h7.64c3.12-5.27-3.36-3.23-3.25-7l4-2.6-.28-3.41-8.81,3.24Z"/><path class="cls-25" d="M32,403.56l-5.14,7.88,5.68.93.31,3.29H18.19c.53-5.68,6.11-7.14,8.43-11.5v-4.21a18.27,18.27,0,0,1-2.09.57c-2,.29-4.05.53-7.32.94,2.51-5,6-5.45,10.24-6.76Z"/><path class="cls-25" d="M393.42,401.9l3.46-6.36h7.07c1.65,2.22,6.08,3.33,4.73,9.48l-6.33,6.34,6.52,1,.26,3.06c-4.5,1.41-9.19.24-14.19.79v-5l7.79-6.18v-4.75Z"/><path class="cls-25" d="M393.2,401l-3,4.22c.59,3.2,5.73,7.43-1.51,10.62h-8.21l.72-1-3.57-1.63.59-1.3h7.18c3.07-5.3-3.67-3-3.3-6.62l5.77-5.07-11.53,1.3,4.31-6.18h5.27Z"/><path class="cls-22" d="M10.14,341.25v-7c1.94-1.41,4.38-2.6,6-4.49,1.34-1.62,1.69-4.06,2.62-6.52L9.16,325l3-6.29h5.69l6.64,6.64-5.93,9.23,5.49.81c2.07,5.33-3.36,4.15-5.11,5.55S13.73,341.25,10.14,341.25Z"/><path class="cls-22" d="M.9,335c3.06-5.29-3.63-3-3.27-7l4.11-2.32-.49-3.48-8.88,3.33,3.45-7.08H2.9l4.73,5.21c-2,4.4-2,4.4.35,9.37l-2.93,5.89H-1.68L-8.55,335Z"/><path class="cls-25" d="M249.13,327.88l-.24-4.68L239.37,325l3.89-6.39h7.12l5.4,5.69-6.4,10.18,6.71,1.31L252.72,341H241v-6.65Z"/><path class="cls-22" d="M227.18,329.41l6.53-6.18L223.08,325l3.23-6.13c3.66-.56,7-1.46,10.25,2.92a24.37,24.37,0,0,0,.07,4.92c.39,2.19,1.75,4.26,1.87,6.43.1,1.78-1,3.63-1.81,6.18-4.5-.87-9.1,2-12.79-3.66l8.36-1.14.16-2.62Z"/><path class="cls-26" d="M29.94,241.85c4.71,3.4,3,6.64.86,9.74l2.6,7.11L29.93,262H21.22l-2.65-2.65c0-4.84,0-9.92,0-15l2.54-2.55Z"/><path class="cls-23" d="M10.15,250.12l-.4-4.4-5.3,2.9-.83-6.71H14.19l2.87,8.64-8.43,6.75,7.3,1.29.37,3.26H1.56C2.11,256.15,7.71,254.68,10.15,250.12Z"/><path class="cls-26" d="M172.47,244.28l2.53-2.53h9.26c.85,1.51,2.67,3.56,2.25,4.23-3.1,5,3.79,11.53-2.83,16.08H175l-2.56-2.56Z"/><path class="cls-23" d="M163.4,251.24V245.6l-5.27,3.1-.66-6.85h9.82l2.68,2.68v7.18l-6.76,5.85,6.59,1,.16,3.33H155.32C156,256.14,161.53,254.58,163.4,251.24Z"/><path class="cls-25" d="M5.87,175H11c1.94-4.79,5.45-8.07,10.64-11.54l2.18,17.32-2.48,4.81c-4.78-3.2-10.21-2.21-15.5-2.28Z"/><path class="cls-22" d="M5.87,175v8.31c-2.61,4.18-6.53.88-9.21,2.16C-9.2,180.65-5.42,174.74-6.71,170L-1.8,165H5.66v3.34L0,169.15Z"/><path class="cls-9" d="M91.08,12.88H96.3l3.09,3.2c0,4.15,0,8.6,0,13a11.22,11.22,0,0,1-.51,2.17h-7c-2.91-3.31,1.33-5.85,1.47-9l-4.31-2V17Z"/><path class="cls-24" d="M91.08,12.88,89,17H85.61c-2.21-4.22,1.87-4.37,2.67-8Z"/><path class="cls-9" d="M78.81,32.06c-.51-5,1.85-6.22,5.39-7.06C85.59,29.54,83.21,31,78.81,32.06Z"/><path class="cls-22" d="M86.92,411.92l-5.56,3.89H73.14L70.35,413V400.27L77,395.34l7.06.34-4.8,6.52,7.64,7.65Z"/><path class="cls-26" d="M86.92,411.92v-2.08c2-7.14,5.39-11.38,11.81-14.66l2,16-2,4.42C97.82,416.16,90,413.72,86.92,411.92Z"/></g><polygon class="cls-27" points="223.91 401.61 0 305.46 0 0 449 0 449 305.46 223.91 401.61"/></svg>