<svg xmlns="http://www.w3.org/2000/svg" xmlns:xlink="http://www.w3.org/1999/xlink" viewBox="0 0 375.34 374.86"><defs><style>.cls-1{isolation:isolate;}.cls-2,.cls-3,.cls-90,.cls-91,.cls-92,.cls-93,.cls-94,.cls-95,.cls-96,.cls-97,.cls-98{mix-blend-mode:multiply;}.cls-2{fill:url(#radial-gradient);}.cls-10,.cls-11,.cls-12,.cls-13,.cls-14,.cls-15,.cls-16,.cls-17,.cls-18,.cls-19,.cls-20,.cls-21,.cls-22,.cls-23,.cls-24,.cls-25,.cls-4,.cls-5,.cls-6,.cls-7,.cls-8,.cls-9{fill:#8a9496;}.cls-4{opacity:0;}.cls-5{opacity:0.04;}.cls-6{opacity:0.08;}.cls-7{opacity:0.11;}.cls-8{opacity:0.15;}.cls-9{opacity:0.19;}.cls-10{opacity:0.23;}.cls-11{opacity:0.27;}.cls-12{opacity:0.3;}.cls-13{opacity:0.34;}.cls-14{opacity:0.38;}.cls-15{opacity:0.42;}.cls-16{opacity:0.46;}.cls-17{opacity:0.5;}.cls-18{opacity:0.53;}.cls-19{opacity:0.57;}.cls-20{opacity:0.61;}.cls-21{opacity:0.65;}.cls-22{opacity:0.69;}.cls-23{opacity:0.72;}.cls-24{opacity:0.76;}.cls-25{opacity:0.8;}.cls-26,.cls-27,.cls-28,.cls-29,.cls-30,.cls-31,.cls-32,.cls-33,.cls-34,.cls-35,.cls-36,.cls-37,.cls-38,.cls-39,.cls-40,.cls-41,.cls-42,.cls-43,.cls-44,.cls-45,.cls-46,.cls-47,.cls-48,.cls-49,.cls-50,.cls-51,.cls-52,.cls-53,.cls-54,.cls-55,.cls-56,.cls-57,.cls-58,.cls-59,.cls-60,.cls-61,.cls-62,.cls-63,.cls-64,.cls-65,.cls-66,.cls-67,.cls-68,.cls-69,.cls-70,.cls-71,.cls-72,.cls-73,.cls-74,.cls-75,.cls-76,.cls-77,.cls-78,.cls-79,.cls-80,.cls-81,.cls-82,.cls-83,.cls-84,.cls-85,.cls-86,.cls-87{mix-blend-mode:soft-light;}.cls-26{fill:url(#radial-gradient-2);}.cls-27{fill:url(#linear-gradient);}.cls-28{fill:url(#linear-gradient-2);}.cls-29{fill:url(#linear-gradient-3);}.cls-31,.cls-89{fill:#fff;}.cls-32,.cls-33,.cls-34,.cls-35,.cls-40,.cls-41,.cls-42,.cls-43,.cls-48,.cls-49,.cls-50,.cls-51,.cls-56,.cls-57,.cls-58,.cls-59,.cls-64,.cls-65,.cls-66,.cls-67,.cls-69,.cls-70,.cls-74,.cls-75,.cls-79,.cls-80,.cls-84,.cls-85{opacity:0.2;}.cls-32{fill:url(#radial-gradient-3);}.cls-33{fill:url(#radial-gradient-4);}.cls-34{fill:url(#radial-gradient-5);}.cls-35{fill:url(#radial-gradient-6);}.cls-36{fill:url(#radial-gradient-7);}.cls-37{fill:url(#linear-gradient-4);}.cls-38{fill:url(#linear-gradient-5);}.cls-39{fill:url(#linear-gradient-6);}.cls-40{fill:url(#radial-gradient-8);}.cls-41{fill:url(#radial-gradient-9);}.cls-42{fill:url(#radial-gradient-10);}.cls-43{fill:url(#radial-gradient-11);}.cls-44{fill:url(#radial-gradient-12);}.cls-45{fill:url(#linear-gradient-7);}.cls-46{fill:url(#linear-gradient-8);}.cls-47{fill:url(#linear-gradient-9);}.cls-48{fill:url(#radial-gradient-13);}.cls-49{fill:url(#radial-gradient-14);}.cls-50{fill:url(#radial-gradient-15);}.cls-51{fill:url(#radial-gradient-16);}.cls-52{fill:url(#radial-gradient-17);}.cls-53{fill:url(#linear-gradient-10);}.cls-54{fill:url(#linear-gradient-11);}.cls-55{fill:url(#linear-gradient-12);}.cls-56{fill:url(#radial-gradient-18);}.cls-57{fill:url(#radial-gradient-19);}.cls-58{fill:url(#radial-gradient-20);}.cls-59{fill:url(#radial-gradient-21);}.cls-60{fill:url(#radial-gradient-22);}.cls-61{fill:url(#linear-gradient-13);}.cls-62{fill:url(#linear-gradient-14);}.cls-63{fill:url(#linear-gradient-15);}.cls-64{fill:url(#radial-gradient-23);}.cls-65{fill:url(#radial-gradient-24);}.cls-66{fill:url(#radial-gradient-25);}.cls-67{fill:url(#radial-gradient-26);}.cls-68{fill:url(#radial-gradient-27);}.cls-69{fill:url(#radial-gradient-28);}.cls-70{fill:url(#radial-gradient-29);}.cls-71{fill:url(#linear-gradient-16);}.cls-72{fill:url(#linear-gradient-17);}.cls-73{fill:url(#radial-gradient-30);}.cls-74{fill:url(#radial-gradient-31);}.cls-75{fill:url(#radial-gradient-32);}.cls-76{fill:url(#linear-gradient-18);}.cls-77{fill:url(#linear-gradient-19);}.cls-78{fill:url(#radial-gradient-33);}.cls-79{fill:url(#radial-gradient-34);}.cls-80{fill:url(#radial-gradient-35);}.cls-81{fill:url(#linear-gradient-20);}.cls-82{fill:url(#linear-gradient-21);}.cls-83{fill:url(#radial-gradient-36);}.cls-84{fill:url(#radial-gradient-37);}.cls-85{fill:url(#radial-gradient-38);}.cls-86{fill:url(#linear-gradient-22);}.cls-87{fill:url(#linear-gradient-23);}.cls-88,.cls-90{opacity:0.3;}.cls-88{mix-blend-mode:screen;}.cls-91{fill:url(#radial-gradient-39);}.cls-92{fill:url(#radial-gradient-40);}.cls-93{fill:url(#radial-gradient-41);}.cls-94{fill:url(#radial-gradient-42);}.cls-95{fill:url(#radial-gradient-43);}.cls-96{fill:url(#radial-gradient-44);}.cls-97{fill:url(#radial-gradient-45);}.cls-98{fill:url(#radial-gradient-46);}</style><radialGradient id="radial-gradient" cx="250.08" cy="123.87" r="206.82" gradientUnits="userSpaceOnUse"><stop offset="0" stop-color="#bfbfbf"/><stop offset="0.74" stop-color="#888"/></radialGradient><radialGradient id="radial-gradient-2" cx="199.07" cy="177.95" r="56.84" gradientUnits="userSpaceOnUse"><stop offset="0" stop-color="#ededed"/><stop offset="0.8" stop-color="#ededed"/><stop offset="1" stop-color="#c9c9c9"/></radialGradient><linearGradient id="linear-gradient" x1="163.31" y1="185.79" x2="218.43" y2="193.8" gradientUnits="userSpaceOnUse"><stop offset="0" stop-color="#fff"/><stop offset="1" stop-color="#696f73"/></linearGradient><linearGradient id="linear-gradient-2" x1="168.28" y1="149.02" x2="225.22" y2="157.3" xlink:href="#linear-gradient"/><linearGradient id="linear-gradient-3" x1="157.93" y1="211.99" x2="215.92" y2="220.42" xlink:href="#linear-gradient"/><radialGradient id="radial-gradient-3" cx="209.24" cy="174.85" r="48.82" xlink:href="#radial-gradient-2"/><radialGradient id="radial-gradient-4" cx="-128.81" cy="937.47" r="64.71" gradientTransform="translate(302.42 -53.77) scale(0.91 0.25)" xlink:href="#radial-gradient-2"/><radialGradient id="radial-gradient-5" cx="-129.1" cy="1005.7" r="64.71" gradientTransform="translate(314.56 -58.58) scale(0.91 0.25)" xlink:href="#radial-gradient-2"/><radialGradient id="radial-gradient-6" cx="67.29" cy="120.4" r="64.71" gradientTransform="matrix(0, 0.91, -0.25, 0, 225.98, 119.26)" xlink:href="#radial-gradient-2"/><radialGradient id="radial-gradient-7" cx="199.07" cy="53.7" r="56.84" xlink:href="#radial-gradient-2"/><linearGradient id="linear-gradient-4" x1="163.31" y1="61.55" x2="218.43" y2="69.56" xlink:href="#linear-gradient"/><linearGradient id="linear-gradient-5" x1="168.28" y1="24.78" x2="225.22" y2="33.06" xlink:href="#linear-gradient"/><linearGradient id="linear-gradient-6" x1="157.93" y1="87.75" x2="215.92" y2="96.18" xlink:href="#linear-gradient"/><radialGradient id="radial-gradient-8" cx="209.24" cy="50.6" r="48.82" xlink:href="#radial-gradient-2"/><radialGradient id="radial-gradient-9" cx="-32.48" cy="586.1" r="64.71" gradientTransform="translate(214.56 -90.16) scale(0.91 0.25)" xlink:href="#radial-gradient-2"/><radialGradient id="radial-gradient-10" cx="-32.77" cy="654.33" r="64.71" gradientTransform="translate(226.7 -94.97) scale(0.91 0.25)" xlink:href="#radial-gradient-2"/><radialGradient id="radial-gradient-11" cx="-29.04" cy="-230.96" r="64.71" gradientTransform="matrix(0, 0.91, -0.25, 0, 138.13, 82.86)" xlink:href="#radial-gradient-2"/><radialGradient id="radial-gradient-12" cx="75.11" cy="177.95" r="56.84" xlink:href="#radial-gradient-2"/><linearGradient id="linear-gradient-7" x1="39.35" y1="185.79" x2="94.47" y2="193.8" xlink:href="#linear-gradient"/><linearGradient id="linear-gradient-8" x1="44.32" y1="149.02" x2="101.26" y2="157.3" xlink:href="#linear-gradient"/><linearGradient id="linear-gradient-9" x1="33.97" y1="211.99" x2="91.96" y2="220.42" xlink:href="#linear-gradient"/><radialGradient id="radial-gradient-13" cx="85.29" cy="174.85" r="48.82" xlink:href="#radial-gradient-2"/><radialGradient id="radial-gradient-14" cx="-224.92" cy="586.91" r="64.71" gradientTransform="translate(266.11 33.88) scale(0.91 0.25)" xlink:href="#radial-gradient-2"/><radialGradient id="radial-gradient-15" cx="-225.21" cy="655.13" r="64.71" gradientTransform="translate(278.25 29.07) scale(0.91 0.25)" xlink:href="#radial-gradient-2"/><radialGradient id="radial-gradient-16" cx="-28.81" cy="470.97" r="64.72" gradientTransform="matrix(0, 0.91, -0.25, 0, 189.67, 206.91)" xlink:href="#radial-gradient-2"/><radialGradient id="radial-gradient-17" cx="322.92" cy="301.92" r="56.84" xlink:href="#radial-gradient-2"/><linearGradient id="linear-gradient-10" x1="287.16" y1="309.77" x2="342.28" y2="317.78" xlink:href="#linear-gradient"/><linearGradient id="linear-gradient-11" x1="292.13" y1="273" x2="349.07" y2="281.28" xlink:href="#linear-gradient"/><linearGradient id="linear-gradient-12" x1="281.78" y1="335.97" x2="339.77" y2="344.4" xlink:href="#linear-gradient"/><radialGradient id="radial-gradient-18" cx="333.1" cy="298.82" r="48.82" xlink:href="#radial-gradient-2"/><radialGradient id="radial-gradient-19" cx="-128.91" cy="1638.34" r="64.71" gradientTransform="translate(426.36 -105.03) scale(0.91 0.25)" xlink:href="#radial-gradient-2"/><radialGradient id="radial-gradient-20" cx="-129.2" cy="1706.57" r="64.71" gradientTransform="translate(438.5 -109.84) scale(0.91 0.25)" xlink:href="#radial-gradient-2"/><radialGradient id="radial-gradient-21" cx="259.44" cy="120.76" r="64.71" gradientTransform="matrix(0, 0.91, -0.25, 0, 349.92, 67.99)" xlink:href="#radial-gradient-2"/><radialGradient id="radial-gradient-22" cx="75.11" cy="301.92" r="56.84" xlink:href="#radial-gradient-2"/><linearGradient id="linear-gradient-13" x1="39.35" y1="309.77" x2="94.47" y2="317.78" xlink:href="#linear-gradient"/><linearGradient id="linear-gradient-14" x1="44.32" y1="273" x2="101.26" y2="281.28" xlink:href="#linear-gradient"/><linearGradient id="linear-gradient-15" x1="33.97" y1="335.97" x2="91.96" y2="344.4" xlink:href="#linear-gradient"/><radialGradient id="radial-gradient-23" cx="85.29" cy="298.82" r="48.82" xlink:href="#radial-gradient-2"/><radialGradient id="radial-gradient-24" cx="-321.04" cy="937.52" r="64.71" gradientTransform="translate(353.78 70.19) scale(0.91 0.25)" xlink:href="#radial-gradient-2"/><radialGradient id="radial-gradient-25" cx="-321.33" cy="1005.75" r="64.71" gradientTransform="translate(365.92 65.39) scale(0.91 0.25)" xlink:href="#radial-gradient-2"/><radialGradient id="radial-gradient-26" cx="67.31" cy="821.58" r="64.71" gradientTransform="matrix(0, 0.91, -0.25, 0, 277.34, 243.22)" xlink:href="#radial-gradient-2"/><radialGradient id="radial-gradient-27" cx="319.96" cy="177.75" r="52.68" xlink:href="#radial-gradient-2"/><radialGradient id="radial-gradient-28" cx="332.65" cy="172.9" r="43.3" xlink:href="#radial-gradient-2"/><radialGradient id="radial-gradient-29" cx="318.86" cy="179.13" r="43.54" xlink:href="#radial-gradient-2"/><linearGradient id="linear-gradient-16" x1="272.96" y1="180.54" x2="307.66" y2="180.54" gradientUnits="userSpaceOnUse"><stop offset="0" stop-color="#fff"/><stop offset="1" stop-color="#8a9496"/></linearGradient><linearGradient id="linear-gradient-17" x1="272.96" y1="196.4" x2="307.66" y2="196.4" xlink:href="#linear-gradient-16"/><radialGradient id="radial-gradient-30" cx="319.96" cy="53.5" r="52.68" xlink:href="#radial-gradient-2"/><radialGradient id="radial-gradient-31" cx="332.65" cy="48.66" r="43.3" xlink:href="#radial-gradient-2"/><radialGradient id="radial-gradient-32" cx="318.86" cy="54.89" r="43.54" xlink:href="#radial-gradient-2"/><linearGradient id="linear-gradient-18" x1="272.96" y1="56.3" x2="307.66" y2="56.3" xlink:href="#linear-gradient-16"/><linearGradient id="linear-gradient-19" x1="272.96" y1="72.15" x2="307.66" y2="72.15" xlink:href="#linear-gradient-16"/><radialGradient id="radial-gradient-33" cx="72.15" cy="53.5" r="52.68" xlink:href="#radial-gradient-2"/><radialGradient id="radial-gradient-34" cx="84.84" cy="48.66" r="43.3" xlink:href="#radial-gradient-2"/><radialGradient id="radial-gradient-35" cx="71.05" cy="54.89" r="43.54" xlink:href="#radial-gradient-2"/><linearGradient id="linear-gradient-20" x1="25.15" y1="56.3" x2="59.85" y2="56.3" xlink:href="#linear-gradient-16"/><linearGradient id="linear-gradient-21" x1="25.15" y1="72.15" x2="59.85" y2="72.15" xlink:href="#linear-gradient-16"/><radialGradient id="radial-gradient-36" cx="196.11" cy="300.75" r="52.68" xlink:href="#radial-gradient-2"/><radialGradient id="radial-gradient-37" cx="208.8" cy="295.9" r="43.3" xlink:href="#radial-gradient-2"/><radialGradient id="radial-gradient-38" cx="195.01" cy="302.13" r="43.54" xlink:href="#radial-gradient-2"/><linearGradient id="linear-gradient-22" x1="149.11" y1="303.54" x2="183.81" y2="303.54" xlink:href="#linear-gradient-16"/><linearGradient id="linear-gradient-23" x1="149.11" y1="319.4" x2="183.81" y2="319.4" xlink:href="#linear-gradient-16"/><radialGradient id="radial-gradient-39" cx="82.67" cy="246.43" r="30.6" xlink:href="#radial-gradient"/><radialGradient id="radial-gradient-40" cx="207.92" cy="167.06" r="66.72" xlink:href="#radial-gradient"/><radialGradient id="radial-gradient-41" cx="205.94" cy="40.63" r="69.03" xlink:href="#radial-gradient"/><radialGradient id="radial-gradient-42" cx="82.67" cy="122.5" r="30.6" xlink:href="#radial-gradient"/><radialGradient id="radial-gradient-43" cx="332.28" cy="42.38" r="71.81" xlink:href="#radial-gradient"/><radialGradient id="radial-gradient-44" cx="334.25" cy="168.81" r="69.5" xlink:href="#radial-gradient"/><radialGradient id="radial-gradient-45" cx="252.87" cy="292.09" r="61.45" xlink:href="#radial-gradient"/><radialGradient id="radial-gradient-46" cx="128.94" cy="292.09" r="61.45" xlink:href="#radial-gradient"/></defs><title>ox</title><g class="cls-1"><g id="レイヤー_2" data-name="レイヤー 2"><g id="image"><path class="cls-2" d="M373.74,127.65v-4H251.8V1.72h-4V123.65H127.87V1.72h-4V123.65H1.94v4H123.87V247.59H1.94v4H123.87V373.52h4V251.59H247.8V373.52h4V251.59H373.74v-4H251.8V127.65ZM247.8,247.59H127.87V127.65H247.8Z"/><g class="cls-3"><polygon class="cls-4" points="230.19 164.92 208.98 143.7 184.94 167.74 160.9 143.7 139.69 164.92 163.73 188.96 139.69 213 160.9 234.21 184.94 210.17 208.98 234.21 230.19 213 206.15 188.96 230.19 164.92"/><polygon class="cls-5" points="230.47 164.79 209.26 143.57 185.22 167.62 161.17 143.57 139.96 164.79 164 188.83 139.96 212.87 161.17 234.08 185.22 210.04 209.26 234.08 230.47 212.87 206.43 188.83 230.47 164.79"/><polygon class="cls-6" points="230.75 164.66 209.53 143.45 185.49 167.49 161.45 143.45 140.24 164.66 164.28 188.7 140.24 212.74 161.45 233.96 185.49 209.91 209.53 233.96 230.75 212.74 206.71 188.7 230.75 164.66"/><polygon class="cls-7" points="231.02 164.53 209.81 143.32 185.77 167.36 161.73 143.32 140.51 164.53 164.55 188.57 140.51 212.62 161.73 233.83 185.77 209.79 209.81 233.83 231.02 212.62 206.98 188.57 231.02 164.53"/><polygon class="cls-8" points="231.3 164.41 210.08 143.19 186.04 167.23 162 143.19 140.79 164.41 164.83 188.45 140.79 212.49 162 233.7 186.04 209.66 210.08 233.7 231.3 212.49 207.26 188.45 231.3 164.41"/><polygon class="cls-9" points="231.57 164.28 210.36 143.06 186.32 167.11 162.28 143.06 141.06 164.28 165.11 188.32 141.06 212.36 162.28 233.57 186.32 209.53 210.36 233.57 231.57 212.36 207.53 188.32 231.57 164.28"/><polygon class="cls-10" points="231.85 164.15 210.64 142.94 186.59 166.98 162.55 142.94 141.34 164.15 165.38 188.19 141.34 212.23 162.55 233.45 186.59 209.41 210.64 233.45 231.85 212.23 207.81 188.19 231.85 164.15"/><polygon class="cls-11" points="232.13 164.02 210.91 142.81 186.87 166.85 162.83 142.81 141.62 164.02 165.66 188.06 141.62 212.11 162.83 233.32 186.87 209.28 210.91 233.32 232.13 212.11 208.08 188.06 232.13 164.02"/><polygon class="cls-12" points="232.4 163.9 211.19 142.68 187.15 166.72 163.1 142.68 141.89 163.9 165.93 187.94 141.89 211.98 163.1 233.19 187.15 209.15 211.19 233.19 232.4 211.98 208.36 187.94 232.4 163.9"/><polygon class="cls-13" points="232.68 163.77 211.46 142.56 187.42 166.6 163.38 142.56 142.17 163.77 166.21 187.81 142.17 211.85 163.38 233.06 187.42 209.02 211.46 233.06 232.68 211.85 208.64 187.81 232.68 163.77"/><polygon class="cls-14" points="232.95 163.64 211.74 142.43 187.7 166.47 163.66 142.43 142.44 163.64 166.49 187.68 142.44 211.72 163.66 232.94 187.7 208.9 211.74 232.94 232.95 211.72 208.91 187.68 232.95 163.64"/><polygon class="cls-15" points="233.23 163.51 212.02 142.3 187.97 166.34 163.93 142.3 142.72 163.51 166.76 187.56 142.72 211.6 163.93 232.81 187.97 208.77 212.02 232.81 233.23 211.6 209.19 187.56 233.23 163.51"/><polygon class="cls-16" points="233.5 163.39 212.29 142.17 188.25 166.22 164.21 142.17 143 163.39 167.04 187.43 143 211.47 164.21 232.68 188.25 208.64 212.29 232.68 233.5 211.47 209.46 187.43 233.5 163.39"/><polygon class="cls-17" points="233.78 163.26 212.57 142.05 188.53 166.09 164.48 142.05 143.27 163.26 167.31 187.3 143.27 211.34 164.48 232.56 188.53 208.51 212.57 232.56 233.78 211.34 209.74 187.3 233.78 163.26"/><polygon class="cls-18" points="234.06 163.13 212.84 141.92 188.8 165.96 164.76 141.92 143.55 163.13 167.59 187.17 143.55 211.22 164.76 232.43 188.8 208.39 212.84 232.43 234.06 211.22 210.01 187.17 234.06 163.13"/><polygon class="cls-19" points="234.33 163 213.12 141.79 189.08 165.83 165.04 141.79 143.82 163 167.87 187.05 143.82 211.09 165.04 232.3 189.08 208.26 213.12 232.3 234.33 211.09 210.29 187.05 234.33 163"/><polygon class="cls-20" points="234.61 162.88 213.4 141.66 189.35 165.71 165.31 141.66 144.1 162.88 168.14 186.92 144.1 210.96 165.31 232.17 189.35 208.13 213.4 232.17 234.61 210.96 210.57 186.92 234.61 162.88"/><polygon class="cls-21" points="234.88 162.75 213.67 141.54 189.63 165.58 165.59 141.54 144.38 162.75 168.42 186.79 144.38 210.83 165.59 232.05 189.63 208 213.67 232.05 234.88 210.83 210.84 186.79 234.88 162.75"/><polygon class="cls-22" points="235.16 162.62 213.95 141.41 189.91 165.45 165.86 141.41 144.65 162.62 168.69 186.66 144.65 210.71 165.86 231.92 189.91 207.88 213.95 231.92 235.16 210.71 211.12 186.66 235.16 162.62"/><polygon class="cls-23" points="235.44 162.5 214.22 141.28 190.18 165.32 166.14 141.28 144.93 162.5 168.97 186.54 144.93 210.58 166.14 231.79 190.18 207.75 214.22 231.79 235.44 210.58 211.4 186.54 235.44 162.5"/><polygon class="cls-24" points="235.71 162.37 214.5 141.15 190.46 165.19 166.41 141.15 145.2 162.37 169.24 186.41 145.2 210.45 166.41 231.66 190.46 207.62 214.5 231.66 235.71 210.45 211.67 186.41 235.71 162.37"/><polygon class="cls-25" points="235.99 162.24 214.78 141.03 190.73 165.07 166.69 141.03 145.48 162.24 169.52 186.28 145.48 210.32 166.69 231.54 190.73 207.49 214.78 231.54 235.99 210.32 211.95 186.28 235.99 162.24"/></g><polygon class="cls-26" points="235.99 162.24 214.78 141.03 190.73 165.07 166.69 141.03 145.48 162.24 169.52 186.28 145.48 210.32 166.69 231.54 190.73 207.49 214.78 231.54 235.99 210.32 211.95 186.28 235.99 162.24"/><g class="cls-3"><polygon class="cls-27" points="147.65 210.32 171.69 186.28 147.65 162.24 166.78 143.11 166.69 141.03 145.48 162.24 169.52 186.28 145.48 210.32 166.69 231.54 166.78 229.45 147.65 210.32"/><polygon class="cls-28" points="190.71 167.04 214.86 143.11 214.78 141.03 190.73 165.07 190.71 167.04"/><polygon class="cls-29" points="190.75 205.48 190.73 207.49 214.78 231.54 214.86 229.45 190.75 205.48"/></g><g class="cls-30"><polygon class="cls-31" points="190.75 205.48 166.78 229.45 166.69 231.54 190.73 207.49 190.75 205.48"/><polygon class="cls-31" points="190.71 167.04 190.73 165.07 166.69 141.03 166.78 143.11 190.71 167.04"/><polygon class="cls-31" points="235.99 162.24 214.78 141.03 214.86 143.11 233.99 162.24 209.95 186.28 233.99 210.32 214.85 229.46 214.78 231.54 235.99 210.32 211.95 186.28 235.99 162.24"/></g><path class="cls-32" d="M214.77,141l-24,24-20.3-20.3a87.75,87.75,0,0,0,51.95,79.17L236,210.32l-24-24,24-24Z"/><rect class="cls-33" x="140.25" y="176.88" width="89.38" height="7.5" transform="translate(-73.56 183.68) rotate(-45)"/><rect class="cls-34" x="152.13" y="189.13" width="89.38" height="7.5" transform="translate(-78.74 195.66) rotate(-45)"/><rect class="cls-35" x="192.13" y="135.94" width="7.5" height="89.38" transform="translate(-70.35 191.41) rotate(-45)"/><g class="cls-3"><polygon class="cls-4" points="230.19 40.67 208.98 19.46 184.94 43.5 160.9 19.46 139.69 40.67 163.73 64.71 139.69 88.75 160.9 109.97 184.94 85.93 208.98 109.97 230.19 88.75 206.15 64.71 230.19 40.67"/><polygon class="cls-5" points="230.47 40.54 209.26 19.33 185.22 43.37 161.17 19.33 139.96 40.54 164 64.59 139.96 88.63 161.17 109.84 185.22 85.8 209.26 109.84 230.47 88.63 206.43 64.59 230.47 40.54"/><polygon class="cls-6" points="230.75 40.42 209.53 19.2 185.49 43.25 161.45 19.2 140.24 40.42 164.28 64.46 140.24 88.5 161.45 109.71 185.49 85.67 209.53 109.71 230.75 88.5 206.71 64.46 230.75 40.42"/><polygon class="cls-7" points="231.02 40.29 209.81 19.08 185.77 43.12 161.73 19.08 140.51 40.29 164.55 64.33 140.51 88.37 161.73 109.59 185.77 85.54 209.81 109.59 231.02 88.37 206.98 64.33 231.02 40.29"/><polygon class="cls-8" points="231.3 40.16 210.08 18.95 186.04 42.99 162 18.95 140.79 40.16 164.83 64.2 140.79 88.25 162 109.46 186.04 85.42 210.08 109.46 231.3 88.25 207.26 64.2 231.3 40.16"/><polygon class="cls-9" points="231.57 40.03 210.36 18.82 186.32 42.86 162.28 18.82 141.06 40.03 165.11 64.08 141.06 88.12 162.28 109.33 186.32 85.29 210.36 109.33 231.57 88.12 207.53 64.08 231.57 40.03"/><polygon class="cls-10" points="231.85 39.91 210.64 18.69 186.59 42.74 162.55 18.69 141.34 39.91 165.38 63.95 141.34 87.99 162.55 109.2 186.59 85.16 210.64 109.2 231.85 87.99 207.81 63.95 231.85 39.91"/><polygon class="cls-11" points="232.13 39.78 210.91 18.57 186.87 42.61 162.83 18.57 141.62 39.78 165.66 63.82 141.62 87.86 162.83 109.08 186.87 85.03 210.91 109.08 232.13 87.86 208.08 63.82 232.13 39.78"/><polygon class="cls-12" points="232.4 39.65 211.19 18.44 187.15 42.48 163.1 18.44 141.89 39.65 165.93 63.69 141.89 87.74 163.1 108.95 187.15 84.91 211.19 108.95 232.4 87.74 208.36 63.69 232.4 39.65"/><polygon class="cls-13" points="232.68 39.52 211.46 18.31 187.42 42.35 163.38 18.31 142.17 39.52 166.21 63.57 142.17 87.61 163.38 108.82 187.42 84.78 211.46 108.82 232.68 87.61 208.64 63.57 232.68 39.52"/><polygon class="cls-14" points="232.95 39.4 211.74 18.18 187.7 42.23 163.66 18.18 142.44 39.4 166.49 63.44 142.44 87.48 163.66 108.69 187.7 84.65 211.74 108.69 232.95 87.48 208.91 63.44 232.95 39.4"/><polygon class="cls-15" points="233.23 39.27 212.02 18.06 187.97 42.1 163.93 18.06 142.72 39.27 166.76 63.31 142.72 87.35 163.93 108.57 187.97 84.53 212.02 108.57 233.23 87.35 209.19 63.31 233.23 39.27"/><polygon class="cls-16" points="233.5 39.14 212.29 17.93 188.25 41.97 164.21 17.93 143 39.14 167.04 63.19 143 87.23 164.21 108.44 188.25 84.4 212.29 108.44 233.5 87.23 209.46 63.19 233.5 39.14"/><polygon class="cls-17" points="233.78 39.02 212.57 17.8 188.53 41.84 164.48 17.8 143.27 39.02 167.31 63.06 143.27 87.1 164.48 108.31 188.53 84.27 212.57 108.31 233.78 87.1 209.74 63.06 233.78 39.02"/><polygon class="cls-18" points="234.06 38.89 212.84 17.68 188.8 41.72 164.76 17.68 143.55 38.89 167.59 62.93 143.55 86.97 164.76 108.19 188.8 84.14 212.84 108.19 234.06 86.97 210.01 62.93 234.06 38.89"/><polygon class="cls-19" points="234.33 38.76 213.12 17.55 189.08 41.59 165.04 17.55 143.82 38.76 167.87 62.8 143.82 86.84 165.04 108.06 189.08 84.02 213.12 108.06 234.33 86.84 210.29 62.8 234.33 38.76"/><polygon class="cls-20" points="234.61 38.63 213.4 17.42 189.35 41.46 165.31 17.42 144.1 38.63 168.14 62.67 144.1 86.72 165.31 107.93 189.35 83.89 213.4 107.93 234.61 86.72 210.57 62.67 234.61 38.63"/><polygon class="cls-21" points="234.88 38.51 213.67 17.29 189.63 41.33 165.59 17.29 144.38 38.51 168.42 62.55 144.38 86.59 165.59 107.8 189.63 83.76 213.67 107.8 234.88 86.59 210.84 62.55 234.88 38.51"/><polygon class="cls-22" points="235.16 38.38 213.95 17.16 189.91 41.21 165.86 17.16 144.65 38.38 168.69 62.42 144.65 86.46 165.86 107.67 189.91 83.63 213.95 107.67 235.16 86.46 211.12 62.42 235.16 38.38"/><polygon class="cls-23" points="235.44 38.25 214.22 17.04 190.18 41.08 166.14 17.04 144.93 38.25 168.97 62.29 144.93 86.33 166.14 107.55 190.18 83.51 214.22 107.55 235.44 86.33 211.4 62.29 235.44 38.25"/><polygon class="cls-24" points="235.71 38.12 214.5 16.91 190.46 40.95 166.41 16.91 145.2 38.12 169.24 62.16 145.2 86.21 166.41 107.42 190.46 83.38 214.5 107.42 235.71 86.21 211.67 62.16 235.71 38.12"/><polygon class="cls-25" points="235.99 38 214.78 16.78 190.73 40.83 166.69 16.78 145.48 38 169.52 62.04 145.48 86.08 166.69 107.29 190.73 83.25 214.78 107.29 235.99 86.08 211.95 62.04 235.99 38"/></g><polygon class="cls-36" points="235.99 38 214.78 16.78 190.73 40.83 166.69 16.78 145.48 38 169.52 62.04 145.48 86.08 166.69 107.29 190.73 83.25 214.78 107.29 235.99 86.08 211.95 62.04 235.99 38"/><g class="cls-3"><polygon class="cls-37" points="147.65 86.08 171.69 62.04 147.65 38 166.78 18.87 166.69 16.78 145.48 38 169.52 62.04 145.48 86.08 166.69 107.29 166.78 105.21 147.65 86.08"/><polygon class="cls-38" points="190.71 42.8 214.86 18.87 214.78 16.78 190.73 40.83 190.71 42.8"/><polygon class="cls-39" points="190.75 81.24 190.73 83.25 214.78 107.29 214.86 105.21 190.75 81.24"/></g><g class="cls-30"><polygon class="cls-31" points="190.75 81.24 166.78 105.21 166.69 107.29 190.73 83.25 190.75 81.24"/><polygon class="cls-31" points="190.71 42.8 190.73 40.83 166.69 16.78 166.78 18.87 190.71 42.8"/><polygon class="cls-31" points="235.99 38 214.78 16.78 214.86 18.87 233.99 38 209.95 62.04 233.99 86.08 214.85 105.21 214.78 107.29 235.99 86.08 211.95 62.04 235.99 38"/></g><path class="cls-40" d="M214.77,16.78l-24,24-20.3-20.3a87.75,87.75,0,0,0,51.95,79.17L236,86.08l-24-24,24-24Z"/><rect class="cls-41" x="140.25" y="52.63" width="89.38" height="7.5" transform="translate(14.3 147.29) rotate(-45)"/><rect class="cls-42" x="152.13" y="64.88" width="89.38" height="7.5" transform="translate(9.11 159.27) rotate(-45)"/><rect class="cls-43" x="192.13" y="11.7" width="7.5" height="89.38" transform="translate(17.5 155.02) rotate(-45)"/><g class="cls-3"><polygon class="cls-4" points="106.23 164.92 85.02 143.7 60.98 167.74 36.94 143.7 15.73 164.92 39.77 188.96 15.73 213 36.94 234.21 60.98 210.17 85.02 234.21 106.23 213 82.19 188.96 106.23 164.92"/><polygon class="cls-5" points="106.51 164.79 85.3 143.57 61.26 167.62 37.22 143.57 16 164.79 40.04 188.83 16 212.87 37.22 234.08 61.26 210.04 85.3 234.08 106.51 212.87 82.47 188.83 106.51 164.79"/><polygon class="cls-6" points="106.79 164.66 85.57 143.45 61.53 167.49 37.49 143.45 16.28 164.66 40.32 188.7 16.28 212.74 37.49 233.96 61.53 209.91 85.57 233.96 106.79 212.74 82.75 188.7 106.79 164.66"/><polygon class="cls-7" points="107.06 164.53 85.85 143.32 61.81 167.36 37.77 143.32 16.55 164.53 40.59 188.57 16.55 212.62 37.77 233.83 61.81 209.79 85.85 233.83 107.06 212.62 83.02 188.57 107.06 164.53"/><polygon class="cls-8" points="107.34 164.41 86.13 143.19 62.08 167.23 38.04 143.19 16.83 164.41 40.87 188.45 16.83 212.49 38.04 233.7 62.08 209.66 86.13 233.7 107.34 212.49 83.3 188.45 107.34 164.41"/><polygon class="cls-9" points="107.61 164.28 86.4 143.06 62.36 167.11 38.32 143.06 17.11 164.28 41.15 188.32 17.11 212.36 38.32 233.57 62.36 209.53 86.4 233.57 107.61 212.36 83.57 188.32 107.61 164.28"/><polygon class="cls-10" points="107.89 164.15 86.68 142.94 62.64 166.98 38.59 142.94 17.38 164.15 41.42 188.19 17.38 212.23 38.59 233.45 62.64 209.41 86.68 233.45 107.89 212.23 83.85 188.19 107.89 164.15"/><polygon class="cls-11" points="108.17 164.02 86.95 142.81 62.91 166.85 38.87 142.81 17.66 164.02 41.7 188.06 17.66 212.11 38.87 233.32 62.91 209.28 86.95 233.32 108.17 212.11 84.13 188.06 108.17 164.02"/><polygon class="cls-12" points="108.44 163.9 87.23 142.68 63.19 166.72 39.15 142.68 17.93 163.9 41.97 187.94 17.93 211.98 39.15 233.19 63.19 209.15 87.23 233.19 108.44 211.98 84.4 187.94 108.44 163.9"/><polygon class="cls-13" points="108.72 163.77 87.5 142.56 63.46 166.6 39.42 142.56 18.21 163.77 42.25 187.81 18.21 211.85 39.42 233.06 63.46 209.02 87.5 233.06 108.72 211.85 84.68 187.81 108.72 163.77"/><polygon class="cls-14" points="108.99 163.64 87.78 142.43 63.74 166.47 39.7 142.43 18.48 163.64 42.53 187.68 18.48 211.72 39.7 232.94 63.74 208.9 87.78 232.94 108.99 211.72 84.95 187.68 108.99 163.64"/><polygon class="cls-15" points="109.27 163.51 88.06 142.3 64.02 166.34 39.97 142.3 18.76 163.51 42.8 187.56 18.76 211.6 39.97 232.81 64.02 208.77 88.06 232.81 109.27 211.6 85.23 187.56 109.27 163.51"/><polygon class="cls-16" points="109.55 163.39 88.33 142.17 64.29 166.22 40.25 142.17 19.04 163.39 43.08 187.43 19.04 211.47 40.25 232.68 64.29 208.64 88.33 232.68 109.55 211.47 85.5 187.43 109.55 163.39"/><polygon class="cls-17" points="109.82 163.26 88.61 142.05 64.57 166.09 40.52 142.05 19.31 163.26 43.35 187.3 19.31 211.34 40.52 232.56 64.57 208.51 88.61 232.56 109.82 211.34 85.78 187.3 109.82 163.26"/><polygon class="cls-18" points="110.1 163.13 88.88 141.92 64.84 165.96 40.8 141.92 19.59 163.13 43.63 187.17 19.59 211.22 40.8 232.43 64.84 208.39 88.88 232.43 110.1 211.22 86.06 187.17 110.1 163.13"/><polygon class="cls-19" points="110.37 163 89.16 141.79 65.12 165.83 41.08 141.79 19.86 163 43.91 187.05 19.86 211.09 41.08 232.3 65.12 208.26 89.16 232.3 110.37 211.09 86.33 187.05 110.37 163"/><polygon class="cls-20" points="110.65 162.88 89.44 141.66 65.39 165.71 41.35 141.66 20.14 162.88 44.18 186.92 20.14 210.96 41.35 232.17 65.39 208.13 89.44 232.17 110.65 210.96 86.61 186.92 110.65 162.88"/><polygon class="cls-21" points="110.92 162.75 89.71 141.54 65.67 165.58 41.63 141.54 20.41 162.75 44.46 186.79 20.41 210.83 41.63 232.05 65.67 208 89.71 232.05 110.92 210.83 86.88 186.79 110.92 162.75"/><polygon class="cls-22" points="111.2 162.62 89.99 141.41 65.95 165.45 41.91 141.41 20.69 162.62 44.73 186.66 20.69 210.71 41.91 231.92 65.95 207.88 89.99 231.92 111.2 210.71 87.16 186.66 111.2 162.62"/><polygon class="cls-23" points="111.48 162.5 90.26 141.28 66.22 165.32 42.18 141.28 20.97 162.5 45.01 186.54 20.97 210.58 42.18 231.79 66.22 207.75 90.26 231.79 111.48 210.58 87.44 186.54 111.48 162.5"/><polygon class="cls-24" points="111.75 162.37 90.54 141.15 66.5 165.19 42.46 141.15 21.24 162.37 45.28 186.41 21.24 210.45 42.46 231.66 66.5 207.62 90.54 231.66 111.75 210.45 87.71 186.41 111.75 162.37"/><polygon class="cls-25" points="112.03 162.24 90.81 141.03 66.77 165.07 42.73 141.03 21.52 162.24 45.56 186.28 21.52 210.32 42.73 231.54 66.77 207.49 90.81 231.54 112.03 210.32 87.99 186.28 112.03 162.24"/></g><polygon class="cls-44" points="112.03 162.24 90.81 141.03 66.77 165.07 42.73 141.03 21.52 162.24 45.56 186.28 21.52 210.32 42.73 231.54 66.77 207.49 90.81 231.54 112.03 210.32 87.99 186.28 112.03 162.24"/><g class="cls-3"><polygon class="cls-45" points="23.68 210.32 47.73 186.28 23.68 162.24 42.81 143.11 42.73 141.03 21.52 162.24 45.56 186.28 21.52 210.32 42.73 231.54 42.81 229.45 23.68 210.32"/><polygon class="cls-46" points="66.75 167.04 90.9 143.11 90.81 141.03 66.77 165.07 66.75 167.04"/><polygon class="cls-47" points="66.79 205.48 66.77 207.49 90.81 231.54 90.9 229.45 66.79 205.48"/></g><g class="cls-30"><polygon class="cls-31" points="66.79 205.48 42.81 229.45 42.73 231.54 66.77 207.49 66.79 205.48"/><polygon class="cls-31" points="66.75 167.04 66.77 165.07 42.73 141.03 42.81 143.11 66.75 167.04"/><polygon class="cls-31" points="112.03 162.24 90.81 141.03 90.9 143.11 110.03 162.24 85.99 186.28 110.03 210.32 90.9 229.46 90.81 231.54 112.03 210.32 87.99 186.28 112.03 162.24"/></g><path class="cls-48" d="M90.82,141l-24,24-20.3-20.3a87.75,87.75,0,0,0,52,79.17L112,210.32l-24-24,24-24Z"/><rect class="cls-49" x="16.29" y="176.88" width="89.38" height="7.5" transform="translate(-109.86 96.02) rotate(-45)"/><rect class="cls-50" x="28.17" y="189.13" width="89.38" height="7.5" transform="translate(-115.05 108.01) rotate(-45)"/><rect class="cls-51" x="68.17" y="135.94" width="7.5" height="89.38" transform="translate(-106.66 103.76) rotate(-45)"/><g class="cls-3"><polygon class="cls-4" points="354.05 288.89 332.83 267.68 308.79 291.72 284.75 267.68 263.54 288.89 287.58 312.93 263.54 336.98 284.75 358.19 308.79 334.15 332.83 358.19 354.05 336.98 330 312.93 354.05 288.89"/><polygon class="cls-5" points="354.32 288.76 333.11 267.55 309.07 291.59 285.02 267.55 263.81 288.76 287.85 312.81 263.81 336.85 285.02 358.06 309.07 334.02 333.11 358.06 354.32 336.85 330.28 312.81 354.32 288.76"/><polygon class="cls-6" points="354.6 288.64 333.38 267.42 309.34 291.47 285.3 267.42 264.09 288.64 288.13 312.68 264.09 336.72 285.3 357.93 309.34 333.89 333.38 357.93 354.6 336.72 330.56 312.68 354.6 288.64"/><polygon class="cls-7" points="354.87 288.51 333.66 267.3 309.62 291.34 285.58 267.3 264.36 288.51 288.4 312.55 264.36 336.59 285.58 357.81 309.62 333.76 333.66 357.81 354.87 336.59 330.83 312.55 354.87 288.51"/><polygon class="cls-8" points="355.15 288.38 333.94 267.17 309.89 291.21 285.85 267.17 264.64 288.38 288.68 312.42 264.64 336.47 285.85 357.68 309.89 333.64 333.94 357.68 355.15 336.47 331.11 312.42 355.15 288.38"/><polygon class="cls-9" points="355.42 288.25 334.21 267.04 310.17 291.08 286.13 267.04 264.91 288.25 288.96 312.3 264.91 336.34 286.13 357.55 310.17 333.51 334.21 357.55 355.42 336.34 331.38 312.3 355.42 288.25"/><polygon class="cls-10" points="355.7 288.13 334.49 266.91 310.45 290.96 286.4 266.91 265.19 288.13 289.23 312.17 265.19 336.21 286.4 357.42 310.45 333.38 334.49 357.42 355.7 336.21 331.66 312.17 355.7 288.13"/><polygon class="cls-11" points="355.98 288 334.76 266.79 310.72 290.83 286.68 266.79 265.47 288 289.51 312.04 265.47 336.08 286.68 357.3 310.72 333.25 334.76 357.3 355.98 336.08 331.93 312.04 355.98 288"/><polygon class="cls-12" points="356.25 287.87 335.04 266.66 311 290.7 286.95 266.66 265.74 287.87 289.78 311.91 265.74 335.96 286.95 357.17 311 333.13 335.04 357.17 356.25 335.96 332.21 311.91 356.25 287.87"/><polygon class="cls-13" points="356.53 287.75 335.31 266.53 311.27 290.57 287.23 266.53 266.02 287.75 290.06 311.79 266.02 335.83 287.23 357.04 311.27 333 335.31 357.04 356.53 335.83 332.49 311.79 356.53 287.75"/><polygon class="cls-14" points="356.8 287.62 335.59 266.4 311.55 290.45 287.51 266.4 266.29 287.62 290.33 311.66 266.29 335.7 287.51 356.91 311.55 332.87 335.59 356.91 356.8 335.7 332.76 311.66 356.8 287.62"/><polygon class="cls-15" points="357.08 287.49 335.87 266.28 311.82 290.32 287.78 266.28 266.57 287.49 290.61 311.53 266.57 335.57 287.78 356.79 311.82 332.75 335.87 356.79 357.08 335.57 333.04 311.53 357.08 287.49"/><polygon class="cls-16" points="357.36 287.36 336.14 266.15 312.1 290.19 288.06 266.15 266.85 287.36 290.89 311.4 266.85 335.45 288.06 356.66 312.1 332.62 336.14 356.66 357.36 335.45 333.31 311.4 357.36 287.36"/><polygon class="cls-17" points="357.63 287.24 336.42 266.02 312.38 290.06 288.33 266.02 267.12 287.24 291.16 311.28 267.12 335.32 288.33 356.53 312.38 332.49 336.42 356.53 357.63 335.32 333.59 311.28 357.63 287.24"/><polygon class="cls-18" points="357.91 287.11 336.69 265.89 312.65 289.94 288.61 265.89 267.4 287.11 291.44 311.15 267.4 335.19 288.61 356.4 312.65 332.36 336.69 356.4 357.91 335.19 333.87 311.15 357.91 287.11"/><polygon class="cls-19" points="358.18 286.98 336.97 265.77 312.93 289.81 288.89 265.77 267.67 286.98 291.71 311.02 267.67 335.06 288.89 356.28 312.93 332.24 336.97 356.28 358.18 335.06 334.14 311.02 358.18 286.98"/><polygon class="cls-20" points="358.46 286.85 337.25 265.64 313.2 289.68 289.16 265.64 267.95 286.85 291.99 310.89 267.95 334.94 289.16 356.15 313.2 332.11 337.25 356.15 358.46 334.94 334.42 310.89 358.46 286.85"/><polygon class="cls-21" points="358.74 286.73 337.52 265.51 313.48 289.56 289.44 265.51 268.23 286.73 292.27 310.77 268.23 334.81 289.44 356.02 313.48 331.98 337.52 356.02 358.74 334.81 334.69 310.77 358.74 286.73"/><polygon class="cls-22" points="359.01 286.6 337.8 265.38 313.76 289.43 289.71 265.38 268.5 286.6 292.54 310.64 268.5 334.68 289.71 355.89 313.76 331.85 337.8 355.89 359.01 334.68 334.97 310.64 359.01 286.6"/><polygon class="cls-23" points="359.29 286.47 338.07 265.26 314.03 289.3 289.99 265.26 268.78 286.47 292.82 310.51 268.78 334.56 289.99 355.77 314.03 331.73 338.07 355.77 359.29 334.56 335.25 310.51 359.29 286.47"/><polygon class="cls-24" points="359.56 286.34 338.35 265.13 314.31 289.17 290.27 265.13 269.05 286.34 293.09 310.38 269.05 334.43 290.27 355.64 314.31 331.6 338.35 355.64 359.56 334.43 335.52 310.38 359.56 286.34"/><polygon class="cls-25" points="359.84 286.22 338.63 265 314.58 289.05 290.54 265 269.33 286.22 293.37 310.26 269.33 334.3 290.54 355.51 314.58 331.47 338.63 355.51 359.84 334.3 335.8 310.26 359.84 286.22"/></g><polygon class="cls-52" points="359.84 286.22 338.63 265 314.58 289.05 290.54 265 269.33 286.22 293.37 310.26 269.33 334.3 290.54 355.51 314.58 331.47 338.63 355.51 359.84 334.3 335.8 310.26 359.84 286.22"/><g class="cls-3"><polygon class="cls-53" points="271.5 334.3 295.54 310.26 271.5 286.22 290.63 267.09 290.54 265 269.33 286.22 293.37 310.26 269.33 334.3 290.54 355.51 290.63 353.43 271.5 334.3"/><polygon class="cls-54" points="314.56 291.02 338.71 267.09 338.63 265 314.58 289.05 314.56 291.02"/><polygon class="cls-55" points="314.6 329.46 314.58 331.47 338.63 355.51 338.71 353.43 314.6 329.46"/></g><g class="cls-30"><polygon class="cls-31" points="314.6 329.46 290.63 353.43 290.54 355.51 314.58 331.47 314.6 329.46"/><polygon class="cls-31" points="314.56 291.02 314.58 289.05 290.54 265 290.63 267.09 314.56 291.02"/><polygon class="cls-31" points="359.84 286.22 338.63 265 338.71 267.09 357.84 286.22 333.8 310.26 357.84 334.3 338.7 353.43 338.63 355.51 359.84 334.3 335.8 310.26 359.84 286.22"/></g><path class="cls-56" d="M338.63,265l-24,24-20.3-20.3a87.75,87.75,0,0,0,52,79.17l13.61-13.61-24-24,24-24Z"/><rect class="cls-57" x="264.1" y="300.85" width="89.38" height="7.5" transform="translate(-124.95 307.56) rotate(-45)"/><rect class="cls-58" x="275.98" y="313.1" width="89.38" height="7.5" transform="translate(-130.13 319.55) rotate(-45)"/><rect class="cls-59" x="315.98" y="259.92" width="7.5" height="89.38" transform="translate(-121.74 315.3) rotate(-45)"/><g class="cls-3"><polygon class="cls-4" points="106.23 288.89 85.02 267.68 60.98 291.72 36.94 267.68 15.73 288.89 39.77 312.93 15.73 336.98 36.94 358.19 60.98 334.15 85.02 358.19 106.23 336.98 82.19 312.93 106.23 288.89"/><polygon class="cls-5" points="106.51 288.76 85.3 267.55 61.26 291.59 37.22 267.55 16 288.76 40.04 312.81 16 336.85 37.22 358.06 61.26 334.02 85.3 358.06 106.51 336.85 82.47 312.81 106.51 288.76"/><polygon class="cls-6" points="106.79 288.64 85.57 267.42 61.53 291.47 37.49 267.42 16.28 288.64 40.32 312.68 16.28 336.72 37.49 357.93 61.53 333.89 85.57 357.93 106.79 336.72 82.75 312.68 106.79 288.64"/><polygon class="cls-7" points="107.06 288.51 85.85 267.3 61.81 291.34 37.77 267.3 16.55 288.51 40.59 312.55 16.55 336.59 37.77 357.81 61.81 333.76 85.85 357.81 107.06 336.59 83.02 312.55 107.06 288.51"/><polygon class="cls-8" points="107.34 288.38 86.13 267.17 62.08 291.21 38.04 267.17 16.83 288.38 40.87 312.42 16.83 336.47 38.04 357.68 62.08 333.64 86.13 357.68 107.34 336.47 83.3 312.42 107.34 288.38"/><polygon class="cls-9" points="107.61 288.25 86.4 267.04 62.36 291.08 38.32 267.04 17.11 288.25 41.15 312.3 17.11 336.34 38.32 357.55 62.36 333.51 86.4 357.55 107.61 336.34 83.57 312.3 107.61 288.25"/><polygon class="cls-10" points="107.89 288.13 86.68 266.91 62.64 290.96 38.59 266.91 17.38 288.13 41.42 312.17 17.38 336.21 38.59 357.42 62.64 333.38 86.68 357.42 107.89 336.21 83.85 312.17 107.89 288.13"/><polygon class="cls-11" points="108.17 288 86.95 266.79 62.91 290.83 38.87 266.79 17.66 288 41.7 312.04 17.66 336.08 38.87 357.3 62.91 333.25 86.95 357.3 108.17 336.08 84.13 312.04 108.17 288"/><polygon class="cls-12" points="108.44 287.87 87.23 266.66 63.19 290.7 39.15 266.66 17.93 287.87 41.97 311.91 17.93 335.96 39.15 357.17 63.19 333.13 87.23 357.17 108.44 335.96 84.4 311.91 108.44 287.87"/><polygon class="cls-13" points="108.72 287.75 87.5 266.53 63.46 290.57 39.42 266.53 18.21 287.75 42.25 311.79 18.21 335.83 39.42 357.04 63.46 333 87.5 357.04 108.72 335.83 84.68 311.79 108.72 287.75"/><polygon class="cls-14" points="108.99 287.62 87.78 266.4 63.74 290.45 39.7 266.4 18.48 287.62 42.53 311.66 18.48 335.7 39.7 356.91 63.74 332.87 87.78 356.91 108.99 335.7 84.95 311.66 108.99 287.62"/><polygon class="cls-15" points="109.27 287.49 88.06 266.28 64.02 290.32 39.97 266.28 18.76 287.49 42.8 311.53 18.76 335.57 39.97 356.79 64.02 332.75 88.06 356.79 109.27 335.57 85.23 311.53 109.27 287.49"/><polygon class="cls-16" points="109.55 287.36 88.33 266.15 64.29 290.19 40.25 266.15 19.04 287.36 43.08 311.4 19.04 335.45 40.25 356.66 64.29 332.62 88.33 356.66 109.55 335.45 85.5 311.4 109.55 287.36"/><polygon class="cls-17" points="109.82 287.24 88.61 266.02 64.57 290.06 40.52 266.02 19.31 287.24 43.35 311.28 19.31 335.32 40.52 356.53 64.57 332.49 88.61 356.53 109.82 335.32 85.78 311.28 109.82 287.24"/><polygon class="cls-18" points="110.1 287.11 88.88 265.89 64.84 289.94 40.8 265.89 19.59 287.11 43.63 311.15 19.59 335.19 40.8 356.4 64.84 332.36 88.88 356.4 110.1 335.19 86.06 311.15 110.1 287.11"/><polygon class="cls-19" points="110.37 286.98 89.16 265.77 65.12 289.81 41.08 265.77 19.86 286.98 43.91 311.02 19.86 335.06 41.08 356.28 65.12 332.24 89.16 356.28 110.37 335.06 86.33 311.02 110.37 286.98"/><polygon class="cls-20" points="110.65 286.85 89.44 265.64 65.39 289.68 41.35 265.64 20.14 286.85 44.18 310.89 20.14 334.94 41.35 356.15 65.39 332.11 89.44 356.15 110.65 334.94 86.61 310.89 110.65 286.85"/><polygon class="cls-21" points="110.92 286.73 89.71 265.51 65.67 289.56 41.63 265.51 20.41 286.73 44.46 310.77 20.41 334.81 41.63 356.02 65.67 331.98 89.71 356.02 110.92 334.81 86.88 310.77 110.92 286.73"/><polygon class="cls-22" points="111.2 286.6 89.99 265.38 65.95 289.43 41.91 265.38 20.69 286.6 44.73 310.64 20.69 334.68 41.91 355.89 65.95 331.85 89.99 355.89 111.2 334.68 87.16 310.64 111.2 286.6"/><polygon class="cls-23" points="111.48 286.47 90.26 265.26 66.22 289.3 42.18 265.26 20.97 286.47 45.01 310.51 20.97 334.56 42.18 355.77 66.22 331.73 90.26 355.77 111.48 334.56 87.44 310.51 111.48 286.47"/><polygon class="cls-24" points="111.75 286.34 90.54 265.13 66.5 289.17 42.46 265.13 21.24 286.34 45.28 310.38 21.24 334.43 42.46 355.64 66.5 331.6 90.54 355.64 111.75 334.43 87.71 310.38 111.75 286.34"/><polygon class="cls-25" points="112.03 286.22 90.81 265 66.77 289.05 42.73 265 21.52 286.22 45.56 310.26 21.52 334.3 42.73 355.51 66.77 331.47 90.81 355.51 112.03 334.3 87.99 310.26 112.03 286.22"/></g><polygon class="cls-60" points="112.03 286.22 90.81 265 66.77 289.05 42.73 265 21.52 286.22 45.56 310.26 21.52 334.3 42.73 355.51 66.77 331.47 90.81 355.51 112.03 334.3 87.99 310.26 112.03 286.22"/><g class="cls-3"><polygon class="cls-61" points="23.68 334.3 47.73 310.26 23.68 286.22 42.81 267.09 42.73 265 21.52 286.22 45.56 310.26 21.52 334.3 42.73 355.51 42.81 353.43 23.68 334.3"/><polygon class="cls-62" points="66.75 291.02 90.9 267.09 90.81 265 66.77 289.05 66.75 291.02"/><polygon class="cls-63" points="66.79 329.46 66.77 331.47 90.81 355.51 90.9 353.43 66.79 329.46"/></g><g class="cls-30"><polygon class="cls-31" points="66.79 329.46 42.81 353.43 42.73 355.51 66.77 331.47 66.79 329.46"/><polygon class="cls-31" points="66.75 291.02 66.77 289.05 42.73 265 42.81 267.09 66.75 291.02"/><polygon class="cls-31" points="112.03 286.22 90.81 265 90.9 267.09 110.03 286.22 85.99 310.26 110.03 334.3 90.9 353.43 90.81 355.51 112.03 334.3 87.99 310.26 112.03 286.22"/></g><path class="cls-64" d="M90.82,265l-24,24-20.3-20.3a87.75,87.75,0,0,0,52,79.17L112,334.3l-24-24,24-24Z"/><rect class="cls-65" x="16.29" y="300.85" width="89.38" height="7.5" transform="translate(-197.53 132.34) rotate(-45)"/><rect class="cls-66" x="28.17" y="313.1" width="89.38" height="7.5" transform="translate(-202.71 144.32) rotate(-45)"/><rect class="cls-67" x="68.17" y="259.92" width="7.5" height="89.38" transform="translate(-194.32 140.07) rotate(-45)"/><g class="cls-3"><path class="cls-4" d="M309.75,208.49a19,19,0,1,1,19-19A19,19,0,0,1,309.75,208.49Zm0-68a49,49,0,1,0,49,49A49,49,0,0,0,309.75,140.49Z"/><path class="cls-5" d="M309.93,208.31a19,19,0,1,1,19-19A19,19,0,0,1,309.93,208.31Zm0-68a49,49,0,1,0,49,49A49,49,0,0,0,309.93,140.31Z"/><path class="cls-6" d="M310.12,208.13a19,19,0,1,1,19-19A19,19,0,0,1,310.12,208.13Zm0-68a49,49,0,1,0,49,49A49,49,0,0,0,310.12,140.14Z"/><path class="cls-7" d="M310.3,208a19,19,0,1,1,19-19A19,19,0,0,1,310.3,208Zm0-68a49,49,0,1,0,49,49A49,49,0,0,0,310.3,140Z"/><path class="cls-8" d="M310.49,207.78a19,19,0,1,1,19-19A19,19,0,0,1,310.49,207.78Zm0-68a49,49,0,1,0,49,49A49,49,0,0,0,310.49,139.78Z"/><path class="cls-9" d="M310.67,207.6a19,19,0,1,1,19-19A19,19,0,0,1,310.67,207.6Zm0-68a49,49,0,1,0,49,49A49,49,0,0,0,310.67,139.6Z"/><path class="cls-10" d="M310.86,207.42a19,19,0,1,1,19-19A19,19,0,0,1,310.86,207.42Zm0-68a49,49,0,1,0,49,49A49,49,0,0,0,310.86,139.42Z"/><path class="cls-11" d="M311,207.24a19,19,0,1,1,19-19A19,19,0,0,1,311,207.24Zm0-68a49,49,0,1,0,49,49A49,49,0,0,0,311,139.24Z"/><path class="cls-12" d="M311.23,207.07a19,19,0,1,1,19-19A19,19,0,0,1,311.23,207.07Zm0-68a49,49,0,1,0,49,49A49,49,0,0,0,311.23,139.06Z"/><path class="cls-13" d="M311.41,206.89a19,19,0,1,1,19-19A19,19,0,0,1,311.41,206.89Zm0-68a49,49,0,1,0,49,49A49,49,0,0,0,311.41,138.89Z"/><path class="cls-14" d="M311.59,206.71a19,19,0,1,1,19-19A19,19,0,0,1,311.59,206.71Zm0-68a49,49,0,1,0,49,49A49,49,0,0,0,311.59,138.71Z"/><path class="cls-15" d="M311.78,206.53a19,19,0,1,1,19-19A19,19,0,0,1,311.78,206.53Zm0-68a49,49,0,1,0,49,49A49,49,0,0,0,311.78,138.53Z"/><path class="cls-16" d="M312,206.35a19,19,0,1,1,19-19A19,19,0,0,1,312,206.35Zm0-68a49,49,0,1,0,49,49A49,49,0,0,0,312,138.35Z"/><path class="cls-17" d="M312.15,206.17a19,19,0,1,1,19-19A19,19,0,0,1,312.15,206.17Zm0-68a49,49,0,1,0,49,49A49,49,0,0,0,312.15,138.17Z"/><path class="cls-18" d="M312.33,206a19,19,0,1,1,19-19A19,19,0,0,1,312.33,206Zm0-68a49,49,0,1,0,49,49A49,49,0,0,0,312.33,138Z"/><path class="cls-19" d="M312.52,205.82a19,19,0,1,1,19-19A19,19,0,0,1,312.52,205.82Zm0-68a49,49,0,1,0,49,49A49,49,0,0,0,312.52,137.82Z"/><path class="cls-20" d="M312.7,205.64a19,19,0,1,1,19-19A19,19,0,0,1,312.7,205.64Zm0-68a49,49,0,1,0,49,49A49,49,0,0,0,312.7,137.64Z"/><path class="cls-21" d="M312.89,205.46a19,19,0,1,1,19-19A19,19,0,0,1,312.89,205.46Zm0-68a49,49,0,1,0,49,49A49,49,0,0,0,312.89,137.46Z"/><path class="cls-22" d="M313.07,205.28a19,19,0,1,1,19-19A19,19,0,0,1,313.07,205.28Zm0-68a49,49,0,1,0,49,49A49,49,0,0,0,313.07,137.28Z"/><path class="cls-23" d="M313.25,205.1a19,19,0,1,1,19-19A19,19,0,0,1,313.25,205.1Zm0-68a49,49,0,1,0,49,49A49,49,0,0,0,313.25,137.1Z"/><path class="cls-24" d="M313.44,204.92a19,19,0,1,1,19-19A19,19,0,0,1,313.44,204.92Zm0-68a49,49,0,1,0,49,49A49,49,0,0,0,313.44,136.92Z"/><path class="cls-25" d="M313.62,204.75a19,19,0,1,1,19-19A19,19,0,0,1,313.62,204.75Zm0-68a49,49,0,1,0,49,49A49,49,0,0,0,313.62,136.75Z"/></g><path class="cls-68" d="M313.62,136.75a49,49,0,1,0,49,49A49,49,0,0,0,313.62,136.75Zm0,68a19,19,0,1,1,19-19A19,19,0,0,1,313.62,204.75Z"/><path class="cls-31" d="M312.79,138.08a49,49,0,0,1,42,74.26,49,49,0,1,0-83.16-51.85A49,49,0,0,1,312.79,138.08Z"/><path class="cls-31" d="M293.79,187.08a19,19,0,0,0,35.51,9.41,19,19,0,0,1-32.18-20.14A18.91,18.91,0,0,0,293.79,187.08Z"/><path class="cls-69" d="M313.62,136.75a48.82,48.82,0,0,0-19.8,4.17q0,1.17,0,2.35a87.56,87.56,0,0,0,5.34,30.2,19,19,0,1,1,19.23,30.68,87.94,87.94,0,0,0,26.89,19,49,49,0,0,0-31.63-86.42Z"/><path class="cls-70" d="M313.62,145.25a40.5,40.5,0,1,0,40.5,40.5A40.5,40.5,0,0,0,313.62,145.25Zm0,74.27a33.77,33.77,0,1,1,33.77-33.77A33.77,33.77,0,0,1,313.62,219.52Z"/><g class="cls-3"><path class="cls-71" d="M333.46,184.5a19,19,0,0,0-35.26-9.84,19,19,0,0,1,31.68,20.93A18.9,18.9,0,0,0,333.46,184.5Z"/><path class="cls-72" d="M314.46,233.5A49,49,0,0,1,273.2,158a49,49,0,1,0,81.68,54.15A48.94,48.94,0,0,1,314.46,233.5Z"/></g><g class="cls-3"><path class="cls-4" d="M309.75,84.25a19,19,0,1,1,19-19A19,19,0,0,1,309.75,84.25Zm0-68a49,49,0,1,0,49,49A49,49,0,0,0,309.75,16.25Z"/><path class="cls-5" d="M309.93,84.07a19,19,0,1,1,19-19A19,19,0,0,1,309.93,84.07Zm0-68a49,49,0,1,0,49,49A49,49,0,0,0,309.93,16.07Z"/><path class="cls-6" d="M310.12,83.89a19,19,0,1,1,19-19A19,19,0,0,1,310.12,83.89Zm0-68a49,49,0,1,0,49,49A49,49,0,0,0,310.12,15.89Z"/><path class="cls-7" d="M310.3,83.71a19,19,0,1,1,19-19A19,19,0,0,1,310.3,83.71Zm0-68a49,49,0,1,0,49,49A49,49,0,0,0,310.3,15.71Z"/><path class="cls-8" d="M310.49,83.54a19,19,0,1,1,19-19A19,19,0,0,1,310.49,83.54Zm0-68a49,49,0,1,0,49,49A49,49,0,0,0,310.49,15.54Z"/><path class="cls-9" d="M310.67,83.36a19,19,0,1,1,19-19A19,19,0,0,1,310.67,83.36Zm0-68a49,49,0,1,0,49,49A49,49,0,0,0,310.67,15.36Z"/><path class="cls-10" d="M310.86,83.18a19,19,0,1,1,19-19A19,19,0,0,1,310.86,83.18Zm0-68a49,49,0,1,0,49,49A49,49,0,0,0,310.86,15.18Z"/><path class="cls-11" d="M311,83a19,19,0,1,1,19-19A19,19,0,0,1,311,83Zm0-68a49,49,0,1,0,49,49A49,49,0,0,0,311,15Z"/><path class="cls-12" d="M311.23,82.82a19,19,0,1,1,19-19A19,19,0,0,1,311.23,82.82Zm0-68a49,49,0,1,0,49,49A49,49,0,0,0,311.23,14.82Z"/><path class="cls-13" d="M311.41,82.64a19,19,0,1,1,19-19A19,19,0,0,1,311.41,82.64Zm0-68a49,49,0,1,0,49,49A49,49,0,0,0,311.41,14.64Z"/><path class="cls-14" d="M311.59,82.46a19,19,0,1,1,19-19A19,19,0,0,1,311.59,82.46Zm0-68a49,49,0,1,0,49,49A49,49,0,0,0,311.59,14.46Z"/><path class="cls-15" d="M311.78,82.29a19,19,0,1,1,19-19A19,19,0,0,1,311.78,82.29Zm0-68a49,49,0,1,0,49,49A49,49,0,0,0,311.78,14.29Z"/><path class="cls-16" d="M312,82.11a19,19,0,1,1,19-19A19,19,0,0,1,312,82.11Zm0-68a49,49,0,1,0,49,49A49,49,0,0,0,312,14.11Z"/><path class="cls-17" d="M312.15,81.93a19,19,0,1,1,19-19A19,19,0,0,1,312.15,81.93Zm0-68a49,49,0,1,0,49,49A49,49,0,0,0,312.15,13.93Z"/><path class="cls-18" d="M312.33,81.75a19,19,0,1,1,19-19A19,19,0,0,1,312.33,81.75Zm0-68a49,49,0,1,0,49,49A49,49,0,0,0,312.33,13.75Z"/><path class="cls-19" d="M312.52,81.57a19,19,0,1,1,19-19A19,19,0,0,1,312.52,81.57Zm0-68a49,49,0,1,0,49,49A49,49,0,0,0,312.52,13.57Z"/><path class="cls-20" d="M312.7,81.4a19,19,0,1,1,19-19A19,19,0,0,1,312.7,81.4Zm0-68a49,49,0,1,0,49,49A49,49,0,0,0,312.7,13.4Z"/><path class="cls-21" d="M312.89,81.22a19,19,0,1,1,19-19A19,19,0,0,1,312.89,81.22Zm0-68a49,49,0,1,0,49,49A49,49,0,0,0,312.89,13.22Z"/><path class="cls-22" d="M313.07,81a19,19,0,1,1,19-19A19,19,0,0,1,313.07,81Zm0-68a49,49,0,1,0,49,49A49,49,0,0,0,313.07,13Z"/><path class="cls-23" d="M313.25,80.86a19,19,0,1,1,19-19A19,19,0,0,1,313.25,80.86Zm0-68a49,49,0,1,0,49,49A49,49,0,0,0,313.25,12.86Z"/><path class="cls-24" d="M313.44,80.68a19,19,0,1,1,19-19A19,19,0,0,1,313.44,80.68Zm0-68a49,49,0,1,0,49,49A49,49,0,0,0,313.44,12.68Z"/><path class="cls-25" d="M313.62,80.5a19,19,0,1,1,19-19A19,19,0,0,1,313.62,80.5Zm0-68a49,49,0,1,0,49,49A49,49,0,0,0,313.62,12.5Z"/></g><path class="cls-73" d="M313.62,12.5a49,49,0,1,0,49,49A49,49,0,0,0,313.62,12.5Zm0,68a19,19,0,1,1,19-19A19,19,0,0,1,313.62,80.5Z"/><path class="cls-31" d="M312.79,13.84a49,49,0,0,1,42,74.26,49,49,0,1,0-83.16-51.84A49,49,0,0,1,312.79,13.84Z"/><path class="cls-31" d="M293.79,62.84a19,19,0,0,0,35.51,9.41A19,19,0,0,1,297.12,52.1,18.91,18.91,0,0,0,293.79,62.84Z"/><path class="cls-74" d="M313.62,12.5a48.82,48.82,0,0,0-19.8,4.17q0,1.17,0,2.35a87.56,87.56,0,0,0,5.34,30.2,19,19,0,1,1,19.23,30.68,88,88,0,0,0,26.89,19A49,49,0,0,0,313.62,12.5Z"/><path class="cls-75" d="M313.62,21a40.5,40.5,0,1,0,40.5,40.5A40.5,40.5,0,0,0,313.62,21Zm0,74.27A33.77,33.77,0,1,1,347.39,61.5,33.77,33.77,0,0,1,313.62,95.27Z"/><g class="cls-3"><path class="cls-76" d="M333.46,60.25a19,19,0,0,0-35.26-9.84,19,19,0,0,1,31.68,20.93A18.91,18.91,0,0,0,333.46,60.25Z"/><path class="cls-77" d="M314.46,109.25A49,49,0,0,1,273.2,33.81,49,49,0,1,0,354.88,88,48.94,48.94,0,0,1,314.46,109.25Z"/></g><g class="cls-3"><path class="cls-4" d="M61.94,84.25a19,19,0,1,1,19-19A19,19,0,0,1,61.94,84.25Zm0-68a49,49,0,1,0,49,49A49,49,0,0,0,61.94,16.25Z"/><path class="cls-5" d="M62.13,84.07a19,19,0,1,1,19-19A19,19,0,0,1,62.13,84.07Zm0-68a49,49,0,1,0,49,49A49,49,0,0,0,62.13,16.07Z"/><path class="cls-6" d="M62.31,83.89a19,19,0,1,1,19-19A19,19,0,0,1,62.31,83.89Zm0-68a49,49,0,1,0,49,49A49,49,0,0,0,62.31,15.89Z"/><path class="cls-7" d="M62.49,83.71a19,19,0,1,1,19-19A19,19,0,0,1,62.49,83.71Zm0-68a49,49,0,1,0,49,49A49,49,0,0,0,62.49,15.71Z"/><path class="cls-8" d="M62.68,83.54a19,19,0,1,1,19-19A19,19,0,0,1,62.68,83.54Zm0-68a49,49,0,1,0,49,49A49,49,0,0,0,62.68,15.54Z"/><path class="cls-9" d="M62.86,83.36a19,19,0,1,1,19-19A19,19,0,0,1,62.86,83.36Zm0-68a49,49,0,1,0,49,49A49,49,0,0,0,62.86,15.36Z"/><path class="cls-10" d="M63,83.18a19,19,0,1,1,19-19A19,19,0,0,1,63,83.18Zm0-68a49,49,0,1,0,49,49A49,49,0,0,0,63,15.18Z"/><path class="cls-11" d="M63.23,83a19,19,0,1,1,19-19A19,19,0,0,1,63.23,83Zm0-68a49,49,0,1,0,49,49A49,49,0,0,0,63.23,15Z"/><path class="cls-12" d="M63.42,82.82a19,19,0,1,1,19-19A19,19,0,0,1,63.42,82.82Zm0-68a49,49,0,1,0,49,49A49,49,0,0,0,63.42,14.82Z"/><path class="cls-13" d="M63.6,82.64a19,19,0,1,1,19-19A19,19,0,0,1,63.6,82.64Zm0-68a49,49,0,1,0,49,49A49,49,0,0,0,63.6,14.64Z"/><path class="cls-14" d="M63.78,82.46a19,19,0,1,1,19-19A19,19,0,0,1,63.78,82.46Zm0-68a49,49,0,1,0,49,49A49,49,0,0,0,63.78,14.46Z"/><path class="cls-15" d="M64,82.29a19,19,0,1,1,19-19A19,19,0,0,1,64,82.29Zm0-68a49,49,0,1,0,49,49A49,49,0,0,0,64,14.29Z"/><path class="cls-16" d="M64.15,82.11a19,19,0,1,1,19-19A19,19,0,0,1,64.15,82.11Zm0-68a49,49,0,1,0,49,49A49,49,0,0,0,64.15,14.11Z"/><path class="cls-17" d="M64.34,81.93a19,19,0,1,1,19-19A19,19,0,0,1,64.34,81.93Zm0-68a49,49,0,1,0,49,49A49,49,0,0,0,64.34,13.93Z"/><path class="cls-18" d="M64.52,81.75a19,19,0,1,1,19-19A19,19,0,0,1,64.52,81.75Zm0-68a49,49,0,1,0,49,49A49,49,0,0,0,64.52,13.75Z"/><path class="cls-19" d="M64.71,81.57a19,19,0,1,1,19-19A19,19,0,0,1,64.71,81.57Zm0-68a49,49,0,1,0,49,49A49,49,0,0,0,64.71,13.57Z"/><path class="cls-20" d="M64.89,81.4a19,19,0,1,1,19-19A19,19,0,0,1,64.89,81.4Zm0-68a49,49,0,1,0,49,49A49,49,0,0,0,64.89,13.4Z"/><path class="cls-21" d="M65.08,81.22a19,19,0,1,1,19-19A19,19,0,0,1,65.08,81.22Zm0-68a49,49,0,1,0,49,49A49,49,0,0,0,65.08,13.22Z"/><path class="cls-22" d="M65.26,81a19,19,0,1,1,19-19A19,19,0,0,1,65.26,81Zm0-68a49,49,0,1,0,49,49A49,49,0,0,0,65.26,13Z"/><path class="cls-23" d="M65.44,80.86a19,19,0,1,1,19-19A19,19,0,0,1,65.44,80.86Zm0-68a49,49,0,1,0,49,49A49,49,0,0,0,65.44,12.86Z"/><path class="cls-24" d="M65.63,80.68a19,19,0,1,1,19-19A19,19,0,0,1,65.63,80.68Zm0-68a49,49,0,1,0,49,49A49,49,0,0,0,65.63,12.68Z"/><path class="cls-25" d="M65.81,80.5a19,19,0,1,1,19-19A19,19,0,0,1,65.81,80.5Zm0-68a49,49,0,1,0,49,49A49,49,0,0,0,65.81,12.5Z"/></g><path class="cls-78" d="M65.81,12.5a49,49,0,1,0,49,49A49,49,0,0,0,65.81,12.5Zm0,68a19,19,0,1,1,19-19A19,19,0,0,1,65.81,80.5Z"/><path class="cls-31" d="M65,13.84a49,49,0,0,1,42,74.26A49,49,0,1,0,23.82,36.25,49,49,0,0,1,65,13.84Z"/><path class="cls-31" d="M46,62.84a19,19,0,0,0,35.51,9.41A19,19,0,0,1,49.31,52.1,18.91,18.91,0,0,0,46,62.84Z"/><path class="cls-79" d="M65.81,12.5A48.82,48.82,0,0,0,46,16.67q0,1.17,0,2.35a87.57,87.57,0,0,0,5.34,30.2A19,19,0,1,1,70.55,79.91a87.94,87.94,0,0,0,26.89,19A49,49,0,0,0,65.81,12.5Z"/><path class="cls-80" d="M65.81,21a40.5,40.5,0,1,0,40.5,40.5A40.5,40.5,0,0,0,65.81,21Zm0,74.27A33.77,33.77,0,1,1,99.58,61.5,33.77,33.77,0,0,1,65.81,95.27Z"/><g class="cls-3"><path class="cls-81" d="M85.65,60.25a19,19,0,0,0-35.26-9.84A19,19,0,0,1,82.07,71.34,18.91,18.91,0,0,0,85.65,60.25Z"/><path class="cls-82" d="M66.65,109.25A49,49,0,0,1,25.39,33.81,49,49,0,1,0,107.07,88,48.94,48.94,0,0,1,66.65,109.25Z"/></g><g class="cls-3"><path class="cls-4" d="M185.9,331.49a19,19,0,1,1,19-19A19,19,0,0,1,185.9,331.49Zm0-68a49,49,0,1,0,49,49A49,49,0,0,0,185.9,263.49Z"/><path class="cls-5" d="M186.08,331.31a19,19,0,1,1,19-19A19,19,0,0,1,186.08,331.31Zm0-68a49,49,0,1,0,49,49A49,49,0,0,0,186.08,263.31Z"/><path class="cls-6" d="M186.27,331.13a19,19,0,1,1,19-19A19,19,0,0,1,186.27,331.13Zm0-68a49,49,0,1,0,49,49A49,49,0,0,0,186.27,263.13Z"/><path class="cls-7" d="M186.45,331a19,19,0,1,1,19-19A19,19,0,0,1,186.45,331Zm0-68a49,49,0,1,0,49,49A49,49,0,0,0,186.45,263Z"/><path class="cls-8" d="M186.64,330.78a19,19,0,1,1,19-19A19,19,0,0,1,186.64,330.78Zm0-68a49,49,0,1,0,49,49A49,49,0,0,0,186.64,262.78Z"/><path class="cls-9" d="M186.82,330.6a19,19,0,1,1,19-19A19,19,0,0,1,186.82,330.6Zm0-68a49,49,0,1,0,49,49A49,49,0,0,0,186.82,262.6Z"/><path class="cls-10" d="M187,330.42a19,19,0,1,1,19-19A19,19,0,0,1,187,330.42Zm0-68a49,49,0,1,0,49,49A49,49,0,0,0,187,262.42Z"/><path class="cls-11" d="M187.19,330.24a19,19,0,1,1,19-19A19,19,0,0,1,187.19,330.24Zm0-68a49,49,0,1,0,49,49A49,49,0,0,0,187.19,262.24Z"/><path class="cls-12" d="M187.38,330.07a19,19,0,1,1,19-19A19,19,0,0,1,187.38,330.07Zm0-68a49,49,0,1,0,49,49A49,49,0,0,0,187.38,262.07Z"/><path class="cls-13" d="M187.56,329.89a19,19,0,1,1,19-19A19,19,0,0,1,187.56,329.89Zm0-68a49,49,0,1,0,49,49A49,49,0,0,0,187.56,261.89Z"/><path class="cls-14" d="M187.74,329.71a19,19,0,1,1,19-19A19,19,0,0,1,187.74,329.71Zm0-68a49,49,0,1,0,49,49A49,49,0,0,0,187.74,261.71Z"/><path class="cls-15" d="M187.93,329.53a19,19,0,1,1,19-19A19,19,0,0,1,187.93,329.53Zm0-68a49,49,0,1,0,49,49A49,49,0,0,0,187.93,261.53Z"/><path class="cls-16" d="M188.11,329.35a19,19,0,1,1,19-19A19,19,0,0,1,188.11,329.35Zm0-68a49,49,0,1,0,49,49A49,49,0,0,0,188.11,261.35Z"/><path class="cls-17" d="M188.3,329.17a19,19,0,1,1,19-19A19,19,0,0,1,188.3,329.17Zm0-68a49,49,0,1,0,49,49A49,49,0,0,0,188.3,261.17Z"/><path class="cls-18" d="M188.48,329a19,19,0,1,1,19-19A19,19,0,0,1,188.48,329Zm0-68a49,49,0,1,0,49,49A49,49,0,0,0,188.48,261Z"/><path class="cls-19" d="M188.67,328.82a19,19,0,1,1,19-19A19,19,0,0,1,188.67,328.82Zm0-68a49,49,0,1,0,49,49A49,49,0,0,0,188.67,260.82Z"/><path class="cls-20" d="M188.85,328.64a19,19,0,1,1,19-19A19,19,0,0,1,188.85,328.64Zm0-68a49,49,0,1,0,49,49A49,49,0,0,0,188.85,260.64Z"/><path class="cls-21" d="M189,328.46a19,19,0,1,1,19-19A19,19,0,0,1,189,328.46Zm0-68a49,49,0,1,0,49,49A49,49,0,0,0,189,260.46Z"/><path class="cls-22" d="M189.22,328.28a19,19,0,1,1,19-19A19,19,0,0,1,189.22,328.28Zm0-68a49,49,0,1,0,49,49A49,49,0,0,0,189.22,260.28Z"/><path class="cls-23" d="M189.4,328.1a19,19,0,1,1,19-19A19,19,0,0,1,189.4,328.1Zm0-68a49,49,0,1,0,49,49A49,49,0,0,0,189.4,260.1Z"/><path class="cls-24" d="M189.59,327.92a19,19,0,1,1,19-19A19,19,0,0,1,189.59,327.92Zm0-68a49,49,0,1,0,49,49A49,49,0,0,0,189.59,259.92Z"/><path class="cls-25" d="M189.77,327.75a19,19,0,1,1,19-19A19,19,0,0,1,189.77,327.75Zm0-68a49,49,0,1,0,49,49A49,49,0,0,0,189.77,259.75Z"/></g><path class="cls-83" d="M189.77,259.75a49,49,0,1,0,49,49A49,49,0,0,0,189.77,259.75Zm0,68a19,19,0,1,1,19-19A19,19,0,0,1,189.77,327.75Z"/><path class="cls-31" d="M188.94,261.08a49,49,0,0,1,42,74.26,49,49,0,1,0-83.16-51.84A49,49,0,0,1,188.94,261.08Z"/><path class="cls-31" d="M169.94,310.08a19,19,0,0,0,35.51,9.41,19,19,0,0,1-32.18-20.14A18.91,18.91,0,0,0,169.94,310.08Z"/><path class="cls-84" d="M189.77,259.75a48.82,48.82,0,0,0-19.8,4.17q0,1.17,0,2.35a87.56,87.56,0,0,0,5.34,30.2,19,19,0,1,1,19.23,30.68,87.94,87.94,0,0,0,26.89,19,49,49,0,0,0-31.62-86.42Z"/><path class="cls-85" d="M189.77,268.25a40.5,40.5,0,1,0,40.5,40.5A40.5,40.5,0,0,0,189.77,268.25Zm0,74.27a33.77,33.77,0,1,1,33.77-33.77A33.77,33.77,0,0,1,189.77,342.52Z"/><g class="cls-3"><path class="cls-86" d="M209.61,307.5a19,19,0,0,0-35.26-9.84A19,19,0,0,1,206,318.59,18.91,18.91,0,0,0,209.61,307.5Z"/><path class="cls-87" d="M190.61,356.5A49,49,0,0,1,149.35,281,49,49,0,1,0,231,335.19,48.94,48.94,0,0,1,190.61,356.5Z"/></g><g class="cls-88"><polygon class="cls-89" points="247.8 247.59 247.8 127.65 127.87 127.65 129.47 128.99 245.87 128.99 245.87 245.87 247.8 247.59"/><polygon class="cls-89" points="247.8 123.65 247.8 1.72 245.87 0 245.87 121.93 247.8 123.65"/><polygon class="cls-89" points="123.87 123.65 123.87 1.72 121.93 0 121.93 121.93 123.87 123.65"/><polygon class="cls-89" points="251.8 127.65 253.41 128.99 375.34 128.99 373.74 127.65 251.8 127.65"/><polygon class="cls-89" points="247.8 373.52 247.8 251.59 127.87 251.59 129.47 252.92 245.87 252.92 245.87 374.86 253.41 374.86 251.77 373.52 247.8 373.52"/><polygon class="cls-89" points="121.93 245.87 123.87 247.59 123.87 127.65 1.94 127.65 1.94 123.65 0 121.93 0 128.99 121.93 128.99 121.93 245.87"/><polygon class="cls-89" points="251.8 251.59 253.41 252.92 375.34 252.92 373.74 251.59 251.8 251.59"/><polygon class="cls-89" points="123.87 373.52 123.87 251.59 1.94 251.59 1.94 247.59 0 245.87 0 252.92 121.93 252.92 121.93 374.86 129.47 374.86 127.87 373.52 123.87 373.52"/></g><g class="cls-90"><polygon class="cls-91" points="123.87 247.59 121.93 245.87 0 245.87 1.94 247.59 123.87 247.59"/><polygon class="cls-92" points="127.87 127.65 127.87 247.59 247.8 247.59 245.87 245.87 129.47 245.87 129.47 128.99 127.87 127.65"/><polygon class="cls-93" points="127.87 1.72 127.87 123.65 247.8 123.65 245.88 121.93 129.47 121.93 129.47 0 121.93 0 123.87 1.72 127.87 1.72"/><polygon class="cls-94" points="123.87 123.65 121.93 121.93 0 121.93 1.94 123.65 123.87 123.65"/><polygon class="cls-95" points="253.41 121.93 253.41 0 245.87 0 247.8 1.72 251.8 1.72 251.8 123.65 373.74 123.65 373.74 127.65 375.34 128.99 375.34 121.93 253.41 121.93"/><polygon class="cls-96" points="253.41 128.99 251.8 127.65 251.8 247.59 373.74 247.59 373.74 251.59 375.34 252.92 375.34 245.87 253.41 245.87 253.41 128.99"/><polygon class="cls-97" points="251.8 251.59 251.8 373.52 253.41 374.86 253.41 252.92 251.8 251.59"/><polygon class="cls-98" points="127.87 251.59 127.87 373.52 129.47 374.86 129.47 252.92 127.87 251.59"/></g></g></g></g></svg>