<svg xmlns="http://www.w3.org/2000/svg" viewBox="0 0 105.5 52"><defs><style>.cls-1{fill:none;stroke:#931c58;stroke-width:2px;}.cls-1,.cls-3{stroke-miterlimit:10;}.cls-2{fill:#d3246c;}.cls-3{fill:#fff;stroke:#fff;}</style></defs><title>add_icon</title><g id="レイヤー_2" data-name="レイヤー 2"><g id="レイヤー_1-2" data-name="レイヤー 1"><rect class="cls-1" x="1.5" y="1" width="103" height="50" rx="5" ry="5"/><rect class="cls-2" y="0.01" width="104" height="50.49" rx="5" ry="5"/><path class="cls-3" d="M34.22,31.79H21.84L20,37H17L26,12.5h3.87L39,37H36.12Zm-.81-2.08L28,14.76,22.63,29.71Z"/><path class="cls-3" d="M41.52,37V12.5H52.84q5.25,0,7.12,2.31t1.86,8.85q0,8-1.66,10.63T53.54,37Zm2.76-2.33h8q4.39,0,5.66-1.76T59.19,25q0-6.67-1.1-8.44t-5.28-1.77H44.28Z"/><path class="cls-3" d="M65.49,37V12.5H76.82q5.25,0,7.12,2.31t1.86,8.85q0,8-1.66,10.63T77.52,37Zm2.76-2.33h8q4.39,0,5.66-1.76T83.17,25q0-6.67-1.1-8.44t-5.28-1.77H68.25Z"/></g></g></svg>