<svg id="レイヤー_1" data-name="レイヤー 1" xmlns="http://www.w3.org/2000/svg" xmlns:xlink="http://www.w3.org/1999/xlink" viewBox="0 0 442 395"><defs><style>.cls-1,.cls-4{fill:none;}.cls-2{clip-path:url(#clip-path);}.cls-3{fill:#3a3a38;}.cls-3,.cls-4,.cls-5,.cls-6,.cls-7{stroke:#000;}.cls-4{stroke-width:2px;}.cls-5{fill:#d6ab73;}.cls-6{fill:#ffc69c;}.cls-7{stroke-linecap:round;stroke-linejoin:round;stroke-width:0.5px;}.cls-8{opacity:0.45;}</style><clipPath id="clip-path"><polygon class="cls-1" points="220.42 395.35 0 300.7 0 0 442 0 442 300.7 220.42 395.35"/></clipPath></defs><title>shogi_image</title><g class="cls-2"><rect class="cls-3" x="-11" y="-31.31" width="50.33" height="51.39"/><rect class="cls-3" x="89.67" y="-31.31" width="50.33" height="51.39"/><rect class="cls-3" x="291" y="-31.31" width="50.33" height="51.39"/><rect class="cls-3" x="391.67" y="-31.31" width="50.33" height="51.39"/><rect class="cls-3" x="190.33" y="-31.31" width="50.33" height="51.39"/><rect class="cls-3" x="39.33" y="20.07" width="50.33" height="51.39"/><rect class="cls-3" x="140" y="20.07" width="50.33" height="51.39"/><rect class="cls-3" x="341.33" y="20.07" width="50.33" height="51.39"/><rect class="cls-3" x="240.67" y="20.07" width="50.33" height="51.39"/><rect class="cls-3" x="-11" y="71.46" width="50.33" height="51.39"/><rect class="cls-3" x="89.67" y="71.46" width="50.33" height="51.39"/><rect class="cls-3" x="291" y="71.46" width="50.33" height="51.39"/><rect class="cls-3" x="391.67" y="71.46" width="50.33" height="51.39"/><rect class="cls-3" x="190.33" y="71.46" width="50.33" height="51.39"/><rect class="cls-3" x="39.33" y="122.85" width="50.33" height="51.39"/><rect class="cls-3" x="140" y="122.85" width="50.33" height="51.39"/><rect class="cls-3" x="341.33" y="122.85" width="50.33" height="51.39"/><rect class="cls-3" x="240.67" y="122.85" width="50.33" height="51.39"/><rect class="cls-3" x="-11" y="174.24" width="50.33" height="51.39"/><rect class="cls-3" x="89.67" y="174.24" width="50.33" height="51.39"/><rect class="cls-3" x="291" y="174.24" width="50.33" height="51.39"/><rect class="cls-3" x="391.67" y="174.24" width="50.33" height="51.39"/><rect class="cls-3" x="190.33" y="174.24" width="50.33" height="51.39"/><rect class="cls-3" x="39.33" y="225.63" width="50.33" height="51.39"/><rect class="cls-3" x="140" y="225.63" width="50.33" height="51.39"/><rect class="cls-3" x="341.33" y="225.63" width="50.33" height="51.39"/><rect class="cls-3" x="240.67" y="225.63" width="50.33" height="51.39"/><rect class="cls-3" x="-11" y="277.01" width="50.33" height="51.39"/><rect class="cls-3" x="89.67" y="277.01" width="50.33" height="51.39"/><rect class="cls-3" x="291" y="277.01" width="50.33" height="51.39"/><rect class="cls-3" x="391.67" y="277.01" width="50.33" height="51.39"/><rect class="cls-3" x="190.33" y="277.01" width="50.33" height="51.39"/><rect class="cls-3" x="39.33" y="328.4" width="50.33" height="51.39"/><rect class="cls-3" x="140" y="328.4" width="50.33" height="51.39"/><rect class="cls-3" x="341.33" y="328.4" width="50.33" height="51.39"/><rect class="cls-3" x="240.67" y="328.4" width="50.33" height="51.39"/><rect class="cls-3" x="-11" y="379.79" width="50.33" height="51.39"/><rect class="cls-3" x="89.67" y="379.79" width="50.33" height="51.39"/><rect class="cls-3" x="291" y="379.79" width="50.33" height="51.39"/><rect class="cls-3" x="391.67" y="379.79" width="50.33" height="51.39"/><rect class="cls-3" x="190.33" y="379.79" width="50.33" height="51.39"/><rect id="Frame" class="cls-4" x="-11" y="-31.31" width="453" height="462.49"/><rect class="cls-5" x="39.33" y="-31.31" width="50.33" height="51.39"/><rect class="cls-5" x="140" y="-31.31" width="50.33" height="51.39"/><rect class="cls-5" x="341.33" y="-31.31" width="50.33" height="51.39"/><rect class="cls-5" x="240.67" y="-31.31" width="50.33" height="51.39"/><rect class="cls-5" x="-11" y="20.07" width="50.33" height="51.39"/><rect class="cls-5" x="89.67" y="20.07" width="50.33" height="51.39"/><rect class="cls-5" x="291" y="20.07" width="50.33" height="51.39"/><rect class="cls-5" x="391.67" y="20.07" width="50.33" height="51.39"/><rect class="cls-5" x="190.33" y="20.07" width="50.33" height="51.39"/><rect class="cls-5" x="39.33" y="71.46" width="50.33" height="51.39"/><rect class="cls-5" x="140" y="71.46" width="50.33" height="51.39"/><rect class="cls-5" x="341.33" y="71.46" width="50.33" height="51.39"/><rect class="cls-5" x="240.67" y="71.46" width="50.33" height="51.39"/><rect class="cls-5" x="-11" y="122.85" width="50.33" height="51.39"/><rect class="cls-5" x="89.67" y="122.85" width="50.33" height="51.39"/><rect class="cls-5" x="291" y="122.85" width="50.33" height="51.39"/><rect class="cls-5" x="391.67" y="122.85" width="50.33" height="51.39"/><rect class="cls-5" x="190.33" y="122.85" width="50.33" height="51.39"/><rect class="cls-5" x="39.33" y="174.24" width="50.33" height="51.39"/><rect class="cls-5" x="140" y="174.24" width="50.33" height="51.39"/><rect class="cls-5" x="341.33" y="174.24" width="50.33" height="51.39"/><rect class="cls-5" x="240.67" y="174.24" width="50.33" height="51.39"/><rect class="cls-5" x="-11" y="225.63" width="50.33" height="51.39"/><rect class="cls-5" x="89.67" y="225.63" width="50.33" height="51.39"/><rect class="cls-5" x="291" y="225.63" width="50.33" height="51.39"/><rect class="cls-5" x="391.67" y="225.63" width="50.33" height="51.39"/><rect class="cls-5" x="190.33" y="225.63" width="50.33" height="51.39"/><rect class="cls-5" x="39.33" y="277.01" width="50.33" height="51.39"/><rect class="cls-5" x="140" y="277.01" width="50.33" height="51.39"/><rect class="cls-5" x="341.33" y="277.01" width="50.33" height="51.39"/><rect class="cls-5" x="240.67" y="277.01" width="50.33" height="51.39"/><rect class="cls-5" x="-11" y="328.4" width="50.33" height="51.39"/><rect class="cls-5" x="89.67" y="328.4" width="50.33" height="51.39"/><rect class="cls-5" x="291" y="328.4" width="50.33" height="51.39"/><rect class="cls-5" x="391.67" y="328.4" width="50.33" height="51.39"/><rect class="cls-5" x="190.33" y="328.4" width="50.33" height="51.39"/><rect class="cls-5" x="39.33" y="379.79" width="50.33" height="51.39"/><rect class="cls-5" x="140" y="379.79" width="50.33" height="51.39"/><rect class="cls-5" x="341.33" y="379.79" width="50.33" height="51.39"/><rect class="cls-5" x="240.67" y="379.79" width="50.33" height="51.39"/><polygon class="cls-6" points="305.34 62.99 316.49 65.86 327.64 62.99 333.59 25.02 299.39 25.02 305.34 62.99"/><path class="cls-7" d="M310.27,50.47l-1.65-1.16c.14-.24.34-.36.83-.36h14.88l.12.41h-7.18v6.5h5.5l.1.41h-5.6v5.53h6.28l.12.41H311.9L311,63.3l-1.63-1.14c.14-.25.32-.36.82-.36h5.91V56.27h-3.57l-.85,1.05-1.58-1.11c.14-.26.34-.36.82-.36h5.19v-6.5h-5Zm4.19,4.15c-2.5-.8-3.29-2-3.29-2.86,0-.48.27-.82.63-.82a.8.8,0,0,1,.53.22,6.49,6.49,0,0,0,2.26,3.3Z"/><path class="cls-7" d="M321.06,43.3l-1.8-.17c0-.24.19-.36.71-.41V28.09c0-.05.15-.44,1.09-.44v5.55c.63-.48,1.46-1.11,2.43-1.79a.56.56,0,0,1,.32-.44l.73,1.46c-.63.19-2,.7-3.49,1.28ZM323.92,41c-1.92-.87-2.52-2-2.52-2.67,0-.46.26-.78.58-.78a.68.68,0,0,1,.48.22,6.37,6.37,0,0,0,1.63,3.1Zm-14.09-5.19-1.4-1c.15-.25.34-.36.8-.36h2.14V29.23c0-.87.22-1.48,1.87-1.65,0,.73.48.94,2.09,1v.25h-2.47c-.34,0-.43.1-.43.37v5.14h7l.12.41h-7.08v2l-1.79-.12c0-.24.12-.36.71-.43v-1.5h-.82Zm-.22,6.43a.49.49,0,0,1,.32-.1,1.57,1.57,0,0,1,.56.12,69,69,0,0,1,9-1.24l.05.31a54,54,0,0,0-8.61,2.11Zm9-1.86c-1.48-.87-2-1.84-2-2.5s.27-.87.6-.87a.61.61,0,0,1,.46.24,5.75,5.75,0,0,0,1.09,3Zm-.85-6.77c-2-.77-2.64-1.82-2.64-2.54,0-.46.27-.78.61-.78a.68.68,0,0,1,.48.22,5.76,5.76,0,0,0,1.69,3Zm-2.38,7.32a3.44,3.44,0,0,1-1.43-2.5c0-.66.34-1.09.7-1.09a.59.59,0,0,1,.46.27c0,.19,0,.37,0,.58a7.61,7.61,0,0,0,.53,2.67Zm-6-.82a.34.34,0,0,1,.36-.2l.29,0a16.6,16.6,0,0,1,3.76-4l.19.24a18.13,18.13,0,0,0-3,4.7Z"/><polygon class="cls-6" points="54.07 62.51 64.79 65.28 75.51 62.51 81.23 26 48.35 26 54.07 62.51"/><path class="cls-7" d="M57.44,50.95l.16-1.8c-.31-.26-.44-.44-.44-.62s0-.41.57-.41a2.9,2.9,0,0,1,1.11.29c2.57,1,3.29,3.31,3.45,7.05h2.44v-7s.16-.41,1-.41v7.36h2.77c.07-2.62.67-5.56,3.48-7.36l.21.21c-2.18,1.9-2.64,4.65-2.68,7.15h2.75l.11.39H69.56v3a17,17,0,0,1,2.68-1.19l.15.25a14.77,14.77,0,0,0-4.29,3.22l-1.44-.74a.44.44,0,0,1,.43-.18l.33,0a13.43,13.43,0,0,1,1.26-.88l-.82-.07c0-.25.16-.34.67-.39v-3H65.78v5.3L64.11,61c0-.23.16-.33.62-.38V55.86H62.46l-.49.62-1.32-1a1,1,0,0,1,.64-.25,17.86,17.86,0,0,0-.15-1.95c-.28,0-.54-.08-.77-.13-.39.59-.9,1.42-1.21,1.93l-1.21-.77a.27.27,0,0,1,.28-.15l.28,0c.36-.29,1-.77,1.47-1.15-1.37-.41-1.87-1.11-1.87-1.59a.45.45,0,0,1,.44-.49.68.68,0,0,1,.33.1,6.72,6.72,0,0,0,2.19,1.85c-.33-1.77-1-3-2.57-3.53a.74.74,0,0,0-.21,0c-.1,0-.15,0-.2.18A11.18,11.18,0,0,0,57.6,51Zm.23,5.3c-.3-.28-.43-.47-.43-.64s.16-.41.57-.41a2.66,2.66,0,0,1,1.08.31c2.26,1,3.06,3.06,3.26,6.28h9.28l.13.39H62.31l-.47.62-1.33-1a1,1,0,0,1,.62-.25A10.22,10.22,0,0,0,61,60.13c-.31,0-.59-.08-.85-.13-.41.57-.92,1.39-1.21,1.88l-1.18-.82a.29.29,0,0,1,.28-.13.82.82,0,0,1,.26,0c.36-.29.95-.72,1.46-1.06-1.23-.38-1.65-1-1.65-1.47a.44.44,0,0,1,.44-.49.65.65,0,0,1,.33.08,5.8,5.8,0,0,0,2.08,1.8,4,4,0,0,0-2.41-3.32.49.49,0,0,0-.21-.07c-.08,0-.12.07-.16.18-.15.36-.33.87-.47,1.36l-.16,0Z"/><path class="cls-7" d="M58.81,32.78,57.24,31.7c.13-.25.31-.36.79-.36h6.3V28.87s.15-.41,1.08-.41v2.88h6.86l.11.39h-7v2h3.66v-.57s.15-.38,1-.38V40L69,39.47H65.4v1.83h6.51l.11.39H65.4v1.95l-1.78-.16c0-.23.2-.36.7-.41V41.7H60l-.83,1-1.59-1.06c.13-.23.33-.34.8-.34h6V39.47H60.74l-.52.65-1.42-1a1.34,1.34,0,0,1,.7-.34V33.29s.33-.38,1.08-.38v.79h3.75v-2h-4.7Zm6.59,6.3h3.66V36.82H65.4Zm3.66-5H65.4v2.34h3.66Zm-8.49,5h3.75V36.82H60.58Zm3.75-5H60.58v2.34h3.75Z"/><polygon class="cls-6" points="355.85 62.51 366.57 65.28 377.29 62.51 383.01 26 350.13 26 355.85 62.51"/><path class="cls-7" d="M362,59.19l-1.37-1a1.16,1.16,0,0,1,.64-.31V49.48c0-.85.26-1.46,1.88-1.59,0,.9.64,1,2.08,1.13v.21h-2.5c-.29,0-.39.07-.39.26v2.88h8.53A6.73,6.73,0,0,1,374,47.9l.21.21c-2.11,2-2.44,4.45-2.44,7v3.34A13.7,13.7,0,0,1,374,56.81l.18.2a15.78,15.78,0,0,0-4.52,6.05l-1.7-.47c.07-.16.2-.24.61-.21.21-.36.44-.74.7-1.11h-3.86l-.69.69-1.23-1.16c.13-.13.33-.15.65-.16a17.8,17.8,0,0,1,2.18-2.08h-3.75Zm4.66-.64a16,16,0,0,0-1.36,2.32h4.17a17.71,17.71,0,0,1,1.73-2l-.79-.33Zm4-3.24a15.21,15.21,0,0,1,.16-2.54h-3.7v2.54Zm0,2.85V55.7h-3.53v2.45Zm-8.3,0h3.73V55.7h-3.73Zm3.73-5.38h-3.73v2.54h3.73Z"/><path class="cls-7" d="M374.3,34.16a25.54,25.54,0,0,0-4.38,5.94l-1.55-.82a.39.39,0,0,1,.38-.2l.28,0a21.24,21.24,0,0,1,1.64-2l-.46-.18a.65.65,0,0,1,.49-.29v-8s.2-.36,1.06-.36v7.74a21.21,21.21,0,0,1,2.37-2Zm0,5a21.53,21.53,0,0,0-3.91,4.22l-1.46-.87a.36.36,0,0,1,.34-.16,1,1,0,0,1,.28,0,21,21,0,0,1,4.58-3.47Zm-14-.69-1.44-1c.13-.24.31-.34.77-.34h2.54V29.86c0-.87.25-1.47,1.87-1.62,0,.93.67,1,2,1.15v.25H363.6c-.29,0-.38,0-.38.25v7.22h5.3l.12.39H361Zm-.7,3.52c.13-.24.33-.34.79-.34H368l.1.39h-6.3L361,43Z"/><polygon class="cls-6" points="306.53 164.81 316.82 167.46 327.11 164.81 332.6 129.76 301.04 129.76 306.53 164.81"/><path class="cls-7" d="M324.31,158.46a17.48,17.48,0,0,0-6.47,6.93l-1.95-.42c0-.19.22-.27.63-.31a19.54,19.54,0,0,0-7.19-5.28l0-.22a1.15,1.15,0,0,0,.85-.82,17.9,17.9,0,0,1,6.6,6.16,18.85,18.85,0,0,1,7.35-6.31ZM312,151.58l-.79,1-1.48-1.05c.12-.22.3-.33.75-.33h13.21l.11.38h-6.44v4.85H323l.11.38h-5.72v2.58h3.33l.09.38h-5.77l-.69.85-1.33-.9c.11-.24.3-.33.72-.33h2.59v-2.58h-3.77l-.75.93-1.43-1c.13-.24.31-.33.77-.33h5.18v-4.85Zm9.42,4.15c-1.62-.94-2.14-2-2.14-2.67,0-.5.27-.83.58-.83a.62.62,0,0,1,.47.24,6.36,6.36,0,0,0,1.26,3.16Zm-9.72-.55c.08-.16.22-.25.6-.22a16.16,16.16,0,0,1,2.39-2.91l.24.14a25.83,25.83,0,0,0-1.68,3.63Z"/><path class="cls-7" d="M321,146.35l-1.67-.16c0-.22.17-.33.66-.38V132.3s.14-.41,1-.41V137c.58-.44,1.35-1,2.25-1.65a.52.52,0,0,1,.3-.41l.68,1.35c-.58.17-1.85.64-3.22,1.18Zm2.64-2.15c-1.78-.8-2.33-1.81-2.33-2.47,0-.42.24-.72.53-.72a.63.63,0,0,1,.44.2,5.9,5.9,0,0,0,1.51,2.86Zm-13-4.79-1.29-1c.14-.24.31-.33.74-.33h2v-4.76c0-.8.2-1.37,1.73-1.52,0,.68.44.86,1.93,1V133h-2.28c-.31,0-.39.09-.39.35v4.74h6.42l.11.38H313v1.89l-1.65-.11c0-.22.11-.33.66-.39v-1.38h-.75Zm-.2,5.94a.45.45,0,0,1,.3-.09,1.45,1.45,0,0,1,.52.11,63.66,63.66,0,0,1,8.26-1.15l0,.28a49.89,49.89,0,0,0-7.95,1.95Zm8.26-1.71c-1.37-.8-1.81-1.7-1.81-2.31s.25-.8.55-.8a.56.56,0,0,1,.42.22,5.31,5.31,0,0,0,1,2.8Zm-.79-6.25c-1.85-.71-2.43-1.68-2.43-2.34,0-.42.25-.72.57-.72a.64.64,0,0,1,.44.2,5.3,5.3,0,0,0,1.55,2.73Zm-2.2,6.75a3.18,3.18,0,0,1-1.32-2.31c0-.61.31-1,.64-1a.54.54,0,0,1,.42.25c0,.17,0,.35,0,.53a7,7,0,0,0,.49,2.47Zm-5.58-.75a.31.31,0,0,1,.33-.19l.27,0a15.27,15.27,0,0,1,3.47-3.66l.17.22a16.72,16.72,0,0,0-2.8,4.34Z"/><polygon class="cls-6" points="255.47 10.97 265.76 13.63 276.05 10.97 281.54 -24.08 249.97 -24.08 255.47 10.97"/><path class="cls-7" d="M273.25,4.62a17.48,17.48,0,0,0-6.47,6.93l-1.95-.42c0-.19.22-.27.63-.31a19.54,19.54,0,0,0-7.19-5.28l0-.22a1.15,1.15,0,0,0,.85-.82,17.9,17.9,0,0,1,6.6,6.16,18.85,18.85,0,0,1,7.35-6.31ZM261-2.26l-.79,1L258.72-2.3c.12-.22.3-.33.75-.33h13.21l.11.38h-6.44V2.6H272l.11.38h-5.72V5.55h3.33l.09.38H264l-.69.85L262,5.88c.11-.24.3-.33.72-.33h2.59V3h-3.77l-.75.93-1.43-1c.13-.24.31-.33.77-.33h5.18V-2.26Zm9.42,4.15c-1.62-.94-2.14-2-2.14-2.67,0-.5.27-.83.58-.83a.62.62,0,0,1,.47.24,6.36,6.36,0,0,0,1.26,3.16Zm-9.72-.55c.08-.16.22-.25.6-.22a16.16,16.16,0,0,1,2.39-2.91l.24.14A25.83,25.83,0,0,0,262.22,2Z"/><polygon class="cls-6" points="255.79 62.03 266.09 64.69 276.38 62.03 281.87 26.98 250.3 26.98 255.79 62.03"/><path class="cls-7" d="M273.55,57.29a15.12,15.12,0,0,0-3,5.26l-1.71-.2c0-.17.19-.27.61-.31-2.18-1-2.83-2-2.83-2.58a.58.58,0,0,1,.53-.63.62.62,0,0,1,.39.17,7.69,7.69,0,0,0,2,2.84,14.68,14.68,0,0,1,3.79-4.71Zm-4.08-6.91c-.88.13-1.84.28-2.81.44l0-.24c1.38-.46,3.25-1,5.78-1.74a.6.6,0,0,1,.38-.36l.58,1.37c-.61.06-1.65.2-2.91.38v4.85h2.75l.11.38h-2.86v2.29h1.68l.11.38h-3.39l-.63.83L267,58.09c.13-.24.3-.35.72-.35h1.76V55.45h-1.13l-.63.83-1.22-.86c.13-.24.3-.35.72-.35h2.26Zm3.14,3.9a3.61,3.61,0,0,1-1.43-2.51c0-.55.27-.91.56-.91a.53.53,0,0,1,.39.24,6.87,6.87,0,0,0,.68,3.09Zm-6-.28c0-.19.17-.27.53-.27a15,15,0,0,1,1.56-2.7l.27.14a23.39,23.39,0,0,0-.91,3.25Zm-3.31,1.32a10.72,10.72,0,0,0-1.15-3A16.17,16.17,0,0,0,260,54.52l-1.16-1a.38.38,0,0,1,.27-.11.7.7,0,0,1,.33.08A13.31,13.31,0,0,1,262,52a8.59,8.59,0,0,0-3.31-3.14l0-.16a1.09,1.09,0,0,0,.94-.75,8.4,8.4,0,0,1,2,2.1c1.21-.42,2.81-1,5-1.68A.53.53,0,0,1,267,48l.6,1.35c-.38,0-.93.13-1.6.24v12.3l-1.15-.49h-3.94l-.46.61-1.26-1a.88.88,0,0,1,.6-.27V55.09a1,1,0,0,1,.83-.33h.16v.55Zm-2.5,5.75h4.27v-2.5h-4.27Zm4.27-5.37h-4.27v2.5h4.27Zm0-.38V49.78c-1,.16-2.06.36-3.19.57a13.41,13.41,0,0,1,1.74,5Z"/><path class="cls-7" d="M270.27,43.63l-1.66-.16c0-.22.17-.33.66-.38V29.59s.14-.41,1-.41V34.3c.58-.44,1.35-1,2.25-1.65a.52.52,0,0,1,.3-.41l.68,1.35c-.58.17-1.85.64-3.22,1.18Zm2.64-2.15c-1.77-.8-2.32-1.81-2.32-2.47,0-.42.24-.72.53-.72a.63.63,0,0,1,.44.2,5.89,5.89,0,0,0,1.51,2.86Zm-13-4.79-1.29-1c.14-.24.31-.33.74-.33h2V30.64c0-.8.2-1.37,1.73-1.52,0,.68.44.86,1.93,1v.24h-2.28c-.31,0-.39.09-.39.35V35.4h6.42l.11.38h-6.53v1.89l-1.65-.11c0-.22.11-.33.66-.39V35.78h-.75Zm-.2,5.94a.46.46,0,0,1,.3-.09,1.48,1.48,0,0,1,.52.11,63.78,63.78,0,0,1,8.26-1.15l0,.28a49.9,49.9,0,0,0-7.95,1.95ZM268,40.91c-1.37-.8-1.81-1.7-1.81-2.31s.25-.8.55-.8a.56.56,0,0,1,.42.22,5.3,5.3,0,0,0,1,2.8Zm-.79-6.25c-1.85-.71-2.43-1.68-2.43-2.34,0-.42.25-.72.57-.72a.63.63,0,0,1,.44.2,5.3,5.3,0,0,0,1.56,2.73ZM265,41.42a3.18,3.18,0,0,1-1.32-2.31c0-.61.31-1,.64-1a.54.54,0,0,1,.42.25c0,.17,0,.35,0,.53a7,7,0,0,0,.49,2.47Zm-5.58-.75a.31.31,0,0,1,.33-.19l.27,0a15.33,15.33,0,0,1,3.47-3.66l.17.22a16.78,16.78,0,0,0-2.8,4.34Z"/><polygon class="cls-6" points="154.98 113.09 165.27 115.75 175.56 113.09 181.06 78.04 149.49 78.04 154.98 113.09"/><path class="cls-7" d="M172.74,108.35a15.12,15.12,0,0,0-3,5.26l-1.71-.2c0-.17.19-.27.61-.31-2.18-1-2.83-2-2.83-2.58a.58.58,0,0,1,.53-.63.62.62,0,0,1,.39.17,7.69,7.69,0,0,0,2,2.84,14.68,14.68,0,0,1,3.79-4.71Zm-4.08-6.91c-.88.13-1.84.28-2.81.44l0-.24c1.38-.46,3.25-1,5.78-1.74a.6.6,0,0,1,.38-.36l.58,1.37c-.61.06-1.65.2-2.91.38v4.85h2.75l.11.38h-2.86v2.29h1.68l.11.38H168l-.63.83-1.22-.86c.13-.24.3-.35.72-.35h1.76v-2.29h-1.13l-.63.83-1.22-.86c.13-.24.3-.35.72-.35h2.26Zm3.14,3.9a3.61,3.61,0,0,1-1.43-2.51c0-.55.27-.91.56-.91a.53.53,0,0,1,.39.24,6.87,6.87,0,0,0,.68,3.09Zm-6-.28c0-.19.17-.27.53-.27a15,15,0,0,1,1.56-2.7l.27.14a23.39,23.39,0,0,0-.91,3.25Zm-3.31,1.32a10.72,10.72,0,0,0-1.15-3,16.16,16.16,0,0,0-2.18,2.21l-1.16-1a.38.38,0,0,1,.27-.11.7.7,0,0,1,.33.08,13.31,13.31,0,0,1,2.58-1.49,8.59,8.59,0,0,0-3.31-3.14l0-.16a1.09,1.09,0,0,0,.94-.75,8.4,8.4,0,0,1,2,2.1c1.21-.42,2.81-1,5-1.68a.53.53,0,0,1,.36-.35l.6,1.35c-.38,0-.93.13-1.6.24V113l-1.15-.49H160.1l-.46.61-1.26-1a.88.88,0,0,1,.6-.27v-5.73a1,1,0,0,1,.83-.33H160v.55Zm-2.5,5.75h4.27v-2.5H160Zm4.27-5.37H160v2.5h4.27Zm0-.38v-5.53c-1,.16-2.06.36-3.19.57a13.41,13.41,0,0,1,1.74,5Z"/><path class="cls-7" d="M169.46,94.69l-1.66-.16c0-.22.17-.33.66-.38V80.65s.14-.41,1-.41v5.12c.58-.44,1.35-1,2.25-1.65a.52.52,0,0,1,.3-.41l.68,1.35c-.58.17-1.85.64-3.22,1.18Zm2.64-2.15c-1.77-.8-2.32-1.81-2.32-2.47,0-.42.24-.72.53-.72a.63.63,0,0,1,.44.2,5.89,5.89,0,0,0,1.51,2.86Zm-13-4.79-1.29-1c.14-.24.31-.33.74-.33h2V81.7c0-.8.2-1.37,1.73-1.52,0,.68.44.86,1.93,1v.24H161.9c-.31,0-.39.09-.39.35v4.74h6.42l.11.38h-6.53v1.89l-1.65-.11c0-.22.11-.33.66-.39V86.84h-.75Zm-.2,5.94a.46.46,0,0,1,.3-.09,1.48,1.48,0,0,1,.52.11A63.78,63.78,0,0,1,168,92.56l0,.28a49.9,49.9,0,0,0-7.95,1.95ZM167.15,92c-1.37-.8-1.81-1.7-1.81-2.31s.25-.8.55-.8a.56.56,0,0,1,.42.22,5.3,5.3,0,0,0,1,2.8Zm-.79-6.25c-1.85-.71-2.43-1.68-2.43-2.34,0-.42.25-.72.57-.72a.63.63,0,0,1,.44.2,5.3,5.3,0,0,0,1.56,2.73Zm-2.2,6.75a3.18,3.18,0,0,1-1.32-2.31c0-.61.31-1,.64-1a.54.54,0,0,1,.42.25c0,.17,0,.35,0,.53a7,7,0,0,0,.49,2.47Zm-5.58-.75a.31.31,0,0,1,.33-.19l.27,0a15.33,15.33,0,0,1,3.47-3.66l.17.22a16.78,16.78,0,0,0-2.8,4.34Z"/><polygon class="cls-6" points="104.68 112.28 114.54 114.83 124.4 112.28 129.67 78.69 99.41 78.69 104.68 112.28"/><path class="cls-7" d="M118.06,108.87v-2.09c-1.59-.71-2.11-1.55-2.11-2.08,0-.35.21-.57.45-.57a.55.55,0,0,1,.41.18,7.46,7.46,0,0,0,1.25,2.18V99.16s.12-.36,1-.36v7.32a13,13,0,0,1,2.35-3.81l.23.23a16.82,16.82,0,0,0-2.39,6.34h2.17l.09.36H119v3.52l-1.61-.13c0-.23.15-.33.65-.38v-3h-.57l-.62.87-1.19-.92c.14-.23.3-.32.71-.32Zm-9.27-8.29-1.31-.95c.12-.23.3-.32.71-.32h8.76l.09.36h-4.29V103h3.09l.11.36h-3.19v2.71l-1.69-.13c0-.26.19-.35.71-.42v-2.15H110.1l-.68.89-1.3-.93c.12-.23.29-.32.71-.32h2.93V99.68h-2.3Zm6.73,9.11.09.36h-2.86v2.56l-1.69-.15c0-.24.19-.35.71-.42v-2h-1.43l-.69.89-1.29-.93c.13-.23.3-.32.71-.32h2.71v-3H109.6l-.69.9-1.31-.95c.12-.23.3-.32.71-.32H116l.1.36h-3.39v3Z"/><path class="cls-7" d="M119.51,85a4.86,4.86,0,0,1-.17-1.16c0-1.33.77-2.36,1.64-2.36.26,0,.53.11.53.42a.75.75,0,0,1-.42.6,2.94,2.94,0,0,0-1.32,2.5ZM109,87.45l-1.19-.95a1.1,1.1,0,0,1,.6-.23c.29-2.68.83-4.58,1.55-5.09a2.51,2.51,0,0,1,1.63-.42c0,.54.14.77,1.52.92l0,.26-2-.06a.68.68,0,0,0-.47.14c-.47.39-.93,2.06-1.2,4.47h9v-.41a1,1,0,0,1,.83-.35h.15V94l-1.16-.5H110.7l-.71.9-1.35-.95c.12-.23.32-.32.74-.32H114V91.3h-2.6l-.66.86-1.3-.9c.12-.23.3-.32.71-.32H114V89.11h-2.59l-.69.87-1.31-.92c.12-.23.3-.32.72-.32H114v-1.9h-4.41Zm5.89,5.7h3.52V91.3h-3.52Zm0-4v1.84h3.52V89.11Zm3.52-.36v-1.9h-3.52v1.9Zm-.77-3.58a3.29,3.29,0,0,1-1.13-2.23c0-.63.32-1,.63-1a.53.53,0,0,1,.42.27,4.32,4.32,0,0,0-.06.8,6.43,6.43,0,0,0,.35,2.12Zm-2.14.2c-1.35-.74-1.79-1.58-1.79-2.15s.24-.72.53-.72a.57.57,0,0,1,.39.2,4.86,4.86,0,0,0,1,2.56Zm-2.32.24c-1.75-.44-2.3-1.25-2.3-1.79a.49.49,0,0,1,.45-.54.6.6,0,0,1,.36.13,4.86,4.86,0,0,0,1.59,2.06Z"/><polygon class="cls-6" points="356.71 10.16 366.57 12.71 376.43 10.16 381.7 -23.43 351.44 -23.43 356.71 10.16"/><path class="cls-7" d="M370.09,6.75V4.66C368.5,4,368,3.11,368,2.58c0-.35.21-.57.45-.57a.55.55,0,0,1,.41.18,7.46,7.46,0,0,0,1.25,2.18V-3s.12-.36,1-.36V4A13,13,0,0,1,373.41.19l.23.23a16.82,16.82,0,0,0-2.39,6.34h2.17l.09.36h-2.44v3.52l-1.61-.13c0-.23.15-.33.65-.38v-3h-.57L368.9,8l-1.19-.92c.14-.23.3-.32.71-.32Zm-9.27-8.29-1.31-.95c.12-.23.3-.32.71-.32H369l.09.36h-4.29V.87h3.09l.11.36h-3.19V3.94l-1.69-.13c0-.26.19-.35.71-.42V1.23h-1.67l-.68.89-1.3-.93c.12-.23.29-.32.71-.32h2.93V-2.44h-2.3Zm6.73,9.11.09.36h-2.86v2.56l-1.69-.15c0-.24.19-.35.71-.42v-2h-1.43l-.69.89-1.29-.93c.13-.23.3-.32.71-.32h2.71v-3h-2.17l-.69.9-1.31-.95c.12-.23.3-.32.71-.32h7.72l.1.36h-3.39v3Z"/><polygon class="cls-6" points="4.19 10.16 14.05 12.71 23.92 10.16 29.18 -23.43 -1.07 -23.43 4.19 10.16"/><path class="cls-7" d="M7.24,7.09c.12-.23.29-.33.71-.33h5.16A12,12,0,0,0,7,3.55l0-.17a1,1,0,0,0,.83-.83,10.44,10.44,0,0,1,5.62,4.2h.09V3.51a1,1,0,0,1,.81-.33h.15V6.44a15,15,0,0,1,6.35-4.26l.15.26a15.63,15.63,0,0,0-5.4,4.32h5.1l.1.36H14.56V9c1.67-.15,3.43-.26,5.12-.26l0,.3a53.9,53.9,0,0,0-9.65,1.58L9,9.61a.41.41,0,0,1,.29-.09,1.49,1.49,0,0,1,.5.12c1.08-.18,2.39-.36,3.82-.51v-2H9.25L8.57,8ZM10.9,2.73l-.45.59L9.2,2.41a1.2,1.2,0,0,1,.59-.29v-5s.29-.33,1-.33v.9H17.4V-3s.12-.35,1-.35V3.21l-1.07-.48Zm-.14-.36H17.4V.44H10.77ZM17.4-2H10.77v2H17.4Z"/><polygon class="cls-6" points="406.79 10.16 416.65 12.71 426.51 10.16 431.77 -23.43 401.52 -23.43 406.79 10.16"/><path class="cls-7" d="M409.84,7.09c.12-.23.29-.33.71-.33h5.16a12,12,0,0,0-6.07-3.21l0-.17a1,1,0,0,0,.83-.83,10.44,10.44,0,0,1,5.62,4.2h.09V3.51a1,1,0,0,1,.81-.33h.15V6.44a15,15,0,0,1,6.35-4.26l.15.26a15.63,15.63,0,0,0-5.4,4.32h5.1l.1.36h-6.31V9c1.67-.15,3.43-.26,5.12-.26l0,.3a53.89,53.89,0,0,0-9.65,1.58l-1.07-1.05a.41.41,0,0,1,.29-.09,1.48,1.48,0,0,1,.5.12c1.08-.18,2.39-.36,3.82-.51v-2h-4.35l-.68.87Zm3.66-4.37-.45.59-1.25-.9a1.19,1.19,0,0,1,.59-.29v-5s.29-.33,1-.33v.9H420V-3s.12-.35,1-.35V3.21l-1.07-.48Zm-.14-.36H420V.44h-6.64ZM420-2h-6.64v2H420Z"/><polygon class="cls-6" points="5.05 111.33 14.05 113.65 23.06 111.33 27.87 80.66 0.24 80.66 5.05 111.33"/><path class="cls-7" d="M9,107.87,7.69,107c.12-.19.29-.29.67-.29h4.72c0-.11.18-.18.54-.22V103c0-.73.15-1.21,1.39-1.35,0,.71.51.8,1.4.87v.21H14.78c-.22,0-.27.08-.27.27v3.67h5.83l.1.33H18v3.59l-1.43-.12c0-.19.14-.27.56-.34V107H14.51v4.78L13,111.65c0-.22.16-.32.63-.38v-1.6H10.77l-.66.84-1.25-.88c.12-.21.27-.29.65-.29h4.1V107H9.67Zm11.16-5.24a10.44,10.44,0,0,0-2.73,3.53l-1.31-.65a.33.33,0,0,1,.33-.16h.19A10.33,10.33,0,0,1,20,102.43Zm-10.65.74a.33.33,0,0,1,.3-.15,1.24,1.24,0,0,1,.29,0c2.71-3.27,5.51-3.94,9.44-4.23l0,.27c-3.66.52-6.45,1.35-8.84,4.76Zm2,2.67c-2.69-.88-3.52-2.13-3.52-2.82,0-.32.16-.51.4-.51a.62.62,0,0,1,.34.12,8.4,8.4,0,0,0,2.87,3.05Z"/><path class="cls-7" d="M9,87.86,7.68,87c.12-.19.27-.29.66-.29h12l.1.33H17.86v7.23l-1.24-.54a35.63,35.63,0,0,0-5.88,1.6l-1-.95a.33.33,0,0,1,.25-.08,1.34,1.34,0,0,1,.45.11,47,47,0,0,1,6.56-1V91.43H10.23l-.63.82-1.24-.87c.11-.2.27-.29.65-.29h2.08V87H9.63Zm6.27-2.32a.32.32,0,0,1,.27-.14.94.94,0,0,1,.25,0,13.1,13.1,0,0,1,4.48-2.9l.14.22a12.86,12.86,0,0,0-4,3.46ZM17,91.1V87H12v4.1ZM12.75,86C9.26,85,8.2,83.64,8.2,82.95a.38.38,0,0,1,.4-.43.73.73,0,0,1,.32.08,13.15,13.15,0,0,0,3.93,3.24Z"/><polygon class="cls-6" points="156.6 214.1 165.6 216.43 174.6 214.1 179.41 183.44 151.79 183.44 156.6 214.1"/><path class="cls-7" d="M160.54,210.65l-1.31-.91c.12-.19.29-.29.67-.29h4.72c0-.11.18-.18.54-.22v-3.45c0-.73.15-1.21,1.39-1.35,0,.71.51.8,1.4.87v.21h-1.62c-.22,0-.27.08-.27.27v3.67h5.83l.1.33H169.5v3.59l-1.43-.12c0-.19.14-.27.56-.34v-3.12h-2.58v4.78l-1.54-.14c0-.22.16-.32.63-.38v-1.6h-2.83l-.66.84-1.25-.88c.12-.21.27-.29.65-.29h4.1v-2.34h-3.93Zm11.16-5.24a10.44,10.44,0,0,0-2.73,3.53l-1.31-.65a.33.33,0,0,1,.33-.16h.19a10.33,10.33,0,0,1,3.38-2.94Zm-10.65.74a.33.33,0,0,1,.3-.15,1.24,1.24,0,0,1,.29,0c2.71-3.27,5.51-3.94,9.44-4.23l0,.27c-3.66.52-6.45,1.35-8.84,4.76Zm2,2.67c-2.69-.88-3.52-2.13-3.52-2.82,0-.32.16-.51.4-.51a.62.62,0,0,1,.34.12,8.4,8.4,0,0,0,2.87,3.05Z"/><path class="cls-7" d="M160.52,190.63l-1.29-.89c.12-.19.27-.29.66-.29h12l.1.33h-2.57V197l-1.24-.54a35.63,35.63,0,0,0-5.88,1.6l-1-.95a.33.33,0,0,1,.25-.08,1.34,1.34,0,0,1,.45.11,47,47,0,0,1,6.56-1v-1.92h-6.73l-.63.82-1.24-.87c.11-.2.27-.29.65-.29h2.08v-4.1h-1.46Zm6.27-2.32a.32.32,0,0,1,.27-.14.94.94,0,0,1,.25,0,13.1,13.1,0,0,1,4.48-2.9l.14.22a12.86,12.86,0,0,0-4,3.46Zm1.73,5.57v-4.1h-5v4.1Zm-4.22-5.07c-3.49-1-4.55-2.39-4.55-3.08a.38.38,0,0,1,.4-.43.73.73,0,0,1,.32.08,13.15,13.15,0,0,0,3.93,3.24Z"/><polygon class="cls-6" points="206.68 163.04 215.68 165.37 224.68 163.04 229.49 132.37 201.87 132.37 206.68 163.04"/><path class="cls-7" d="M210.62,159.59l-1.31-.91c.12-.19.29-.29.67-.29h4.72c0-.11.18-.18.54-.22v-3.45c0-.73.15-1.21,1.39-1.35,0,.71.51.8,1.4.87v.21h-1.62c-.22,0-.27.08-.27.27v3.67H222l.1.33h-2.47v3.59l-1.43-.12c0-.19.14-.27.56-.34v-3.12h-2.58v4.78l-1.54-.14c0-.22.16-.32.63-.38v-1.6H212.4l-.66.84-1.25-.88c.12-.21.27-.29.65-.29h4.1v-2.34h-3.93Zm11.16-5.24a10.44,10.44,0,0,0-2.73,3.53l-1.31-.65a.33.33,0,0,1,.33-.16h.19a10.33,10.33,0,0,1,3.38-2.94Zm-10.65.74a.33.33,0,0,1,.3-.15,1.24,1.24,0,0,1,.29,0c2.71-3.27,5.51-3.94,9.44-4.23l0,.27c-3.66.52-6.45,1.35-8.84,4.76Zm2,2.67c-2.69-.88-3.52-2.13-3.52-2.82,0-.32.16-.51.4-.51a.62.62,0,0,1,.34.12,8.4,8.4,0,0,0,2.87,3.05Z"/><path class="cls-7" d="M210.59,139.57l-1.29-.89c.12-.19.27-.29.66-.29h12l.1.33h-2.57v7.23l-1.24-.54a35.63,35.63,0,0,0-5.88,1.6l-1-.95a.33.33,0,0,1,.25-.08,1.34,1.34,0,0,1,.45.11,47,47,0,0,1,6.56-1v-1.92h-6.73l-.63.82L210,143.1c.11-.2.27-.29.65-.29h2.08v-4.1h-1.46Zm6.27-2.32a.32.32,0,0,1,.27-.14.94.94,0,0,1,.25,0,13.1,13.1,0,0,1,4.48-2.9l.14.22a12.86,12.86,0,0,0-4,3.46Zm1.73,5.57v-4.1h-5v4.1Zm-4.22-5.07c-3.49-1-4.55-2.39-4.55-3.08a.38.38,0,0,1,.4-.43.73.73,0,0,1,.32.08,13.15,13.15,0,0,0,3.93,3.24Z"/><polygon class="cls-6" points="257.41 267.13 266.41 269.45 275.42 267.13 280.22 236.46 252.6 236.46 257.41 267.13"/><path class="cls-7" d="M261.36,263.67l-1.31-.91c.12-.19.29-.29.67-.29h4.72c0-.11.18-.18.54-.22v-3.45c0-.73.15-1.21,1.39-1.35,0,.71.51.8,1.4.87v.21h-1.62c-.22,0-.27.08-.27.27v3.67h5.83l.1.33h-2.47v3.59l-1.43-.12c0-.19.14-.27.56-.34v-3.12h-2.58v4.78l-1.54-.14c0-.22.16-.32.63-.38v-1.6h-2.83l-.66.84-1.25-.88c.12-.21.27-.29.65-.29H266v-2.34H262Zm11.16-5.24a10.44,10.44,0,0,0-2.73,3.53l-1.31-.65a.33.33,0,0,1,.33-.16H269a10.33,10.33,0,0,1,3.38-2.94Zm-10.65.74a.33.33,0,0,1,.3-.15,1.24,1.24,0,0,1,.29,0c2.71-3.27,5.51-3.94,9.44-4.23l0,.27c-3.66.52-6.45,1.35-8.84,4.76Zm2,2.67c-2.69-.88-3.52-2.13-3.52-2.82,0-.32.16-.51.4-.51a.62.62,0,0,1,.34.12,8.4,8.4,0,0,0,2.87,3.05Z"/><path class="cls-7" d="M261.33,243.66l-1.29-.89c.12-.19.27-.29.66-.29h12l.1.33h-2.57V250L269,249.5a35.63,35.63,0,0,0-5.88,1.6l-1-.95a.33.33,0,0,1,.25-.08,1.34,1.34,0,0,1,.45.11,47,47,0,0,1,6.56-1v-1.92h-6.73l-.63.82-1.24-.87c.11-.2.27-.29.65-.29h2.08v-4.1H262Zm6.27-2.32a.32.32,0,0,1,.27-.14.94.94,0,0,1,.25,0,13.1,13.1,0,0,1,4.48-2.9l.14.22a12.86,12.86,0,0,0-4,3.46Zm1.73,5.57v-4.1h-5v4.1Zm-4.22-5.07c-3.49-1-4.55-2.39-4.55-3.08a.38.38,0,0,1,.4-.43.73.73,0,0,1,.32.08,13.15,13.15,0,0,0,3.93,3.24Z"/><polygon class="cls-6" points="358.22 111.33 367.22 113.65 376.23 111.33 381.04 80.66 353.42 80.66 358.22 111.33"/><path class="cls-7" d="M362.17,107.87l-1.31-.91c.12-.19.29-.29.67-.29h4.72c0-.11.18-.18.54-.22V103c0-.73.15-1.21,1.39-1.35,0,.71.51.8,1.4.87v.21H368c-.22,0-.27.08-.27.27v3.67h5.83l.1.33h-2.47v3.59l-1.43-.12c0-.19.14-.27.56-.34V107h-2.58v4.78l-1.54-.14c0-.22.16-.32.63-.38v-1.6h-2.83l-.66.84-1.25-.88c.12-.21.27-.29.65-.29h4.1V107h-3.93Zm11.16-5.24a10.44,10.44,0,0,0-2.73,3.53l-1.31-.65a.33.33,0,0,1,.33-.16h.19a10.33,10.33,0,0,1,3.38-2.94Zm-10.65.74a.33.33,0,0,1,.3-.15,1.24,1.24,0,0,1,.29,0c2.71-3.27,5.51-3.94,9.44-4.23l0,.27c-3.66.52-6.45,1.35-8.84,4.76Zm2,2.67c-2.69-.88-3.52-2.13-3.52-2.82,0-.32.16-.51.4-.51a.62.62,0,0,1,.34.12,8.4,8.4,0,0,0,2.87,3.05Z"/><path class="cls-7" d="M362.14,87.86,360.85,87c.12-.19.27-.29.66-.29h12l.1.33H371v7.23l-1.24-.54a35.63,35.63,0,0,0-5.88,1.6l-1-.95a.33.33,0,0,1,.25-.08,1.34,1.34,0,0,1,.45.11,47,47,0,0,1,6.56-1V91.43H363.4l-.63.82-1.24-.87c.11-.2.27-.29.65-.29h2.08V87H362.8Zm6.27-2.32a.32.32,0,0,1,.27-.14.94.94,0,0,1,.25,0,13.1,13.1,0,0,1,4.48-2.9l.14.22a12.86,12.86,0,0,0-4,3.46Zm1.73,5.57V87h-5v4.1ZM365.92,86c-3.49-1-4.55-2.39-4.55-3.08a.38.38,0,0,1,.4-.43.73.73,0,0,1,.32.08A13.15,13.15,0,0,0,366,85.85Z"/><polygon class="cls-6" points="407.64 111.33 416.65 113.65 425.65 111.33 430.46 80.66 402.84 80.66 407.64 111.33"/><path class="cls-7" d="M411.59,107.87l-1.31-.91c.12-.19.29-.29.67-.29h4.72c0-.11.18-.18.54-.22V103c0-.73.15-1.21,1.39-1.35,0,.71.51.8,1.4.87v.21h-1.62c-.22,0-.27.08-.27.27v3.67h5.83l.1.33h-2.47v3.59l-1.43-.12c0-.19.14-.27.56-.34V107H417.1v4.78l-1.54-.14c0-.22.16-.32.63-.38v-1.6h-2.83l-.66.84-1.25-.88c.12-.21.27-.29.65-.29h4.1V107h-3.93Zm11.16-5.24a10.44,10.44,0,0,0-2.73,3.53l-1.31-.65a.33.33,0,0,1,.33-.16h.19a10.33,10.33,0,0,1,3.38-2.94Zm-10.65.74a.33.33,0,0,1,.3-.15,1.24,1.24,0,0,1,.29,0c2.71-3.27,5.51-3.94,9.44-4.23l0,.27c-3.66.52-6.45,1.35-8.84,4.76Zm2,2.67c-2.69-.88-3.52-2.13-3.52-2.82,0-.32.16-.51.4-.51a.62.62,0,0,1,.34.12,8.4,8.4,0,0,0,2.87,3.05Z"/><path class="cls-7" d="M411.56,87.86,410.27,87c.12-.19.27-.29.66-.29h12l.1.33h-2.57v7.23l-1.24-.54a35.63,35.63,0,0,0-5.88,1.6l-1-.95a.33.33,0,0,1,.25-.08,1.34,1.34,0,0,1,.45.11,47,47,0,0,1,6.56-1V91.43h-6.73l-.63.82L411,91.39c.11-.2.27-.29.65-.29h2.08V87h-1.46Zm6.27-2.32a.32.32,0,0,1,.27-.14.94.94,0,0,1,.25,0,13.1,13.1,0,0,1,4.48-2.9l.14.22a12.86,12.86,0,0,0-4,3.46Zm1.73,5.57V87h-5v4.1ZM415.34,86c-3.49-1-4.55-2.39-4.55-3.08a.38.38,0,0,1,.4-.43.73.73,0,0,1,.32.08,13.15,13.15,0,0,0,3.93,3.24Z"/><polygon class="cls-6" points="428.44 387.94 417.29 385.06 406.14 387.94 400.19 425.91 434.39 425.91 428.44 387.94"/><path class="cls-7" d="M423.51,400.45l1.65,1.16c-.14.24-.34.36-.83.36H409.45l-.12-.41h7.18v-6.5H411l-.1-.41h5.6v-5.53h-6.28l-.12-.41h11.76l.87-1.09,1.63,1.14c-.14.25-.32.36-.82.36h-5.91v5.53h3.57l.85-1.05,1.58,1.11c-.14.26-.34.36-.82.36h-5.19v6.5h5Z"/><polygon class="cls-6" points="226.71 233.92 215.99 231.16 205.27 233.92 199.55 270.43 232.43 270.43 226.71 233.92"/><path class="cls-7" d="M223.34,245.48l-.16,1.8c.31.26.44.44.44.62s0,.41-.57.41a2.91,2.91,0,0,1-1.11-.29c-2.57-1-3.29-3.31-3.45-7.05H216v7s-.16.41-1,.41V241h-2.77c-.07,2.62-.67,5.56-3.48,7.36l-.21-.21c2.18-1.9,2.64-4.65,2.68-7.15h-2.75l-.11-.39h2.86v-3a17,17,0,0,1-2.68,1.19l-.15-.25a14.75,14.75,0,0,0,4.29-3.22l1.44.74a.44.44,0,0,1-.43.18l-.33,0a13.32,13.32,0,0,1-1.26.88l.82.07c0,.25-.16.34-.67.39v3H215v-5.3l1.67.15c0,.23-.16.33-.62.38v4.78h2.27l.49-.62,1.32,1a1,1,0,0,1-.64.25,17.82,17.82,0,0,0,.15,1.95c.28,0,.54.08.77.13.39-.59.9-1.42,1.21-1.93l1.21.77a.27.27,0,0,1-.28.15l-.28,0c-.36.3-1,.77-1.47,1.15,1.37.41,1.87,1.11,1.87,1.59a.45.45,0,0,1-.44.49.68.68,0,0,1-.33-.1,6.72,6.72,0,0,0-2.19-1.85c.33,1.77,1,3,2.57,3.53a.75.75,0,0,0,.21,0c.1,0,.15,0,.2-.18a11.15,11.15,0,0,0,.49-1.44Zm-.23-5.3c.3.28.43.47.43.64s-.16.41-.57.41a2.67,2.67,0,0,1-1.08-.31c-2.26-1-3.06-3.06-3.26-6.28h-9.28l-.13-.39h9.24l.47-.62,1.33,1a1,1,0,0,1-.62.25,10.22,10.22,0,0,0,.15,1.47c.31,0,.59.08.85.13.41-.57.92-1.39,1.21-1.88l1.18.82a.29.29,0,0,1-.28.13.81.81,0,0,1-.26,0c-.36.3-.95.72-1.46,1.06,1.23.38,1.65,1,1.65,1.47a.44.44,0,0,1-.44.49.65.65,0,0,1-.33-.08,5.8,5.8,0,0,0-2.08-1.8,4,4,0,0,0,2.41,3.32.5.5,0,0,0,.21.07c.08,0,.12-.07.16-.18.15-.36.33-.87.47-1.36l.16,0Z"/><path class="cls-7" d="M222,263.65l1.57,1.08c-.13.25-.31.36-.79.36h-6.3v2.47s-.15.41-1.08.41v-2.88h-6.86l-.11-.39h7v-2h-3.66v.57s-.15.38-1,.38v-7.23l1.15.51h3.57v-1.83h-6.51l-.11-.39h6.63v-1.95l1.78.16c0,.23-.2.36-.7.41v1.37h4.34l.83-1,1.59,1.06c-.13.23-.33.34-.8.34h-6V257H220l.52-.65,1.42,1a1.35,1.35,0,0,1-.7.34v5.48s-.33.38-1.08.38v-.79h-3.75v2h4.7Zm-6.59-6.3h-3.66v2.26h3.66Zm-3.66,5h3.66V260h-3.66Zm8.49-5h-3.75v2.26h3.75Zm-3.75,5h3.75V260h-3.75Z"/><polygon class="cls-6" points="75.49 234.58 64.77 231.81 54.05 234.58 48.33 271.09 81.21 271.09 75.49 234.58"/><path class="cls-7" d="M69.3,237.9l1.37,1a1.16,1.16,0,0,1-.64.31v8.41c0,.85-.26,1.46-1.88,1.59,0-.9-.64-1-2.08-1.13v-.21h2.5c.29,0,.39-.07.39-.26v-2.88H60.44a6.73,6.73,0,0,1-3.06,4.48l-.21-.21c2.11-2,2.44-4.45,2.44-7v-3.34a13.62,13.62,0,0,1-2.23,1.62l-.18-.2A15.79,15.79,0,0,0,61.72,234l1.7.47c-.07.16-.2.25-.61.21-.21.36-.44.74-.7,1.11H66l.69-.69,1.23,1.16c-.13.13-.33.15-.65.16a17.89,17.89,0,0,1-2.18,2.08h3.75Zm-4.66.64A16,16,0,0,0,66,236.22H61.82a17.76,17.76,0,0,1-1.73,2l.79.33Zm-4,3.24a15.19,15.19,0,0,1-.16,2.54h3.7v-2.54Zm0-2.85v2.45h3.53v-2.45Zm8.3,0H65.24v2.45H69Zm-3.73,5.38H69v-2.54H65.24Z"/><path class="cls-7" d="M57,262.92A25.55,25.55,0,0,0,61.43,257l1.55.82a.38.38,0,0,1-.38.2l-.28,0a21.15,21.15,0,0,1-1.64,2l.46.18a.65.65,0,0,1-.49.29v8s-.2.36-1.06.36v-7.74a21.21,21.21,0,0,1-2.37,2Zm0-5A21.51,21.51,0,0,0,61,253.71l1.46.87a.36.36,0,0,1-.34.16,1,1,0,0,1-.28,0,21,21,0,0,1-4.58,3.47Zm14,.69,1.44,1c-.13.24-.31.34-.77.34H69.2v7.23c0,.87-.25,1.47-1.87,1.62,0-.93-.67-1-2-1.14v-.25h2.45c.29,0,.38,0,.38-.25V260h-5.3l-.12-.39h7.61Zm.7-3.52c-.13.25-.33.34-.79.34H63.39l-.1-.39h6.3l.75-1Z"/><polygon class="cls-6" points="276.03 389.55 265.74 386.89 255.45 389.55 249.96 424.6 281.53 424.6 276.03 389.55"/><path class="cls-7" d="M258.25,395.89a17.48,17.48,0,0,0,6.47-6.93l1.95.42c0,.19-.22.27-.63.31a19.54,19.54,0,0,0,7.19,5.28l0,.22a1.15,1.15,0,0,0-.85.82,17.9,17.9,0,0,1-6.6-6.16,18.85,18.85,0,0,1-7.35,6.31Zm12.27,6.88.79-1,1.48,1.05c-.12.22-.3.33-.75.33H258.82l-.11-.38h6.44v-4.85h-5.61l-.11-.38h5.72V395h-3.33l-.09-.38h5.77l.69-.85,1.33.89c-.11.24-.3.33-.72.33H266.2v2.58H270l.75-.93,1.43,1c-.13.24-.31.33-.77.33H266.2v4.85Zm-9.42-4.15c1.62.94,2.14,2,2.14,2.67,0,.5-.27.83-.58.83a.62.62,0,0,1-.47-.24,6.35,6.35,0,0,0-1.26-3.16Zm9.72.55c-.08.16-.22.25-.6.22a16.15,16.15,0,0,1-2.39,2.9l-.24-.14a25.86,25.86,0,0,0,1.68-3.63Z"/><polygon class="cls-6" points="175.88 386.93 165.59 384.27 155.29 386.93 149.8 421.98 181.37 421.98 175.88 386.93"/><path class="cls-7" d="M158.09,393.28a17.48,17.48,0,0,0,6.47-6.93l1.95.42c0,.19-.22.27-.63.31a19.54,19.54,0,0,0,7.19,5.28l0,.22a1.15,1.15,0,0,0-.85.82,17.9,17.9,0,0,1-6.6-6.16,18.85,18.85,0,0,1-7.35,6.31Zm12.27,6.88.79-1,1.48,1.05c-.12.22-.3.33-.75.33H158.66l-.11-.38H165V395.3h-5.61l-.11-.38H165v-2.58h-3.33l-.09-.38h5.77l.69-.85,1.33.89c-.11.24-.3.33-.72.33H166v2.58h3.77l.75-.93,1.43,1c-.13.24-.31.33-.77.33H166v4.85ZM160.94,396c1.62.94,2.14,2,2.14,2.67,0,.5-.27.83-.58.83a.62.62,0,0,1-.47-.24,6.35,6.35,0,0,0-1.26-3.16Zm9.72.55c-.08.16-.22.25-.6.22a16.15,16.15,0,0,1-2.39,2.9l-.24-.14a25.86,25.86,0,0,0,1.68-3.63Z"/><polygon class="cls-6" points="125.14 286.77 114.85 284.12 104.56 286.77 99.07 321.82 130.63 321.82 125.14 286.77"/><path class="cls-7" d="M107.38,291.52a15.12,15.12,0,0,0,3-5.26l1.71.2c0,.17-.19.27-.61.31,2.18,1,2.83,2,2.83,2.57a.58.58,0,0,1-.53.63.62.62,0,0,1-.39-.17,7.69,7.69,0,0,0-2-2.84,14.68,14.68,0,0,1-3.79,4.71Zm4.08,6.91c.88-.13,1.84-.28,2.81-.44l0,.24c-1.38.46-3.25,1-5.78,1.74a.6.6,0,0,1-.38.36l-.58-1.37c.61-.06,1.65-.2,2.91-.38v-4.85h-2.75l-.11-.38h2.86v-2.29h-1.68l-.11-.38h3.39l.63-.83,1.22.86c-.13.24-.3.35-.72.35h-1.76v2.29h1.13l.63-.83,1.22.86c-.13.24-.3.35-.72.35h-2.26Zm-3.14-3.9a3.61,3.61,0,0,1,1.43,2.51c0,.55-.27.91-.56.91a.53.53,0,0,1-.39-.24,6.87,6.87,0,0,0-.68-3.09Zm6,.28c0,.19-.17.27-.53.27a15,15,0,0,1-1.56,2.7l-.27-.14a23.39,23.39,0,0,0,.91-3.25Zm3.31-1.32a10.72,10.72,0,0,0,1.15,3,16.17,16.17,0,0,0,2.18-2.21l1.16,1a.38.38,0,0,1-.27.11.7.7,0,0,1-.33-.08,13.31,13.31,0,0,1-2.58,1.49,8.59,8.59,0,0,0,3.31,3.14l0,.16a1.09,1.09,0,0,0-.94.75,8.4,8.4,0,0,1-2-2.1c-1.21.42-2.81,1-5,1.68a.53.53,0,0,1-.36.35l-.6-1.35c.38,0,.93-.13,1.6-.24v-12.3l1.15.49H120l.46-.61,1.26,1a.88.88,0,0,1-.6.27v5.73a1,1,0,0,1-.83.33h-.16v-.55Zm2.5-5.75h-4.27v2.5h4.27Zm-4.27,5.37h4.27v-2.5h-4.27Zm0,.38V299c1-.16,2.06-.36,3.19-.57a13.41,13.41,0,0,1-1.74-5Z"/><path class="cls-7" d="M110.67,305.17l1.66.16c0,.22-.17.33-.66.38v13.51s-.14.41-1,.41V314.5c-.58.44-1.35,1-2.25,1.65a.52.52,0,0,1-.3.41l-.68-1.35c.58-.17,1.85-.64,3.22-1.18ZM108,307.32c1.77.8,2.32,1.81,2.32,2.47,0,.42-.24.72-.53.72a.63.63,0,0,1-.44-.2,5.89,5.89,0,0,0-1.51-2.86Zm13,4.79,1.29,1c-.14.24-.31.33-.74.33h-2v4.76c0,.8-.2,1.37-1.73,1.52,0-.68-.44-.86-1.93-1v-.24h2.28c.31,0,.39-.09.39-.35V313.4h-6.42l-.11-.38h6.53v-1.89l1.65.11c0,.22-.11.33-.66.39V313h.75Zm.2-5.94a.46.46,0,0,1-.3.09,1.48,1.48,0,0,1-.52-.11,63.78,63.78,0,0,1-8.26,1.15l0-.28a49.9,49.9,0,0,0,7.95-1.95ZM113,307.89c1.37.8,1.81,1.7,1.81,2.31s-.25.8-.55.8a.56.56,0,0,1-.42-.22,5.3,5.3,0,0,0-1-2.8Zm.79,6.25c1.85.71,2.43,1.68,2.43,2.34,0,.42-.25.72-.57.72a.63.63,0,0,1-.44-.2,5.3,5.3,0,0,0-1.56-2.73Zm2.2-6.75a3.18,3.18,0,0,1,1.32,2.31c0,.61-.31,1-.64,1a.54.54,0,0,1-.42-.25c0-.17,0-.35,0-.53a7,7,0,0,0-.49-2.47Zm5.58.75a.31.31,0,0,1-.33.19l-.27,0a15.33,15.33,0,0,1-3.47,3.66l-.17-.22a16.78,16.78,0,0,0,2.8-4.34Z"/><polygon class="cls-6" points="377.17 339.8 366.88 337.14 356.59 339.8 351.1 374.85 382.67 374.85 377.17 339.8"/><path class="cls-7" d="M359.41,344.54a15.12,15.12,0,0,0,3-5.26l1.71.2c0,.17-.19.27-.61.31,2.18,1,2.83,2,2.83,2.57a.58.58,0,0,1-.53.63.62.62,0,0,1-.39-.17,7.69,7.69,0,0,0-2-2.84,14.68,14.68,0,0,1-3.79,4.71Zm4.08,6.91c.88-.13,1.84-.28,2.81-.44l0,.24c-1.38.46-3.25,1-5.78,1.74a.6.6,0,0,1-.38.36l-.58-1.37c.61-.06,1.65-.2,2.91-.38v-4.85h-2.75l-.11-.38h2.86v-2.29h-1.68l-.11-.38h3.39l.63-.83,1.22.86c-.13.24-.3.35-.72.35H363.5v2.29h1.13l.63-.83,1.22.86c-.13.24-.3.35-.72.35H363.5Zm-3.14-3.9a3.61,3.61,0,0,1,1.43,2.51c0,.55-.27.91-.56.91a.53.53,0,0,1-.39-.24,6.87,6.87,0,0,0-.68-3.09Zm6,.28c0,.19-.17.27-.53.27a15,15,0,0,1-1.56,2.7l-.27-.14a23.39,23.39,0,0,0,.91-3.25Zm3.31-1.32a10.72,10.72,0,0,0,1.15,3,16.17,16.17,0,0,0,2.18-2.21l1.16,1a.38.38,0,0,1-.27.11.7.7,0,0,1-.33-.08,13.31,13.31,0,0,1-2.58,1.49,8.59,8.59,0,0,0,3.31,3.14l0,.16a1.09,1.09,0,0,0-.94.75,8.4,8.4,0,0,1-2-2.1c-1.21.42-2.81,1-5,1.68a.53.53,0,0,1-.36.35l-.6-1.35c.38,0,.93-.13,1.6-.24v-12.3l1.15.49h3.94l.46-.61,1.26,1a.88.88,0,0,1-.6.27v5.73a1,1,0,0,1-.83.33h-.16v-.55Zm2.5-5.75h-4.27v2.5h4.27Zm-4.27,5.37h4.27v-2.5h-4.27Zm0,.38v5.53c1-.16,2.06-.36,3.19-.57a13.41,13.41,0,0,1-1.74-5Z"/><path class="cls-7" d="M362.7,358.2l1.66.16c0,.22-.17.33-.66.38v13.51s-.14.41-1,.41v-5.12c-.58.44-1.35,1-2.25,1.65a.52.52,0,0,1-.3.41l-.68-1.35c.58-.17,1.85-.64,3.22-1.18Zm-2.64,2.15c1.77.8,2.32,1.81,2.32,2.47,0,.42-.24.72-.53.72a.63.63,0,0,1-.44-.2,5.89,5.89,0,0,0-1.51-2.86Zm13,4.79,1.29,1c-.14.24-.31.33-.74.33h-2v4.76c0,.8-.2,1.37-1.73,1.52,0-.68-.44-.86-1.93-1v-.24h2.28c.31,0,.39-.09.39-.35v-4.74h-6.42l-.11-.38h6.53v-1.89l1.65.11c0,.22-.11.33-.66.39v1.38h.75Zm.2-5.94a.46.46,0,0,1-.3.09,1.48,1.48,0,0,1-.52-.11,63.78,63.78,0,0,1-8.26,1.15l0-.28a49.9,49.9,0,0,0,7.95-1.95ZM365,360.91c1.37.8,1.81,1.7,1.81,2.31s-.25.8-.55.8a.56.56,0,0,1-.42-.22,5.3,5.3,0,0,0-1-2.8Zm.79,6.25c1.85.71,2.43,1.68,2.43,2.34,0,.42-.25.72-.57.72a.63.63,0,0,1-.44-.2,5.3,5.3,0,0,0-1.56-2.73Zm2.2-6.75a3.18,3.18,0,0,1,1.32,2.31c0,.61-.31,1-.64,1a.54.54,0,0,1-.42-.25c0-.17,0-.35,0-.53a7,7,0,0,0-.49-2.47Zm5.58.75a.31.31,0,0,1-.33.19l-.27,0A15.33,15.33,0,0,1,369.5,365l-.17-.22a16.78,16.78,0,0,0,2.8-4.34Z"/><polygon class="cls-6" points="377.07 389.7 367.21 387.15 357.35 389.7 352.08 423.29 382.33 423.29 377.07 389.7"/><path class="cls-7" d="M363.69,393.11v2.09c1.6.71,2.11,1.55,2.11,2.08a.51.51,0,0,1-.45.57.55.55,0,0,1-.41-.18,7.46,7.46,0,0,0-1.25-2.18v7.33s-.12.36-1,.36v-7.32a13,13,0,0,1-2.35,3.81l-.23-.22a16.83,16.83,0,0,0,2.39-6.34h-2.17l-.09-.36h2.44v-3.52l1.61.13c0,.23-.15.33-.65.38v3h.57l.62-.87,1.19.92c-.14.23-.3.32-.71.32ZM373,401.4l1.31.95c-.12.23-.3.32-.71.32H364.8l-.09-.36H369V399h-3.09l-.11-.36H369v-2.71l1.69.14c0,.26-.19.35-.71.42v2.15h1.67l.68-.89,1.3.93c-.12.23-.29.31-.71.31H370v3.31h2.3Zm-6.73-9.11-.09-.36H369v-2.56l1.69.15c0,.24-.19.35-.71.42v2h1.43l.69-.89,1.29.93c-.13.23-.3.32-.71.32H370v3h2.17l.69-.9,1.31.95c-.12.23-.3.32-.71.32h-7.72l-.1-.36H369v-3Z"/><polygon class="cls-6" points="74.64 389.7 64.77 387.15 54.91 389.7 49.65 423.29 79.9 423.29 74.64 389.7"/><path class="cls-7" d="M61.25,393.11v2.09c1.6.71,2.11,1.55,2.11,2.08,0,.35-.21.57-.45.57a.55.55,0,0,1-.41-.18,7.46,7.46,0,0,0-1.25-2.18v7.33s-.12.36-1,.36v-7.31a13,13,0,0,1-2.35,3.81l-.23-.23a16.82,16.82,0,0,0,2.39-6.34H57.94l-.09-.36h2.44v-3.52l1.61.14c0,.23-.15.33-.65.38v3h.57l.62-.87,1.19.92c-.14.23-.3.32-.71.32Zm9.27,8.29,1.31.95c-.12.23-.3.32-.71.32H62.36l-.09-.36h4.29V399H63.48l-.11-.36h3.19v-2.71l1.69.13c0,.26-.19.35-.71.42v2.15h1.67l.68-.89,1.3.93c-.12.23-.29.32-.71.32H67.54v3.31h2.3Zm-6.73-9.11-.09-.36h2.86v-2.56l1.69.15c0,.24-.19.35-.71.42v2H69l.69-.89L71,392c-.13.23-.3.32-.71.32H67.54v3h2.17l.69-.9,1.31.95c-.12.23-.3.32-.71.32H63.28l-.1-.36h3.39v-3Z"/><polygon class="cls-6" points="427.15 338.64 417.29 336.09 407.43 338.64 402.16 372.23 432.41 372.23 427.15 338.64"/><path class="cls-7" d="M424.1,341.71c-.12.23-.29.33-.71.33h-5.16a12,12,0,0,0,6.07,3.21l0,.17a1,1,0,0,0-.83.83,10.44,10.44,0,0,1-5.62-4.2h-.09v3.25a1,1,0,0,1-.81.33h-.15v-3.27a15,15,0,0,1-6.35,4.26l-.15-.26a15.63,15.63,0,0,0,5.4-4.32h-5.1l-.1-.36h6.31v-1.91c-1.67.15-3.43.26-5.12.26l0-.3a53.9,53.9,0,0,0,9.65-1.58l1.07,1.05a.41.41,0,0,1-.29.09,1.49,1.49,0,0,1-.5-.12c-1.08.18-2.39.36-3.82.51v2h4.35l.68-.87Zm-3.66,4.37.45-.59,1.25.9a1.2,1.2,0,0,1-.59.29v5s-.29.33-1,.33v-.9h-6.64v.65s-.12.35-1,.35v-6.52l1.07.48Zm.14.36h-6.64v1.93h6.64Zm-6.64,4.32h6.64v-2h-6.64Z"/><path class="cls-7" d="M422.8,366.21l1.45,1c-.12.22-.29.33-.72.33h-5.8v2.27s-.14.38-1,.38v-2.65h-6.31l-.1-.36h6.41v-1.81h-3.37v.53s-.14.35-1,.35v-6.65l1.05.47h3.28v-1.69h-6l-.11-.36h6.1v-1.79l1.64.15c0,.21-.18.33-.65.38V358h4l.77-.93,1.46,1c-.12.21-.3.32-.74.32h-5.48V360H421l.48-.6,1.31.93a1.24,1.24,0,0,1-.65.32v5s-.3.35-1,.35v-.72h-3.45v1.81h4.32Zm-6.07-5.8h-3.37v2.08h3.37ZM413.37,365h3.37v-2.15h-3.37Zm7.81-4.59h-3.45v2.08h3.45ZM417.73,365h3.45v-2.15h-3.45Z"/><polygon class="cls-6" points="23.9 389.7 14.04 387.15 4.18 389.7 -1.09 423.29 29.16 423.29 23.9 389.7"/><path class="cls-7" d="M20.85,392.77c-.12.23-.29.33-.71.33H15A12,12,0,0,0,21,396.31l0,.17a1,1,0,0,0-.83.83,10.44,10.44,0,0,1-5.62-4.2H14.5v3.25a1,1,0,0,1-.81.33h-.15v-3.27a15,15,0,0,1-6.35,4.26L7,397.42a15.63,15.63,0,0,0,5.4-4.32H7.33l-.1-.36h6.31v-1.91c-1.67.15-3.43.26-5.12.26l0-.3A53.9,53.9,0,0,0,18,389.2l1.07,1.05a.41.41,0,0,1-.29.09,1.49,1.49,0,0,1-.5-.12c-1.08.18-2.39.36-3.82.51v2h4.35l.68-.87Zm-3.66,4.37.45-.59,1.25.9a1.2,1.2,0,0,1-.59.29v5s-.29.33-1,.33v-.9H10.69v.65s-.12.35-1,.35v-6.52l1.07.48Zm.14.36H10.69v1.93h6.64Zm-6.64,4.32h6.64v-2H10.69Z"/><polygon class="cls-6" points="275.73 288.54 266.73 286.21 257.72 288.54 252.91 319.2 280.54 319.2 275.73 288.54"/><path class="cls-7" d="M271.78,292l1.31.91c-.12.19-.29.29-.67.29H267.7c0,.11-.18.18-.54.22v3.45c0,.73-.15,1.21-1.39,1.35,0-.71-.51-.8-1.4-.87v-.21H266c.22,0,.27-.08.27-.27v-3.67h-5.83l-.1-.33h2.47v-3.59l1.43.12c0,.19-.14.27-.56.34v3.12h2.58v-4.78l1.54.14c0,.22-.16.32-.63.38v1.59H270l.66-.84,1.25.88c-.12.21-.27.29-.65.29h-4.1v2.34h3.93Zm-11.16,5.24a10.46,10.46,0,0,0,2.73-3.53l1.31.65a.33.33,0,0,1-.33.16h-.19a10.3,10.3,0,0,1-3.38,2.94Zm10.65-.74a.33.33,0,0,1-.3.15,1.19,1.19,0,0,1-.29,0c-2.71,3.27-5.51,3.94-9.44,4.23l0-.27c3.66-.52,6.45-1.35,8.84-4.75Zm-2-2.67c2.69.88,3.52,2.13,3.52,2.82,0,.32-.16.51-.4.51a.62.62,0,0,1-.34-.12,8.41,8.41,0,0,0-2.87-3.05Z"/><path class="cls-7" d="M271.81,312l1.29.89c-.12.19-.27.29-.66.29h-12l-.1-.33h2.57v-7.23l1.24.54a35.64,35.64,0,0,0,5.88-1.59l1,.95a.33.33,0,0,1-.25.08,1.36,1.36,0,0,1-.45-.11,47,47,0,0,1-6.56,1v1.92h6.73l.63-.82,1.24.87c-.11.21-.27.29-.65.29h-2.08v4.1h1.46Zm-6.27,2.32a.32.32,0,0,1-.27.14.94.94,0,0,1-.25,0,13.12,13.12,0,0,1-4.48,2.9l-.14-.22a12.86,12.86,0,0,0,4-3.46Zm-1.73-5.57v4.1h5v-4.1Zm4.22,5.07c3.49,1,4.55,2.39,4.55,3.08a.38.38,0,0,1-.4.43.72.72,0,0,1-.32-.08,13.17,13.17,0,0,0-3.93-3.24Z"/><polygon class="cls-6" points="425.96 288.54 416.96 286.21 407.96 288.54 403.15 319.2 430.77 319.2 425.96 288.54"/><path class="cls-7" d="M422,292l1.31.91c-.12.19-.29.29-.67.29h-4.72c0,.11-.18.18-.54.22v3.45c0,.73-.15,1.21-1.39,1.35,0-.71-.51-.8-1.4-.87v-.21h1.62c.22,0,.27-.08.27-.27v-3.67h-5.83l-.1-.33h2.47v-3.59l1.43.12c0,.19-.14.27-.56.34v3.12h2.58v-4.78l1.54.14c0,.22-.16.32-.63.38v1.59h2.83l.66-.84,1.25.88c-.12.21-.27.29-.65.29h-4.1v2.34h3.93Zm-11.16,5.24a10.46,10.46,0,0,0,2.73-3.53l1.31.65a.33.33,0,0,1-.33.16h-.19a10.3,10.3,0,0,1-3.38,2.94Zm10.65-.74a.33.33,0,0,1-.3.15,1.19,1.19,0,0,1-.29,0c-2.71,3.27-5.51,3.94-9.44,4.23l0-.27c3.66-.52,6.45-1.35,8.84-4.75Zm-2-2.67c2.69.88,3.52,2.13,3.52,2.82,0,.32-.16.51-.4.51a.62.62,0,0,1-.34-.12,8.41,8.41,0,0,0-2.87-3.05Z"/><path class="cls-7" d="M422,312l1.29.89c-.12.19-.27.29-.66.29h-12l-.1-.33h2.57v-7.23l1.24.54a35.64,35.64,0,0,0,5.88-1.59l1,.95a.33.33,0,0,1-.25.08,1.36,1.36,0,0,1-.45-.11,47,47,0,0,1-6.56,1v1.92h6.73l.63-.82,1.24.87c-.11.21-.27.29-.65.29h-2.08v4.1h1.46Zm-6.27,2.32a.32.32,0,0,1-.27.14.94.94,0,0,1-.25,0,13.12,13.12,0,0,1-4.48,2.9l-.14-.22a12.86,12.86,0,0,0,4-3.46ZM414,308.76v4.1h5v-4.1Zm4.22,5.07c3.49,1,4.55,2.39,4.55,3.08a.38.38,0,0,1-.4.43.72.72,0,0,1-.32-.08,13.17,13.17,0,0,0-3.93-3.24Z"/><polygon class="cls-6" points="376.54 288.54 367.54 286.21 358.53 288.54 353.73 319.2 381.35 319.2 376.54 288.54"/><path class="cls-7" d="M372.59,292l1.31.91c-.12.19-.29.29-.67.29h-4.72c0,.11-.18.18-.54.22v3.45c0,.73-.15,1.21-1.39,1.35,0-.71-.51-.8-1.4-.87v-.21h1.62c.22,0,.27-.08.27-.27v-3.67h-5.83l-.1-.33h2.47v-3.59l1.43.12c0,.19-.14.27-.56.34v3.12h2.58v-4.78l1.54.14c0,.22-.16.32-.63.38v1.59h2.83l.66-.84,1.25.88c-.12.21-.27.29-.65.29H368v2.34h3.93Zm-11.16,5.24a10.46,10.46,0,0,0,2.73-3.53l1.31.65a.33.33,0,0,1-.33.16H365a10.3,10.3,0,0,1-3.38,2.94Zm10.65-.74a.33.33,0,0,1-.3.15,1.19,1.19,0,0,1-.29,0c-2.71,3.27-5.51,3.94-9.44,4.23l0-.27c3.66-.52,6.45-1.35,8.84-4.75Zm-2-2.67c2.69.88,3.52,2.13,3.52,2.82,0,.32-.16.51-.4.51a.62.62,0,0,1-.34-.12A8.41,8.41,0,0,0,370,294Z"/><path class="cls-7" d="M372.62,312l1.29.89c-.12.19-.27.29-.66.29h-12l-.1-.33h2.57v-7.23l1.24.54a35.64,35.64,0,0,0,5.88-1.59l1,.95a.33.33,0,0,1-.25.08,1.36,1.36,0,0,1-.45-.11,47,47,0,0,1-6.56,1v1.92h6.73l.63-.82,1.24.87c-.11.21-.27.29-.65.29H370.5v4.1H372Zm-6.27,2.32a.32.32,0,0,1-.27.14.94.94,0,0,1-.25,0,13.12,13.12,0,0,1-4.48,2.9l-.14-.22a12.86,12.86,0,0,0,4-3.46Zm-1.73-5.57v4.1h5v-4.1Zm4.22,5.07c3.49,1,4.55,2.39,4.55,3.08a.38.38,0,0,1-.4.43.72.72,0,0,1-.32-.08,13.17,13.17,0,0,0-3.93-3.24Z"/><polygon class="cls-6" points="174.59 288.54 165.59 286.21 156.58 288.54 151.77 319.2 179.4 319.2 174.59 288.54"/><path class="cls-7" d="M170.64,292l1.31.91c-.12.19-.29.29-.67.29h-4.72c0,.11-.18.18-.54.22v3.45c0,.73-.15,1.21-1.39,1.35,0-.71-.51-.8-1.4-.87v-.21h1.62c.22,0,.27-.08.27-.27v-3.67H159.3l-.1-.33h2.47v-3.59l1.43.12c0,.19-.14.27-.56.34v3.12h2.58v-4.78l1.54.14c0,.22-.16.32-.63.38v1.59h2.83l.66-.84,1.25.88c-.12.21-.27.29-.65.29H166v2.34H170Zm-11.16,5.24a10.46,10.46,0,0,0,2.73-3.53l1.31.65a.33.33,0,0,1-.33.16H163a10.3,10.3,0,0,1-3.38,2.94Zm10.65-.74a.33.33,0,0,1-.3.15,1.19,1.19,0,0,1-.29,0c-2.71,3.27-5.51,3.94-9.44,4.23l0-.27c3.66-.52,6.45-1.35,8.84-4.75Zm-2-2.67c2.69.88,3.52,2.13,3.52,2.82,0,.32-.16.51-.4.51A.62.62,0,0,1,171,297a8.41,8.41,0,0,0-2.87-3.05Z"/><path class="cls-7" d="M170.67,312l1.29.89c-.12.19-.27.29-.66.29h-12l-.1-.33h2.57v-7.23l1.24.54a35.64,35.64,0,0,0,5.88-1.59l1,.95a.33.33,0,0,1-.25.08,1.36,1.36,0,0,1-.45-.11,47,47,0,0,1-6.56,1v1.92h6.73l.63-.82,1.24.87c-.11.21-.27.29-.65.29h-2.08v4.1H170Zm-6.27,2.32a.32.32,0,0,1-.27.14.94.94,0,0,1-.25,0,13.12,13.12,0,0,1-4.48,2.9l-.14-.22a12.86,12.86,0,0,0,4-3.46Zm-1.73-5.57v4.1h5v-4.1Zm4.22,5.07c3.49,1,4.55,2.39,4.55,3.08a.38.38,0,0,1-.4.43.72.72,0,0,1-.32-.08A13.17,13.17,0,0,0,166.8,314Z"/><polygon class="cls-6" points="123.86 132.08 114.85 129.75 105.85 132.08 101.04 162.75 128.66 162.75 123.86 132.08"/><path class="cls-7" d="M119.91,135.54l1.31.91c-.12.19-.29.29-.67.29h-4.72c0,.11-.18.18-.54.22v3.45c0,.73-.15,1.21-1.39,1.35,0-.71-.51-.8-1.4-.87v-.21h1.62c.22,0,.27-.08.27-.27v-3.67h-5.83l-.1-.33h2.47v-3.59l1.43.12c0,.19-.14.27-.56.34v3.12h2.58v-4.78l1.54.14c0,.22-.16.32-.63.38v1.59h2.83l.66-.84,1.25.88c-.12.21-.27.29-.65.29h-4.1v2.34h3.93Zm-11.16,5.24a10.46,10.46,0,0,0,2.73-3.53l1.31.65a.33.33,0,0,1-.33.16h-.19a10.3,10.3,0,0,1-3.38,2.94ZM119.4,140a.33.33,0,0,1-.3.15,1.19,1.19,0,0,1-.29,0c-2.71,3.27-5.51,3.94-9.44,4.23l0-.27c3.66-.52,6.45-1.35,8.84-4.75Zm-2-2.67c2.69.88,3.52,2.13,3.52,2.82,0,.32-.16.51-.4.51a.62.62,0,0,1-.34-.12,8.41,8.41,0,0,0-2.87-3.05Z"/><path class="cls-7" d="M119.94,155.55l1.29.89c-.12.19-.27.29-.66.29h-12l-.1-.33H111v-7.23l1.24.54a35.64,35.64,0,0,0,5.88-1.59l1,.95a.33.33,0,0,1-.25.08,1.36,1.36,0,0,1-.45-.11,47,47,0,0,1-6.56,1V152h6.73l.63-.82,1.24.87c-.11.21-.27.29-.65.29h-2.08v4.1h1.46Zm-6.27,2.32a.32.32,0,0,1-.27.14.94.94,0,0,1-.25,0,13.12,13.12,0,0,1-4.48,2.9l-.14-.22a12.86,12.86,0,0,0,4-3.46Zm-1.73-5.57v4.1h5v-4.1Zm4.22,5.07c3.49,1,4.55,2.39,4.55,3.08a.38.38,0,0,1-.4.43.72.72,0,0,1-.32-.08,13.17,13.17,0,0,0-3.93-3.24Z"/><polygon class="cls-6" points="73.78 288.54 64.77 286.21 55.77 288.54 50.96 319.2 78.58 319.2 73.78 288.54"/><path class="cls-7" d="M69.83,292l1.31.91c-.12.19-.29.29-.67.29H65.75c0,.11-.18.18-.54.22v3.45c0,.73-.15,1.21-1.39,1.35,0-.71-.51-.8-1.4-.87v-.21H64c.22,0,.27-.08.27-.27v-3.67H58.49l-.1-.33h2.47v-3.59l1.43.12c0,.19-.14.27-.56.34v3.12h2.58v-4.78l1.54.14c0,.22-.16.32-.63.38v1.59h2.83l.66-.84,1.25.88c-.12.21-.27.29-.65.29h-4.1v2.34h3.93Zm-11.16,5.24a10.46,10.46,0,0,0,2.73-3.53l1.31.65a.33.33,0,0,1-.33.16h-.19a10.3,10.3,0,0,1-3.38,2.94Zm10.65-.74a.33.33,0,0,1-.3.15,1.19,1.19,0,0,1-.29,0c-2.71,3.27-5.51,3.94-9.44,4.23l0-.27c3.66-.52,6.45-1.35,8.84-4.75Zm-2-2.67c2.69.88,3.52,2.13,3.52,2.82,0,.32-.16.51-.4.51a.62.62,0,0,1-.34-.12A8.41,8.41,0,0,0,67.27,294Z"/><path class="cls-7" d="M69.86,312l1.29.89c-.12.19-.27.29-.66.29h-12l-.1-.33H61v-7.23l1.24.54a35.64,35.64,0,0,0,5.88-1.59l1,.95a.33.33,0,0,1-.25.08,1.36,1.36,0,0,1-.45-.11,47,47,0,0,1-6.56,1v1.92h6.73l.63-.82,1.24.87c-.11.21-.27.29-.65.29H67.74v4.1H69.2Zm-6.27,2.32a.32.32,0,0,1-.27.14.94.94,0,0,1-.25,0,13.12,13.12,0,0,1-4.48,2.9l-.14-.22a12.86,12.86,0,0,0,4-3.46Zm-1.73-5.57v4.1h5v-4.1Zm4.22,5.07c3.49,1,4.55,2.39,4.55,3.08a.38.38,0,0,1-.4.43.72.72,0,0,1-.32-.08A13.17,13.17,0,0,0,66,314Z"/><polygon class="cls-6" points="20.43 287.23 11.42 284.9 2.42 287.23 -2.39 317.89 25.23 317.89 20.43 287.23"/><path class="cls-7" d="M16.48,290.68l1.31.91c-.12.19-.29.29-.67.29H12.4c0,.11-.18.18-.54.22v3.45c0,.73-.15,1.21-1.39,1.35,0-.71-.51-.8-1.4-.87v-.21h1.62c.22,0,.27-.08.27-.27v-3.67H5.14l-.1-.33H7.52V288l1.43.12c0,.19-.14.27-.56.34v3.12H11v-4.78l1.54.14c0,.22-.16.32-.63.38v1.59H14.7l.66-.84,1.25.88c-.12.21-.27.29-.65.29h-4.1v2.34h3.93ZM5.32,295.92a10.46,10.46,0,0,0,2.73-3.53l1.31.65a.33.33,0,0,1-.33.16H8.84a10.3,10.3,0,0,1-3.38,2.94ZM16,295.18a.33.33,0,0,1-.3.15,1.19,1.19,0,0,1-.29,0c-2.71,3.27-5.51,3.94-9.44,4.23l0-.27c3.66-.52,6.45-1.35,8.84-4.75Zm-2-2.67c2.69.88,3.52,2.13,3.52,2.82,0,.32-.16.51-.4.51a.62.62,0,0,1-.34-.12,8.41,8.41,0,0,0-2.87-3.05Z"/><path class="cls-7" d="M16.51,310.7l1.29.89c-.12.19-.27.29-.66.29h-12l-.1-.33H7.61v-7.23l1.24.54a35.64,35.64,0,0,0,5.88-1.59l1,.95a.33.33,0,0,1-.25.08,1.36,1.36,0,0,1-.45-.11,47,47,0,0,1-6.56,1v1.92h6.73l.63-.82,1.24.87c-.11.21-.27.29-.65.29H14.39v4.1h1.46ZM10.24,313a.32.32,0,0,1-.27.14.94.94,0,0,1-.25,0A13.12,13.12,0,0,1,5.24,316l-.14-.22a12.86,12.86,0,0,0,4-3.46Zm-1.73-5.57v4.1h5v-4.1Zm4.22,5.07c3.49,1,4.55,2.39,4.55,3.08a.38.38,0,0,1-.4.43.72.72,0,0,1-.32-.08,13.17,13.17,0,0,0-3.93-3.24Z"/></g><polygon class="cls-8" points="219.91 396.31 -4 300.16 -4 -5.31 445 -5.31 445 300.16 219.91 396.31"/></svg>
