<svg xmlns="http://www.w3.org/2000/svg" viewBox="0 0 701.59 702"><defs><style>.cls-1,.cls-3{fill:none;}.cls-1,.cls-3,.cls-4,.cls-5,.cls-6{stroke:#000;}.cls-1,.cls-4{stroke-width:2px;}.cls-2{fill:#d6ab73;}.cls-5{fill:#ffc69c;}.cls-6{stroke-linecap:round;}.cls-6,.cls-8{stroke-linejoin:round;}.cls-6,.cls-7,.cls-8{stroke-width:0.5px;}.cls-7,.cls-8{fill:#b20000;stroke:#b20000;}</style></defs><title>logo</title><g id="レイヤー_2" data-name="レイヤー 2"><g id="Shogi"><rect id="Frame" class="cls-1" x="1" y="1" width="577.88" height="700"/><g id="Chessboard"><rect class="cls-2" x="1" y="1" width="64.21" height="77.78"/><rect class="cls-3" x="1" y="1" width="64.21" height="77.78"/><rect class="cls-2" x="65.21" y="1" width="64.21" height="77.78"/><rect class="cls-3" x="65.21" y="1" width="64.21" height="77.78"/><rect class="cls-2" x="129.42" y="1" width="64.21" height="77.78"/><rect class="cls-3" x="129.42" y="1" width="64.21" height="77.78"/><rect class="cls-2" x="193.63" y="1" width="64.21" height="77.78"/><rect class="cls-3" x="193.63" y="1" width="64.21" height="77.78"/><rect class="cls-2" x="386.26" y="1" width="64.21" height="77.78"/><rect class="cls-3" x="386.26" y="1" width="64.21" height="77.78"/><rect class="cls-2" x="450.46" y="1" width="64.21" height="77.78"/><rect class="cls-3" x="450.46" y="1" width="64.21" height="77.78"/><rect class="cls-2" x="514.67" y="1" width="64.21" height="77.78"/><rect class="cls-3" x="514.67" y="1" width="64.21" height="77.78"/><rect class="cls-2" x="257.84" y="1" width="64.21" height="77.78"/><rect class="cls-3" x="257.84" y="1" width="64.21" height="77.78"/><rect class="cls-2" x="322.05" y="1" width="64.21" height="77.78"/><rect class="cls-3" x="322.05" y="1" width="64.21" height="77.78"/><rect class="cls-2" x="1" y="78.78" width="64.21" height="77.78"/><rect class="cls-3" x="1" y="78.78" width="64.21" height="77.78"/><rect class="cls-2" x="65.21" y="78.78" width="64.21" height="77.78"/><rect class="cls-3" x="65.21" y="78.78" width="64.21" height="77.78"/><rect class="cls-2" x="129.42" y="78.78" width="64.21" height="77.78"/><rect class="cls-3" x="129.42" y="78.78" width="64.21" height="77.78"/><rect class="cls-2" x="193.63" y="78.78" width="64.21" height="77.78"/><rect class="cls-3" x="193.63" y="78.78" width="64.21" height="77.78"/><rect class="cls-2" x="386.26" y="78.78" width="64.21" height="77.78"/><rect class="cls-3" x="386.26" y="78.78" width="64.21" height="77.78"/><rect class="cls-2" x="450.46" y="78.78" width="64.21" height="77.78"/><rect class="cls-3" x="450.46" y="78.78" width="64.21" height="77.78"/><rect class="cls-2" x="514.67" y="78.78" width="64.21" height="77.78"/><rect class="cls-3" x="514.67" y="78.78" width="64.21" height="77.78"/><rect class="cls-2" x="257.84" y="78.78" width="64.21" height="77.78"/><rect class="cls-3" x="257.84" y="78.78" width="64.21" height="77.78"/><rect class="cls-2" x="322.05" y="78.78" width="64.21" height="77.78"/><rect class="cls-3" x="322.05" y="78.78" width="64.21" height="77.78"/><rect class="cls-2" x="1" y="156.56" width="64.21" height="77.78"/><rect class="cls-3" x="1" y="156.56" width="64.21" height="77.78"/><rect class="cls-2" x="65.21" y="156.56" width="64.21" height="77.78"/><rect class="cls-3" x="65.21" y="156.56" width="64.21" height="77.78"/><rect class="cls-2" x="129.42" y="156.56" width="64.21" height="77.78"/><rect class="cls-3" x="129.42" y="156.56" width="64.21" height="77.78"/><rect class="cls-2" x="193.63" y="156.56" width="64.21" height="77.78"/><rect class="cls-3" x="193.63" y="156.56" width="64.21" height="77.78"/><rect class="cls-2" x="386.26" y="156.56" width="64.21" height="77.78"/><rect class="cls-3" x="386.26" y="156.56" width="64.21" height="77.78"/><rect class="cls-2" x="450.46" y="156.56" width="64.21" height="77.78"/><rect class="cls-3" x="450.46" y="156.56" width="64.21" height="77.78"/><rect class="cls-2" x="514.67" y="156.56" width="64.21" height="77.78"/><rect class="cls-3" x="514.67" y="156.56" width="64.21" height="77.78"/><rect class="cls-2" x="257.84" y="156.56" width="64.21" height="77.78"/><rect class="cls-3" x="257.84" y="156.56" width="64.21" height="77.78"/><rect class="cls-2" x="322.05" y="156.56" width="64.21" height="77.78"/><rect class="cls-3" x="322.05" y="156.56" width="64.21" height="77.78"/><rect class="cls-2" x="1" y="234.33" width="64.21" height="77.78"/><rect class="cls-3" x="1" y="234.33" width="64.21" height="77.78"/><rect class="cls-2" x="65.21" y="234.33" width="64.21" height="77.78"/><rect class="cls-3" x="65.21" y="234.33" width="64.21" height="77.78"/><rect class="cls-2" x="129.42" y="234.33" width="64.21" height="77.78"/><rect class="cls-3" x="129.42" y="234.33" width="64.21" height="77.78"/><rect class="cls-2" x="193.63" y="234.33" width="64.21" height="77.78"/><rect class="cls-3" x="193.63" y="234.33" width="64.21" height="77.78"/><rect class="cls-2" x="386.26" y="234.33" width="64.21" height="77.78"/><rect class="cls-3" x="386.26" y="234.33" width="64.21" height="77.78"/><rect class="cls-2" x="450.46" y="234.33" width="64.21" height="77.78"/><rect class="cls-3" x="450.46" y="234.33" width="64.21" height="77.78"/><rect class="cls-2" x="514.67" y="234.33" width="64.21" height="77.78"/><rect class="cls-3" x="514.67" y="234.33" width="64.21" height="77.78"/><rect class="cls-2" x="257.84" y="234.33" width="64.21" height="77.78"/><rect class="cls-3" x="257.84" y="234.33" width="64.21" height="77.78"/><rect class="cls-2" x="322.05" y="234.33" width="64.21" height="77.78"/><rect class="cls-3" x="322.05" y="234.33" width="64.21" height="77.78"/><rect class="cls-2" x="1" y="312.11" width="64.21" height="77.78"/><rect class="cls-3" x="1" y="312.11" width="64.21" height="77.78"/><rect class="cls-2" x="65.21" y="312.11" width="64.21" height="77.78"/><rect class="cls-3" x="65.21" y="312.11" width="64.21" height="77.78"/><rect class="cls-2" x="129.42" y="312.11" width="64.21" height="77.78"/><rect class="cls-3" x="129.42" y="312.11" width="64.21" height="77.78"/><rect class="cls-2" x="193.63" y="312.11" width="64.21" height="77.78"/><rect class="cls-3" x="193.63" y="312.11" width="64.21" height="77.78"/><rect class="cls-2" x="386.26" y="312.11" width="64.21" height="77.78"/><rect class="cls-3" x="386.26" y="312.11" width="64.21" height="77.78"/><rect class="cls-2" x="450.46" y="312.11" width="64.21" height="77.78"/><rect class="cls-3" x="450.46" y="312.11" width="64.21" height="77.78"/><rect class="cls-2" x="514.67" y="312.11" width="64.21" height="77.78"/><rect class="cls-3" x="514.67" y="312.11" width="64.21" height="77.78"/><rect class="cls-2" x="257.84" y="312.11" width="64.21" height="77.78"/><rect class="cls-3" x="257.84" y="312.11" width="64.21" height="77.78"/><rect class="cls-2" x="322.05" y="312.11" width="64.21" height="77.78"/><rect class="cls-3" x="322.05" y="312.11" width="64.21" height="77.78"/><rect class="cls-2" x="1" y="389.89" width="64.21" height="77.78"/><rect class="cls-3" x="1" y="389.89" width="64.21" height="77.78"/><rect class="cls-2" x="65.21" y="389.89" width="64.21" height="77.78"/><rect class="cls-3" x="65.21" y="389.89" width="64.21" height="77.78"/><rect class="cls-2" x="129.42" y="389.89" width="64.21" height="77.78"/><rect class="cls-3" x="129.42" y="389.89" width="64.21" height="77.78"/><rect class="cls-2" x="193.63" y="389.89" width="64.21" height="77.78"/><rect class="cls-3" x="193.63" y="389.89" width="64.21" height="77.78"/><rect class="cls-2" x="386.26" y="389.89" width="64.21" height="77.78"/><rect class="cls-3" x="386.26" y="389.89" width="64.21" height="77.78"/><rect class="cls-2" x="450.46" y="389.89" width="64.21" height="77.78"/><rect class="cls-3" x="450.46" y="389.89" width="64.21" height="77.78"/><rect class="cls-2" x="514.67" y="389.89" width="64.21" height="77.78"/><rect class="cls-3" x="514.67" y="389.89" width="64.21" height="77.78"/><rect class="cls-2" x="257.84" y="389.89" width="64.21" height="77.78"/><rect class="cls-3" x="257.84" y="389.89" width="64.21" height="77.78"/><rect class="cls-2" x="322.05" y="389.89" width="64.21" height="77.78"/><rect class="cls-3" x="322.05" y="389.89" width="64.21" height="77.78"/><rect class="cls-2" x="1" y="467.67" width="64.21" height="77.78"/><rect class="cls-3" x="1" y="467.67" width="64.21" height="77.78"/><rect class="cls-2" x="65.21" y="467.67" width="64.21" height="77.78"/><rect class="cls-3" x="65.21" y="467.67" width="64.21" height="77.78"/><rect class="cls-2" x="129.42" y="467.67" width="64.21" height="77.78"/><rect class="cls-3" x="129.42" y="467.67" width="64.21" height="77.78"/><rect class="cls-2" x="193.63" y="467.67" width="64.21" height="77.78"/><rect class="cls-3" x="193.63" y="467.67" width="64.21" height="77.78"/><rect class="cls-2" x="386.26" y="467.67" width="64.21" height="77.78"/><rect class="cls-3" x="386.26" y="467.67" width="64.21" height="77.78"/><rect class="cls-2" x="450.46" y="467.67" width="64.21" height="77.78"/><rect class="cls-3" x="450.46" y="467.67" width="64.21" height="77.78"/><rect class="cls-2" x="514.67" y="467.67" width="64.21" height="77.78"/><rect class="cls-3" x="514.67" y="467.67" width="64.21" height="77.78"/><rect class="cls-2" x="257.84" y="467.67" width="64.21" height="77.78"/><rect class="cls-3" x="257.84" y="467.67" width="64.21" height="77.78"/><rect class="cls-2" x="322.05" y="467.67" width="64.21" height="77.78"/><rect class="cls-3" x="322.05" y="467.67" width="64.21" height="77.78"/><rect class="cls-2" x="1" y="545.44" width="64.21" height="77.78"/><rect class="cls-3" x="1" y="545.44" width="64.21" height="77.78"/><rect class="cls-2" x="65.21" y="545.44" width="64.21" height="77.78"/><rect class="cls-3" x="65.21" y="545.44" width="64.21" height="77.78"/><rect class="cls-2" x="129.42" y="545.44" width="64.21" height="77.78"/><rect class="cls-3" x="129.42" y="545.44" width="64.21" height="77.78"/><rect class="cls-2" x="193.63" y="545.44" width="64.21" height="77.78"/><rect class="cls-3" x="193.63" y="545.44" width="64.21" height="77.78"/><rect class="cls-2" x="386.26" y="545.44" width="64.21" height="77.78"/><rect class="cls-3" x="386.26" y="545.44" width="64.21" height="77.78"/><rect class="cls-2" x="450.46" y="545.44" width="64.21" height="77.78"/><rect class="cls-3" x="450.46" y="545.44" width="64.21" height="77.78"/><rect class="cls-2" x="514.67" y="545.44" width="64.21" height="77.78"/><rect class="cls-3" x="514.67" y="545.44" width="64.21" height="77.78"/><rect class="cls-2" x="257.84" y="545.44" width="64.21" height="77.78"/><rect class="cls-3" x="257.84" y="545.44" width="64.21" height="77.78"/><rect class="cls-2" x="322.05" y="545.44" width="64.21" height="77.78"/><rect class="cls-3" x="322.05" y="545.44" width="64.21" height="77.78"/><rect class="cls-2" x="1" y="623.22" width="64.21" height="77.78"/><rect class="cls-3" x="1" y="623.22" width="64.21" height="77.78"/><rect class="cls-2" x="65.21" y="623.22" width="64.21" height="77.78"/><rect class="cls-3" x="65.21" y="623.22" width="64.21" height="77.78"/><rect class="cls-2" x="129.42" y="623.22" width="64.21" height="77.78"/><rect class="cls-3" x="129.42" y="623.22" width="64.21" height="77.78"/><rect class="cls-2" x="193.63" y="623.22" width="64.21" height="77.78"/><rect class="cls-3" x="193.63" y="623.22" width="64.21" height="77.78"/><rect class="cls-2" x="386.26" y="623.22" width="64.21" height="77.78"/><rect class="cls-3" x="386.26" y="623.22" width="64.21" height="77.78"/><rect class="cls-2" x="450.46" y="623.22" width="64.21" height="77.78"/><rect class="cls-3" x="450.46" y="623.22" width="64.21" height="77.78"/><rect class="cls-2" x="514.67" y="623.22" width="64.21" height="77.78"/><rect class="cls-3" x="514.67" y="623.22" width="64.21" height="77.78"/><rect class="cls-2" x="257.84" y="623.22" width="64.21" height="77.78"/><rect class="cls-3" x="257.84" y="623.22" width="64.21" height="77.78"/><rect class="cls-2" x="322.05" y="623.22" width="64.21" height="77.78"/><rect class="cls-3" x="322.05" y="623.22" width="64.21" height="77.78"/></g><ellipse class="cls-4" cx="193.63" cy="234.33" rx="5.14" ry="4.95"/><ellipse class="cls-4" cx="386.26" cy="234.33" rx="5.14" ry="4.95"/><ellipse class="cls-4" cx="386.26" cy="467.67" rx="5.14" ry="4.95"/><ellipse class="cls-4" cx="193.63" cy="467.67" rx="5.14" ry="4.95"/><g id="Chess_pieces" data-name="Chess pieces"><g id="White"><polygon class="cls-5" points="307.44 635.55 289.94 631.2 272.44 635.55 263.11 693.02 316.78 693.02 307.44 635.55"/><path class="cls-6" d="M299.71,654.5l2.59,1.75c-.21.36-.53.54-1.31.54H277.64l-.19-.62h11.27v-9.84H280.1l-.16-.62h8.79v-8.37h-9.86l-.19-.62h18.46l1.36-1.65,2.56,1.73c-.21.39-.51.54-1.28.54h-9.27v8.37h5.61l1.34-1.6,2.48,1.67c-.21.39-.53.54-1.28.54h-8.15v9.84h7.83Zm-6.57-6.29c3.93,1.21,5.16,3.09,5.16,4.33,0,.72-.43,1.24-1,1.24a1.28,1.28,0,0,1-.83-.33,9.82,9.82,0,0,0-3.55-5Z"/><path class="cls-6" d="M282.77,665.34l2.83.26c-.05.36-.29.54-1.12.62v22.16c0,.08-.24.67-1.71.67v-8.4c-1,.72-2.3,1.67-3.82,2.71a.85.85,0,0,1-.51.67l-1.15-2.22c1-.28,3.15-1.06,5.48-1.93Zm-4.49,3.53c3,1.31,4,3,4,4,0,.7-.4,1.19-.91,1.19a1.09,1.09,0,0,1-.75-.33,9.54,9.54,0,0,0-2.56-4.69Zm22.12,7.86,2.19,1.57c-.24.39-.53.54-1.26.54H298v7.81c0,1.31-.35,2.24-2.94,2.5-.05-1.11-.75-1.42-3.28-1.57v-.39h3.87c.53,0,.67-.15.67-.57v-7.78H285.36l-.19-.62h11.11v-3.09l2.8.18c-.05.36-.19.54-1.12.64v2.27h1.28Zm.35-9.74a.79.79,0,0,1-.51.15,2.54,2.54,0,0,1-.88-.18,112,112,0,0,1-14.05,1.88l-.08-.46a87.36,87.36,0,0,0,13.52-3.19ZM286.7,669.8c2.32,1.31,3.07,2.78,3.07,3.79,0,.8-.43,1.31-.94,1.31a1,1,0,0,1-.72-.36A8.51,8.51,0,0,0,286.4,670ZM288,680.05c3.15,1.16,4.14,2.76,4.14,3.84a1.06,1.06,0,0,1-1,1.18,1.09,1.09,0,0,1-.75-.33,8.64,8.64,0,0,0-2.64-4.48ZM291.77,669c1.68,1.39,2.24,2.76,2.24,3.79s-.53,1.65-1.1,1.65a.93.93,0,0,1-.72-.41c0-.28.05-.57.05-.88a11.16,11.16,0,0,0-.83-4Zm9.48,1.24a.53.53,0,0,1-.56.31,4.23,4.23,0,0,1-.45-.05,25.53,25.53,0,0,1-5.9,6l-.29-.36A27.34,27.34,0,0,0,298.8,669Z"/><polygon class="cls-5" points="499.39 559.99 482.57 555.8 465.75 559.99 456.77 615.25 508.37 615.25 499.39 559.99"/><path class="cls-6" d="M494.11,577.48l-.26,2.72c.49.39.69.67.69.94s-.08.62-.9.62a4.7,4.7,0,0,1-1.75-.45c-4-1.54-5.16-5-5.42-10.67h-3.83v10.53s-.26.62-1.64.62V570.65h-4.34c-.1,4-1.05,8.42-5.47,11.14l-.34-.32c3.42-2.87,4.14-7,4.21-10.82h-4.31l-.18-.59h4.49v-4.51a27.14,27.14,0,0,1-4.21,1.81l-.23-.37a23.08,23.08,0,0,0,6.73-4.88l2.26,1.11a.71.71,0,0,1-.67.27,4,4,0,0,1-.51-.05,20.93,20.93,0,0,1-2,1.34l1.28.1c-.05.37-.26.52-1.05.6v4.58H481v-8l2.62.22c-.05.35-.26.5-1,.57v7.23h3.57l.77-.94,2.08,1.51a1.55,1.55,0,0,1-1,.37,26,26,0,0,0,.23,2.95c.44.05.85.12,1.21.2.62-.89,1.41-2.15,1.9-2.92l1.9,1.16a.43.43,0,0,1-.44.22,3.3,3.3,0,0,1-.44-.05c-.57.45-1.52,1.16-2.31,1.73,2.16.62,2.93,1.68,2.93,2.4a.7.7,0,0,1-.69.74,1.1,1.1,0,0,1-.51-.15,10.45,10.45,0,0,0-3.44-2.8c.51,2.67,1.64,4.56,4,5.35a1.22,1.22,0,0,0,.33.07c.15,0,.23-.07.31-.27a16.47,16.47,0,0,0,.77-2.18Zm-.36-8c.46.42.67.72.67,1s-.26.62-.9.62a4.31,4.31,0,0,1-1.69-.47c-3.54-1.51-4.8-4.63-5.11-9.51H472.16l-.2-.59h14.51l.74-.94,2.08,1.46a1.54,1.54,0,0,1-1,.37,14.93,14.93,0,0,0,.23,2.23c.49.05.92.12,1.33.2.64-.87,1.44-2.1,1.9-2.85l1.85,1.24a.46.46,0,0,1-.44.2,1.31,1.31,0,0,1-.41-.05c-.57.45-1.49,1.09-2.29,1.61,1.93.57,2.59,1.54,2.59,2.23a.68.68,0,0,1-.69.74,1,1,0,0,1-.51-.12,9,9,0,0,0-3.26-2.72c.51,2.45,1.62,4.26,3.77,5a.81.81,0,0,0,.33.1c.13,0,.18-.1.26-.27.23-.54.51-1.31.74-2.06l.26,0Z"/><path class="cls-6" d="M492,605l2.46,1.64c-.2.37-.49.54-1.23.54H483.3v3.74s-.23.62-1.7.62v-4.36H470.85l-.18-.59h10.94v-3h-5.75v.87s-.23.57-1.64.57V594.08l1.8.77h5.6v-2.77H471.39l-.18-.59h10.4v-2.95l2.8.25c-.05.35-.31.55-1.1.62v2.08h6.8l1.31-1.53,2.49,1.61c-.2.35-.51.52-1.26.52H483.3v2.77h5.62l.82-1,2.23,1.53a2.14,2.14,0,0,1-1.1.52v8.3c0,.07-.51.57-1.7.57v-1.19H483.3v3h7.37Zm-10.35-9.53h-5.75v3.42h5.75ZM475.85,603h5.75v-3.54h-5.75Zm13.33-7.55H483.3v3.42h5.88ZM483.3,603h5.88v-3.54H483.3Z"/><polygon class="cls-5" points="114.14 559.99 97.31 555.8 80.49 559.99 71.51 615.25 123.12 615.25 114.14 559.99"/><path class="cls-6" d="M104.41,565l2.16,1.49a1.85,1.85,0,0,1-1,.47V579.7c0,1.29-.41,2.2-3,2.4,0-1.36-1-1.51-3.26-1.71v-.32h3.93c.46,0,.62-.1.62-.4v-4.36H90.52a10.18,10.18,0,0,1-4.8,6.79l-.33-.32c3.31-3,3.83-6.74,3.83-10.57v-5.05a21.37,21.37,0,0,1-3.49,2.45l-.28-.3a24,24,0,0,0,7.09-9.16l2.67.72c-.1.25-.31.37-1,.32-.33.55-.69,1.11-1.1,1.69H99.2l1.08-1,1.93,1.76c-.2.2-.51.22-1,.25A27.67,27.67,0,0,1,97.76,566h5.88Zm-7.32,1a24,24,0,0,0,2.13-3.52H92.68a27.19,27.19,0,0,1-2.72,3l1.23.5Zm-6.21,4.9a22.19,22.19,0,0,1-.26,3.84h5.8v-3.84Zm0-4.31v3.71h5.55v-3.71Zm13,0H98v3.71h5.86ZM98,574.72h5.86v-3.84H98Z"/><path class="cls-6" d="M85.18,602.89a38.79,38.79,0,0,0,6.88-9l2.44,1.24a.61.61,0,0,1-.59.3,3.9,3.9,0,0,1-.44-.05,32.25,32.25,0,0,1-2.57,3.07l.72.27a1,1,0,0,1-.77.45v12.18s-.31.55-1.67.55V600.19a33,33,0,0,1-3.72,3Zm.05-7.55a33,33,0,0,0,6.14-6.39l2.29,1.31a.57.57,0,0,1-.54.25,1.61,1.61,0,0,1-.44,0,32.88,32.88,0,0,1-7.19,5.25Zm22,1,2.26,1.56c-.21.37-.49.52-1.21.52h-4V609.4c0,1.31-.39,2.23-2.93,2.45,0-1.41-1.05-1.58-3.21-1.73v-.37H102c.46,0,.59-.08.59-.37V598.45H94.24l-.18-.59H106Zm1.1-5.32c-.2.37-.51.52-1.23.52H95.14L95,591h9.89l1.18-1.46Z"/><polygon class="cls-5" points="370.3 639.98 354.15 635.95 338 639.98 329.38 693.02 378.92 693.02 370.3 639.98"/><path class="cls-6" d="M342.39,649.58c4.17-2.4,8.63-6.94,10.16-10.48l3.06.64c0,.29-.35.4-1,.48a30.61,30.61,0,0,0,11.29,8l-.07.33a1.78,1.78,0,0,0-1.33,1.24c-4.31-2.4-8.23-5.7-10.35-9.32A29.3,29.3,0,0,1,342.61,650ZM361.65,660l1.23-1.52,2.32,1.59c-.2.33-.47.5-1.18.5H343.28l-.17-.57h10.11v-7.35h-8.8l-.17-.57h9v-3.9H348l-.15-.57h9l1.08-1.28,2.09,1.35c-.17.36-.47.5-1.13.5h-4.07v3.9h5.92l1.18-1.4,2.24,1.47c-.2.36-.49.5-1.21.5h-8.13V660Zm-14.79-6.28c2.54,1.43,3.35,3,3.35,4,0,.76-.42,1.26-.91,1.26a1,1,0,0,1-.74-.36,9.43,9.43,0,0,0-2-4.78Zm15.26.83c-.12.24-.35.38-.94.33a24.66,24.66,0,0,1-3.75,4.4l-.37-.21a38.51,38.51,0,0,0,2.64-5.49Z"/><path class="cls-6" d="M347.62,667.91l2.61.24c0,.33-.27.5-1,.57v20.44c0,.07-.22.62-1.58.62V682c-.91.67-2.12,1.54-3.52,2.5a.79.79,0,0,1-.47.62l-1.06-2c.91-.26,2.91-1,5.05-1.78Zm-4.14,3.26c2.79,1.21,3.65,2.73,3.65,3.73,0,.64-.37,1.09-.84,1.09a1,1,0,0,1-.69-.31,8.83,8.83,0,0,0-2.37-4.33Zm20.41,7.25,2,1.45c-.22.36-.49.5-1.16.5h-3.11v7.2c0,1.21-.32,2.07-2.71,2.31-.05-1-.69-1.31-3-1.45v-.36h3.57c.49,0,.62-.14.62-.52v-7.18H350l-.17-.57h10.25v-2.85l2.59.17c-.05.33-.17.5-1,.59v2.09h1.18Zm.32-9a.73.73,0,0,1-.47.14,2.33,2.33,0,0,1-.81-.17,103.17,103.17,0,0,1-13,1.74l-.08-.43a80.71,80.71,0,0,0,12.47-2.95Zm-13,2.59c2.14,1.21,2.84,2.57,2.84,3.49,0,.74-.4,1.21-.86,1.21a.9.9,0,0,1-.67-.33,7.86,7.86,0,0,0-1.58-4.23Zm1.23,9.46c2.91,1.07,3.82,2.54,3.82,3.54a1,1,0,0,1-.89,1.1,1,1,0,0,1-.69-.31,8,8,0,0,0-2.44-4.14Zm3.45-10.22a4.76,4.76,0,0,1,2.07,3.49c0,.93-.49,1.52-1,1.52a.86.86,0,0,1-.67-.38c0-.26.05-.52.05-.81a10.29,10.29,0,0,0-.76-3.73Zm8.75,1.14a.49.49,0,0,1-.52.29,3.54,3.54,0,0,1-.42,0,23.49,23.49,0,0,1-5.45,5.54l-.27-.33a25.24,25.24,0,0,0,4.39-6.56Z"/><polygon class="cls-5" points="241.88 639.98 225.73 635.95 209.58 639.98 200.96 693.02 250.5 693.02 241.88 639.98"/><path class="cls-6" d="M214,649.58c4.17-2.4,8.63-6.94,10.16-10.48l3.06.64c0,.29-.35.4-1,.48a30.61,30.61,0,0,0,11.29,8l-.07.33a1.78,1.78,0,0,0-1.33,1.24c-4.31-2.4-8.23-5.7-10.35-9.32A29.3,29.3,0,0,1,214.2,650ZM233.23,660l1.23-1.52,2.32,1.59c-.2.33-.47.5-1.18.5H214.86l-.17-.57H224.8v-7.35H216l-.17-.57h9v-3.9h-5.23l-.15-.57h9l1.08-1.28,2.09,1.35c-.17.36-.47.5-1.13.5h-4.07v3.9h5.92l1.18-1.4,2.24,1.47c-.2.36-.49.5-1.21.5h-8.13V660Zm-14.79-6.28c2.54,1.43,3.35,3,3.35,4,0,.76-.42,1.26-.91,1.26a1,1,0,0,1-.74-.36,9.43,9.43,0,0,0-2-4.78Zm15.26.83c-.12.24-.35.38-.94.33a24.66,24.66,0,0,1-3.75,4.4l-.37-.21a38.51,38.51,0,0,0,2.64-5.49Z"/><path class="cls-6" d="M219.2,667.91l2.61.24c0,.33-.27.5-1,.57v20.44c0,.07-.22.62-1.58.62V682c-.91.67-2.12,1.54-3.52,2.5a.79.79,0,0,1-.47.62l-1.06-2c.91-.26,2.91-1,5.05-1.78Zm-4.14,3.26c2.79,1.21,3.65,2.73,3.65,3.73,0,.64-.37,1.09-.84,1.09a1,1,0,0,1-.69-.31,8.83,8.83,0,0,0-2.37-4.33Zm20.41,7.25,2,1.45c-.22.36-.49.5-1.16.5h-3.11v7.2c0,1.21-.32,2.07-2.71,2.31-.05-1-.69-1.31-3-1.45v-.36h3.57c.49,0,.62-.14.62-.52v-7.18H221.59l-.17-.57h10.25v-2.85l2.59.17c-.05.33-.17.5-1,.59v2.09h1.18Zm.32-9a.73.73,0,0,1-.47.14,2.33,2.33,0,0,1-.81-.17,103.17,103.17,0,0,1-13,1.74l-.08-.43a80.71,80.71,0,0,0,12.47-2.95Zm-13,2.59c2.14,1.21,2.84,2.57,2.84,3.49,0,.74-.4,1.21-.86,1.21a.9.9,0,0,1-.67-.33,7.86,7.86,0,0,0-1.58-4.23Zm1.23,9.46c2.91,1.07,3.82,2.54,3.82,3.54a1,1,0,0,1-.89,1.1,1,1,0,0,1-.69-.31,8,8,0,0,0-2.44-4.14Zm3.45-10.22a4.76,4.76,0,0,1,2.07,3.49c0,.93-.49,1.52-1,1.52a.86.86,0,0,1-.67-.38c0-.26.05-.52.05-.81a10.29,10.29,0,0,0-.76-3.73Zm8.75,1.14a.49.49,0,0,1-.52.29,3.54,3.54,0,0,1-.42,0,23.49,23.49,0,0,1-5.45,5.54l-.27-.33a25.24,25.24,0,0,0,4.39-6.56Z"/><polygon class="cls-5" points="177.67 639.98 161.52 635.95 145.37 639.98 136.75 693.02 186.29 693.02 177.67 639.98"/><path class="cls-6" d="M149.8,647.15a22.68,22.68,0,0,0,4.66-8l2.69.31c0,.26-.3.4-1,.48,3.43,1.45,4.44,3,4.44,3.9a.88.88,0,0,1-.84,1,1,1,0,0,1-.62-.26,11.64,11.64,0,0,0-3.13-4.3,22.38,22.38,0,0,1-5.94,7.13Zm6.41,10.46c1.38-.19,2.88-.43,4.41-.67l.07.36c-2.17.69-5.1,1.57-9.07,2.64a.93.93,0,0,1-.59.55l-.91-2.07c1-.1,2.59-.31,4.56-.57v-7.35h-4.32l-.17-.57h4.49v-3.47H152l-.17-.57h5.32l1-1.26,1.92,1.31c-.2.36-.47.52-1.13.52h-2.76v3.47H158l1-1.26,1.92,1.31c-.2.36-.47.52-1.13.52h-3.55Zm-4.93-5.9c1.68,1.45,2.24,2.83,2.24,3.8s-.42,1.38-.89,1.38a.84.84,0,0,1-.62-.36,10.08,10.08,0,0,0-1.06-4.68Zm9.44.43c-.07.29-.27.4-.84.4a22.47,22.47,0,0,1-2.44,4.09l-.42-.21a34.43,34.43,0,0,0,1.43-4.92Zm5.2-2a15.88,15.88,0,0,0,1.8,4.54,24.92,24.92,0,0,0,3.43-3.35l1.82,1.5a.6.6,0,0,1-.42.17,1.14,1.14,0,0,1-.52-.12,21.09,21.09,0,0,1-4,2.26,13.29,13.29,0,0,0,5.2,4.76l-.07.24a1.69,1.69,0,0,0-1.48,1.14,12.94,12.94,0,0,1-3.2-3.19c-1.9.64-4.41,1.52-7.79,2.54a.81.81,0,0,1-.57.52l-.94-2c.59-.07,1.45-.19,2.51-.36V640.14l1.8.74h6.19l.71-.93,2,1.45a1.4,1.4,0,0,1-.94.4v8.68a1.67,1.67,0,0,1-1.31.5h-.25v-.83Zm3.92-8.7h-6.7v3.78h6.7Zm-6.7,8.13h6.7V645.8h-6.7Zm0,.57v8.37c1.5-.24,3.23-.55,5-.86a19.83,19.83,0,0,1-2.74-7.51Z"/><path class="cls-6" d="M155,667.82l2.61.24c0,.33-.27.5-1,.57v20.44c0,.07-.22.62-1.58.62v-7.75c-.91.67-2.12,1.55-3.53,2.5a.78.78,0,0,1-.47.62l-1.06-2c.91-.26,2.91-1,5.05-1.78Zm-4.14,3.26c2.79,1.21,3.65,2.73,3.65,3.73,0,.64-.37,1.09-.84,1.09a1,1,0,0,1-.69-.31,8.81,8.81,0,0,0-2.37-4.33Zm20.41,7.25,2,1.45c-.22.36-.49.5-1.16.5H169v7.2c0,1.21-.32,2.07-2.71,2.3,0-1-.69-1.31-3-1.45V688h3.57c.49,0,.62-.14.62-.52v-7.18H157.35l-.17-.57h10.26v-2.85L170,677c0,.33-.17.5-1,.59v2.09h1.18Zm.32-9a.73.73,0,0,1-.47.14,2.39,2.39,0,0,1-.81-.17,103.57,103.57,0,0,1-13,1.74l-.07-.43a80.7,80.7,0,0,0,12.47-2.95Zm-13,2.59c2.14,1.21,2.83,2.57,2.83,3.49,0,.74-.39,1.21-.86,1.21a.9.9,0,0,1-.67-.33,7.85,7.85,0,0,0-1.58-4.23Zm1.23,9.46c2.91,1.07,3.82,2.54,3.82,3.54a1,1,0,0,1-.89,1.09,1,1,0,0,1-.69-.31,8,8,0,0,0-2.44-4.14Zm3.45-10.22a4.77,4.77,0,0,1,2.07,3.49c0,.93-.49,1.52-1,1.52a.85.85,0,0,1-.67-.38c0-.26,0-.52,0-.81a10.33,10.33,0,0,0-.76-3.73Zm8.75,1.14a.49.49,0,0,1-.52.28,3.87,3.87,0,0,1-.42,0,23.57,23.57,0,0,1-5.45,5.54l-.27-.33a25.3,25.3,0,0,0,4.39-6.56Z"/><polygon class="cls-5" points="434.51 639.98 418.36 635.95 402.21 639.98 393.59 693.02 443.13 693.02 434.51 639.98"/><path class="cls-6" d="M406.64,647.15a22.68,22.68,0,0,0,4.66-8l2.69.31c0,.26-.3.4-1,.48,3.43,1.45,4.44,3,4.44,3.9a.88.88,0,0,1-.84,1,1,1,0,0,1-.62-.26,11.64,11.64,0,0,0-3.13-4.3,22.38,22.38,0,0,1-5.94,7.13ZM413,657.62c1.38-.19,2.88-.43,4.41-.67l.07.36c-2.17.69-5.1,1.57-9.07,2.64a.93.93,0,0,1-.59.55l-.91-2.07c1-.1,2.59-.31,4.56-.57v-7.35H407.2l-.17-.57h4.49v-3.47h-2.64l-.17-.57H414l1-1.26,1.92,1.31c-.2.36-.47.52-1.13.52H413v3.47h1.77l1-1.26,1.92,1.31c-.2.36-.47.52-1.13.52H413Zm-4.93-5.9c1.68,1.45,2.24,2.83,2.24,3.8s-.42,1.38-.89,1.38a.84.84,0,0,1-.62-.36,10.08,10.08,0,0,0-1.06-4.68Zm9.44.43c-.07.29-.27.4-.84.4a22.47,22.47,0,0,1-2.44,4.09l-.42-.21a34.43,34.43,0,0,0,1.43-4.92Zm5.2-2a15.88,15.88,0,0,0,1.8,4.54,24.92,24.92,0,0,0,3.43-3.35l1.82,1.5a.6.6,0,0,1-.42.17,1.14,1.14,0,0,1-.52-.12,21.09,21.09,0,0,1-4,2.26,13.29,13.29,0,0,0,5.2,4.76l-.07.24a1.69,1.69,0,0,0-1.48,1.14,12.94,12.94,0,0,1-3.2-3.19c-1.9.64-4.41,1.52-7.79,2.54a.81.81,0,0,1-.57.52l-.94-2c.59-.07,1.45-.19,2.51-.36V640.14l1.8.74h6.19l.71-.93,2,1.45a1.4,1.4,0,0,1-.94.4v8.68a1.67,1.67,0,0,1-1.31.5h-.25v-.83Zm3.92-8.7H420v3.78h6.7Zm-6.7,8.13h6.7V645.8H420Zm0,.57v8.37c1.5-.24,3.23-.55,5-.86a19.83,19.83,0,0,1-2.74-7.51Z"/><path class="cls-6" d="M411.79,667.82l2.61.24c0,.33-.27.5-1,.57v20.44c0,.07-.22.62-1.58.62v-7.75c-.91.67-2.12,1.55-3.53,2.5a.78.78,0,0,1-.47.62l-1.06-2c.91-.26,2.91-1,5.05-1.78Zm-4.14,3.26c2.79,1.21,3.65,2.73,3.65,3.73,0,.64-.37,1.09-.84,1.09a1,1,0,0,1-.69-.31,8.81,8.81,0,0,0-2.37-4.33Zm20.41,7.25,2,1.45c-.22.36-.49.5-1.16.5h-3.11v7.2c0,1.21-.32,2.07-2.71,2.3,0-1-.69-1.31-3-1.45V688h3.57c.49,0,.62-.14.62-.52v-7.18H414.18l-.17-.57h10.26v-2.85l2.59.17c0,.33-.17.5-1,.59v2.09H427Zm.32-9a.73.73,0,0,1-.47.14,2.39,2.39,0,0,1-.81-.17,103.57,103.57,0,0,1-13,1.74l-.07-.43a80.7,80.7,0,0,0,12.47-2.95Zm-13,2.59c2.14,1.21,2.83,2.57,2.83,3.49,0,.74-.39,1.21-.86,1.21a.9.9,0,0,1-.67-.33,7.85,7.85,0,0,0-1.58-4.23Zm1.23,9.46c2.91,1.07,3.82,2.54,3.82,3.54a1,1,0,0,1-.89,1.09,1,1,0,0,1-.69-.31,8,8,0,0,0-2.44-4.14Zm3.45-10.22a4.77,4.77,0,0,1,2.07,3.49c0,.93-.49,1.52-1,1.52a.85.85,0,0,1-.67-.38c0-.26,0-.52,0-.81a10.33,10.33,0,0,0-.76-3.73Zm8.75,1.14a.49.49,0,0,1-.52.28,3.87,3.87,0,0,1-.42,0,23.57,23.57,0,0,1-5.45,5.54l-.27-.33a25.3,25.3,0,0,0,4.39-6.56Z"/><polygon class="cls-5" points="498.05 642.18 482.57 638.33 467.09 642.18 458.83 693.02 506.31 693.02 498.05 642.18"/><path class="cls-6" d="M477,647.35v3.17c2.5,1.07,3.31,2.35,3.31,3.14a.78.78,0,0,1-.71.87.88.88,0,0,1-.64-.27,11.19,11.19,0,0,0-2-3.3V662c0,.07-.19.55-1.51.55V651.52a19.56,19.56,0,0,1-3.69,5.76l-.35-.34a24.93,24.93,0,0,0,3.76-9.59h-3.4l-.14-.55h3.83v-5.33l2.53.2c0,.34-.24.5-1,.57v4.56h.9l1-1.32,1.87,1.39c-.21.34-.47.48-1.11.48Zm14.55,12.55,2.05,1.44c-.19.34-.47.48-1.11.48H478.79l-.14-.55h6.73v-5h-4.84l-.17-.55h5v-4.1l2.65.21c0,.39-.31.52-1.11.64v3.26h2.62l1.06-1.34,2,1.41c-.19.34-.45.48-1.11.48h-4.61v5h3.61ZM481,646.12l-.14-.55h4.49V641.7l2.65.23c0,.37-.31.53-1.11.64v3h2.25l1.09-1.34,2,1.41c-.21.34-.47.48-1.11.48h-4.25v4.56h3.4l1.09-1.37,2.06,1.44c-.19.34-.47.48-1.11.48H480.23l-.16-.55h5.31v-4.56Z"/><path class="cls-6" d="M474.77,683.53a7.11,7.11,0,0,1,.26,1.75c0,2-1.2,3.58-2.58,3.58-.4,0-.83-.16-.83-.64a1.13,1.13,0,0,1,.66-.91,4.41,4.41,0,0,0,2.08-3.78Zm16.44-3.76,1.87,1.44a1.76,1.76,0,0,1-.95.34c-.45,4.05-1.3,6.92-2.43,7.7a4.06,4.06,0,0,1-2.55.64c0-.82-.21-1.16-2.39-1.39l0-.39c.45,0,2.72.09,3.21.09a1.1,1.1,0,0,0,.73-.21c.73-.59,1.47-3.12,1.89-6.77H476.45v.61a1.53,1.53,0,0,1-1.3.52h-.24V669.84l1.82.75h11.86l1.11-1.37,2.13,1.44c-.19.34-.5.48-1.16.48h-7.18v2.8h4.09l1-1.3,2,1.37c-.19.34-.47.48-1.11.48h-6v2.78h4.06l1.09-1.32,2.05,1.39c-.19.34-.47.48-1.13.48h-6.07v2.87h6.92ZM482,671.14h-5.53v2.8H482Zm0,6.13v-2.78h-5.53v2.78Zm-5.53.55v2.87H482v-2.87Zm1.21,5.42a4.91,4.91,0,0,1,1.77,3.37c0,1-.49,1.57-1,1.57a.83.83,0,0,1-.66-.41,6.32,6.32,0,0,0,.1-1.21,9.42,9.42,0,0,0-.54-3.21Zm3.35-.3c2.12,1.12,2.81,2.39,2.81,3.26,0,.66-.38,1.1-.83,1.1a.91.91,0,0,1-.62-.3,7.22,7.22,0,0,0-1.63-3.87Zm3.64-.36c2.74.66,3.61,1.89,3.61,2.71a.75.75,0,0,1-.71.82,1,1,0,0,1-.57-.21,7.4,7.4,0,0,0-2.5-3.12Z"/><polygon class="cls-5" points="112.79 642.18 97.31 638.33 81.84 642.18 73.58 693.02 121.05 693.02 112.79 642.18"/><path class="cls-6" d="M91.79,647.35v3.17c2.5,1.07,3.31,2.35,3.31,3.14a.78.78,0,0,1-.71.87.88.88,0,0,1-.64-.27,11.2,11.2,0,0,0-2-3.3V662c0,.07-.19.55-1.51.55V651.52a19.61,19.61,0,0,1-3.69,5.76l-.35-.34A24.91,24.91,0,0,0,90,647.35h-3.4l-.14-.55h3.83v-5.33l2.53.21c0,.34-.24.5-1,.57v4.56h.9l1-1.32,1.87,1.39c-.21.34-.47.48-1.11.48Zm14.55,12.55,2.05,1.43c-.19.34-.47.48-1.11.48H93.53l-.14-.55h6.73v-5H95.28l-.17-.55h5v-4.1l2.65.2c0,.39-.31.52-1.11.64v3.26h2.62l1.06-1.34,2,1.41c-.19.34-.45.48-1.11.48h-4.61v5h3.61ZM95.78,646.12l-.14-.55h4.49V641.7l2.65.23c0,.36-.31.52-1.11.64v3h2.25l1.09-1.34,2,1.41c-.21.34-.47.48-1.11.48h-4.25v4.56h3.4l1.09-1.37,2.06,1.44c-.19.34-.47.48-1.11.48H95l-.16-.55h5.31v-4.56Z"/><path class="cls-6" d="M89.52,683.53a7.12,7.12,0,0,1,.26,1.75c0,2-1.2,3.58-2.58,3.58-.4,0-.83-.16-.83-.64a1.13,1.13,0,0,1,.66-.91,4.41,4.41,0,0,0,2.08-3.78ZM106,679.77l1.87,1.43a1.76,1.76,0,0,1-.95.34c-.45,4.06-1.3,6.93-2.43,7.7a4,4,0,0,1-2.55.64c0-.82-.21-1.16-2.39-1.39l0-.39c.45,0,2.72.09,3.21.09a1.1,1.1,0,0,0,.73-.21c.73-.59,1.47-3.12,1.89-6.77H91.19v.62a1.53,1.53,0,0,1-1.3.52h-.24V669.84l1.82.75h11.86l1.11-1.37,2.13,1.43c-.19.34-.5.48-1.16.48H98.23v2.8h4.09l1-1.3,2,1.37c-.19.34-.47.48-1.11.48h-6v2.78h4.06l1.09-1.32,2.05,1.39c-.19.34-.47.48-1.13.48H98.23v2.87h6.92Zm-9.24-8.63H91.19v2.8h5.53Zm0,6.13v-2.78H91.19v2.78Zm-5.53.55v2.87h5.53v-2.87Zm1.21,5.42a4.91,4.91,0,0,1,1.77,3.37c0,1-.49,1.57-1,1.57a.83.83,0,0,1-.66-.41,6.33,6.33,0,0,0,.1-1.21,9.42,9.42,0,0,0-.54-3.21Zm3.35-.3c2.12,1.11,2.81,2.39,2.81,3.26,0,.66-.38,1.1-.83,1.1a.91.91,0,0,1-.62-.3,7.22,7.22,0,0,0-1.63-3.87Zm3.64-.36c2.74.66,3.61,1.89,3.61,2.71a.75.75,0,0,1-.71.82,1,1,0,0,1-.57-.2,7.39,7.39,0,0,0-2.5-3.12Z"/><polygon class="cls-5" points="562.26 642.18 546.78 638.33 531.3 642.18 523.04 693.02 570.52 693.02 562.26 642.18"/><path class="cls-6" d="M557.47,646.83c-.19.34-.45.5-1.11.5h-8.1c2,2.3,6,4.06,9.52,4.85l0,.25a1.58,1.58,0,0,0-1.3,1.25c-3.61-1.23-7.06-3.42-8.81-6.36h-.14v4.92a1.51,1.51,0,0,1-1.28.5H546v-4.94a23.52,23.52,0,0,1-10,6.45l-.24-.39a24.39,24.39,0,0,0,8.48-6.54h-8l-.16-.55H546V643.9c-2.62.23-5.39.39-8,.39l0-.46a87.45,87.45,0,0,0,15.14-2.39l1.68,1.59a.65.65,0,0,1-.45.14,2.42,2.42,0,0,1-.78-.18c-1.7.27-3.76.55-6,.77v3h6.83l1.06-1.32Zm-5.74,6.61.71-.89,2,1.37a1.9,1.9,0,0,1-.92.43v7.59c0,.07-.45.5-1.54.5v-1.37H541.52v1s-.19.52-1.54.52v-9.87l1.68.73Zm.21.55H541.52v2.92h10.42Zm-10.42,6.54h10.42v-3.08H541.52Z"/><path class="cls-6" d="M555.44,683.91l2.27,1.5c-.19.34-.45.5-1.13.5h-9.09v3.44s-.21.57-1.56.57v-4H536l-.16-.55h10.06v-2.73h-5.29v.8s-.21.52-1.51.52V673.88l1.65.7h5.15V672h-9.4l-.17-.55h9.57v-2.71l2.58.23c0,.32-.29.5-1,.57v1.91h6.26l1.21-1.41,2.29,1.48c-.19.32-.47.48-1.16.48h-8.6v2.55h5.17l.76-.91,2.05,1.41a2,2,0,0,1-1,.48v7.63c0,.07-.47.52-1.56.52v-1.09h-5.41v2.73h6.78Zm-9.52-8.77h-5.29v3.14h5.29Zm-5.29,6.95h5.29v-3.26h-5.29Zm12.26-6.95h-5.41v3.14h5.41Zm-5.41,6.95h5.41v-3.26h-5.41Z"/><polygon class="cls-5" points="48.58 642.18 33.1 638.33 17.63 642.18 9.37 693.02 56.84 693.02 48.58 642.18"/><path class="cls-6" d="M43.79,646.83c-.19.34-.45.5-1.11.5h-8.1c2,2.3,6,4.06,9.52,4.85l0,.25a1.58,1.58,0,0,0-1.3,1.25c-3.61-1.23-7.06-3.42-8.81-6.36h-.14v4.92a1.51,1.51,0,0,1-1.28.5h-.23v-4.94a23.52,23.52,0,0,1-10,6.45l-.24-.39a24.39,24.39,0,0,0,8.48-6.54h-8l-.16-.55h9.9V643.9c-2.62.23-5.39.39-8,.39l0-.46a87.45,87.45,0,0,0,15.14-2.39L41.05,643a.65.65,0,0,1-.45.14,2.42,2.42,0,0,1-.78-.18c-1.7.27-3.76.55-6,.77v3h6.83l1.06-1.32Zm-5.74,6.61.71-.89,2,1.37a1.9,1.9,0,0,1-.92.43v7.59c0,.07-.45.5-1.54.5v-1.37H27.85v1s-.19.52-1.54.52v-9.87l1.68.73Zm.21.55H27.85v2.92H38.27Zm-10.42,6.54H38.27v-3.08H27.85Z"/><path class="cls-6" d="M41.76,683.91l2.27,1.5c-.19.34-.45.5-1.13.5H33.8v3.44s-.21.57-1.56.57v-4h-9.9l-.16-.55H32.24v-2.73H27v.8s-.21.52-1.51.52V673.88l1.65.7h5.15V672h-9.4l-.17-.55h9.57v-2.71l2.58.23c0,.32-.28.5-1,.57v1.91h6.26l1.21-1.41,2.29,1.48c-.19.32-.47.48-1.16.48H33.8v2.55H39l.76-.91,2.05,1.41a2,2,0,0,1-1,.48v7.63c0,.07-.47.52-1.56.52v-1.09H33.8v2.73h6.78Zm-9.52-8.77H27v3.14h5.29ZM27,682.09h5.29v-3.26H27Zm12.26-6.95H33.8v3.14h5.41Zm-5.41,6.95h5.41v-3.26H33.8Z"/><polygon class="cls-5" points="560.91 491.05 546.78 487.53 532.65 491.05 525.11 537.47 568.45 537.47 560.91 491.05"/><path class="cls-6" d="M554.72,496.28l2.05,1.37c-.19.29-.45.44-1.06.44h-7.4c-.06.17-.28.27-.84.33v5.22c0,1.1-.24,1.83-2.18,2,0-1.08-.8-1.21-2.2-1.31v-.31h2.55c.35,0,.43-.12.43-.42v-5.55h-9.15l-.15-.5h3.88v-5.43l2.24.19c0,.29-.21.42-.88.52v4.72h4.06v-7.24l2.42.21c0,.33-.26.48-1,.58v2.41h4.44l1-1.27,2,1.33c-.19.31-.43.44-1,.44h-6.43v3.54h6.17Zm-17.51,7.93a15.91,15.91,0,0,0,4.29-5.35l2,1a.53.53,0,0,1-.52.25,1.53,1.53,0,0,1-.3,0,16,16,0,0,1-5.31,4.45Zm16.72-1.12a.53.53,0,0,1-.48.23,1.93,1.93,0,0,1-.45-.06c-4.25,5-8.65,6-14.82,6.41l-.07-.42c5.74-.79,10.12-2,13.87-7.2Zm-3.06-4c4.23,1.33,5.52,3.22,5.52,4.27,0,.48-.26.77-.63.77a1,1,0,0,1-.54-.19,12.92,12.92,0,0,0-4.51-4.62Z"/><path class="cls-6" d="M554.76,526.57l2,1.35c-.19.29-.43.44-1,.44H536.92l-.15-.5h4V516.92l1.94.81a57.57,57.57,0,0,0,9.23-2.41l1.62,1.44a.54.54,0,0,1-.39.12,2.2,2.2,0,0,1-.71-.16,76.35,76.35,0,0,1-10.29,1.54v2.91h10.57l1-1.25,1.94,1.31c-.17.31-.43.44-1,.44h-3.26v6.2h2.29Zm-9.84,3.52a.51.51,0,0,1-.43.21,1.52,1.52,0,0,1-.39-.06,20.67,20.67,0,0,1-7,4.39l-.21-.33a20,20,0,0,0,6.21-5.24Zm-2.72-8.42v6.2H550v-6.2Zm6.62,7.67C554.31,530.86,556,533,556,534a.59.59,0,0,1-.63.64,1.17,1.17,0,0,1-.5-.12,20.53,20.53,0,0,0-6.17-4.91Z"/><polygon class="cls-5" points="496.7 491.05 482.57 487.53 468.44 491.05 460.9 537.47 504.24 537.47 496.7 491.05"/><path class="cls-6" d="M490.51,496.28l2.05,1.37c-.19.29-.45.44-1.06.44h-7.4c-.06.17-.28.27-.84.33v5.22c0,1.1-.24,1.83-2.18,2,0-1.08-.8-1.21-2.2-1.31v-.31h2.55c.35,0,.43-.12.43-.42v-5.55h-9.15l-.15-.5h3.88v-5.43l2.24.19c0,.29-.21.42-.88.52v4.72h4.06v-7.24l2.42.21c0,.33-.26.48-1,.58v2.41h4.44l1-1.27,2,1.33c-.19.31-.43.44-1,.44h-6.43v3.54h6.17ZM473,504.21a15.91,15.91,0,0,0,4.29-5.35l2,1a.53.53,0,0,1-.52.25,1.53,1.53,0,0,1-.3,0,16,16,0,0,1-5.31,4.45Zm16.72-1.12a.53.53,0,0,1-.48.23,1.93,1.93,0,0,1-.45-.06c-4.25,5-8.65,6-14.82,6.41l-.07-.42c5.74-.79,10.12-2,13.87-7.2Zm-3.06-4c4.23,1.33,5.52,3.22,5.52,4.27,0,.48-.26.77-.63.77a1,1,0,0,1-.54-.19,12.92,12.92,0,0,0-4.51-4.62Z"/><path class="cls-6" d="M490.55,526.57l2,1.35c-.19.29-.43.44-1,.44H472.71l-.15-.5h4V516.92l1.94.81a57.57,57.57,0,0,0,9.23-2.41l1.62,1.44a.54.54,0,0,1-.39.12,2.2,2.2,0,0,1-.71-.16A76.35,76.35,0,0,1,478,518.26v2.91h10.57l1-1.25,1.94,1.31c-.17.31-.43.44-1,.44h-3.26v6.2h2.29Zm-9.84,3.52a.51.51,0,0,1-.43.21,1.52,1.52,0,0,1-.39-.06,20.67,20.67,0,0,1-7,4.39l-.21-.33a20,20,0,0,0,6.21-5.24ZM478,521.67v6.2h7.83v-6.2Zm6.62,7.67c5.48,1.52,7.14,3.62,7.14,4.66a.59.59,0,0,1-.63.64,1.17,1.17,0,0,1-.5-.12,20.53,20.53,0,0,0-6.17-4.91Z"/><polygon class="cls-5" points="432.49 491.05 418.36 487.53 404.23 491.05 396.69 537.47 440.03 537.47 432.49 491.05"/><path class="cls-6" d="M426.3,496.28l2.05,1.37c-.19.29-.45.44-1.06.44h-7.4c-.06.17-.28.27-.84.33v5.22c0,1.1-.24,1.83-2.18,2,0-1.08-.8-1.21-2.2-1.31v-.31h2.55c.35,0,.43-.12.43-.42v-5.55H408.5l-.15-.5h3.88v-5.43l2.24.19c0,.29-.21.42-.88.52v4.72h4.06v-7.24l2.42.21c0,.33-.26.48-1,.58v2.41h4.44l1-1.27,2,1.33c-.19.31-.43.44-1,.44h-6.43v3.54h6.17Zm-17.51,7.93a15.91,15.91,0,0,0,4.29-5.35l2,1a.53.53,0,0,1-.52.25,1.53,1.53,0,0,1-.3,0,16,16,0,0,1-5.31,4.45Zm16.72-1.12a.53.53,0,0,1-.48.23,1.93,1.93,0,0,1-.45-.06c-4.25,5-8.65,6-14.82,6.41l-.07-.42c5.74-.79,10.12-2,13.87-7.2Zm-3.06-4c4.23,1.33,5.52,3.22,5.52,4.27,0,.48-.26.77-.63.77a1,1,0,0,1-.54-.19,12.92,12.92,0,0,0-4.51-4.62Z"/><path class="cls-6" d="M426.34,526.57l2,1.35c-.19.29-.43.44-1,.44H408.5l-.15-.5h4V516.92l1.94.81a57.57,57.57,0,0,0,9.23-2.41l1.62,1.44a.54.54,0,0,1-.39.12,2.2,2.2,0,0,1-.71-.16,76.35,76.35,0,0,1-10.29,1.54v2.91h10.57l1-1.25,1.94,1.31c-.17.31-.43.44-1,.44H423v6.2h2.29Zm-9.84,3.52a.51.51,0,0,1-.43.21,1.52,1.52,0,0,1-.39-.06,20.67,20.67,0,0,1-7,4.39l-.21-.33a20,20,0,0,0,6.21-5.24Zm-2.72-8.42v6.2h7.83v-6.2Zm6.62,7.67c5.48,1.52,7.14,3.62,7.14,4.66a.59.59,0,0,1-.63.64,1.17,1.17,0,0,1-.5-.12,20.53,20.53,0,0,0-6.17-4.91Z"/><polygon class="cls-5" points="368.28 491.05 354.15 487.53 340.02 491.05 332.48 537.47 375.82 537.47 368.28 491.05"/><path class="cls-6" d="M362.09,496.28l2.05,1.37c-.19.29-.45.44-1.06.44h-7.4c-.06.17-.28.27-.84.33v5.22c0,1.1-.24,1.83-2.18,2,0-1.08-.8-1.21-2.2-1.31v-.31H353c.35,0,.43-.12.43-.42v-5.55h-9.15l-.15-.5H348v-5.43l2.24.19c0,.29-.21.42-.88.52v4.72h4.06v-7.24l2.42.21c0,.33-.26.48-1,.58v2.41h4.44l1-1.27,2,1.33c-.19.31-.43.44-1,.44h-6.43v3.54H361Zm-17.51,7.93a15.91,15.91,0,0,0,4.29-5.35l2,1a.53.53,0,0,1-.52.25,1.53,1.53,0,0,1-.3,0,16,16,0,0,1-5.31,4.45Zm16.72-1.12a.53.53,0,0,1-.48.23,1.93,1.93,0,0,1-.45-.06c-4.25,5-8.65,6-14.82,6.41l-.07-.42c5.74-.79,10.12-2,13.87-7.2Zm-3.06-4c4.23,1.33,5.52,3.22,5.52,4.27,0,.48-.26.77-.63.77a1,1,0,0,1-.54-.19,12.92,12.92,0,0,0-4.51-4.62Z"/><path class="cls-6" d="M362.13,526.57l2,1.35c-.19.29-.43.44-1,.44H344.29l-.15-.5h4V516.92l1.94.81a57.57,57.57,0,0,0,9.23-2.41l1.62,1.44a.54.54,0,0,1-.39.12,2.2,2.2,0,0,1-.71-.16,76.35,76.35,0,0,1-10.29,1.54v2.91h10.57l1-1.25,1.94,1.31c-.17.31-.43.44-1,.44h-3.26v6.2h2.29Zm-9.84,3.52a.51.51,0,0,1-.43.21,1.52,1.52,0,0,1-.39-.06,20.67,20.67,0,0,1-7,4.39l-.21-.33a20,20,0,0,0,6.21-5.24Zm-2.72-8.42v6.2h7.83v-6.2Zm6.62,7.67c5.48,1.52,7.14,3.62,7.14,4.66a.59.59,0,0,1-.63.64,1.17,1.17,0,0,1-.5-.12,20.53,20.53,0,0,0-6.17-4.91Z"/><polygon class="cls-5" points="304.07 491.05 289.94 487.53 275.81 491.05 268.27 537.47 311.62 537.47 304.07 491.05"/><path class="cls-6" d="M297.88,496.28l2.05,1.37c-.19.29-.45.44-1.06.44h-7.4c-.06.17-.28.27-.84.33v5.22c0,1.1-.24,1.83-2.18,2,0-1.08-.8-1.21-2.2-1.31v-.31h2.55c.35,0,.43-.12.43-.42v-5.55h-9.15l-.15-.5h3.88v-5.43l2.24.19c0,.29-.21.42-.88.52v4.72h4.06v-7.24l2.42.21c0,.33-.26.48-1,.58v2.41h4.44l1-1.27,2,1.33c-.19.31-.43.44-1,.44h-6.43v3.54h6.17Zm-17.51,7.93a15.91,15.91,0,0,0,4.29-5.35l2,1a.53.53,0,0,1-.52.25,1.53,1.53,0,0,1-.3,0,16,16,0,0,1-5.31,4.45Zm16.72-1.12a.53.53,0,0,1-.48.23,1.93,1.93,0,0,1-.45-.06c-4.25,5-8.65,6-14.82,6.41l-.07-.42c5.74-.79,10.12-2,13.87-7.2ZM294,499c4.23,1.33,5.52,3.22,5.52,4.27,0,.48-.26.77-.63.77a1,1,0,0,1-.54-.19,12.92,12.92,0,0,0-4.51-4.62Z"/><path class="cls-6" d="M297.92,526.57l2,1.35c-.19.29-.43.44-1,.44H280.08l-.15-.5h4V516.92l1.94.81a57.57,57.57,0,0,0,9.23-2.41l1.62,1.44a.54.54,0,0,1-.39.12,2.2,2.2,0,0,1-.71-.16,76.35,76.35,0,0,1-10.29,1.54v2.91h10.57l1-1.25,1.94,1.31c-.17.31-.43.44-1,.44H294.6v6.2h2.29Zm-9.84,3.52a.51.51,0,0,1-.43.21,1.52,1.52,0,0,1-.39-.06,20.67,20.67,0,0,1-7,4.39l-.21-.33a20,20,0,0,0,6.21-5.24Zm-2.72-8.42v6.2h7.83v-6.2Zm6.62,7.67c5.48,1.52,7.14,3.62,7.14,4.66a.59.59,0,0,1-.63.64,1.17,1.17,0,0,1-.5-.12,20.53,20.53,0,0,0-6.17-4.91Z"/><polygon class="cls-5" points="239.86 491.05 225.73 487.53 211.6 491.05 204.06 537.47 247.41 537.47 239.86 491.05"/><path class="cls-6" d="M233.67,496.28l2.05,1.37c-.19.29-.45.44-1.06.44h-7.4c-.06.17-.28.27-.84.33v5.22c0,1.1-.24,1.83-2.18,2,0-1.08-.8-1.21-2.2-1.31v-.31h2.55c.35,0,.43-.12.43-.42v-5.55h-9.15l-.15-.5h3.88v-5.43l2.24.19c0,.29-.21.42-.88.52v4.72H225v-7.24l2.42.21c0,.33-.26.48-1,.58v2.41h4.44l1-1.27,2,1.33c-.19.31-.43.44-1,.44h-6.43v3.54h6.17Zm-17.51,7.93a15.91,15.91,0,0,0,4.29-5.35l2,1a.53.53,0,0,1-.52.25,1.53,1.53,0,0,1-.3,0,16,16,0,0,1-5.31,4.45Zm16.72-1.12a.53.53,0,0,1-.48.23,1.93,1.93,0,0,1-.45-.06c-4.25,5-8.65,6-14.82,6.41l-.07-.42c5.74-.79,10.12-2,13.87-7.2Zm-3.06-4c4.23,1.33,5.52,3.22,5.52,4.27,0,.48-.26.77-.63.77a1,1,0,0,1-.54-.19,12.92,12.92,0,0,0-4.51-4.62Z"/><path class="cls-6" d="M233.71,526.57l2,1.35c-.19.29-.43.44-1,.44H215.88l-.15-.5h4V516.92l1.94.81a57.57,57.57,0,0,0,9.23-2.41l1.62,1.44a.54.54,0,0,1-.39.12,2.2,2.2,0,0,1-.71-.16,76.35,76.35,0,0,1-10.29,1.54v2.91h10.57l1-1.25,1.94,1.31c-.17.31-.43.44-1,.44h-3.26v6.2h2.29Zm-9.84,3.52a.51.51,0,0,1-.43.21,1.52,1.52,0,0,1-.39-.06,20.67,20.67,0,0,1-7,4.39l-.21-.33a20,20,0,0,0,6.21-5.24Zm-2.72-8.42v6.2H229v-6.2Zm6.62,7.67c5.48,1.52,7.14,3.62,7.14,4.66a.59.59,0,0,1-.63.64,1.17,1.17,0,0,1-.5-.12,20.53,20.53,0,0,0-6.17-4.91Z"/><polygon class="cls-5" points="175.65 491.05 161.52 487.53 147.39 491.05 139.85 537.47 183.2 537.47 175.65 491.05"/><path class="cls-6" d="M169.46,496.28l2.05,1.37c-.19.29-.45.44-1.06.44h-7.4c-.06.17-.28.27-.84.33v5.22c0,1.1-.24,1.83-2.18,2,0-1.08-.8-1.21-2.2-1.31v-.31h2.55c.35,0,.43-.12.43-.42v-5.55h-9.15l-.15-.5h3.88v-5.43l2.24.19c0,.29-.21.42-.88.52v4.72h4.06v-7.24l2.42.21c0,.33-.26.48-1,.58v2.41h4.44l1-1.27,2,1.33c-.19.31-.43.44-1,.44h-6.43v3.54h6.17Zm-17.51,7.93a15.91,15.91,0,0,0,4.29-5.35l2,1a.53.53,0,0,1-.52.25,1.53,1.53,0,0,1-.3,0,16,16,0,0,1-5.31,4.45Zm16.72-1.12a.53.53,0,0,1-.48.23,1.93,1.93,0,0,1-.45-.06c-4.25,5-8.65,6-14.82,6.41l-.07-.42c5.74-.79,10.12-2,13.87-7.2Zm-3.06-4c4.23,1.33,5.52,3.22,5.52,4.27,0,.48-.26.77-.63.77a1,1,0,0,1-.54-.19,12.92,12.92,0,0,0-4.51-4.62Z"/><path class="cls-6" d="M169.5,526.57l2,1.35c-.19.29-.43.44-1,.44H151.67l-.15-.5h4V516.92l1.94.81a57.57,57.57,0,0,0,9.23-2.41l1.62,1.44a.54.54,0,0,1-.39.12,2.2,2.2,0,0,1-.71-.16A76.35,76.35,0,0,1,157,518.26v2.91h10.57l1-1.25,1.94,1.31c-.17.31-.43.44-1,.44h-3.26v6.2h2.29Zm-9.84,3.52a.51.51,0,0,1-.43.21,1.52,1.52,0,0,1-.39-.06,20.67,20.67,0,0,1-7,4.39l-.21-.33a20,20,0,0,0,6.21-5.24ZM157,521.67v6.2h7.83v-6.2Zm6.62,7.67c5.48,1.52,7.14,3.62,7.14,4.66a.59.59,0,0,1-.63.64,1.17,1.17,0,0,1-.5-.12,20.53,20.53,0,0,0-6.17-4.91Z"/><polygon class="cls-5" points="111.44 491.05 97.31 487.53 83.18 491.05 75.64 537.47 118.99 537.47 111.44 491.05"/><path class="cls-6" d="M105.25,496.28l2.05,1.37c-.19.29-.45.44-1.06.44h-7.4c-.06.17-.28.27-.84.33v5.22c0,1.1-.24,1.83-2.18,2,0-1.08-.8-1.21-2.2-1.31v-.31h2.55c.35,0,.43-.12.43-.42v-5.55H87.46l-.15-.5h3.88v-5.43l2.24.19c0,.29-.21.42-.88.52v4.72H96.6v-7.24l2.42.21c0,.33-.26.48-1,.58v2.41h4.44l1-1.27,2,1.33c-.19.31-.43.44-1,.44H98v3.54h6.17Zm-17.51,7.93A15.91,15.91,0,0,0,92,498.86l2,1a.53.53,0,0,1-.52.25,1.53,1.53,0,0,1-.3,0A16,16,0,0,1,88,504.52Zm16.72-1.12a.53.53,0,0,1-.48.23,1.93,1.93,0,0,1-.45-.06c-4.25,5-8.65,6-14.82,6.41l-.07-.42c5.74-.79,10.12-2,13.87-7.2Zm-3.06-4c4.23,1.33,5.52,3.22,5.52,4.27,0,.48-.26.77-.63.77a1,1,0,0,1-.54-.19,12.92,12.92,0,0,0-4.51-4.62Z"/><path class="cls-6" d="M105.29,526.57l2,1.35c-.19.29-.43.44-1,.44H87.46l-.15-.5h4V516.92l1.94.81a57.57,57.57,0,0,0,9.23-2.41l1.62,1.44a.54.54,0,0,1-.39.12,2.2,2.2,0,0,1-.71-.16,76.35,76.35,0,0,1-10.29,1.54v2.91h10.57l1-1.25,1.94,1.31c-.17.31-.43.44-1,.44H102v6.2h2.29Zm-9.84,3.52a.51.51,0,0,1-.43.21,1.52,1.52,0,0,1-.39-.06,20.67,20.67,0,0,1-7,4.39l-.21-.33a20,20,0,0,0,6.21-5.24Zm-2.72-8.42v6.2h7.83v-6.2Zm6.62,7.67c5.48,1.52,7.14,3.62,7.14,4.66a.59.59,0,0,1-.63.64,1.17,1.17,0,0,1-.5-.12,20.53,20.53,0,0,0-6.17-4.91Z"/><polygon class="cls-5" points="47.24 491.05 33.11 487.53 18.97 491.05 11.43 537.47 54.78 537.47 47.24 491.05"/><path class="cls-6" d="M41,496.28l2.05,1.37c-.19.29-.45.44-1.06.44h-7.4c-.06.17-.28.27-.84.33v5.22c0,1.1-.24,1.83-2.18,2,0-1.08-.8-1.21-2.2-1.31v-.31H32c.35,0,.43-.12.43-.42v-5.55H23.25l-.15-.5H27v-5.43l2.24.19c0,.29-.21.42-.88.52v4.72h4.06v-7.24l2.42.21c0,.33-.26.48-1,.58v2.41h4.44l1-1.27,2,1.33c-.19.31-.43.44-1,.44H33.82v3.54H40Zm-17.51,7.93a15.91,15.91,0,0,0,4.29-5.35l2,1a.53.53,0,0,1-.52.25,1.53,1.53,0,0,1-.3,0,16,16,0,0,1-5.31,4.45Zm16.72-1.12a.53.53,0,0,1-.48.23,1.93,1.93,0,0,1-.45-.06c-4.25,5-8.65,6-14.82,6.41l-.07-.42c5.74-.79,10.12-2,13.87-7.2Zm-3.06-4c4.23,1.33,5.52,3.22,5.52,4.27,0,.48-.26.77-.63.77a1,1,0,0,1-.54-.19A12.92,12.92,0,0,0,37,499.28Z"/><path class="cls-6" d="M41.09,526.57l2,1.35c-.19.29-.43.44-1,.44H23.25l-.15-.5h4V516.92l1.94.81a57.57,57.57,0,0,0,9.23-2.41l1.62,1.44a.54.54,0,0,1-.39.12,2.2,2.2,0,0,1-.71-.16,76.35,76.35,0,0,1-10.29,1.54v2.91H39.1l1-1.25L42,521.23c-.17.31-.43.44-1,.44H37.76v6.2H40Zm-9.84,3.52a.51.51,0,0,1-.43.21,1.52,1.52,0,0,1-.39-.06,20.67,20.67,0,0,1-7,4.39l-.21-.33a20,20,0,0,0,6.21-5.24Zm-2.72-8.42v6.2h7.83v-6.2Zm6.62,7.67c5.48,1.52,7.14,3.62,7.14,4.66a.59.59,0,0,1-.63.64,1.17,1.17,0,0,1-.5-.12A20.53,20.53,0,0,0,35,529.61Z"/><polygon class="cls-5" points="625.12 491.05 610.99 487.53 596.86 491.05 589.31 537.47 632.66 537.47 625.12 491.05"/><path class="cls-7" d="M613.91,508.26a1.24,1.24,0,0,1,1.06-.52c.93,0,2.13,1.06,2.13,1.77,0,.54-.56.79-1.49,1-4.79,1.33-10.4,4-10.4,6.82,0,2.31,2.48,2.5,5.46,2.5,2.65,0,4.51-.33,5-.69,1.14.1,2.16.17,2.16.87,0,.42-.84.6-1.9.73a42.41,42.41,0,0,1-5.2.31c-4.38,0-6.6-1-6.6-3.62,0-1.81,2.07-3.77,4.62-5.16-1.34-.77-1.34-2.06-1.34-4.91,0-.21,0-1.25,0-1.48,0-.44,0-1.16-1.12-1.16a4.42,4.42,0,0,0-.45,0l0-.12a1.5,1.5,0,0,1,1.19-.77c1.1,0,2.29.6,2.29,1.39,0,.27-.37.69-.43,1.23a19.49,19.49,0,0,0-.15,2.54c0,.42,0,.81,0,1.19a1.73,1.73,0,0,0,1,1.5c1.1-.56,2.93-1.41,4.31-2,.65-.27,1-.54,1-.83s-.52-.64-1.1-.56Z"/><polygon class="cls-5" points="690.67 486.63 675.2 482.78 659.72 486.63 651.46 537.47 698.93 537.47 690.67 486.63"/><path class="cls-7" d="M685.78,503.61c-.19.32-.47.48-1.13.48h-8.06c2.1,2.73,6.35,5.17,9.83,6.36l0,.25A1.63,1.63,0,0,0,685,511.9c-3.47-1.66-7.16-4.51-9-7.81h-.17v7s-.24.52-1.53.52v-6.79a24.16,24.16,0,0,1-10.09,7.36l-.24-.39a25,25,0,0,0,8.83-7.7h-8.08l-.17-.55h9.73v-4l2.53.21c0,.32-.26.5-1,.57v3.21h6.64l1.16-1.41Zm-5.2,8.52.71-.89,2,1.37a1.68,1.68,0,0,1-.92.41v7a2,2,0,0,1-1.53.48v-1.28H669.48v.93s-.21.52-1.51.52v-9.3l1.68.73Zm-11.1,6.56H680.8v-6H669.48Z"/><polygon class="cls-5" points="626.47 564.41 610.99 560.55 595.51 564.41 587.25 615.25 634.73 615.25 626.47 564.41"/><path class="cls-8" d="M619.73,596.1l2.2,1.48c-.19.32-.47.48-1.13.48H600.22l-.17-.55h10.13v-5.28h-8l-.17-.55h8.13V588l2.67.23c0,.37-.28.5-1.11.62v2.83H617l1.11-1.37,2.13,1.44c-.16.34-.45.48-1.13.48h-7.35v5.28h6.83ZM601,586.74h9.17V582h-7.42l-.14-.55h7.56v-3.67l2.67.23c0,.36-.28.5-1.11.62v2.83h4.68l1.11-1.34,2.08,1.41c-.19.34-.47.48-1.11.48h-6.76v4.78h6l1.11-1.39,2.13,1.46c-.16.32-.45.48-1.13.48H601.18Z"/><polygon class="cls-5" points="691.25 562.2 675.1 558.18 658.95 562.2 650.33 615.25 699.87 615.25 691.25 562.2"/><path class="cls-8" d="M663.28,586.32c4.12-2.38,8.9-6.85,10.2-10.27l3.18.6c-.07.28-.39.4-1,.45a32.91,32.91,0,0,0,11.29,7.49l-.05.36a2.16,2.16,0,0,0-1.63,1.45,26.86,26.86,0,0,1-10.06-9c-2.22,3.37-7.12,7.18-11.71,9.3Zm19.3,10.48,1.21-1.52,2.32,1.57c-.2.36-.49.52-1.21.52H664.34l-.15-.57h9.93v-5.28H666.9l-.17-.57h7.39V586.2h-6.8l-.15-.57h12.47l1.08-1.31,2.09,1.35c-.17.38-.47.52-1.16.52h-5.89V591h4.61l1.13-1.35,2.19,1.4c-.2.36-.47.52-1.16.52h-6.78v5.28Z"/><polygon class="cls-5" points="627.81 637.76 610.99 633.58 594.16 637.76 585.19 693.02 636.79 693.02 627.81 637.76"/><path class="cls-8" d="M602.74,667.62a7.72,7.72,0,0,1,.28,1.91c0,2.18-1.31,3.89-2.8,3.89-.44,0-.9-.17-.9-.69a1.23,1.23,0,0,1,.72-1,4.8,4.8,0,0,0,2.26-4.11Zm17.87-4.09,2,1.56a1.88,1.88,0,0,1-1,.37c-.49,4.41-1.41,7.53-2.64,8.37a4.42,4.42,0,0,1-2.77.69c0-.89-.23-1.26-2.59-1.51l0-.42c.49,0,3,.1,3.49.1a1.21,1.21,0,0,0,.8-.22c.8-.64,1.59-3.39,2.05-7.36H604.57v.67a1.66,1.66,0,0,1-1.41.57h-.26V652.74l2,.82h12.89l1.21-1.49,2.31,1.56c-.21.37-.54.52-1.26.52h-7.81v3h4.44l1.13-1.41,2.21,1.48c-.21.37-.51.52-1.21.52h-6.57v3h4.42l1.18-1.44,2.23,1.51c-.2.37-.51.52-1.23.52h-6.6v3.12h7.52Zm-10-9.39h-6v3h6Zm0,6.66v-3h-6v3Zm-6,.6v3.12h6v-3.12Zm1.31,5.89A5.33,5.33,0,0,1,607.8,671c0,1-.54,1.71-1.08,1.71a.9.9,0,0,1-.72-.45,6.89,6.89,0,0,0,.1-1.31,10.28,10.28,0,0,0-.59-3.49Zm3.65-.32c2.31,1.21,3.05,2.6,3.05,3.54,0,.72-.41,1.19-.9,1.19a1,1,0,0,1-.67-.32,7.86,7.86,0,0,0-1.77-4.21Zm4-.4c3,.72,3.93,2.06,3.93,2.95a.81.81,0,0,1-.77.89,1,1,0,0,1-.62-.22,8.06,8.06,0,0,0-2.72-3.39Z"/><polygon class="cls-5" points="692.02 637.76 675.2 633.58 658.37 637.76 649.39 693.02 701 693.02 692.02 637.76"/><path class="cls-8" d="M684.76,658.38l2.36,1.61c-.21.35-.51.52-1.23.52H663.45l-.18-.59H677.8a28.45,28.45,0,0,0,2.08-4.38l2.57,1c-.1.2-.28.27-.62.27a1.85,1.85,0,0,1-.36,0,20.93,20.93,0,0,1-3,3.17h5Zm-1.05-4.93L686,655c-.21.35-.49.52-1.21.52h-20l-.18-.59h9.63v-2.85l2.77.22c0,.35-.26.52-1.08.64v2h6.52Zm2.41,16.22v3.17c.85.25,1,.32,1,.62,0,.79-.77,1-3.21,1h-6.6c-2.54,0-3-.3-3-2.45v-2h-6.09v1.11s-.23.57-1.67.57V662l1.85.79h13.58l.79-1,2.24,1.54a2,2,0,0,1-1.08.5v6.86c0,.08-.49.52-1.69.52V670H676v2c0,.89.05,1,1.31,1h6.57a1.28,1.28,0,0,0,1.05-.3,10.86,10.86,0,0,0,1-3Zm-11.86-6.27h-6.09v2.7h6.09Zm-6.09,6h6.09v-2.75h-6.09Zm.93-13.79c2.11,1,2.77,2.15,2.77,3a1.07,1.07,0,0,1-.95,1.19,1,1,0,0,1-.77-.39,6.91,6.91,0,0,0-1.31-3.62Zm13.1,7.75H676v2.7h6.24Zm-6.24,6h6.24v-2.75H676Z"/></g><g id="Black"><polygon class="cls-5" points="272.47 66.45 289.97 70.8 307.46 66.45 316.8 8.98 263.13 8.98 272.47 66.45"/><path class="cls-6" d="M280.2,47.5l-2.59-1.75c.21-.36.53-.54,1.31-.54h23.35l.19.62H291.18v9.84h8.63l.16.62h-8.79v8.37H301l.19.62H282.77l-1.36,1.65-2.56-1.73c.21-.39.51-.54,1.28-.54h9.27V56.29h-5.61l-1.34,1.6L280,56.21c.21-.39.53-.54,1.28-.54h8.15V45.83h-7.83Zm6.57,6.29c-3.93-1.21-5.16-3.09-5.16-4.33,0-.72.43-1.24,1-1.24a1.28,1.28,0,0,1,.83.33,9.82,9.82,0,0,0,3.55,5Z"/><path class="cls-6" d="M297.14,36.66l-2.83-.26c.05-.36.29-.54,1.12-.62V13.62c0-.08.24-.67,1.71-.67v8.4c1-.72,2.3-1.67,3.82-2.71a.85.85,0,0,1,.51-.67l1.15,2.22c-1,.28-3.15,1.06-5.48,1.93Zm4.49-3.53c-3-1.31-4-3-4-4,0-.7.4-1.19.91-1.19a1.09,1.09,0,0,1,.75.33,9.54,9.54,0,0,0,2.56,4.69Zm-22.12-7.86-2.19-1.57c.24-.39.53-.54,1.26-.54h3.37V15.35c0-1.31.35-2.24,2.94-2.5.05,1.11.75,1.42,3.28,1.57v.39h-3.87c-.53,0-.67.15-.67.57v7.78h10.93l.19.62H283.62v3.09l-2.8-.18c.05-.36.19-.54,1.12-.64V23.77h-1.28ZM279.16,35a.79.79,0,0,1,.51-.15,2.54,2.54,0,0,1,.88.18,112,112,0,0,1,14.05-1.88l.08.46a87.36,87.36,0,0,0-13.52,3.19Zm14.05-2.81c-2.32-1.31-3.07-2.78-3.07-3.79,0-.8.43-1.31.93-1.31a1,1,0,0,1,.72.36A8.5,8.5,0,0,0,293.51,32Zm-1.34-10.25c-3.15-1.16-4.14-2.76-4.14-3.84a1.06,1.06,0,0,1,1-1.18,1.09,1.09,0,0,1,.75.33,8.64,8.64,0,0,0,2.64,4.48ZM288.14,33c-1.68-1.39-2.24-2.76-2.24-3.79s.53-1.65,1.1-1.65a.93.93,0,0,1,.72.41c0,.28-.05.57-.05.88a11.16,11.16,0,0,0,.83,4Zm-9.48-1.24a.53.53,0,0,1,.56-.31,4.23,4.23,0,0,1,.45.05,25.53,25.53,0,0,1,5.9-6l.29.36A27.34,27.34,0,0,0,281.11,33Z"/><polygon class="cls-5" points="80.52 142.01 97.34 146.2 114.16 142.01 123.14 86.75 71.54 86.75 80.52 142.01"/><path class="cls-6" d="M85.8,124.52l.26-2.72c-.49-.4-.69-.67-.69-.94s.08-.62.9-.62a4.68,4.68,0,0,1,1.75.45c4,1.54,5.16,5,5.42,10.67h3.83V120.83s.26-.62,1.64-.62v11.14h4.34c.1-4,1.05-8.42,5.47-11.14l.34.32c-3.42,2.87-4.14,7-4.21,10.82h4.31l.18.6h-4.49v4.51a27.14,27.14,0,0,1,4.21-1.81l.23.37a23.11,23.11,0,0,0-6.73,4.88l-2.26-1.11a.71.71,0,0,1,.67-.27,4.13,4.13,0,0,1,.51,0,21.1,21.1,0,0,1,2-1.34l-1.28-.1c.05-.37.26-.52,1.05-.59v-4.58H98.89v8l-2.62-.22c.05-.35.26-.5,1-.57v-7.23H93.68l-.77.94-2.08-1.51a1.56,1.56,0,0,1,1-.37,26.08,26.08,0,0,0-.23-2.95c-.44,0-.85-.12-1.21-.2-.62.89-1.41,2.15-1.9,2.92l-1.9-1.16a.43.43,0,0,1,.44-.22,3.31,3.31,0,0,1,.44.05c.57-.45,1.51-1.16,2.31-1.73-2.16-.62-2.93-1.68-2.93-2.4a.7.7,0,0,1,.69-.74,1.1,1.1,0,0,1,.51.15,10.45,10.45,0,0,0,3.44,2.8c-.51-2.67-1.64-4.56-4-5.35a1.2,1.2,0,0,0-.33-.07c-.15,0-.23.07-.31.27a16.51,16.51,0,0,0-.77,2.18Zm.36,8c-.46-.42-.67-.72-.67-1s.26-.62.9-.62a4.29,4.29,0,0,1,1.69.47c3.54,1.51,4.8,4.63,5.11,9.51h14.56l.2.59H93.45l-.74.94L90.62,141a1.55,1.55,0,0,1,1-.37,14.93,14.93,0,0,0-.23-2.23c-.49-.05-.92-.12-1.33-.2-.64.87-1.44,2.1-1.9,2.85l-1.85-1.24a.46.46,0,0,1,.44-.2,1.33,1.33,0,0,1,.41,0c.57-.45,1.49-1.09,2.29-1.61-1.93-.57-2.59-1.54-2.59-2.23a.68.68,0,0,1,.69-.74,1,1,0,0,1,.51.12,9,9,0,0,0,3.26,2.72c-.51-2.45-1.62-4.26-3.77-5a.8.8,0,0,0-.33-.1c-.13,0-.18.1-.26.27-.23.54-.51,1.31-.74,2.06l-.26,0Z"/><path class="cls-6" d="M88,97l-2.46-1.63c.2-.37.49-.54,1.23-.54h9.89V91.1s.23-.62,1.7-.62v4.36h10.76l.18.59H98.3v3h5.75v-.87s.23-.57,1.64-.57v10.95l-1.8-.77H98.3v2.77h10.22l.18.59H98.3v2.95l-2.8-.25c.05-.35.31-.54,1.1-.62v-2.08H89.8l-1.31,1.54L86,110.44c.2-.35.51-.52,1.26-.52h9.35v-2.77H91l-.82,1-2.23-1.53a2.13,2.13,0,0,1,1.1-.52v-8.3c0-.07.51-.57,1.7-.57v1.19h5.88v-3H89.24Zm10.35,9.53h5.75v-3.42H98.3ZM104.05,99H98.3v3.54h5.75Zm-13.33,7.55h5.88v-3.42H90.73ZM96.61,99H90.73v3.54h5.88Z"/><polygon class="cls-5" points="465.77 142.01 482.59 146.2 499.42 142.01 508.4 86.75 456.79 86.75 465.77 142.01"/><path class="cls-6" d="M475.49,137l-2.16-1.49a1.85,1.85,0,0,1,1-.47V122.3c0-1.29.41-2.2,3-2.4,0,1.36,1,1.51,3.26,1.71v.32h-3.93c-.46,0-.62.1-.62.4v4.36h13.38a10.18,10.18,0,0,1,4.8-6.79l.33.32c-3.31,3-3.83,6.74-3.83,10.57v5.05a21.49,21.49,0,0,1,3.49-2.45l.28.3a24,24,0,0,0-7.09,9.16l-2.67-.72c.1-.25.31-.37,1-.32.33-.54.69-1.11,1.1-1.68h-6.06l-1.08,1-1.93-1.76c.2-.2.51-.22,1-.25a27.53,27.53,0,0,1,3.42-3.14h-5.88Zm7.32-1a24,24,0,0,0-2.13,3.52h6.55a27.11,27.11,0,0,1,2.72-3l-1.23-.5Zm6.21-4.9a22.21,22.21,0,0,1,.26-3.84h-5.8v3.84Zm0,4.31v-3.71h-5.55v3.71Zm-13,0h5.86v-3.71H476Zm5.86-8.15H476v3.84h5.86Z"/><path class="cls-6" d="M494.73,99.11a38.77,38.77,0,0,0-6.88,9l-2.44-1.24a.61.61,0,0,1,.59-.3,3.9,3.9,0,0,1,.44.05,32.38,32.38,0,0,1,2.57-3.07l-.72-.27a1,1,0,0,1,.77-.45V90.65s.31-.54,1.67-.54v11.71a33,33,0,0,1,3.72-3Zm-.05,7.55a33.07,33.07,0,0,0-6.14,6.39l-2.29-1.31a.57.57,0,0,1,.54-.25,1.58,1.58,0,0,1,.44,0,32.88,32.88,0,0,1,7.19-5.25Zm-22-1-2.26-1.56c.21-.37.49-.52,1.21-.52h4V92.6c0-1.31.39-2.23,2.93-2.45,0,1.41,1.05,1.58,3.21,1.73v.37h-3.85c-.46,0-.59.07-.59.37v10.92h8.32l.18.59H473.9Zm-1.1,5.32c.2-.37.51-.52,1.23-.52h11.91l.15.59H475l-1.18,1.46Z"/><polygon class="cls-5" points="209.61 62.02 225.76 66.05 241.91 62.02 250.53 8.98 200.99 8.98 209.61 62.02"/><path class="cls-6" d="M237.52,52.42c-4.17,2.4-8.63,6.94-10.16,10.48l-3.06-.64c0-.29.35-.4,1-.48a30.61,30.61,0,0,0-11.29-8l.07-.33a1.78,1.78,0,0,0,1.33-1.24c4.31,2.4,8.23,5.7,10.35,9.32A29.3,29.3,0,0,1,237.29,52ZM218.26,42,217,43.53l-2.32-1.59c.2-.33.47-.5,1.18-.5h20.73l.17.57H226.69v7.35h8.8l.17.57h-9v3.9h5.23l.15.57h-9l-1.08,1.28-2.09-1.36c.17-.36.47-.5,1.13-.5H225v-3.9h-5.92l-1.18,1.4-2.24-1.47c.2-.36.49-.5,1.21-.5H225V42Zm14.79,6.28c-2.54-1.43-3.35-3-3.35-4,0-.76.42-1.26.91-1.26a1,1,0,0,1,.74.36,9.43,9.43,0,0,0,2,4.78Zm-15.26-.83c.12-.24.35-.38.94-.33a24.67,24.67,0,0,1,3.75-4.4l.37.21a38.47,38.47,0,0,0-2.64,5.49Z"/><path class="cls-6" d="M232.29,34.08l-2.61-.24c0-.33.27-.5,1-.57V12.83c0-.07.22-.62,1.58-.62V20c.91-.67,2.12-1.55,3.52-2.5a.78.78,0,0,1,.47-.62l1.06,2c-.91.26-2.91,1-5.05,1.78Zm4.14-3.26c-2.79-1.21-3.65-2.73-3.65-3.73,0-.64.37-1.09.84-1.09a1,1,0,0,1,.69.31,8.83,8.83,0,0,0,2.37,4.33ZM216,23.58l-2-1.45c.22-.36.49-.5,1.16-.5h3.11v-7.2c0-1.21.32-2.07,2.71-2.31.05,1,.69,1.31,3,1.45v.36h-3.57c-.49,0-.62.14-.62.52v7.18H229.9l.17.57H219.82v2.85l-2.59-.17c.05-.33.17-.5,1-.59V22.2h-1.18Zm-.32,9a.73.73,0,0,1,.47-.14,2.35,2.35,0,0,1,.81.17,103.37,103.37,0,0,1,13-1.74l.08.43a80.69,80.69,0,0,0-12.47,2.95Zm13-2.59c-2.14-1.21-2.84-2.57-2.84-3.49,0-.74.4-1.21.86-1.21a.9.9,0,0,1,.67.33,7.85,7.85,0,0,0,1.58,4.23Zm-1.23-9.46c-2.91-1.07-3.82-2.54-3.82-3.54a1,1,0,0,1,.89-1.09,1,1,0,0,1,.69.31,8,8,0,0,0,2.44,4.14ZM224,30.73a4.76,4.76,0,0,1-2.07-3.49c0-.93.49-1.52,1-1.52a.86.86,0,0,1,.67.38c0,.26-.05.52-.05.81a10.3,10.3,0,0,0,.76,3.73Zm-8.75-1.14a.49.49,0,0,1,.52-.29,3.72,3.72,0,0,1,.42,0,23.49,23.49,0,0,1,5.45-5.54l.27.33a25.22,25.22,0,0,0-4.39,6.56Z"/><polygon class="cls-5" points="338.02 62.02 354.18 66.05 370.33 62.02 378.95 8.98 329.4 8.98 338.02 62.02"/><path class="cls-6" d="M365.93,52.42c-4.17,2.4-8.63,6.94-10.16,10.48l-3.06-.64c0-.29.35-.4,1-.48a30.61,30.61,0,0,0-11.29-8l.07-.33a1.78,1.78,0,0,0,1.33-1.24c4.31,2.4,8.23,5.7,10.35,9.32A29.3,29.3,0,0,1,365.71,52ZM346.68,42l-1.23,1.52-2.32-1.59c.2-.33.47-.5,1.18-.5H365l.17.57H355.11v7.35h8.8l.17.57h-9v3.9h5.23l.15.57h-9l-1.08,1.28-2.09-1.36c.17-.36.47-.5,1.13-.5h4.07v-3.9h-5.92l-1.18,1.4-2.24-1.47c.2-.36.49-.5,1.21-.5h8.13V42Zm14.79,6.28c-2.54-1.43-3.35-3-3.35-4,0-.76.42-1.26.91-1.26a1,1,0,0,1,.74.36,9.43,9.43,0,0,0,2,4.78Zm-15.26-.83c.12-.24.35-.38.94-.33a24.67,24.67,0,0,1,3.75-4.4l.37.21a38.46,38.46,0,0,0-2.64,5.49Z"/><path class="cls-6" d="M360.71,34.08l-2.61-.24c0-.33.27-.5,1-.57V12.83c0-.07.22-.62,1.58-.62V20c.91-.67,2.12-1.55,3.52-2.5a.78.78,0,0,1,.47-.62l1.06,2c-.91.26-2.91,1-5.05,1.78Zm4.14-3.26c-2.79-1.21-3.65-2.73-3.65-3.73,0-.64.37-1.09.84-1.09a1,1,0,0,1,.69.31,8.83,8.83,0,0,0,2.37,4.33Zm-20.41-7.25-2-1.45c.22-.36.49-.5,1.16-.5h3.11v-7.2c0-1.21.32-2.07,2.71-2.31.05,1,.69,1.31,3,1.45v.36h-3.57c-.49,0-.62.14-.62.52v7.18h10.08l.17.57H348.24v2.85l-2.59-.17c.05-.33.17-.5,1-.59V22.2H345.5Zm-.32,9a.73.73,0,0,1,.47-.14,2.35,2.35,0,0,1,.81.17,103.37,103.37,0,0,1,13-1.74l.08.43A80.69,80.69,0,0,0,346,34.23Zm13-2.59c-2.14-1.21-2.84-2.57-2.84-3.49,0-.74.4-1.21.86-1.21a.9.9,0,0,1,.67.33,7.85,7.85,0,0,0,1.58,4.23Zm-1.23-9.46C352.94,19.44,352,18,352,17a1,1,0,0,1,.89-1.09,1,1,0,0,1,.69.31A8,8,0,0,0,356,20.32ZM352.4,30.73a4.76,4.76,0,0,1-2.07-3.49c0-.93.49-1.52,1-1.52a.86.86,0,0,1,.67.38c0,.26-.05.52-.05.81a10.3,10.3,0,0,0,.76,3.73Zm-8.75-1.14a.49.49,0,0,1,.52-.29,3.72,3.72,0,0,1,.42,0A23.49,23.49,0,0,1,350,23.81l.27.33a25.22,25.22,0,0,0-4.39,6.56Z"/><polygon class="cls-5" points="402.24 62.02 418.38 66.05 434.54 62.02 443.15 8.98 393.62 8.98 402.24 62.02"/><path class="cls-6" d="M430.11,54.85a22.68,22.68,0,0,0-4.66,8l-2.69-.31c0-.26.3-.4,1-.48-3.43-1.45-4.44-3-4.44-3.9a.88.88,0,0,1,.84-1,1,1,0,0,1,.62.26,11.64,11.64,0,0,0,3.13,4.3,22.38,22.38,0,0,1,5.94-7.13ZM423.7,44.38c-1.38.19-2.88.43-4.41.67l-.07-.36c2.17-.69,5.1-1.57,9.07-2.64a.93.93,0,0,1,.59-.55l.91,2.07c-1,.1-2.59.31-4.56.57v7.35h4.32l.17.57h-4.49v3.47h2.64l.17.57h-5.32l-1,1.26-1.92-1.31c.2-.36.47-.52,1.13-.52h2.76V52.06h-1.77l-1,1.26L419,52c.2-.36.47-.52,1.13-.52h3.55Zm4.93,5.9c-1.68-1.45-2.24-2.83-2.24-3.8s.42-1.38.89-1.38a.84.84,0,0,1,.62.36,10.08,10.08,0,0,0,1.06,4.68Zm-9.44-.43c.07-.29.27-.4.84-.4a22.47,22.47,0,0,1,2.44-4.09l.42.21a34.43,34.43,0,0,0-1.43,4.92Zm-5.2,2a15.88,15.88,0,0,0-1.8-4.54,24.92,24.92,0,0,0-3.43,3.35l-1.82-1.5a.6.6,0,0,1,.42-.17,1.14,1.14,0,0,1,.52.12,21.09,21.09,0,0,1,4-2.26,13.29,13.29,0,0,0-5.2-4.76l.07-.24a1.69,1.69,0,0,0,1.48-1.14,12.94,12.94,0,0,1,3.2,3.19c1.9-.64,4.41-1.52,7.79-2.54a.81.81,0,0,1,.57-.52l.94,2c-.59.07-1.45.19-2.51.36V61.86l-1.8-.74h-6.19l-.71.93-2-1.45a1.4,1.4,0,0,1,.94-.4V51.52a1.67,1.67,0,0,1,1.31-.5h.25v.83Zm-3.92,8.7h6.7V56.77h-6.7Zm6.7-8.13h-6.7V56.2h6.7Zm0-.57V43.48c-1.5.24-3.23.55-5,.86a19.83,19.83,0,0,1,2.74,7.51Z"/><path class="cls-6" d="M425,34.18l-2.61-.24c0-.33.27-.5,1-.57V12.92c0-.07.22-.62,1.58-.62v7.75c.91-.67,2.12-1.55,3.53-2.5a.78.78,0,0,1,.47-.62L430,19c-.91.26-2.91,1-5.05,1.78Zm4.14-3.26c-2.79-1.21-3.65-2.73-3.65-3.73,0-.64.37-1.09.84-1.09a1,1,0,0,1,.69.31,8.81,8.81,0,0,0,2.37,4.33Zm-20.41-7.25-2-1.45c.22-.36.49-.5,1.16-.5h3.11v-7.2c0-1.21.32-2.07,2.71-2.3,0,1,.69,1.31,3,1.45V14H413.1c-.49,0-.62.14-.62.52v7.18h10.08l.17.57H412.48v2.85L409.89,25c0-.33.17-.5,1-.59V22.29h-1.18Zm-.32,9a.73.73,0,0,1,.47-.14,2.39,2.39,0,0,1,.81.17,103.56,103.56,0,0,1,13-1.74l.07.43a80.7,80.7,0,0,0-12.47,2.95Zm13-2.59c-2.14-1.21-2.83-2.57-2.83-3.49,0-.74.39-1.21.86-1.21a.9.9,0,0,1,.67.33,7.85,7.85,0,0,0,1.58,4.23ZM420.1,20.6c-2.91-1.07-3.82-2.54-3.82-3.54a1,1,0,0,1,.89-1.09,1,1,0,0,1,.69.31,8,8,0,0,0,2.44,4.14Zm-3.45,10.22a4.77,4.77,0,0,1-2.07-3.49c0-.93.49-1.52,1-1.52a.85.85,0,0,1,.67.38c0,.26,0,.52,0,.81a10.33,10.33,0,0,0,.76,3.73Zm-8.75-1.14a.49.49,0,0,1,.52-.28,3.88,3.88,0,0,1,.42,0,23.57,23.57,0,0,1,5.45-5.54l.27.33a25.31,25.31,0,0,0-4.39,6.56Z"/><polygon class="cls-5" points="145.4 62.02 161.55 66.05 177.7 62.02 186.32 8.98 136.78 8.98 145.4 62.02"/><path class="cls-6" d="M173.27,54.85a22.68,22.68,0,0,0-4.66,8l-2.69-.31c0-.26.3-.4,1-.48-3.43-1.45-4.44-3-4.44-3.9a.88.88,0,0,1,.84-1,1,1,0,0,1,.62.26,11.64,11.64,0,0,0,3.13,4.3A22.38,22.38,0,0,1,173,54.61Zm-6.41-10.46c-1.38.19-2.88.43-4.41.67l-.07-.36c2.17-.69,5.1-1.57,9.07-2.64a.93.93,0,0,1,.59-.55l.91,2.07c-1,.1-2.59.31-4.56.57v7.35h4.32l.17.57h-4.49v3.47H171l.17.57h-5.32l-1,1.26L163,56.06c.2-.36.47-.52,1.13-.52h2.76V52.06h-1.77l-1,1.26L162.18,52c.2-.36.47-.52,1.13-.52h3.55Zm4.93,5.9c-1.68-1.45-2.24-2.83-2.24-3.8s.42-1.38.89-1.38a.84.84,0,0,1,.62.36,10.08,10.08,0,0,0,1.06,4.68Zm-9.44-.43c.07-.29.27-.4.84-.4a22.47,22.47,0,0,1,2.44-4.09l.42.21a34.43,34.43,0,0,0-1.43,4.92Zm-5.2,2a15.88,15.88,0,0,0-1.8-4.54,24.92,24.92,0,0,0-3.43,3.35l-1.82-1.5a.6.6,0,0,1,.42-.17,1.14,1.14,0,0,1,.52.12,21.09,21.09,0,0,1,4-2.26,13.29,13.29,0,0,0-5.2-4.76l.07-.24a1.69,1.69,0,0,0,1.48-1.14,12.94,12.94,0,0,1,3.2,3.19c1.9-.64,4.41-1.52,7.79-2.54a.81.81,0,0,1,.57-.52l.94,2c-.59.07-1.45.19-2.51.36V61.86l-1.8-.74h-6.19l-.71.93-2-1.45a1.4,1.4,0,0,1,.94-.4V51.52A1.67,1.67,0,0,1,153,51h.25v.83Zm-3.92,8.7h6.7V56.77h-6.7Zm6.7-8.13h-6.7V56.2h6.7Zm0-.57V43.48c-1.5.24-3.23.55-5,.86a19.83,19.83,0,0,1,2.74,7.51Z"/><path class="cls-6" d="M168.12,34.18l-2.61-.24c0-.33.27-.5,1-.57V12.92c0-.07.22-.62,1.58-.62v7.75c.91-.67,2.12-1.55,3.53-2.5a.78.78,0,0,1,.47-.62l1.06,2c-.91.26-2.91,1-5.05,1.78Zm4.14-3.26c-2.79-1.21-3.65-2.73-3.65-3.73,0-.64.37-1.09.84-1.09a1,1,0,0,1,.69.31,8.81,8.81,0,0,0,2.37,4.33Zm-20.41-7.25-2-1.45c.22-.36.49-.5,1.16-.5h3.11v-7.2c0-1.21.32-2.07,2.71-2.3,0,1,.69,1.31,3,1.45V14h-3.57c-.49,0-.62.14-.62.52v7.18h10.08l.17.57H155.64v2.85L153.06,25c0-.33.17-.5,1-.59V22.29h-1.18Zm-.32,9a.73.73,0,0,1,.47-.14,2.39,2.39,0,0,1,.81.17,103.56,103.56,0,0,1,13-1.74l.07.43a80.7,80.7,0,0,0-12.47,2.95Zm13-2.59c-2.14-1.21-2.83-2.57-2.83-3.49,0-.74.39-1.21.86-1.21a.9.9,0,0,1,.67.33,7.85,7.85,0,0,0,1.58,4.23Zm-1.23-9.46c-2.91-1.07-3.82-2.54-3.82-3.54a1,1,0,0,1,.89-1.09,1,1,0,0,1,.69.31,8,8,0,0,0,2.44,4.14Zm-3.45,10.22a4.77,4.77,0,0,1-2.07-3.49c0-.93.49-1.52,1-1.52a.85.85,0,0,1,.67.38c0,.26,0,.52,0,.81a10.33,10.33,0,0,0,.76,3.73Zm-8.75-1.14a.49.49,0,0,1,.52-.28,3.88,3.88,0,0,1,.42,0,23.57,23.57,0,0,1,5.45-5.54l.27.33a25.31,25.31,0,0,0-4.39,6.56Z"/><polygon class="cls-5" points="81.86 59.81 97.34 63.67 112.82 59.81 121.08 8.98 73.6 8.98 81.86 59.81"/><path class="cls-6" d="M102.87,54.65V51.49c-2.5-1.07-3.31-2.35-3.31-3.14a.78.78,0,0,1,.71-.87.88.88,0,0,1,.64.27,11.2,11.2,0,0,0,2,3.3V40c0-.07.19-.55,1.51-.55V50.48a19.58,19.58,0,0,1,3.69-5.76l.35.34a24.92,24.92,0,0,0-3.76,9.59h3.4l.14.55h-3.83v5.33l-2.53-.2c0-.34.24-.5,1-.57V55.2H102l-1,1.32-1.87-1.39c.21-.34.47-.48,1.11-.48ZM88.31,42.1l-2.05-1.43c.19-.34.47-.48,1.11-.48h13.75l.14.55H94.53v5h4.84l.17.55h-5v4.1l-2.65-.2c0-.39.31-.52,1.11-.64V46.29H90.37l-1.06,1.34-2-1.41c.19-.34.45-.48,1.11-.48H93v-5H89.38ZM98.88,55.88l.14.55H94.53V60.3l-2.65-.23c0-.36.31-.53,1.11-.64v-3H90.75l-1.09,1.34-2-1.41c.21-.34.47-.48,1.11-.48H93V51.33h-3.4l-1.09,1.37-2.06-1.44c.19-.34.47-.48,1.11-.48H99.68l.16.55H94.53v4.56Z"/><path class="cls-6" d="M105.14,18.47a7.12,7.12,0,0,1-.26-1.75c0-2,1.2-3.58,2.58-3.58.4,0,.83.16.83.64a1.13,1.13,0,0,1-.66.91,4.41,4.41,0,0,0-2.08,3.78ZM88.69,22.23l-1.87-1.43a1.76,1.76,0,0,1,.95-.34c.45-4.06,1.3-6.92,2.43-7.7a4.05,4.05,0,0,1,2.55-.64c0,.82.21,1.16,2.39,1.39l0,.39c-.45,0-2.72-.09-3.21-.09a1.1,1.1,0,0,0-.73.21c-.73.59-1.47,3.12-1.89,6.77h14.17v-.61a1.53,1.53,0,0,1,1.3-.52H105V32.16l-1.82-.75H91.32L90.2,32.77l-2.13-1.43c.19-.34.5-.48,1.16-.48h7.18v-2.8H92.33l-1,1.3-2-1.37c.19-.34.47-.48,1.11-.48h6V24.73H92.36l-1.09,1.32-2.05-1.39c.19-.34.47-.48,1.13-.48h6.07V21.32H89.5Zm9.24,8.63h5.53v-2.8H97.93Zm0-6.13v2.78h5.53V24.73Zm5.53-.55V21.32H97.93v2.87Zm-1.21-5.42a4.91,4.91,0,0,1-1.77-3.37c0-1,.49-1.57,1-1.57a.83.83,0,0,1,.66.41,6.32,6.32,0,0,0-.1,1.21,9.42,9.42,0,0,0,.54,3.21Zm-3.35.3c-2.12-1.12-2.81-2.39-2.81-3.26,0-.66.38-1.1.83-1.1a.91.91,0,0,1,.61.3,7.22,7.22,0,0,0,1.63,3.87Zm-3.64.36c-2.74-.66-3.61-1.89-3.61-2.71a.75.75,0,0,1,.71-.82,1,1,0,0,1,.57.2,7.39,7.39,0,0,0,2.5,3.12Z"/><polygon class="cls-5" points="467.12 59.81 482.59 63.67 498.07 59.81 506.33 8.98 458.86 8.98 467.12 59.81"/><path class="cls-6" d="M488.12,54.65V51.49c-2.5-1.07-3.31-2.35-3.31-3.14a.78.78,0,0,1,.71-.87.88.88,0,0,1,.64.27,11.2,11.2,0,0,0,2,3.3V40c0-.07.19-.55,1.51-.55V50.48a19.58,19.58,0,0,1,3.69-5.76l.35.34a24.92,24.92,0,0,0-3.76,9.59h3.4l.14.55h-3.83v5.33l-2.53-.2c0-.34.24-.5,1-.57V55.2h-.9l-1,1.32-1.87-1.39c.21-.34.47-.48,1.11-.48ZM473.57,42.1l-2.05-1.43c.19-.34.47-.48,1.11-.48h13.75l.14.55h-6.73v5h4.84l.17.55h-5v4.1l-2.65-.2c0-.39.31-.52,1.11-.64V46.29h-2.62l-1.06,1.34-2-1.41c.19-.34.45-.48,1.11-.48h4.61v-5h-3.61Zm10.56,13.78.14.55h-4.49V60.3l-2.65-.23c0-.36.31-.53,1.11-.64v-3H476l-1.09,1.34-2-1.41c.21-.34.47-.48,1.11-.48h4.25V51.33h-3.4l-1.09,1.37-2.06-1.44c.19-.34.47-.48,1.11-.48h12.12l.16.55h-5.31v4.56Z"/><path class="cls-6" d="M490.39,18.47a7.12,7.12,0,0,1-.26-1.75c0-2,1.2-3.58,2.58-3.58.4,0,.83.16.83.64a1.13,1.13,0,0,1-.66.91,4.41,4.41,0,0,0-2.08,3.78Zm-16.44,3.76-1.87-1.43a1.76,1.76,0,0,1,.95-.34c.45-4.06,1.3-6.92,2.43-7.7a4.05,4.05,0,0,1,2.55-.64c0,.82.21,1.16,2.39,1.39l0,.39c-.45,0-2.72-.09-3.21-.09a1.1,1.1,0,0,0-.73.21c-.73.59-1.47,3.12-1.89,6.77h14.17v-.61a1.53,1.53,0,0,1,1.3-.52h.24V32.16l-1.82-.75H476.57l-1.11,1.37-2.13-1.43c.19-.34.5-.48,1.16-.48h7.18v-2.8h-4.09l-1,1.3-2-1.37c.19-.34.47-.48,1.11-.48h6V24.73h-4.06l-1.09,1.32-2.05-1.39c.19-.34.47-.48,1.13-.48h6.07V21.32h-6.92Zm9.24,8.63h5.53v-2.8h-5.53Zm0-6.13v2.78h5.53V24.73Zm5.53-.55V21.32h-5.53v2.87Zm-1.21-5.42a4.91,4.91,0,0,1-1.77-3.37c0-1,.49-1.57,1-1.57a.83.83,0,0,1,.66.41,6.32,6.32,0,0,0-.1,1.21,9.42,9.42,0,0,0,.54,3.21Zm-3.35.3c-2.12-1.12-2.81-2.39-2.81-3.26,0-.66.38-1.1.83-1.1a.91.91,0,0,1,.61.3,7.22,7.22,0,0,0,1.63,3.87Zm-3.64.36c-2.74-.66-3.61-1.89-3.61-2.71a.75.75,0,0,1,.71-.82,1,1,0,0,1,.57.2,7.39,7.39,0,0,0,2.5,3.12Z"/><polygon class="cls-5" points="17.65 59.81 33.13 63.67 48.61 59.81 56.87 8.98 9.39 8.98 17.65 59.81"/><path class="cls-6" d="M22.44,55.17c.19-.34.45-.5,1.11-.5h8.1c-2-2.3-6-4.06-9.52-4.85l0-.25a1.58,1.58,0,0,0,1.3-1.25c3.61,1.23,7.06,3.42,8.81,6.36h.14V49.74a1.51,1.51,0,0,1,1.28-.5h.23v4.94a23.52,23.52,0,0,1,10-6.45l.24.39a24.39,24.39,0,0,0-8.48,6.54h8l.16.55h-9.9V58.1c2.62-.23,5.39-.39,8-.39l0,.46a87.45,87.45,0,0,0-15.14,2.39L25.18,59a.65.65,0,0,1,.45-.14,2.42,2.42,0,0,1,.78.18c1.7-.27,3.76-.55,6-.77v-3H25.58l-1.06,1.32Zm5.74-6.61-.71.89-2-1.37a1.9,1.9,0,0,1,.92-.43V40.06c0-.07.45-.5,1.54-.5v1.37H38.38v-1s.19-.52,1.54-.52v9.87l-1.68-.73ZM28,48H38.38V45.1H28Zm10.42-6.54H28v3.08H38.38Z"/><path class="cls-6" d="M24.47,18.09l-2.27-1.5c.19-.34.45-.5,1.13-.5h9.09V12.65s.21-.57,1.56-.57v4h9.9l.16.55H34v2.73h5.29v-.8S39.5,18,40.79,18V28.12l-1.65-.7H34V30h9.4l.17.55H34v2.71L31.42,33c0-.32.28-.5,1-.57V30.51H26.17L25,31.92l-2.29-1.48c.19-.32.47-.48,1.16-.48h8.6V27.41H27.26l-.76.91-2.05-1.41a2,2,0,0,1,1-.48V18.8c0-.07.47-.52,1.56-.52v1.09h5.41V16.63H25.65ZM34,26.86h5.29V23.72H34Zm5.29-6.95H34v3.26h5.29ZM27,26.86h5.41V23.72H27Zm5.41-6.95H27v3.26h5.41Z"/><polygon class="cls-5" points="531.33 59.81 546.8 63.67 562.28 59.81 570.54 8.98 523.07 8.98 531.33 59.81"/><path class="cls-6" d="M536.11,55.17c.19-.34.45-.5,1.11-.5h8.1c-2-2.3-6-4.06-9.52-4.85l0-.25a1.58,1.58,0,0,0,1.3-1.25c3.61,1.23,7.06,3.42,8.81,6.36h.14V49.74a1.52,1.52,0,0,1,1.28-.5h.23v4.94a23.52,23.52,0,0,1,10-6.45l.24.39a24.39,24.39,0,0,0-8.48,6.54h8l.16.55h-9.9V58.1c2.62-.23,5.39-.39,8-.39l0,.46a87.44,87.44,0,0,0-15.14,2.39L538.85,59a.65.65,0,0,1,.45-.14,2.39,2.39,0,0,1,.78.18c1.7-.27,3.76-.55,6-.77v-3h-6.83l-1.06,1.32Zm5.74-6.61-.71.89-2-1.37a1.9,1.9,0,0,1,.92-.43V40.06c0-.07.45-.5,1.54-.5v1.37h10.42v-1s.19-.52,1.54-.52v9.87l-1.68-.73Zm-.21-.55h10.42V45.1H541.64Zm10.42-6.54H541.64v3.08h10.42Z"/><path class="cls-6" d="M538.15,18.09l-2.27-1.5c.19-.34.45-.5,1.13-.5h9.09V12.65s.21-.57,1.56-.57v4h9.9l.16.55H547.67v2.73H553v-.8s.21-.52,1.51-.52V28.12l-1.65-.71h-5.15V30h9.4l.17.55h-9.57v2.71L545.09,33c0-.32.28-.5,1-.57V30.51h-6.26l-1.21,1.41-2.29-1.48c.19-.32.47-.48,1.16-.48h8.6V27.41h-5.17l-.76.91-2.05-1.41a2,2,0,0,1,1-.48V18.8c0-.07.47-.52,1.56-.52v1.09h5.41V16.63h-6.78Zm9.52,8.77H553V23.72h-5.29ZM553,19.91h-5.29v3.26H553ZM540.7,26.86h5.41V23.72H540.7Zm5.41-6.95H540.7v3.26h5.41Z"/><polygon class="cls-5" points="19 210.95 33.13 214.47 47.26 210.95 54.8 164.53 11.46 164.53 19 210.95"/><path class="cls-6" d="M25.19,205.72l-2.05-1.37c.19-.29.45-.44,1.06-.44h7.4c.06-.17.28-.27.84-.33v-5.22c0-1.1.24-1.83,2.18-2,0,1.08.8,1.21,2.2,1.31v.31H34.27c-.35,0-.43.12-.43.42v5.55H43l.15.5H39.25v5.43L37,209.65c0-.29.21-.42.88-.52v-4.72H33.84v7.24l-2.42-.21c0-.33.26-.48,1-.58v-2.42H28l-1,1.27-2-1.33c.19-.31.43-.44,1-.44h6.43v-3.54H26.25Zm17.51-7.92a15.88,15.88,0,0,0-4.29,5.34l-2-1a.53.53,0,0,1,.52-.25,1.53,1.53,0,0,1,.3,0,16.05,16.05,0,0,1,5.31-4.45ZM26,198.91a.53.53,0,0,1,.48-.23,2,2,0,0,1,.45.06c4.25-5,8.65-6,14.82-6.41l.07.42c-5.74.79-10.12,2-13.87,7.2Zm3.06,4c-4.23-1.33-5.52-3.23-5.52-4.27,0-.48.26-.77.63-.77a1,1,0,0,1,.54.19,12.92,12.92,0,0,0,4.51,4.62Z"/><path class="cls-6" d="M25.15,175.42l-2-1.35c.19-.29.43-.44,1-.44H43l.15.5h-4v10.94l-1.94-.81a57.55,57.55,0,0,0-9.23,2.42l-1.62-1.44a.54.54,0,0,1,.39-.13,2.16,2.16,0,0,1,.71.17,76.33,76.33,0,0,1,10.29-1.54v-2.91H27.13l-1,1.25-1.94-1.31c.17-.31.43-.44,1-.44h3.26v-6.2H26.19ZM35,171.91a.51.51,0,0,1,.43-.21,1.52,1.52,0,0,1,.39.06,20.64,20.64,0,0,1,7-4.39l.21.33a20,20,0,0,0-6.21,5.24Zm2.72,8.43v-6.2H29.87v6.2Zm-6.62-7.67c-5.48-1.52-7.14-3.62-7.14-4.66a.59.59,0,0,1,.63-.64,1.18,1.18,0,0,1,.5.12,20.48,20.48,0,0,0,6.17,4.91Z"/><polygon class="cls-5" points="83.21 210.95 97.34 214.47 111.47 210.95 119.01 164.53 75.67 164.53 83.21 210.95"/><path class="cls-6" d="M89.4,205.72l-2.05-1.37c.19-.29.45-.44,1.06-.44h7.4c.06-.17.28-.27.84-.33v-5.22c0-1.1.24-1.83,2.18-2,0,1.08.8,1.21,2.2,1.31v.31H98.48c-.35,0-.43.12-.43.42v5.55h9.15l.15.5h-3.88v5.43l-2.24-.19c0-.29.21-.42.88-.52v-4.72H98.05v7.24l-2.42-.21c0-.33.26-.48,1-.58v-2.42H92.19l-1,1.27-2-1.33c.19-.31.43-.44,1-.44h6.43v-3.54H90.46Zm17.51-7.92a15.88,15.88,0,0,0-4.29,5.34l-2-1a.53.53,0,0,1,.52-.25,1.53,1.53,0,0,1,.3,0,16.05,16.05,0,0,1,5.31-4.45ZM90.2,198.91a.53.53,0,0,1,.48-.23,2,2,0,0,1,.45.06c4.25-5,8.65-6,14.82-6.41l.07.42c-5.74.79-10.12,2-13.87,7.2Zm3.06,4c-4.23-1.33-5.52-3.23-5.52-4.27,0-.48.26-.77.63-.77a1,1,0,0,1,.54.19,12.92,12.92,0,0,0,4.51,4.62Z"/><path class="cls-6" d="M89.36,175.42l-2-1.35c.19-.29.43-.44,1-.44H107.2l.15.5h-4v10.94l-1.94-.81a57.55,57.55,0,0,0-9.23,2.42l-1.62-1.44a.54.54,0,0,1,.39-.13,2.16,2.16,0,0,1,.71.17,76.33,76.33,0,0,1,10.29-1.54v-2.91H91.34l-1,1.25-1.94-1.31c.17-.31.43-.44,1-.44h3.26v-6.2H90.4Zm9.84-3.52a.51.51,0,0,1,.43-.21,1.52,1.52,0,0,1,.39.06,20.64,20.64,0,0,1,7-4.39l.21.33a20,20,0,0,0-6.21,5.24Zm2.72,8.43v-6.2H94.08v6.2Zm-6.62-7.67c-5.48-1.52-7.14-3.62-7.14-4.66a.59.59,0,0,1,.63-.64,1.18,1.18,0,0,1,.5.12,20.48,20.48,0,0,0,6.17,4.91Z"/><polygon class="cls-5" points="147.42 210.95 161.55 214.47 175.68 210.95 183.22 164.53 139.87 164.53 147.42 210.95"/><path class="cls-6" d="M153.61,205.72l-2.05-1.37c.19-.29.45-.44,1.06-.44H160c.06-.17.28-.27.84-.33v-5.22c0-1.1.24-1.83,2.18-2,0,1.08.8,1.21,2.2,1.31v.31h-2.55c-.35,0-.43.12-.43.42v5.55h9.15l.15.5h-3.88v5.43l-2.24-.19c0-.29.21-.42.88-.52v-4.72h-4.06v7.24l-2.42-.21c0-.33.26-.48,1-.58v-2.42h-4.44l-1,1.27-2-1.33c.19-.31.43-.44,1-.44h6.43v-3.54h-6.17Zm17.51-7.92a15.88,15.88,0,0,0-4.29,5.34l-2-1a.53.53,0,0,1,.52-.25,1.53,1.53,0,0,1,.3,0,16.05,16.05,0,0,1,5.31-4.45Zm-16.72,1.12a.53.53,0,0,1,.48-.23,2,2,0,0,1,.45.06c4.25-5,8.65-6,14.82-6.41l.07.42c-5.74.79-10.12,2-13.87,7.2Zm3.06,4c-4.23-1.33-5.52-3.23-5.52-4.27,0-.48.26-.77.63-.77a1,1,0,0,1,.54.19,12.92,12.92,0,0,0,4.51,4.62Z"/><path class="cls-6" d="M153.57,175.42l-2-1.35c.19-.29.43-.44,1-.44h18.83l.15.5h-4v10.94l-1.94-.81a57.55,57.55,0,0,0-9.23,2.42l-1.62-1.44a.54.54,0,0,1,.39-.13,2.16,2.16,0,0,1,.71.17,76.33,76.33,0,0,1,10.29-1.54v-2.91H155.55l-1,1.25-1.94-1.31c.17-.31.43-.44,1-.44h3.26v-6.2H154.6Zm9.84-3.52a.51.51,0,0,1,.43-.21,1.52,1.52,0,0,1,.39.06,20.64,20.64,0,0,1,7-4.39l.21.33a20,20,0,0,0-6.21,5.24Zm2.72,8.43v-6.2h-7.83v6.2Zm-6.62-7.67c-5.48-1.52-7.14-3.62-7.14-4.66a.59.59,0,0,1,.63-.64,1.18,1.18,0,0,1,.5.12,20.48,20.48,0,0,0,6.17,4.91Z"/><polygon class="cls-5" points="211.63 210.95 225.76 214.47 239.89 210.95 247.43 164.53 204.08 164.53 211.63 210.95"/><path class="cls-6" d="M217.82,205.72l-2.05-1.37c.19-.29.45-.44,1.06-.44h7.4c.06-.17.28-.27.84-.33v-5.22c0-1.1.24-1.83,2.18-2,0,1.08.8,1.21,2.2,1.31v.31H226.9c-.35,0-.43.12-.43.42v5.55h9.15l.15.5h-3.88v5.43l-2.24-.19c0-.29.21-.42.88-.52v-4.72h-4.06v7.24l-2.42-.21c0-.33.26-.48,1-.58v-2.42H220.6l-1,1.27-2-1.33c.19-.31.43-.44,1-.44H225v-3.54h-6.17Zm17.51-7.92a15.88,15.88,0,0,0-4.29,5.34l-2-1a.53.53,0,0,1,.52-.25,1.53,1.53,0,0,1,.3,0,16.05,16.05,0,0,1,5.31-4.45Zm-16.72,1.12a.53.53,0,0,1,.48-.23,2,2,0,0,1,.45.06c4.25-5,8.65-6,14.82-6.41l.07.42c-5.74.79-10.12,2-13.87,7.2Zm3.06,4c-4.23-1.33-5.52-3.23-5.52-4.27,0-.48.26-.77.63-.77a1,1,0,0,1,.54.19,12.92,12.92,0,0,0,4.51,4.62Z"/><path class="cls-6" d="M217.78,175.42l-2-1.35c.19-.29.43-.44,1-.44h18.83l.15.5h-4v10.94l-1.94-.81a57.55,57.55,0,0,0-9.23,2.42l-1.62-1.44a.54.54,0,0,1,.39-.13,2.16,2.16,0,0,1,.71.17,76.33,76.33,0,0,1,10.29-1.54v-2.91H219.76l-1,1.25-1.94-1.31c.17-.31.43-.44,1-.44h3.26v-6.2h-2.29Zm9.84-3.52a.51.51,0,0,1,.43-.21,1.52,1.52,0,0,1,.39.06,20.64,20.64,0,0,1,7-4.39l.21.33a20,20,0,0,0-6.21,5.24Zm2.72,8.43v-6.2H222.5v6.2Zm-6.62-7.67c-5.48-1.52-7.14-3.62-7.14-4.66a.59.59,0,0,1,.63-.64,1.18,1.18,0,0,1,.5.12,20.48,20.48,0,0,0,6.17,4.91Z"/><polygon class="cls-5" points="275.84 210.95 289.97 214.47 304.1 210.95 311.64 164.53 268.29 164.53 275.84 210.95"/><path class="cls-6" d="M282,205.72,280,204.34c.19-.29.45-.44,1.06-.44h7.4c.06-.17.28-.27.84-.33v-5.22c0-1.1.24-1.83,2.18-2,0,1.08.8,1.21,2.2,1.31v.31h-2.55c-.35,0-.43.12-.43.42v5.55h9.15l.15.5h-3.88v5.43l-2.24-.19c0-.29.21-.42.88-.52v-4.72h-4.06v7.24l-2.42-.21c0-.33.26-.48,1-.58v-2.42h-4.44l-1,1.27-2-1.33c.19-.31.43-.44,1-.44h6.43v-3.54h-6.17Zm17.51-7.92a15.88,15.88,0,0,0-4.29,5.34l-2-1a.53.53,0,0,1,.52-.25,1.53,1.53,0,0,1,.3,0,16.05,16.05,0,0,1,5.31-4.45Zm-16.72,1.12a.53.53,0,0,1,.48-.23,2,2,0,0,1,.45.06c4.25-5,8.65-6,14.82-6.41l.07.42c-5.74.79-10.12,2-13.87,7.2Zm3.06,4c-4.23-1.33-5.52-3.23-5.52-4.27,0-.48.26-.77.63-.77a1,1,0,0,1,.54.19,12.92,12.92,0,0,0,4.51,4.62Z"/><path class="cls-6" d="M282,175.42l-2-1.35c.19-.29.43-.44,1-.44h18.83l.15.5h-4v10.94l-1.94-.81a57.55,57.55,0,0,0-9.23,2.42l-1.62-1.44a.54.54,0,0,1,.39-.13,2.16,2.16,0,0,1,.71.17,76.33,76.33,0,0,1,10.29-1.54v-2.91H284l-1,1.25L281,180.77c.17-.31.43-.44,1-.44h3.26v-6.2H283Zm9.84-3.52a.51.51,0,0,1,.43-.21,1.52,1.52,0,0,1,.39.06,20.64,20.64,0,0,1,7-4.39l.21.33a20,20,0,0,0-6.21,5.24Zm2.72,8.43v-6.2h-7.83v6.2Zm-6.62-7.67c-5.48-1.52-7.14-3.62-7.14-4.66a.59.59,0,0,1,.63-.64,1.18,1.18,0,0,1,.5.12,20.48,20.48,0,0,0,6.17,4.91Z"/><polygon class="cls-5" points="340.05 210.95 354.18 214.47 368.31 210.95 375.85 164.53 332.5 164.53 340.05 210.95"/><path class="cls-6" d="M346.24,205.72l-2.05-1.37c.19-.29.45-.44,1.06-.44h7.4c.06-.17.28-.27.84-.33v-5.22c0-1.1.24-1.83,2.18-2,0,1.08.8,1.21,2.2,1.31v.31h-2.55c-.35,0-.43.12-.43.42v5.55H364l.15.5H360.3v5.43l-2.24-.19c0-.29.21-.42.88-.52v-4.72h-4.06v7.24l-2.42-.21c0-.33.26-.48,1-.58v-2.42H349l-1,1.27-2-1.33c.19-.31.43-.44,1-.44h6.43v-3.54h-6.17Zm17.51-7.92a15.88,15.88,0,0,0-4.29,5.34l-2-1a.53.53,0,0,1,.52-.25,1.53,1.53,0,0,1,.3,0,16.05,16.05,0,0,1,5.31-4.45ZM347,198.91a.53.53,0,0,1,.48-.23,2,2,0,0,1,.45.06c4.25-5,8.65-6,14.82-6.41l.07.42c-5.74.79-10.12,2-13.87,7.2Zm3.06,4c-4.23-1.33-5.52-3.23-5.52-4.27,0-.48.26-.77.63-.77a1,1,0,0,1,.54.19,12.92,12.92,0,0,0,4.51,4.62Z"/><path class="cls-6" d="M346.19,175.42l-2-1.35c.19-.29.43-.44,1-.44H364l.15.5h-4v10.94l-1.94-.81a57.55,57.55,0,0,0-9.23,2.42l-1.62-1.44a.54.54,0,0,1,.39-.13,2.16,2.16,0,0,1,.71.17,76.33,76.33,0,0,1,10.29-1.54v-2.91H348.18l-1,1.25-1.94-1.31c.17-.31.43-.44,1-.44h3.26v-6.2h-2.29Zm9.84-3.52a.51.51,0,0,1,.43-.21,1.52,1.52,0,0,1,.39.06,20.64,20.64,0,0,1,7-4.39l.21.33a20,20,0,0,0-6.21,5.24Zm2.72,8.43v-6.2h-7.83v6.2Zm-6.62-7.67C346.65,171.14,345,169,345,168a.59.59,0,0,1,.63-.64,1.18,1.18,0,0,1,.5.12,20.48,20.48,0,0,0,6.17,4.91Z"/><polygon class="cls-5" points="404.25 210.95 418.38 214.47 432.52 210.95 440.06 164.53 396.71 164.53 404.25 210.95"/><path class="cls-6" d="M410.45,205.72l-2.05-1.37c.19-.29.45-.44,1.06-.44h7.4c.06-.17.28-.27.84-.33v-5.22c0-1.1.24-1.83,2.18-2,0,1.08.8,1.21,2.2,1.31v.31h-2.55c-.35,0-.43.12-.43.42v5.55h9.15l.15.5h-3.88v5.43l-2.24-.19c0-.29.21-.42.88-.52v-4.72H419.1v7.24l-2.42-.21c0-.33.26-.48,1-.58v-2.42h-4.44l-1,1.27-2-1.33c.19-.31.43-.44,1-.44h6.43v-3.54H411.5ZM428,197.79a15.88,15.88,0,0,0-4.29,5.34l-2-1a.53.53,0,0,1,.52-.25,1.53,1.53,0,0,1,.3,0,16.05,16.05,0,0,1,5.31-4.45Zm-16.72,1.12a.53.53,0,0,1,.48-.23,2,2,0,0,1,.45.06c4.25-5,8.65-6,14.82-6.41l.07.42c-5.74.79-10.12,2-13.87,7.2Zm3.06,4c-4.23-1.33-5.52-3.23-5.52-4.27,0-.48.26-.77.63-.77a1,1,0,0,1,.54.19,12.92,12.92,0,0,0,4.51,4.62Z"/><path class="cls-6" d="M410.4,175.42l-2-1.35c.19-.29.43-.44,1-.44h18.83l.15.5h-4v10.94l-1.94-.81a57.55,57.55,0,0,0-9.23,2.42l-1.62-1.44a.54.54,0,0,1,.39-.13,2.16,2.16,0,0,1,.71.17A76.33,76.33,0,0,1,423,183.74v-2.91H412.39l-1,1.25-1.94-1.31c.17-.31.43-.44,1-.44h3.26v-6.2h-2.29Zm9.84-3.52a.51.51,0,0,1,.43-.21,1.52,1.52,0,0,1,.39.06,20.64,20.64,0,0,1,7-4.39l.21.33a20,20,0,0,0-6.21,5.24Zm2.72,8.43v-6.2h-7.83v6.2Zm-6.62-7.67c-5.48-1.52-7.14-3.62-7.14-4.66a.59.59,0,0,1,.63-.64,1.18,1.18,0,0,1,.5.12,20.48,20.48,0,0,0,6.17,4.91Z"/><polygon class="cls-5" points="468.46 210.95 482.59 214.47 496.73 210.95 504.27 164.53 460.92 164.53 468.46 210.95"/><path class="cls-6" d="M474.66,205.72l-2.05-1.37c.19-.29.45-.44,1.06-.44h7.4c.06-.17.28-.27.84-.33v-5.22c0-1.1.24-1.83,2.18-2,0,1.08.8,1.21,2.2,1.31v.31h-2.55c-.35,0-.43.12-.43.42v5.55h9.15l.15.5h-3.88v5.43l-2.24-.19c0-.29.21-.42.88-.52v-4.72h-4.06v7.24l-2.42-.21c0-.33.26-.48,1-.58v-2.42h-4.44l-1,1.27-2-1.33c.19-.31.43-.44,1-.44h6.43v-3.54h-6.17Zm17.51-7.92a15.88,15.88,0,0,0-4.29,5.34l-2-1a.53.53,0,0,1,.52-.25,1.53,1.53,0,0,1,.3,0,16.05,16.05,0,0,1,5.31-4.45Zm-16.72,1.12a.53.53,0,0,1,.48-.23,2,2,0,0,1,.45.06c4.25-5,8.65-6,14.82-6.41l.07.42c-5.74.79-10.12,2-13.87,7.2Zm3.06,4c-4.23-1.33-5.52-3.23-5.52-4.27,0-.48.26-.77.63-.77a1,1,0,0,1,.54.19,12.92,12.92,0,0,0,4.51,4.62Z"/><path class="cls-6" d="M474.61,175.42l-2-1.35c.19-.29.43-.44,1-.44h18.83l.15.5h-4v10.94l-1.94-.81a57.55,57.55,0,0,0-9.23,2.42l-1.62-1.44a.54.54,0,0,1,.39-.13,2.16,2.16,0,0,1,.71.17,76.33,76.33,0,0,1,10.29-1.54v-2.91H476.6l-1,1.25-1.94-1.31c.17-.31.43-.44,1-.44h3.26v-6.2h-2.29Zm9.84-3.52a.51.51,0,0,1,.43-.21,1.52,1.52,0,0,1,.39.06,20.64,20.64,0,0,1,7-4.39l.21.33a20,20,0,0,0-6.21,5.24Zm2.72,8.43v-6.2h-7.83v6.2Zm-6.62-7.67c-5.48-1.52-7.14-3.62-7.14-4.66a.59.59,0,0,1,.63-.64,1.18,1.18,0,0,1,.5.12,20.48,20.48,0,0,0,6.17,4.91Z"/><polygon class="cls-5" points="532.67 210.95 546.8 214.47 560.93 210.95 568.48 164.53 525.13 164.53 532.67 210.95"/><path class="cls-6" d="M538.87,205.72l-2.05-1.37c.19-.29.45-.44,1.06-.44h7.4c.06-.17.28-.27.84-.33v-5.22c0-1.1.24-1.83,2.18-2,0,1.08.8,1.21,2.2,1.31v.31h-2.55c-.35,0-.43.12-.43.42v5.55h9.15l.15.5h-3.88v5.43l-2.24-.19c0-.29.21-.42.88-.52v-4.72h-4.06v7.24l-2.42-.21c0-.33.26-.48,1-.58v-2.42h-4.44l-1,1.27-2-1.33c.19-.31.43-.44,1-.44h6.43v-3.54h-6.17Zm17.51-7.92a15.88,15.88,0,0,0-4.29,5.34l-2-1a.53.53,0,0,1,.52-.25,1.53,1.53,0,0,1,.3,0,16.05,16.05,0,0,1,5.31-4.45Zm-16.72,1.12a.53.53,0,0,1,.48-.23,2,2,0,0,1,.45.06c4.25-5,8.65-6,14.82-6.41l.07.42c-5.74.79-10.12,2-13.87,7.2Zm3.06,4c-4.23-1.33-5.52-3.23-5.52-4.27,0-.48.26-.77.63-.77a1,1,0,0,1,.54.19,12.92,12.92,0,0,0,4.51,4.62Z"/><path class="cls-6" d="M538.82,175.42l-2-1.35c.19-.29.43-.44,1-.44h18.83l.15.5h-4v10.94l-1.94-.81a57.55,57.55,0,0,0-9.23,2.42L540,185.24a.54.54,0,0,1,.39-.13,2.16,2.16,0,0,1,.71.17,76.33,76.33,0,0,1,10.29-1.54v-2.91H540.81l-1,1.25-1.94-1.31c.17-.31.43-.44,1-.44h3.26v-6.2h-2.29Zm9.84-3.52a.51.51,0,0,1,.43-.21,1.52,1.52,0,0,1,.39.06,20.64,20.64,0,0,1,7-4.39l.21.33a20,20,0,0,0-6.21,5.24Zm2.72,8.43v-6.2h-7.83v6.2Zm-6.62-7.67c-5.48-1.52-7.14-3.62-7.14-4.66a.59.59,0,0,1,.63-.64,1.18,1.18,0,0,1,.5.12,20.48,20.48,0,0,0,6.17,4.91Z"/><polygon class="cls-5" points="596.86 210.95 610.99 214.47 625.12 210.95 632.66 164.53 589.31 164.53 596.86 210.95"/><path class="cls-8" d="M608.07,193.74a1.24,1.24,0,0,1-1.06.52c-.93,0-2.13-1.06-2.13-1.77,0-.54.56-.79,1.49-1,4.79-1.33,10.4-4,10.4-6.82,0-2.31-2.48-2.49-5.46-2.49-2.65,0-4.51.33-5,.69-1.14-.1-2.16-.17-2.16-.87,0-.42.84-.6,1.9-.73a42.31,42.31,0,0,1,5.2-.31c4.38,0,6.6,1,6.6,3.62,0,1.81-2.07,3.76-4.62,5.16,1.34.77,1.34,2.06,1.34,4.91,0,.21,0,1.25,0,1.48,0,.44,0,1.16,1.12,1.16a4,4,0,0,0,.45,0l0,.12a1.49,1.49,0,0,1-1.19.77c-1.1,0-2.29-.6-2.29-1.39,0-.27.37-.69.43-1.23a19.49,19.49,0,0,0,.15-2.54c0-.42,0-.81,0-1.18a1.73,1.73,0,0,0-1-1.5c-1.1.56-2.93,1.41-4.31,2-.65.27-1,.54-1,.83s.52.64,1.1.56Z"/><polygon class="cls-5" points="659.62 215.37 675.1 219.22 690.58 215.37 698.84 164.53 651.36 164.53 659.62 215.37"/><path class="cls-8" d="M664.52,198.39c.19-.32.47-.48,1.13-.48h8.06c-2.1-2.73-6.35-5.17-9.83-6.36l0-.25a1.63,1.63,0,0,0,1.37-1.21c3.47,1.66,7.16,4.51,9,7.81h.17v-7s.24-.52,1.53-.52v6.79a24.14,24.14,0,0,1,10.09-7.36l.24.39a25,25,0,0,0-8.83,7.7h8.08l.17.55H676v4l-2.53-.21c0-.32.26-.5,1-.57v-3.21h-6.64l-1.16,1.41Zm5.2-8.52-.71.89-2-1.37A1.71,1.71,0,0,1,668,189v-7a2,2,0,0,1,1.53-.48v1.28h11.32v-.93s.21-.52,1.51-.52v9.29l-1.68-.73Zm11.1-6.56H669.5v6h11.32Z"/><polygon class="cls-5" points="595.51 137.59 610.99 141.44 626.47 137.59 634.73 86.75 587.25 86.75 595.51 137.59"/><path class="cls-8" d="M602.25,105.9l-2.2-1.48c.19-.32.47-.48,1.13-.48h20.58l.17.55H611.79v5.29h8l.17.55h-8.13V114l-2.67-.23c0-.37.28-.5,1.11-.62v-2.83H605l-1.11,1.37-2.13-1.44c.16-.34.45-.48,1.13-.48h7.35v-5.29H603.4ZM621,115.26h-9.17V120h7.42l.14.55h-7.56v3.67l-2.67-.23c0-.36.28-.5,1.11-.61v-2.83h-4.68l-1.11,1.34-2.08-1.41c.19-.34.47-.48,1.11-.48h6.76v-4.78h-6l-1.11,1.39L601,115.19c.16-.32.45-.48,1.13-.48h18.68Z"/><polygon class="cls-5" points="659.05 139.8 675.2 143.82 691.35 139.8 699.97 86.75 650.43 86.75 659.05 139.8"/><path class="cls-8" d="M687,115.68c-4.12,2.38-8.9,6.85-10.2,10.27l-3.18-.6c.07-.28.39-.4,1-.45a32.91,32.91,0,0,0-11.29-7.49l.05-.36a2.16,2.16,0,0,0,1.63-1.45,26.86,26.86,0,0,1,10.06,9c2.22-3.37,7.12-7.18,11.71-9.3Zm-19.3-10.48-1.21,1.52-2.32-1.57c.2-.36.49-.52,1.21-.52H686l.15.57h-9.93v5.28h7.22l.17.57h-7.39v4.75H683l.15.57H670.65l-1.08,1.31-2.09-1.35c.17-.38.47-.52,1.16-.52h5.89V111h-4.61l-1.13,1.35-2.19-1.4c.2-.36.47-.52,1.16-.52h6.78V105.2Z"/><polygon class="cls-5" points="594.16 64.24 610.99 68.42 627.81 64.24 636.79 8.98 585.19 8.98 594.16 64.24"/><path class="cls-8" d="M619.23,34.38a7.72,7.72,0,0,1-.28-1.91c0-2.18,1.31-3.89,2.8-3.89.44,0,.9.17.9.69a1.23,1.23,0,0,1-.72,1,4.8,4.8,0,0,0-2.26,4.11Zm-17.87,4.09-2-1.56a1.88,1.88,0,0,1,1-.37c.49-4.41,1.41-7.53,2.64-8.37a4.42,4.42,0,0,1,2.77-.69c0,.89.23,1.26,2.59,1.51l0,.42c-.49,0-3-.1-3.49-.1a1.21,1.21,0,0,0-.8.22c-.8.64-1.59,3.39-2.05,7.36h15.41v-.67a1.66,1.66,0,0,1,1.41-.57h.26V49.26l-2-.82H604.21L603,49.93l-2.31-1.56c.21-.37.54-.52,1.26-.52h7.81v-3h-4.44l-1.13,1.41L602,44.73c.21-.37.51-.52,1.21-.52h6.57v-3h-4.42l-1.18,1.44-2.23-1.51c.2-.37.51-.52,1.23-.52h6.6V37.47h-7.52Zm10,9.39h6v-3h-6Zm0-6.66v3h6v-3Zm6-.6V37.47h-6v3.12ZM616.1,34.7A5.33,5.33,0,0,1,614.17,31c0-1,.54-1.71,1.08-1.71a.9.9,0,0,1,.72.45,6.89,6.89,0,0,0-.1,1.31,10.28,10.28,0,0,0,.59,3.49Zm-3.65.32c-2.31-1.21-3.05-2.6-3.05-3.54,0-.72.41-1.19.9-1.19a1,1,0,0,1,.67.32,7.86,7.86,0,0,0,1.77,4.21Zm-4,.4c-3-.72-3.93-2.06-3.93-2.95a.81.81,0,0,1,.77-.89,1,1,0,0,1,.62.22,8.06,8.06,0,0,0,2.72,3.39Z"/><polygon class="cls-5" points="658.28 64.24 675.1 68.42 691.92 64.24 700.9 8.98 649.3 8.98 658.28 64.24"/><path class="cls-8" d="M665.54,43.62,663.17,42c.21-.35.51-.52,1.23-.52h22.44l.18.59H672.49a28.45,28.45,0,0,0-2.08,4.38l-2.57-1c.1-.2.28-.27.62-.27a1.85,1.85,0,0,1,.36,0,20.93,20.93,0,0,1,3-3.17h-5Zm1.05,4.93L664.3,47c.21-.35.49-.52,1.21-.52h20l.18.59H676v2.85l-2.77-.22c0-.35.26-.52,1.08-.64v-2h-6.52Zm-2.41-16.22V29.15c-.85-.25-1-.32-1-.62,0-.79.77-1,3.21-1H673c2.54,0,3,.3,3,2.45v2h6.09V30.84s.23-.57,1.67-.57V40l-1.85-.79H668.36l-.79,1-2.24-1.54a2,2,0,0,1,1.08-.5V31.28c0-.08.49-.52,1.69-.52V32h6.24v-2c0-.89-.05-1-1.31-1h-6.57a1.28,1.28,0,0,0-1.05.3,10.86,10.86,0,0,0-1,3ZM676,38.59h6.09v-2.7H676Zm6.09-6H676v2.75h6.09Zm-.93,13.79c-2.11-1-2.77-2.15-2.77-3a1.07,1.07,0,0,1,.95-1.19,1,1,0,0,1,.77.39,6.91,6.91,0,0,0,1.31,3.62Zm-13.1-7.75h6.24v-2.7H668.1Zm6.24-6H668.1v2.75h6.24Z"/></g></g></g></g></svg>