<svg id="レイヤー_1" data-name="レイヤー 1" xmlns="http://www.w3.org/2000/svg" xmlns:xlink="http://www.w3.org/1999/xlink" viewBox="0 0 379 336"><defs><style>.cls-1{fill:none;}.cls-2{clip-path:url(#clip-path);}.cls-3{fill:#5d7a7f;}.cls-4{fill:#fff;}.cls-5{fill:#334142;}.cls-6{fill:#d0f1ff;}</style><clipPath id="clip-path"><polygon class="cls-1" points="189 339 0 257.84 0 0 379 0 379 257.84 189 339"/></clipPath></defs><title>reversi_image</title><g class="cls-2"><g id="レイヤー_2" data-name="レイヤー 2"><g id="レイヤー_1-2" data-name="レイヤー 1-2"><rect class="cls-3" x="-16.04" y="-4.49" width="56.75" height="56.75"/><rect class="cls-4" x="40.7" y="-4.49" width="56.75" height="56.75"/><rect class="cls-3" x="97.45" y="-4.49" width="56.75" height="56.75"/><rect class="cls-4" x="154.2" y="-4.49" width="56.75" height="56.75"/><rect class="cls-4" x="-16.04" y="52.25" width="56.75" height="56.75"/><rect class="cls-3" x="40.7" y="52.25" width="56.75" height="56.75"/><rect class="cls-4" x="97.45" y="52.25" width="56.75" height="56.75"/><rect class="cls-3" x="154.2" y="52.25" width="56.75" height="56.75"/><rect class="cls-3" x="-16.04" y="108.75" width="56.75" height="56.75"/><rect class="cls-4" x="40.7" y="108.75" width="56.75" height="56.75"/><rect class="cls-3" x="97.45" y="108.75" width="56.75" height="56.75"/><rect class="cls-4" x="154.2" y="108.75" width="56.75" height="56.75"/><rect class="cls-4" x="-16.04" y="165.5" width="56.75" height="56.75"/><rect class="cls-3" x="40.7" y="165.5" width="56.75" height="56.75"/><rect class="cls-4" x="97.45" y="165.5" width="56.75" height="56.75"/><rect class="cls-3" x="154.2" y="165.5" width="56.75" height="56.75"/><rect class="cls-3" x="-16.04" y="222.25" width="56.75" height="56.75"/><rect class="cls-4" x="40.7" y="222.25" width="56.75" height="56.75"/><rect class="cls-3" x="97.45" y="222.25" width="56.75" height="56.75"/><rect class="cls-4" x="154.2" y="222.25" width="56.75" height="56.75"/><rect class="cls-4" x="-16.04" y="279.01" width="56.75" height="56.75"/><rect class="cls-3" x="40.7" y="279.01" width="56.75" height="56.75"/><rect class="cls-4" x="97.45" y="279.01" width="56.75" height="56.75"/><rect class="cls-3" x="154.2" y="279.01" width="56.75" height="56.75"/><rect class="cls-3" x="210.7" y="108.75" width="56.75" height="56.75"/><rect class="cls-4" x="267.46" y="108.75" width="56.75" height="56.75"/><rect class="cls-3" x="324.21" y="108.75" width="56.75" height="56.75"/><rect class="cls-4" x="210.7" y="165.5" width="56.75" height="56.75"/><rect class="cls-3" x="267.46" y="165.5" width="56.75" height="56.75"/><rect class="cls-4" x="324.21" y="165.5" width="56.75" height="56.75"/><rect class="cls-3" x="210.7" y="222.25" width="56.75" height="56.75"/><rect class="cls-4" x="267.46" y="222.25" width="56.75" height="56.75"/><rect class="cls-3" x="324.21" y="222.25" width="56.75" height="56.75"/><rect class="cls-4" x="210.7" y="279.01" width="56.75" height="56.75"/><rect class="cls-3" x="267.46" y="279.01" width="56.75" height="56.75"/><rect class="cls-4" x="324.21" y="279.01" width="56.75" height="56.75"/><circle class="cls-5" cx="183.17" cy="251.05" r="15.9"/><circle class="cls-5" cx="183.17" cy="191.84" r="15.9"/><circle class="cls-5" cx="183.17" cy="135.51" r="15.9"/><circle class="cls-5" cx="239.5" cy="135.51" r="15.9"/><circle class="cls-5" cx="352.15" cy="193.29" r="15.9"/><rect class="cls-3" x="210.7" y="-4.49" width="56.75" height="56.75"/><rect class="cls-4" x="267.46" y="-4.49" width="56.75" height="56.75"/><rect class="cls-3" x="324.21" y="-4.49" width="56.75" height="56.75"/><rect class="cls-4" x="210.7" y="52.25" width="56.75" height="56.75"/><rect class="cls-3" x="267.46" y="52.25" width="56.75" height="56.75"/><rect class="cls-4" x="324.21" y="52.25" width="56.75" height="56.75"/><circle class="cls-5" cx="239.5" cy="22.86" r="15.9"/><circle class="cls-5" cx="126.43" cy="251.05" r="15.9"/><circle class="cls-5" cx="68.65" cy="136.95" r="15.9"/><circle class="cls-5" cx="68.65" cy="80.63" r="15.9"/><ellipse class="cls-6" cx="295.62" cy="80.8" rx="16.11" ry="15.9"/><ellipse class="cls-6" cx="351.94" cy="80.8" rx="16.11" ry="15.9"/><ellipse class="cls-6" cx="351.94" cy="135.69" rx="16.11" ry="15.9"/><ellipse class="cls-6" cx="239.29" cy="79.35" rx="16.11" ry="15.9"/><ellipse class="cls-6" cx="182.96" cy="79.35" rx="16.11" ry="15.9"/><ellipse class="cls-6" cx="182.96" cy="23.03" rx="16.11" ry="15.9"/><ellipse class="cls-6" cx="295.62" cy="24.47" rx="16.11" ry="15.9"/><circle class="cls-6" cx="295.83" cy="135.69" r="15.9"/><circle class="cls-6" cx="295.83" cy="193.45" r="15.9"/><circle class="cls-6" cx="128.29" cy="193.45" r="15.9"/><circle class="cls-6" cx="239.5" cy="193.45" r="15.9"/><circle class="cls-6" cx="125.4" cy="135.69" r="15.9"/><circle class="cls-6" cx="125.4" cy="80.8" r="15.9"/><circle class="cls-6" cx="125.4" cy="23.03" r="15.9"/><circle class="cls-6" cx="73.41" cy="193.45" r="15.9"/><path class="cls-5" d="M244.18,235.83a15.83,15.83,0,1,0,10.21,14.8A15.83,15.83,0,0,0,244.18,235.83Z"/><circle class="cls-5" cx="239.07" cy="307.38" r="15.9"/></g></g></g></svg>