<svg xmlns="http://www.w3.org/2000/svg" viewBox="0 0 518.72 518.72"><defs><style>.cls-1{fill:#00953c;}.cls-2{fill:none;stroke:#fff;stroke-width:2px;}.cls-2,.cls-3,.cls-4{stroke-miterlimit:10;}.cls-3{fill:#212121;stroke:#020202;}.cls-4{fill:#eaeaea;stroke:#8e8e8e;}</style></defs><title>logo</title><g id="レイヤー_2" data-name="レイヤー 2"><g id="レイヤー_1-2" data-name="レイヤー 1"><rect class="cls-1" x="1" y="1" width="516.72" height="516.72"/><rect class="cls-2" x="1" y="1" width="516.72" height="516.72"/><line class="cls-2" x1="1" y1="431.6" x2="517.72" y2="431.6"/><line class="cls-2" x1="1" y1="345.48" x2="517.72" y2="345.48"/><line class="cls-2" x1="1" y1="259.36" x2="517.72" y2="259.36"/><line class="cls-2" x1="1" y1="173.24" x2="517.72" y2="173.24"/><line class="cls-2" x1="1" y1="87.12" x2="517.72" y2="87.12"/><line class="cls-2" x1="431.6" y1="1" x2="431.6" y2="517.72"/><line class="cls-2" x1="345.48" y1="1" x2="345.48" y2="517.72"/><line class="cls-2" x1="259.36" y1="1" x2="259.36" y2="517.72"/><line class="cls-2" x1="173.24" y1="1" x2="173.24" y2="517.72"/><line class="cls-2" x1="87.12" y1="1" x2="87.12" y2="517.72"/><circle class="cls-3" cx="302.01" cy="215.88" r="29.3"/><circle class="cls-3" cx="216.56" cy="301.76" r="29.3"/><circle class="cls-4" cx="216.56" cy="215.88" r="29.3"/><circle class="cls-4" cx="302.01" cy="301.76" r="29.3"/></g></g></svg>