<svg xmlns="http://www.w3.org/2000/svg" xmlns:xlink="http://www.w3.org/1999/xlink" viewBox="0 0 800 500"><defs><style>.cls-1{isolation:isolate;}.cls-2{fill:url(#名称未設定グラデーション_184);}.cls-3{fill:#334142;}.cls-4,.cls-6{fill:#fff;}.cls-4{opacity:0.6;mix-blend-mode:overlay;}.cls-5{fill:#5d7a7f;}.cls-7{fill:#d0f1ff;}.cls-8{fill:#24bfff;}.cls-9{fill:#7cd9ff;}.cls-10{fill:#a7e5ff;}.cls-11{fill:#0076aa;}.cls-12{fill:#8addff;}</style><linearGradient id="名称未設定グラデーション_184" y1="250" x2="800" y2="250" gradientUnits="userSpaceOnUse"><stop offset="0.01" stop-color="#60d2c8"/><stop offset="1" stop-color="#d28560"/></linearGradient></defs><title>reversi_cover</title><g class="cls-1"><g id="レイヤー_2" data-name="レイヤー 2"><g id="レイヤー_1-2" data-name="レイヤー 1"><rect class="cls-2" width="800" height="500"/><rect class="cls-3" x="150.01" width="499.97" height="499.98"/><rect class="cls-4" x="150.32" y="0.3" width="249.49" height="499.7"/><rect class="cls-4" x="150.32" y="0.3" width="499.67" height="43.88"/><rect class="cls-4" x="150.32" y="44.18" width="43.85" height="455.82"/><rect class="cls-5" x="194.24" y="44.23" width="51.47" height="51.47"/><rect class="cls-6" x="245.7" y="44.23" width="51.47" height="51.47"/><rect class="cls-5" x="297.17" y="44.23" width="51.47" height="51.47"/><rect class="cls-6" x="348.64" y="44.23" width="51.47" height="51.47"/><rect class="cls-6" x="194.24" y="95.7" width="51.47" height="51.47"/><rect class="cls-5" x="245.7" y="95.7" width="51.47" height="51.47"/><rect class="cls-6" x="297.17" y="95.7" width="51.47" height="51.47"/><rect class="cls-5" x="348.64" y="95.7" width="51.47" height="51.47"/><rect class="cls-5" x="194.24" y="147.17" width="51.47" height="51.47"/><rect class="cls-6" x="245.7" y="147.17" width="51.47" height="51.47"/><rect class="cls-5" x="297.17" y="147.17" width="51.47" height="51.47"/><rect class="cls-6" x="348.64" y="147.17" width="51.47" height="51.47"/><rect class="cls-6" x="194.24" y="198.63" width="51.47" height="51.47"/><rect class="cls-5" x="245.7" y="198.63" width="51.47" height="51.47"/><rect class="cls-6" x="297.17" y="198.63" width="51.47" height="51.47"/><rect class="cls-5" x="348.64" y="198.63" width="51.47" height="51.47"/><rect class="cls-5" x="194.24" y="249.87" width="51.47" height="51.47"/><rect class="cls-6" x="245.7" y="249.87" width="51.47" height="51.47"/><rect class="cls-5" x="297.17" y="249.87" width="51.47" height="51.47"/><rect class="cls-6" x="348.64" y="249.87" width="51.47" height="51.47"/><rect class="cls-6" x="194.24" y="301.34" width="51.47" height="51.47"/><rect class="cls-5" x="245.7" y="301.34" width="51.47" height="51.47"/><rect class="cls-6" x="297.17" y="301.34" width="51.47" height="51.47"/><rect class="cls-5" x="348.64" y="301.34" width="51.47" height="51.47"/><rect class="cls-5" x="194.24" y="352.81" width="51.47" height="51.47"/><rect class="cls-6" x="245.7" y="352.81" width="51.47" height="51.47"/><rect class="cls-5" x="297.17" y="352.81" width="51.47" height="51.47"/><rect class="cls-6" x="348.64" y="352.81" width="51.47" height="51.47"/><rect class="cls-6" x="194.24" y="404.28" width="51.47" height="51.47"/><rect class="cls-5" x="245.7" y="404.28" width="51.47" height="51.47"/><rect class="cls-6" x="297.17" y="404.28" width="51.47" height="51.47"/><rect class="cls-5" x="348.64" y="404.28" width="51.47" height="51.47"/><rect class="cls-5" x="399.88" y="249.87" width="51.47" height="51.47"/><rect class="cls-6" x="451.35" y="249.87" width="51.47" height="51.47"/><rect class="cls-5" x="502.82" y="249.87" width="51.47" height="51.47"/><rect class="cls-6" x="554.28" y="249.87" width="51.47" height="51.47"/><rect class="cls-6" x="399.88" y="301.34" width="51.47" height="51.47"/><rect class="cls-5" x="451.35" y="301.34" width="51.47" height="51.47"/><rect class="cls-6" x="502.82" y="301.34" width="51.47" height="51.47"/><rect class="cls-5" x="554.28" y="301.34" width="51.47" height="51.47"/><rect class="cls-5" x="399.88" y="352.81" width="51.47" height="51.47"/><rect class="cls-6" x="451.35" y="352.81" width="51.47" height="51.47"/><rect class="cls-5" x="502.82" y="352.81" width="51.47" height="51.47"/><rect class="cls-6" x="554.28" y="352.81" width="51.47" height="51.47"/><rect class="cls-6" x="399.88" y="404.28" width="51.47" height="51.47"/><rect class="cls-5" x="451.35" y="404.28" width="51.47" height="51.47"/><rect class="cls-6" x="502.82" y="404.28" width="51.47" height="51.47"/><rect class="cls-5" x="554.28" y="404.28" width="51.47" height="51.47"/><circle class="cls-3" cx="374.91" cy="378.93" r="14.42"/><circle class="cls-3" cx="374.91" cy="325.23" r="14.42"/><circle class="cls-3" cx="374.91" cy="274.14" r="14.42"/><circle class="cls-3" cx="426" cy="274.14" r="14.42"/><circle class="cls-3" cx="528.16" cy="326.54" r="14.42"/><rect class="cls-5" x="399.88" y="44.23" width="51.47" height="51.47"/><rect class="cls-6" x="451.35" y="44.23" width="51.47" height="51.47"/><rect class="cls-5" x="502.82" y="44.23" width="51.47" height="51.47"/><rect class="cls-6" x="554.28" y="44.23" width="51.47" height="51.47"/><rect class="cls-6" x="399.88" y="95.7" width="51.47" height="51.47"/><rect class="cls-5" x="451.35" y="95.7" width="51.47" height="51.47"/><rect class="cls-6" x="502.82" y="95.7" width="51.47" height="51.47"/><rect class="cls-5" x="554.28" y="95.7" width="51.47" height="51.47"/><rect class="cls-5" x="399.88" y="147.17" width="51.47" height="51.47"/><rect class="cls-6" x="451.35" y="147.17" width="51.47" height="51.47"/><rect class="cls-5" x="502.82" y="147.17" width="51.47" height="51.47"/><rect class="cls-6" x="554.28" y="147.17" width="51.47" height="51.47"/><rect class="cls-6" x="399.88" y="198.63" width="51.47" height="51.47"/><rect class="cls-5" x="451.35" y="198.63" width="51.47" height="51.47"/><rect class="cls-6" x="502.82" y="198.63" width="51.47" height="51.47"/><rect class="cls-5" x="554.28" y="198.63" width="51.47" height="51.47"/><circle class="cls-3" cx="426" cy="171.98" r="14.42"/><circle class="cls-3" cx="477.08" cy="120.89" r="14.42"/><circle class="cls-3" cx="323.45" cy="378.93" r="14.42"/><circle class="cls-3" cx="271.05" cy="275.45" r="14.42"/><circle class="cls-3" cx="271.05" cy="224.37" r="14.42"/><ellipse class="cls-7" cx="476.89" cy="224.52" rx="14.61" ry="14.42"/><ellipse class="cls-7" cx="527.97" cy="224.52" rx="14.61" ry="14.42"/><ellipse class="cls-7" cx="527.97" cy="274.3" rx="14.61" ry="14.42"/><ellipse class="cls-7" cx="425.81" cy="223.21" rx="14.61" ry="14.42"/><ellipse class="cls-7" cx="374.72" cy="223.21" rx="14.61" ry="14.42"/><ellipse class="cls-7" cx="374.72" cy="172.13" rx="14.61" ry="14.42"/><ellipse class="cls-7" cx="476.89" cy="173.44" rx="14.61" ry="14.42"/><ellipse class="cls-7" cx="425.81" cy="121.05" rx="14.61" ry="14.42"/><circle class="cls-7" cx="477.08" cy="274.3" r="14.42"/><circle class="cls-7" cx="477.08" cy="326.69" r="14.42"/><circle class="cls-7" cx="325.14" cy="326.69" r="14.42"/><circle class="cls-7" cx="426" cy="326.69" r="14.42"/><circle class="cls-7" cx="322.52" cy="274.3" r="14.42"/><circle class="cls-7" cx="322.52" cy="224.52" r="14.42"/><circle class="cls-7" cx="322.52" cy="172.13" r="14.42"/><circle class="cls-7" cx="275.37" cy="326.69" r="14.42"/><path class="cls-3" d="M430.24,365.12a14.36,14.36,0,1,0,9.26,13.42A14.31,14.31,0,0,0,430.24,365.12Z"/><circle class="cls-3" cx="425.61" cy="430.01" r="14.42"/><path class="cls-8" d="M597.13,253.17,558,275.76v5.51a16.68,16.68,0,0,1,11.23.48l27.9-16.11L625.46,282v32.71l-28.33,16.35L569.22,315a16.64,16.64,0,0,1-11.22.47v5.51l39.13,22.59,39.13-22.59V275.76Z"/><rect class="cls-9" x="636.1" y="303.03" width="124.62" height="12.25"/><rect class="cls-10" x="636.1" y="280.98" width="124.62" height="12.25"/><rect class="cls-8" x="649.61" y="384.21" width="205.33" height="12.25" transform="translate(361.94 1142.61) rotate(-90)"/><rect class="cls-10" x="627.57" y="384.21" width="205.33" height="12.25" transform="translate(339.9 1120.57) rotate(-90)"/><circle class="cls-11" cx="741.26" cy="298.13" r="33.63"/><circle class="cls-12" cx="741.26" cy="298.13" r="16.82"/><path class="cls-11" d="M741.26,374.69h0a32.91,32.91,0,0,0-32.91,32.91V493h65.83V407.6A32.91,32.91,0,0,0,741.26,374.69Z"/><path class="cls-4" d="M707.62,298.13a33.63,33.63,0,0,0,33.63,33.63V264.5A33.63,33.63,0,0,0,707.62,298.13Z"/><path class="cls-4" d="M708.34,407.6V493h32.91V374.69A32.91,32.91,0,0,0,708.34,407.6Z"/><circle class="cls-6" cx="726.36" cy="397.8" r="7.3"/><rect class="cls-8" x="697.28" y="465.13" width="87.95" height="27.87"/><rect class="cls-4" x="697.28" y="465.13" width="43.98" height="27.87"/><path class="cls-4" d="M641.25,274.32l-41.62-24-41.62,24v5.86a17.74,17.74,0,0,1,11.95.51l29.68-17.14L629.76,281v17.62h11.49Z"/><circle class="cls-11" cx="635.04" cy="298.35" r="21.1"/><circle class="cls-8" cx="635.03" cy="298.35" r="10.21"/><path class="cls-4" d="M610.58,298.35a19.83,19.83,0,0,0,19.83,19.83V278.52A19.83,19.83,0,0,0,610.58,298.35Z"/><path class="cls-8" d="M199.1,247.12l39.13-22.59V219a16.68,16.68,0,0,1-11.23-.48l-27.9,16.11-28.33-16.36V185.58l28.33-16.35L227,185.33a16.64,16.64,0,0,1,11.22-.47v-5.51L199.1,156.75,160,179.34v45.18Z"/><rect class="cls-9" x="35.5" y="185.01" width="124.62" height="12.25" transform="translate(195.63 382.27) rotate(180)"/><rect class="cls-10" x="35.5" y="207.06" width="124.62" height="12.25" transform="translate(195.63 426.36) rotate(180)"/><rect class="cls-8" x="-58.71" y="103.83" width="205.33" height="12.25" transform="translate(153.91 66) rotate(90)"/><rect class="cls-10" x="-36.67" y="103.83" width="205.33" height="12.25" transform="translate(175.95 43.96) rotate(90)"/><circle class="cls-11" cx="54.98" cy="202.16" r="33.63"/><circle class="cls-12" cx="54.98" cy="202.16" r="16.82"/><path class="cls-11" d="M55,125.6h0A32.91,32.91,0,0,0,87.89,92.69V7.29H22.06v85.4A32.91,32.91,0,0,0,55,125.6Z"/><path class="cls-4" d="M88.61,202.16A33.63,33.63,0,0,0,55,168.53v67.26A33.63,33.63,0,0,0,88.61,202.16Z"/><path class="cls-4" d="M87.89,92.69V7.29H55V125.6A32.91,32.91,0,0,0,87.89,92.69Z"/><circle class="cls-6" cx="69.87" cy="102.49" r="7.3"/><rect class="cls-8" x="11" y="7.29" width="87.95" height="27.87" transform="translate(109.95 42.45) rotate(180)"/><rect class="cls-4" x="54.97" y="7.29" width="43.98" height="27.87" transform="translate(153.92 42.45) rotate(180)"/><path class="cls-4" d="M155,226l41.62,24,41.62-24V220.1a17.74,17.74,0,0,1-11.95-.51l-29.68,17.14-30.13-17.4V201.72H155Z"/><circle class="cls-11" cx="161.2" cy="201.94" r="21.1"/><circle class="cls-8" cx="161.2" cy="201.94" r="10.21"/><path class="cls-4" d="M185.65,201.94a19.83,19.83,0,0,0-19.83-19.83v39.67A19.83,19.83,0,0,0,185.65,201.94Z"/></g></g></g></svg>