<svg xmlns="http://www.w3.org/2000/svg" viewBox="0 0 236.03 305.47"><defs><style>.cls-1,.cls-2{fill:none;}.cls-1{stroke:#d3246c;stroke-width:4px;}.cls-1,.cls-2,.cls-3{stroke-miterlimit:10;}.cls-2,.cls-3{stroke:#006687;}.cls-3{fill:#fff;}</style></defs><title>intro-roboto_2</title><g id="レイヤー_2" data-name="レイヤー 2"><g id="レイヤー_1-2" data-name="レイヤー 1"><ellipse class="cls-1" cx="139.06" cy="125.98" rx="11.5" ry="11.99"/><rect class="cls-2" x="39.78" y="101.68" width="33.41" height="14.77"/><rect class="cls-2" x="30.05" y="97.2" width="20.15" height="108.34"/><path class="cls-2" d="M53.56,194.57H26.68c-4.15,0-7.51,2.29-7.51,5.12V217.6c0,2.83,3.36,5.12,7.51,5.12h6.64v-9.47c0-2.82,1.09-5.12,2.44-5.12h8.73c1.34,0,2.43,2.29,2.43,5.12v9.47h6.65c4.15,0,7.5-2.29,7.5-5.12V199.69C61.07,196.86,57.71,194.57,53.56,194.57Z"/><circle class="cls-2" cx="40.12" cy="109.06" r="5.37"/><circle class="cls-2" cx="40.12" cy="131.62" r="5.37"/><circle class="cls-2" cx="40.12" cy="154.17" r="5.37"/><circle class="cls-2" cx="40.12" cy="176.72" r="5.37"/><rect class="cls-2" x="162.84" y="101.68" width="33.41" height="14.77"/><rect class="cls-2" x="185.84" y="97.2" width="20.15" height="108.34"/><path class="cls-2" d="M182.47,194.57h26.89c4.15,0,7.5,2.29,7.5,5.12V217.6c0,2.83-3.36,5.12-7.5,5.12h-6.64v-9.47c0-2.82-1.09-5.12-2.44-5.12h-8.73c-1.35,0-2.43,2.29-2.43,5.12v9.47h-6.64c-4.15,0-7.51-2.29-7.51-5.12V199.69C175,196.86,178.33,194.57,182.47,194.57Z"/><circle class="cls-2" cx="195.91" cy="109.06" r="5.37"/><circle class="cls-2" cx="195.91" cy="131.62" r="5.37"/><circle class="cls-2" cx="195.91" cy="154.17" r="5.37"/><circle class="cls-2" cx="195.91" cy="176.72" r="5.37"/><rect class="cls-2" x="134.88" y="205.99" width="21.83" height="80.14"/><path class="cls-2" d="M167.41,305c.28-7.91-.31-15.42-3-18.8-5.83-7.21-30.54-6.56-37.1,0-3.11,3.11-3.76,10.73-3.41,18.8Z"/><circle class="cls-2" cx="145.8" cy="221.63" r="6.27"/><circle class="cls-2" cx="145.8" cy="244.49" r="6.27"/><circle class="cls-2" cx="145.8" cy="267.35" r="6.27"/><rect class="cls-2" x="79.32" y="205.99" width="21.83" height="80.14"/><path class="cls-2" d="M68.62,305c-.28-7.91.31-15.42,3-18.8,5.83-7.21,30.55-6.56,37.11,0,3.11,3.11,3.76,10.73,3.41,18.8Z"/><circle class="cls-2" cx="90.23" cy="221.63" r="6.27"/><circle class="cls-2" cx="90.23" cy="244.49" r="6.27"/><circle class="cls-2" cx="90.23" cy="267.35" r="6.27"/><rect class="cls-2" x="102.35" y="68.1" width="31.34" height="31.34"/><rect class="cls-2" x="159.65" y="22.66" width="62.45" height="1.93"/><circle class="cls-2" cx="194.24" cy="23.62" r="13.77"/><circle class="cls-2" cx="227.14" cy="22.95" r="8.39"/><rect class="cls-2" x="13.93" y="22.66" width="62.45" height="1.93"/><circle class="cls-2" cx="41.8" cy="23.62" r="13.77"/><circle class="cls-2" cx="8.89" cy="22.95" r="8.39"/><rect class="cls-2" x="68.32" y="0.5" width="99.39" height="77.23" rx="14.77" ry="14.77"/><rect class="cls-2" x="64.23" y="89.59" width="107.57" height="120.88" rx="14.77" ry="14.77"/><path class="cls-2" d="M124.41,116.11l-3.81-.47L119.34,120l-1.26,4.36,3.35,1.58a17.76,17.76,0,0,0,1.95,8.15l-2.19,2.9,3.14,3.27,3.14,3.27,3-2.07a17.78,17.78,0,0,0,8.06,2.28l1.44,3.41,4.4-1.08,4.4-1.08-.31-3.82a17.9,17.9,0,0,0,5.77-5.67l3.93.49,1.26-4.36,1.26-4.36L157,125.51a17.75,17.75,0,0,0-1.9-7.56l2.51-3.32-3.14-3.27-3.14-3.27-3.41,2.37a17.77,17.77,0,0,0-7.48-2.21l-1.6-3.78-4.41,1.08-4.4,1.08.33,3.95a17.85,17.85,0,0,0-5.9,5.53Zm5.38.07a13.58,13.58,0,1,1-.39,19.2A13.58,13.58,0,0,1,129.79,116.18Z"/><path class="cls-3" d="M129.31,121.8a10,10,0,0,0-.44,1.23l-1.62.1-.15,1.85-.15,1.85,1.58.37a10.48,10.48,0,0,0,.23,1.28l-1.35.9.79,1.68.8,1.67,1.55-.47a10.93,10.93,0,0,0,.85,1l-.72,1.46,1.53,1.06,1.52,1.05,1.11-1.18a10.91,10.91,0,0,0,1.23.44l.11,1.62,1.85.15,1.85.15.37-1.59a10.17,10.17,0,0,0,1.28-.23l.9,1.35,1.68-.79,1.67-.79-.47-1.55a10.66,10.66,0,0,0,1-.85l1.46.72,1.05-1.52,1.05-1.53-1.18-1.11a10.77,10.77,0,0,0,.44-1.23l1.62-.11.15-1.85.15-1.85-1.59-.37a10.38,10.38,0,0,0-.23-1.28l1.35-.9-.79-1.67-.79-1.68-1.55.48a10.15,10.15,0,0,0-.85-1l.72-1.45-1.52-1.05-1.53-1.05-1.11,1.19a10.22,10.22,0,0,0-1.23-.44l-.11-1.62-1.85-.15-1.85-.15-.37,1.58a10.51,10.51,0,0,0-1.28.23l-.9-1.35-1.67.79-1.68.79.47,1.55a9.87,9.87,0,0,0-1,.84l-1.46-.72-1.05,1.52-1.05,1.52Zm3.78.07a7.16,7.16,0,1,1,1.82,10A7.16,7.16,0,0,1,133.1,121.88Z"/><path class="cls-2" d="M87.29,147.95l-4.11-2L80,150.32l-3.16,4.42L80,157.85a21.24,21.24,0,0,0-1,10l-3.62,2.41,2.25,4.94,2.25,4.94L84,179a21.28,21.28,0,0,0,8.2,5.78l.27,4.42,5.41.52,5.4.52,1.16-4.44a21.33,21.33,0,0,0,8.76-4.11l4.25,2.11,3.16-4.42,3.16-4.42-3.49-3.45a21.18,21.18,0,0,0,.85-9.29l4.15-2.75-2.25-4.94-2.25-4.94-4.8,1.32a21.28,21.28,0,0,0-7.56-5.47l-.3-4.9-5.41-.53-5.4-.52L96.15,144a21.24,21.24,0,0,0-4.89,1.55A21.46,21.46,0,0,0,87.29,147.95Zm6.06,2.22a16.25,16.25,0,1,1-8.07,21.53A16.25,16.25,0,0,1,93.34,150.16Z"/><path class="cls-2" d="M90.57,156.32a12.07,12.07,0,0,0-1,1.21L87.72,157l-.9,2-.9,2,1.64,1a13.14,13.14,0,0,0-.24,1.54l-1.88.48.23,2.2.23,2.21,1.94.08a12.2,12.2,0,0,0,.56,1.46L87,171.44l1.3,1.8L89.6,175l1.72-.9a13.68,13.68,0,0,0,1.21,1L92,177l2,.9,2,.91,1-1.64a12.2,12.2,0,0,0,1.54.24l.48,1.88,2.21-.23,2.21-.23.08-1.94a12.28,12.28,0,0,0,1.46-.56l1.36,1.39,1.8-1.3L110,175.1l-.9-1.72a12.8,12.8,0,0,0,1-1.21l1.87.52.91-2,.9-2-1.64-1a13.12,13.12,0,0,0,.24-1.54l1.88-.48-.23-2.21-.23-2.21-1.94-.08a12.76,12.76,0,0,0-.56-1.46l1.39-1.36-1.3-1.8-1.3-1.8-1.72.9a12.53,12.53,0,0,0-1.21-1l.52-1.87-2-.9-2-.9-1,1.64a12.88,12.88,0,0,0-1.54-.25l-.48-1.88-2.21.23-2.21.23-.08,1.94a12.18,12.18,0,0,0-1.46.56L93.26,152l-1.79,1.3-1.8,1.31Zm4.25,1.59a8.57,8.57,0,1,1-1.9,12A8.57,8.57,0,0,1,94.81,157.91Z"/><circle class="cls-2" cx="143.2" cy="23.62" r="10.7"/><circle class="cls-2" cx="143.2" cy="23.62" r="7.58"/><circle class="cls-2" cx="92.83" cy="23.62" r="10.7"/><circle class="cls-2" cx="92.83" cy="23.62" r="7.58"/><rect class="cls-2" x="99.86" y="46.57" width="36.31" height="7.04"/></g></g></svg>