<svg xmlns="http://www.w3.org/2000/svg" viewBox="0 0 401.6 113.33"><defs><style>.cls-1{fill:#d3246c;}.cls-2{fill:#aa1b5c;}.cls-3{fill:#009480;}.cls-4{fill:#00556a;}.cls-5{fill:#eceff1;}.cls-6{fill:#607d8b;}.cls-7{fill:#b0bec5;}.cls-8{fill:#cfd8dc;}</style></defs><title>logo-white</title><g id="レイヤー_2" data-name="レイヤー 2"><g id="レイヤー_1-2" data-name="レイヤー 1"><path class="cls-1" d="M245.86,12A21.65,21.65,0,1,0,222,42.82V12Z"/><path class="cls-2" d="M248.11,21.65A21.56,21.56,0,0,0,245.86,12H222V42.82a21.65,21.65,0,0,0,26.14-21.17Z"/><polygon class="cls-3" points="257 94.77 257 112.58 257.37 112.58 257.37 94.24 257 94.77"/><polygon class="cls-3" points="267.86 79.02 289.41 79.02 289.43 78.99 267.87 78.99 267.86 79.02"/><polygon class="cls-4" points="346.17 78.99 346.15 79.02 367.71 79.02 367.73 78.99 346.17 78.99"/><rect class="cls-5" x="290.93" y="90.32" width="32.37" height="22.26"/><polygon class="cls-6" points="290.55 90.31 281.62 90.31 289.41 79.02 267.86 79.02 257.37 94.24 257.37 112.58 290.55 112.58 290.93 112.58 290.93 90.31 290.55 90.31"/><polygon class="cls-7" points="290.88 45.6 290.56 46.06 290.55 46.09 267.87 78.99 289.43 78.99 290.55 77.37 290.56 77.34 312.44 45.6 290.88 45.6"/><polygon class="cls-5" points="290.56 12.03 290.56 34.3 298.67 34.3 291 45.43 290.88 45.6 312.44 45.6 312.56 45.43 323.3 29.84 323.3 12.03 290.56 12.03"/><rect class="cls-4" x="257" y="12.03" width="33.53"/><rect class="cls-8" x="257.05" y="12.03" width="33.53" height="22.26"/><rect class="cls-4" x="290.53" y="12.03" width="0.04"/><rect class="cls-5" x="368.83" y="90.32" width="32.77" height="22.26"/><polygon class="cls-6" points="368.44 90.31 359.92 90.31 367.71 79.02 346.15 79.02 335.3 94.77 335.3 112.58 368.44 112.58 368.82 112.58 368.82 90.31 368.44 90.31"/><polygon class="cls-7" points="369.18 45.6 368.46 46.65 368.44 46.68 346.17 78.99 367.73 78.99 368.44 77.96 368.46 77.93 390.74 45.6 369.18 45.6"/><polygon class="cls-5" points="368.46 12.03 368.46 34.3 376.97 34.3 369.3 45.43 369.18 45.6 390.74 45.6 390.86 45.43 401.6 29.84 401.6 12.03 368.46 12.03"/><rect class="cls-8" x="335.35" y="12.03" width="33.12" height="22.26"/><rect class="cls-4" x="368.42" y="12.03" width="0.04"/><rect class="cls-6" y="79.01" width="33.56" height="33.57"/><rect class="cls-5" x="33.18" y="79.01" width="33.56" height="33.57"/><rect class="cls-7" x="33.18" y="45.43" width="33.56" height="33.56"/><rect class="cls-8" x="66.7" y="45.43" width="33.56" height="33.56"/><rect class="cls-5" x="66.7" y="12.03" width="33.56" height="33.56"/><path class="cls-6" d="M66.7,79v33.57H92.37a7.9,7.9,0,0,0,7.9-7.9V79Z"/><rect class="cls-5" x="203.06" y="82.29" width="18.91" height="31.04"/><rect class="cls-8" x="203.06" y="51.25" width="18.91" height="31.04"/><rect class="cls-8" x="145.74" y="51.23" width="32.77" height="22.12"/><rect class="cls-5" x="117.2" y="79.85" width="28.54" height="32.71"/><rect class="cls-7" x="117.2" y="42.73" width="28.54" height="37.12"/><polygon class="cls-6" points="117.2 12.02 117.2 42.73 145.74 42.73 145.74 34.28 145.74 12.02 117.2 12.02"/><rect class="cls-5" x="178.51" y="12.02" width="16.57" height="22.26"/><rect class="cls-7" x="145.74" y="12.02" width="32.77" height="22.26"/></g></g></svg>