<svg xmlns="http://www.w3.org/2000/svg" viewBox="0 0 290.54 81.99"><defs><style>.cls-1{fill:#d82b7a;}.cls-2{fill:#b7256e;}.cls-3{fill:#009480;}.cls-4{fill:#00556a;}.cls-5{fill:#ebeff1;}.cls-6{fill:#517e8c;}.cls-7{fill:#abbfc5;}.cls-8{fill:#fed11c;}</style></defs><title>logo_white_1</title><g id="レイヤー_2" data-name="レイヤー 2"><g id="レイヤー_1-2" data-name="レイヤー 1"><path class="cls-1" d="M177.88,8.7A15.66,15.66,0,1,0,160.59,31V8.7Z"/><path class="cls-2" d="M179.5,15.66a15.6,15.6,0,0,0-1.63-7H160.59V31A15.66,15.66,0,0,0,179.5,15.66Z"/><polygon class="cls-3" points="185.93 68.56 185.93 81.45 186.2 81.45 186.2 68.18 185.93 68.56"/><polygon class="cls-3" points="193.79 57.16 209.38 57.16 209.39 57.15 193.8 57.15 193.79 57.16"/><polygon class="cls-4" points="250.45 57.15 250.44 57.16 266.03 57.16 266.04 57.15 250.45 57.15"/><rect class="cls-5" x="210.48" y="65.34" width="23.42" height="16.11"/><polygon class="cls-6" points="210.2 65.34 203.75 65.34 209.38 57.16 193.79 57.16 186.2 68.18 186.2 81.45 210.2 81.45 210.48 81.45 210.48 65.34 210.2 65.34"/><polygon class="cls-7" points="210.45 32.99 210.22 33.32 210.2 33.34 193.8 57.15 209.39 57.15 210.2 55.98 210.22 55.95 226.04 32.99 210.45 32.99"/><polygon class="cls-5" points="210.22 8.71 210.22 24.81 216.08 24.81 210.53 32.87 210.45 32.99 226.04 32.99 226.13 32.87 233.9 21.59 233.9 8.71 210.22 8.71"/><rect class="cls-4" x="185.93" y="8.7" width="24.26"/><rect class="cls-7" x="185.97" y="8.71" width="24.26" height="16.11"/><rect class="cls-4" x="210.19" y="8.7" width="0.03"/><rect class="cls-5" x="266.84" y="65.34" width="23.71" height="16.11"/><polygon class="cls-6" points="266.56 65.34 260.4 65.34 266.03 57.16 250.44 57.16 242.58 68.56 242.58 81.45 266.56 81.45 266.84 81.45 266.84 65.34 266.56 65.34"/><polygon class="cls-7" points="267.1 32.99 266.57 33.75 266.56 33.77 250.45 57.15 266.04 57.15 266.56 56.4 266.57 56.38 282.69 32.99 267.1 32.99"/><polygon class="cls-5" points="266.57 8.71 266.57 24.81 272.73 24.81 267.18 32.87 267.1 32.99 282.69 32.99 282.77 32.87 290.55 21.59 290.55 8.71 266.57 8.71"/><rect class="cls-7" x="242.62" y="8.71" width="23.96" height="16.11"/><rect class="cls-4" x="266.54" y="8.7" width="0.03"/><rect class="cls-6" y="57.17" width="24.28" height="24.28"/><rect class="cls-5" x="24" y="57.17" width="24.28" height="24.28"/><rect class="cls-7" x="24" y="32.87" width="24.28" height="24.28"/><rect class="cls-6" x="48.26" y="32.87" width="24.28" height="24.28"/><rect class="cls-5" x="48.26" y="8.7" width="24.28" height="24.28"/><path class="cls-7" d="M48.26,57.17V81.45H66.83a5.72,5.72,0,0,0,5.72-5.72V57.17Z"/><rect class="cls-5" x="146.91" y="59.53" width="13.68" height="22.46"/><rect class="cls-7" x="146.91" y="37.07" width="13.68" height="22.46"/><rect class="cls-7" x="105.44" y="37.07" width="23.71" height="16"/><rect class="cls-6" x="84.79" y="57.77" width="20.65" height="23.67"/><rect class="cls-5" x="84.79" y="30.92" width="20.65" height="26.86"/><polygon class="cls-7" points="84.79 8.7 84.79 30.92 105.44 30.92 105.44 24.8 105.44 8.7 84.79 8.7"/><rect class="cls-8" x="129.15" y="8.7" width="11.99" height="16.11"/><rect class="cls-5" x="105.44" y="8.7" width="23.71" height="16.11"/></g></g></svg>