<svg xmlns="http://www.w3.org/2000/svg" viewBox="0 0 287.92 81.25"><defs><style>.cls-1{fill:#d82b7a;}.cls-2{fill:#b7256e;}.cls-3{fill:#009480;}.cls-4{fill:#00556a;}.cls-5{fill:#2e7e9e;}.cls-6{fill:#2ea0af;}.cls-7{fill:#006687;}.cls-8{fill:#00838f;}.cls-9{fill:#006e77;}.cls-10{fill:#fed11c;}</style></defs><title>logo_3</title><g id="レイヤー_2" data-name="レイヤー 2"><g id="レイヤー_1-2" data-name="レイヤー 1"><path class="cls-1" d="M176.27,8.63A15.52,15.52,0,1,0,159.14,30.7V8.63Z"/><path class="cls-2" d="M177.88,15.52a15.46,15.46,0,0,0-1.61-6.89H159.14V30.7a15.52,15.52,0,0,0,18.74-15.18Z"/><polygon class="cls-3" points="184.25 67.94 184.25 80.71 184.52 80.71 184.52 67.56 184.25 67.94"/><polygon class="cls-3" points="192.04 56.65 207.49 56.65 207.5 56.63 192.05 56.63 192.04 56.65"/><polygon class="cls-4" points="248.19 56.63 248.17 56.65 263.63 56.65 263.64 56.63 248.19 56.63"/><rect class="cls-5" x="208.58" y="64.75" width="23.2" height="15.96"/><polygon class="cls-6" points="208.3 64.75 201.91 64.75 207.49 56.65 192.04 56.65 184.52 67.56 184.52 80.71 208.3 80.71 208.58 80.71 208.58 64.75 208.3 64.75"/><polygon class="cls-7" points="208.55 32.69 208.32 33.02 208.3 33.04 192.05 56.63 207.5 56.63 208.3 55.47 208.32 55.45 224 32.69 208.55 32.69"/><polygon class="cls-4" points="208.32 8.63 208.32 24.59 214.13 24.59 208.63 32.57 208.55 32.69 224 32.69 224.09 32.57 231.78 21.4 231.78 8.63 208.32 8.63"/><rect class="cls-4" x="184.25" y="8.63" width="24.04"/><rect class="cls-8" x="184.25" y="8.63" width="24.04" height="15.96"/><rect class="cls-4" x="208.29" y="8.63" width="0.03"/><rect class="cls-4" x="208.29" y="8.63" width="0.03" height="15.96"/><rect class="cls-5" x="264.43" y="64.75" width="23.49" height="15.96"/><polygon class="cls-6" points="264.15 64.75 258.05 64.75 263.63 56.65 248.17 56.65 240.39 67.94 240.39 80.71 264.15 80.71 264.43 80.71 264.43 64.75 264.15 64.75"/><polygon class="cls-7" points="264.68 32.69 264.16 33.44 264.15 33.47 248.19 56.63 263.64 56.63 264.15 55.89 264.16 55.87 280.14 32.69 264.68 32.69"/><polygon class="cls-4" points="264.16 8.63 264.16 24.59 270.27 24.59 264.77 32.57 264.68 32.69 280.14 32.69 280.22 32.57 287.92 21.4 287.92 8.63 264.16 8.63"/><rect class="cls-8" x="240.39" y="8.63" width="23.75" height="15.96"/><rect class="cls-4" x="264.14" y="8.63" width="0.03"/><rect class="cls-4" x="264.14" y="8.63" width="0.03" height="15.96"/><rect class="cls-9" y="56.65" width="24.06" height="24.06"/><rect class="cls-5" x="23.79" y="56.65" width="24.06" height="24.06"/><rect class="cls-7" x="23.79" y="32.57" width="24.06" height="24.06"/><rect class="cls-8" x="47.82" y="32.57" width="24.06" height="24.06"/><rect class="cls-4" x="47.82" y="8.63" width="24.06" height="24.06"/><path class="cls-6" d="M47.82,56.65V80.71h18.4A5.66,5.66,0,0,0,71.89,75V56.65Z"/><rect class="cls-9" x="145.58" y="59" width="13.56" height="22.25"/><rect class="cls-8" x="145.58" y="36.74" width="13.56" height="22.26"/><rect class="cls-8" x="104.49" y="36.73" width="23.5" height="15.86"/><rect class="cls-9" x="84.03" y="57.25" width="20.46" height="23.45"/><rect class="cls-7" x="84.03" y="30.64" width="20.46" height="26.61"/><polygon class="cls-4" points="84.03 8.62 84.03 30.64 104.49 30.64 104.49 24.58 104.49 8.62 84.03 8.62"/><rect class="cls-10" x="127.98" y="8.62" width="11.88" height="15.96"/><rect class="cls-9" x="104.49" y="8.62" width="23.5" height="15.96"/></g></g></svg>